<svg xmlns="http://www.w3.org/2000/svg" xmlns:xlink="http://www.w3.org/1999/xlink" viewBox="0 0 508.22 571.31"><defs><clipPath id="clip-path"><path d="M242.91,279.44c-2.1-2.34-4.66-4.3-6.36-6.95-2.18-3.4-2.69-7.57-3.15-11.58-.39-3.43-.78-7,.11-10.3a15.88,15.88,0,0,1,8.27-9.78A21.42,21.42,0,0,1,254.63,239a18.24,18.24,0,0,1,9.23,3.89A16.84,16.84,0,0,1,269.32,254a27.55,27.55,0,0,1-2,12.44c-.7,1.84-1.54,3.62-2.37,5.41l-5.89,12.6a10.41,10.41,0,0,1-2.05,3.26c-1.57,1.47-3.86,1.81-6,2.08a8.7,8.7,0,0,1-3,0c-2.84-.62-1.59-2.49-1.94-4.55A12.24,12.24,0,0,0,242.91,279.44Z" style="fill:#e6b46f"/></clipPath></defs><title>3c4</title><g id="Layer_2" data-name="Layer 2"><g id="RealizePotential"><g id="RealizePotentiel"><g id="MoneyBackground"><path d="M4.12,371.83C-11.06,429.76,17.8,494.6,56.54,529.11c74.88,66.68,220,49.79,297.94-18.84,73.65-64.83,55.45-147.73,129.23-175.22A110.7,110.7,0,0,1,508.22,329V170.39C330.37,159,41,231.15,4.12,371.83Z" style="fill:#254776"/></g><g id="Money"><rect x="248.82" y="292.86" width="13.99" height="22.83" style="fill:#254776"/><rect x="212.84" y="315.69" width="85.96" height="8.47" rx="4.23" style="fill:#254776"/><rect x="186.8" y="214.35" width="138.03" height="92.51" rx="12" style="fill:#a4c233"/><rect x="196.17" y="220.62" width="119.75" height="76.27" style="fill:#fff;stroke:#2a6ac2;stroke-miterlimit:10;stroke-width:1.479079246521px"/><line x1="215.5" y1="230.81" x2="215.5" y2="286.29" style="fill:none;stroke:#254776;stroke-miterlimit:10;stroke-width:0.528419521007249px"/><line x1="240.34" y1="286.29" x2="240.34" y2="230.81" style="fill:none;stroke:#254776;stroke-miterlimit:10;stroke-width:0.528419521007249px"/><line x1="264.12" y1="230.81" x2="264.12" y2="286.29" style="fill:none;stroke:#254776;stroke-miterlimit:10;stroke-width:0.528419521007249px"/><line x1="288.43" y1="230.81" x2="288.43" y2="286.29" style="fill:none;stroke:#254776;stroke-miterlimit:10;stroke-width:0.528419521007249px"/><line x1="264.38" y1="273.88" x2="288.43" y2="251.61" style="fill:none;stroke:#254776;stroke-miterlimit:10;stroke-width:2.113678084029px"/><polygon points="280.76 247.46 291.86 260.14 297.14 244.28 280.76 247.46" style="fill:#254776;stroke:#254776;stroke-miterlimit:10;stroke-width:0.528419521007249px"/><polyline points="196.17 278.01 215.5 267.8 240.34 256.7 264.12 273.61" style="fill:none;stroke:#254776;stroke-miterlimit:10;stroke-width:2.113678084029px"/><circle cx="215.5" cy="267.8" r="6.34" style="fill:#2a6ac2"/><circle cx="240.34" cy="256.7" r="6.34" style="fill:#2a6ac2"/><circle cx="264.12" cy="273.61" r="6.34" style="fill:#2a6ac2"/><rect x="380.75" y="335.68" width="69.68" height="22.66" style="fill:none;stroke:#2a6ac2;stroke-miterlimit:10"/><rect x="380.75" y="364.34" width="69.68" height="94.17" style="fill:none;stroke:#2a6ac2;stroke-miterlimit:10"/><path d="M450.43,325.18H93.66v141h6V335.68H374.75v130.5h6v-1.67h69.68v1.67h6v-141Zm0,133.33H380.75V364.34h69.68Zm0-100.17H380.75V335.68h69.68Z" style="fill:#a4c233"/><path d="M242.91,279.44c-2.1-2.34-4.66-4.3-6.36-6.95-2.18-3.4-2.69-7.57-3.15-11.58-.39-3.43-.78-7,.11-10.3a15.88,15.88,0,0,1,8.27-9.78A21.42,21.42,0,0,1,254.63,239a18.24,18.24,0,0,1,9.23,3.89A16.84,16.84,0,0,1,269.32,254a27.55,27.55,0,0,1-2,12.44c-.7,1.84-1.54,3.62-2.37,5.41l-5.89,12.6a10.41,10.41,0,0,1-2.05,3.26c-1.57,1.47-3.86,1.81-6,2.08a8.7,8.7,0,0,1-3,0c-2.84-.62-1.59-2.49-1.94-4.55A12.24,12.24,0,0,0,242.91,279.44Z" style="fill:#e6b46f"/><g style="clip-path:url(#clip-path)"><path d="M232.88,255.73a44.64,44.64,0,0,0,3.5,15.14,8.52,8.52,0,0,0,2.58,3.74,3.3,3.3,0,0,0,4.2-.12c-.06.94,1,1.62,2,1.52a4.75,4.75,0,0,0,2.42-1.36,5.13,5.13,0,0,1,2.39-1.42l1.3,2.59,3.12-1.63.71,1.75,2.57-2.06a3.11,3.11,0,0,0,3.82-2.08,1.94,1.94,0,0,0,2.69.09c.78-.63,7.11,1.78,7.46.84,1.37-3.67,4-9.94,4.6-13.82s-6.92-8.8-8.75-12.26a17.25,17.25,0,0,0-8.21-7.36,31.33,31.33,0,0,0-10.9-2.45c-3.57-.24-7.28-.09-10.5,1.47a17.36,17.36,0,0,0-7.76,8.47A51.63,51.63,0,0,0,226.76,258a29.51,29.51,0,0,0-.93,7,9.91,9.91,0,0,0,2.42,6.52c2.57,2.7,6.69,3,10.41,3.2" style="fill:#42210b"/></g><path d="M225.74,453.15l2.16,18a7.76,7.76,0,0,0,1,3.59,3.84,3.84,0,0,0,6.79-1c.14-7.5-2.35-15.32-2.21-22.82-3.51-.11-4.4.11-7.92,0l1.36,6" style="fill:#a4c233"/><path d="M245,290.88V287H259.8l-.14,5.62a109,109,0,0,1-12.48,1.24c-.82,0-1.84-.09-2.13-.86a2.91,2.91,0,0,1,0-1.28C245.1,291.31,245.39,290.88,245,290.88Z" style="fill:#a4c233"/><path d="M154.93,208c-1.09-1.69-2.36-3.27-3.36-5a11,11,0,0,1-1.68-5.72,2.81,2.81,0,0,1,1.52-2.71,3.4,3.4,0,0,1,2.47.51,2,2,0,0,1,1.87-1.78,3.84,3.84,0,0,1,1.72.56l.92.46a7.9,7.9,0,0,1,1.09.63,6.12,6.12,0,0,1,2.2,5.14,29.52,29.52,0,0,1-1,5.71,10.24,10.24,0,0,0,0,5.73,14.31,14.31,0,0,1,.67,1.75c.54,2.39-2.55,2.8-3.46,1-.39-.77-.51-1.69-.87-2.49A29.82,29.82,0,0,0,154.93,208Z" style="fill:#e5b36f"/><path d="M342.56,211.84c-.29-1.85-.89-3.65-1.08-5.52a6.78,6.78,0,0,1,1.39-5.27,2,2,0,0,1,1.46-.75c.56,0,1.1.59.92,1.13a2.35,2.35,0,0,1,3,.81,6.57,6.57,0,0,1,1.86,6.68,12.85,12.85,0,0,1-2.16,3.76l-3.32,4.51a7.19,7.19,0,0,1-2.58,2.56C341.85,217.05,343,214.55,342.56,211.84Z" style="fill:#e5b36f"/><path d="M222.57,459c4.1,1.35,9.29,2.44,12.16-.79,1.77-2,1.89-4.91,1.91-7.58q.2-21.78.38-43.57l33.06,2.16-7.79,64.2,14.11,3.18,11.52-73.93c.67-4.27,1.23-9-1.28-12.55-3.19-4.47-9.62-4.73-15.11-4.55l-39.59,1.3c-4.62.15-13.65.46-16.16,5.37-2.36,4.61.92,14.85,1.49,19.87l2.65,23.45C220.19,438,221.05,458.48,222.57,459Z" style="fill:#833e36"/><path d="M264.65,487.17c2.93,4.75,5.88.5,8.83.75a51.45,51.45,0,0,1,1.41-15c-.19.78-4.58-2.24-5-2.38-1.79-.63-3.15-.29-3.54,1.62-.48,2.31-.1,5-.36,7.39A56.17,56.17,0,0,1,264.65,487.17Z" style="fill:#a4c233"/><path d="M226.48,474.73a30.9,30.9,0,0,0,.27,17.08,12.1,12.1,0,0,0,2.43,4.71,5.51,5.51,0,0,0,4.78,1.87,5.73,5.73,0,0,0,3.93-3.35,17,17,0,0,0,1.2-5.2c.51-4.18,1-8.47,0-12.55-.81-3.17-2.86-6.52-5.89-8C229.52,467.51,227.28,471.77,226.48,474.73Z" style="fill:#603835"/><path d="M260.79,495.33a4,4,0,0,0-.57,3.21c.6,1.48,2.53,1.76,4.12,1.82l8.81.33a3.42,3.42,0,0,0,2.13-.4c.84-.62.91-1.83.86-2.86a19.32,19.32,0,0,0-1.17-6.31c-1-2.57-3.91-6.49-7.05-4.75S262.35,492.32,260.79,495.33Z" style="fill:#603835"/><path d="M156.48,212.37a156.24,156.24,0,0,0,41.28,79.19c6.46,6.63,13.87,13.27,15.86,22.32,1.48,6.73-.33,13.71-2.13,20.37L201.08,372.8c-2.47,9.11-4.72,19.84,5.63,26A24.22,24.22,0,0,0,217.08,402a202.65,202.65,0,0,0,75.45-8c3.7-1.11,7-.19,10.85-.26L291,335.36c-1.6-7.53-3.18-15.47-.91-22.83,3.37-10.91,14.05-17.5,22.75-24.92a92.44,92.44,0,0,0,31.95-70.85l-3-.54a251.14,251.14,0,0,1-26.3,48.41c-7,10-15.34,20-26.93,23.94-7.46,2.51-15.54,2.23-23.42,1.93-16.15-.64-23.8-1.66-39.9-2.3l-.1-.07c-.43-.24-7.16-.2-6.53-.5-16.26-3.22-29.58-15.48-38-29.76S168,227.28,163.87,211.22C159.89,211.4,160.46,212.18,156.48,212.37Z" style="fill:#38430e"/><path d="M213,499c0,3.1-1.69,5.08-3.76,5.08s-3.76-2-3.76-5.08,1.68-4.55,3.76-4.55S213,495.93,213,499Z"/><path d="M256,499c0,3.1-1.68,5.08-3.76,5.08s-3.76-2-3.76-5.08,1.68-4.55,3.76-4.55S256,495.93,256,499Z"/><path d="M299.27,499c0,3.1-1.68,5.08-3.76,5.08s-3.76-2-3.76-5.08,1.69-4.55,3.76-4.55S299.27,495.93,299.27,499Z"/><path d="M289.53,326c-.36,0-.73,0-1.09,0l-41.76-.49c-7-.09-13.93-.22-20.89-.26-4.8,0-10.88-.24-14.26,3.83-2.8,3.36-2.38,8.29-1.44,12.56,3.53,16.17,11,30.71,10.73,47.62a153.32,153.32,0,0,1-1.14,15.88,4.81,4.81,0,0,1-.83,2.55c-1.44,1.75-4.27.79-6.47,1.36-3.47.91-4.49,5.28-4.79,8.86-.27,3.21-.26,6.95,2.24,9,1.71,1.39,4.1,1.52,6.31,1.57,25.85.62,51.7.12,77.55.14a2.84,2.84,0,0,0,1.48-.27,2.67,2.67,0,0,0,.95-1.64,31.66,31.66,0,0,0,1-11.9c-.2-1.84-.75-3.93-2.43-4.7-1.45-.67-3.21-.07-4.74-.57a4.73,4.73,0,0,1-2.85-3.61,16.78,16.78,0,0,1,0-4.8c.56-7.46-.44-14.94-.75-22.41a57,57,0,0,1,3.31-22c2.65-7.63,5.26-16,4.88-24.18-.11-2.31-.71-5-2.78-6A5.39,5.39,0,0,0,289.53,326Z" style="fill:#2a6ac2"/><rect x="247.78" y="428.2" width="8.87" height="22"/><rect x="245.51" y="450.2" width="13.75" height="27.33"/><path d="M244.62,477.63q-9.8-.11-19.58.14c-4.28.1-8.82.34-12.35,2.76-4.6,3.16-6.17,9-7.17,14.61a2.13,2.13,0,0,0,1.32,2.39,7.76,7.76,0,0,0,5.69-.14c.1-1-.55-3.46-1.48-3-1.22-4.77.07-9.37,4.64-11.21,5-2,10.73-1.24,16.14-1.43h53.68a21.61,21.61,0,0,1,6.13,5.2c1.59,2.06,2.3,5,1,7.3a5,5,0,0,0-.94,2.06,2.25,2.25,0,0,0,1.38,2,9.49,9.49,0,0,0,3.26.49,2.92,2.92,0,0,0,2.06-.5c1.27-1,.83-2.09.41-3.08l-3-6.86a23.56,23.56,0,0,0-4-7c-2.49-2.66-6.25-3.71-9.9-3.71Z"/><rect x="250.77" y="480.11" width="3.21" height="14.36"/><rect x="250.77" y="492.69" width="3.21" height="6.78" transform="translate(748.46 243.7) rotate(90)"/><rect x="398.13" y="388.31" width="34.92" height="70.2" style="fill:#2a6ac2"/><rect x="412.85" y="376.89" width="5.49" height="34.92" transform="translate(21.24 809.94) rotate(-90)" style="fill:#254776"/><rect x="412.85" y="430.39" width="5.49" height="34.92" transform="translate(-32.26 863.45) rotate(-90)" style="fill:#254776"/><rect x="414.22" y="383.56" width="2.75" height="34.92" transform="translate(14.57 816.62) rotate(-90)" style="fill:#254776"/><rect x="414.22" y="439.68" width="2.75" height="34.92" transform="translate(-41.54 872.73) rotate(-90)" style="fill:#254776"/><circle cx="415.59" cy="423.41" r="2.43" style="fill:#a4c233"/><rect x="375.37" y="266.76" width="11.12" height="58.43" style="fill:#2a6ac2"/><rect x="389.56" y="275.78" width="8.05" height="49.4" style="fill:#833e36"/><rect x="400.13" y="266.76" width="8.69" height="58.43" style="fill:#2a6ac2"/><rect x="411.25" y="295.97" width="8.69" height="29.21" style="fill:#38430e"/><path d="M155.88,129.11l-4.13-13.42a9.76,9.76,0,0,1-12.21-6.45l-38.94,12a9.76,9.76,0,0,1-6.46,12.2l4.14,13.42a9.76,9.76,0,0,1,12.2,6.45l39-12A9.76,9.76,0,0,1,155.88,129.11Zm-28,11.49a9.76,9.76,0,1,1,6.45-12.2A9.76,9.76,0,0,1,127.89,140.6Z" style="fill:#a4c233"/><path d="M122.14,122a9.76,9.76,0,1,0,12.2,6.45A9.77,9.77,0,0,0,122.14,122Z" style="fill:#38430e"/><path d="M151.75,115.69l-2.88-9.33-9.33,2.88A9.76,9.76,0,0,0,151.75,115.69Z" style="fill:#38430e"/><path d="M155.88,129.11a9.76,9.76,0,0,0-6.45,12.2l9.32-2.87Z" style="fill:#38430e"/><path d="M98.28,146.86l2.87,9.32,9.33-2.87A9.76,9.76,0,0,0,98.28,146.86Z" style="fill:#38430e"/><path d="M100.6,121.24l-9.33,2.87,2.87,9.33A9.76,9.76,0,0,0,100.6,121.24Z" style="fill:#38430e"/><path d="M125.78,136.33a7.47,7.47,0,0,1-1.39.25,3.75,3.75,0,0,1-1,0l.06-1.68a3,3,0,0,0,.75.07,5.09,5.09,0,0,0,1.09-.13l-.83-2.7c-.31,0-.63-.1-1-.16a3.53,3.53,0,0,1-.89-.33,2.51,2.51,0,0,1-.75-.6,3,3,0,0,1-.52-1,2.64,2.64,0,0,1,.06-2,3,3,0,0,1,1.39-1.32l-.37-1.22,1.38-.42.36,1.16a5.13,5.13,0,0,1,1.08-.16,8.61,8.61,0,0,1,.89,0l0,1.62-.64,0a5.48,5.48,0,0,0-.84.09l.77,2.5c.32,0,.64.1,1,.16a3.53,3.53,0,0,1,.91.33,2.56,2.56,0,0,1,.77.59,2.44,2.44,0,0,1,.52,1,2.92,2.92,0,0,1,0,2.11,3.06,3.06,0,0,1-1.42,1.4l.38,1.24-1.39.43Zm-2.73-7a.85.85,0,0,0,.52.57,3.67,3.67,0,0,0,.93.26l-.67-2.17a1.21,1.21,0,0,0-.77.57A1.13,1.13,0,0,0,123.05,129.32Zm3.87,3.71a.88.88,0,0,0-.55-.58,4.39,4.39,0,0,0-1-.24l.73,2.34a1.39,1.39,0,0,0,.75-.64A1.15,1.15,0,0,0,126.92,133Z" style="fill:#a4c233"/><path d="M216.7,54l-1.8-12.3a8.64,8.64,0,0,1-9.8-7.3l-35.7,5.24a8.64,8.64,0,0,1-7.29,9.8l1.8,12.3a8.64,8.64,0,0,1,9.8,7.3l35.7-5.24A8.63,8.63,0,0,1,216.7,54Zm-26,6.27a8.64,8.64,0,1,1,7.29-9.8A8.65,8.65,0,0,1,190.66,60.31Z" style="fill:#a4c233"/><path d="M188.15,43.21a8.64,8.64,0,1,0,9.8,7.3A8.64,8.64,0,0,0,188.15,43.21Z" style="fill:#38430e"/><path d="M214.9,41.74l-1.26-8.55-8.54,1.25A8.64,8.64,0,0,0,214.9,41.74Z" style="fill:#38430e"/><path d="M216.7,54a8.63,8.63,0,0,0-7.29,9.8L218,62.59Z" style="fill:#38430e"/><path d="M163.91,61.78l1.25,8.55,8.55-1.25A8.64,8.64,0,0,0,163.91,61.78Z" style="fill:#38430e"/><path d="M169.4,39.68l-8.55,1.25,1.26,8.55A8.64,8.64,0,0,0,169.4,39.68Z" style="fill:#38430e"/><path d="M189.39,56.29a6.62,6.62,0,0,1-1.24,0,3.16,3.16,0,0,1-.86-.17l.27-1.46a2.56,2.56,0,0,0,.65.16,3.79,3.79,0,0,0,1,0l-.36-2.47-.81-.27a3.3,3.3,0,0,1-.74-.4,2.36,2.36,0,0,1-.57-.64,2.48,2.48,0,0,1-.32-.94,2.26,2.26,0,0,1,.32-1.71,2.65,2.65,0,0,1,1.4-1l-.17-1.12,1.27-.18.16,1.06a5,5,0,0,1,1,0,5.72,5.72,0,0,1,.78.14l-.24,1.41a4.26,4.26,0,0,0-.56-.11,4.17,4.17,0,0,0-.74,0l.34,2.3.82.27a3.26,3.26,0,0,1,.76.41,2.23,2.23,0,0,1,.92,1.53,2.6,2.6,0,0,1-.32,1.84,2.7,2.7,0,0,1-1.43,1l.16,1.13-1.27.19ZM188,49.79a.79.79,0,0,0,.37.57,3.89,3.89,0,0,0,.79.35l-.3-2a1,1,0,0,0-.74.4A.94.94,0,0,0,188,49.79Zm2.88,3.77a.78.78,0,0,0-.4-.59,3.89,3.89,0,0,0-.82-.34l.32,2.15a1.33,1.33,0,0,0,.75-.46A1,1,0,0,0,190.83,53.56Z" style="fill:#a4c233"/><path d="M245.25,158.46l-1.8-12.3a8.63,8.63,0,0,1-9.8-7.29L198,144.1a8.65,8.65,0,0,1-7.29,9.81l1.8,12.29a8.64,8.64,0,0,1,9.8,7.3l35.7-5.24A8.64,8.64,0,0,1,245.25,158.46Zm-26,6.27a8.64,8.64,0,1,1,7.29-9.8A8.63,8.63,0,0,1,219.21,164.73Z" style="fill:#a4c233"/><path d="M216.7,147.64a8.64,8.64,0,1,0,9.8,7.29A8.63,8.63,0,0,0,216.7,147.64Z" style="fill:#38430e"/><path d="M243.45,146.16l-1.25-8.55-8.55,1.26A8.63,8.63,0,0,0,243.45,146.16Z" style="fill:#38430e"/><path d="M245.25,158.46a8.64,8.64,0,0,0-7.29,9.8l8.55-1.25Z" style="fill:#38430e"/><path d="M192.46,166.2l1.26,8.55,8.54-1.25A8.64,8.64,0,0,0,192.46,166.2Z" style="fill:#38430e"/><path d="M198,144.1l-8.55,1.26,1.26,8.55A8.65,8.65,0,0,0,198,144.1Z" style="fill:#38430e"/><path d="M217.94,160.71a6.62,6.62,0,0,1-1.24,0,3.22,3.22,0,0,1-.86-.16l.27-1.47a3.16,3.16,0,0,0,.65.17,5,5,0,0,0,1,0l-.36-2.48-.81-.27a2.88,2.88,0,0,1-.73-.4,2.33,2.33,0,0,1-.58-.63,2.53,2.53,0,0,1-.32-.95,2.31,2.31,0,0,1,.32-1.71,2.71,2.71,0,0,1,1.4-1l-.17-1.11,1.27-.19.16,1.06a6,6,0,0,1,1,0,4.5,4.5,0,0,1,.78.15l-.24,1.41a3,3,0,0,0-.55-.12,4.35,4.35,0,0,0-.75,0l.34,2.29c.27.08.54.17.82.28a3.23,3.23,0,0,1,.76.4,2.49,2.49,0,0,1,.59.62,2.38,2.38,0,0,1,.33.92,2.56,2.56,0,0,1-.31,1.83,2.71,2.71,0,0,1-1.44,1l.16,1.14-1.26.18Zm-1.44-6.5a.8.8,0,0,0,.38.57,3.15,3.15,0,0,0,.78.35l-.29-2a1.08,1.08,0,0,0-.75.4A.94.94,0,0,0,216.5,154.21Zm2.88,3.77a.77.77,0,0,0-.4-.59,4.22,4.22,0,0,0-.82-.34l.32,2.15a1.23,1.23,0,0,0,.75-.46A1,1,0,0,0,219.38,158Z" style="fill:#a4c233"/><path d="M293,114.19l4.3-11.66a8.64,8.64,0,0,1-5.13-11.09L258.31,79a8.64,8.64,0,0,1-11.1,5.12l-4.29,11.67A8.63,8.63,0,0,1,248,106.85l33.86,12.47A8.64,8.64,0,0,1,293,114.19Zm-25.87-6.94a8.64,8.64,0,1,1,11.09-5.12A8.65,8.65,0,0,1,267.12,107.25Z" style="fill:#a4c233"/><path d="M273.09,91a8.64,8.64,0,1,0,5.12,11.09A8.64,8.64,0,0,0,273.09,91Z" style="fill:#38430e"/><path d="M297.29,102.53l3-8.11-8.11-3A8.64,8.64,0,0,0,297.29,102.53Z" style="fill:#38430e"/><path d="M293,114.19a8.64,8.64,0,0,0-11.09,5.13l8.11,3Z" style="fill:#38430e"/><path d="M242.92,95.76l-3,8.11,8.11,3A8.63,8.63,0,0,0,242.92,95.76Z" style="fill:#38430e"/><path d="M258.31,79l-8.11-3-3,8.1A8.64,8.64,0,0,0,258.31,79Z" style="fill:#38430e"/><path d="M267.92,103.11a5.92,5.92,0,0,1-1.1-.56,3.55,3.55,0,0,1-.68-.56l.94-1.16a2.57,2.57,0,0,0,.5.46,4.79,4.79,0,0,0,.83.49l.87-2.35c-.2-.19-.39-.4-.58-.62a3,3,0,0,1-.46-.71,2.47,2.47,0,0,1-.2-.83,2.6,2.6,0,0,1,.17-1,2.31,2.31,0,0,1,1.1-1.35,2.71,2.71,0,0,1,1.69-.19l.39-1,1.2.44-.37,1a5.22,5.22,0,0,1,1.46,1l-.89,1.12a3.61,3.61,0,0,0-.43-.37,4.33,4.33,0,0,0-.63-.39l-.8,2.18c.2.2.4.41.59.63a3.56,3.56,0,0,1,.47.72,2.27,2.27,0,0,1,.22.82,2.16,2.16,0,0,1-.15,1,2.5,2.5,0,0,1-1.15,1.46,2.7,2.7,0,0,1-1.76.23l-.39,1.07-1.21-.44Zm1.85-6.4a.77.77,0,0,0,.06.69,3.54,3.54,0,0,0,.51.68l.7-1.89a1.08,1.08,0,0,0-.85,0A1,1,0,0,0,269.77,96.71Zm.73,4.7a.78.78,0,0,0-.08-.71,3.65,3.65,0,0,0-.55-.7l-.75,2a1.23,1.23,0,0,0,.88,0A1,1,0,0,0,270.5,101.41Z" style="fill:#a4c233"/><path d="M310.33,38.21l4.3-11.67a8.65,8.65,0,0,1-5.13-11.09L275.65,3a8.64,8.64,0,0,1-11.09,5.12l-4.3,11.66a8.64,8.64,0,0,1,5.12,11.1l33.86,12.46A8.63,8.63,0,0,1,310.33,38.21Zm-25.87-6.94a8.64,8.64,0,1,1,11.09-5.13A8.64,8.64,0,0,1,284.46,31.27Z" style="fill:#a4c233"/><path d="M290.43,15.05a8.64,8.64,0,1,0,5.12,11.09A8.63,8.63,0,0,0,290.43,15.05Z" style="fill:#38430e"/><path d="M314.63,26.54l3-8.1-8.11-3A8.65,8.65,0,0,0,314.63,26.54Z" style="fill:#38430e"/><path d="M310.33,38.21a8.63,8.63,0,0,0-11.09,5.12l8.11,3Z" style="fill:#38430e"/><path d="M260.26,19.77l-3,8.11,8.1,3A8.64,8.64,0,0,0,260.26,19.77Z" style="fill:#38430e"/><path d="M275.65,3l-8.11-3-3,8.11A8.64,8.64,0,0,0,275.65,3Z" style="fill:#38430e"/><path d="M285.27,27.13a6.33,6.33,0,0,1-1.11-.57,3.55,3.55,0,0,1-.68-.56l.94-1.15a3.4,3.4,0,0,0,.5.45,4.54,4.54,0,0,0,.84.5l.86-2.35c-.2-.2-.39-.41-.58-.62a3.19,3.19,0,0,1-.46-.71,2.47,2.47,0,0,1-.2-.83,2.41,2.41,0,0,1,.18-1A2.26,2.26,0,0,1,286.65,19a2.78,2.78,0,0,1,1.69-.18l.39-1.05,1.2.44-.37,1a4.44,4.44,0,0,1,.85.46,6.27,6.27,0,0,1,.61.5l-.88,1.13a4.45,4.45,0,0,0-.43-.37,3.5,3.5,0,0,0-.64-.39l-.8,2.17c.2.2.4.41.59.63a3.18,3.18,0,0,1,.47.72,2.56,2.56,0,0,1,.23.83,2.43,2.43,0,0,1-.15,1,2.61,2.61,0,0,1-1.16,1.47,2.7,2.7,0,0,1-1.76.22l-.39,1.08-1.2-.44Zm1.84-6.4a.75.75,0,0,0,.06.68,3,3,0,0,0,.52.68l.69-1.89a1,1,0,0,0-.85,0A1,1,0,0,0,287.11,20.73Zm.73,4.69a.78.78,0,0,0-.07-.71,3.77,3.77,0,0,0-.56-.69l-.75,2a1.35,1.35,0,0,0,.88,0A1,1,0,0,0,287.84,25.42Z" style="fill:#a4c233"/><path d="M429.29,212.46l9.44-8.09a8.64,8.64,0,0,1,.94-12.19l-23.48-27.39a8.65,8.65,0,0,1-12.19-.93l-9.43,8.08a8.66,8.66,0,0,1-.94,12.19l23.48,27.39A8.63,8.63,0,0,1,429.29,212.46Zm-19.2-18.68a8.64,8.64,0,1,1,12.18.94A8.63,8.63,0,0,1,410.09,193.78Z" style="fill:#a4c233"/><path d="M423.21,182.53a8.64,8.64,0,1,0-.94,12.19A8.64,8.64,0,0,0,423.21,182.53Z" style="fill:#38430e"/><path d="M438.73,204.37l6.56-5.63-5.62-6.56A8.64,8.64,0,0,0,438.73,204.37Z" style="fill:#38430e"/><path d="M429.29,212.46a8.63,8.63,0,0,0-12.18-.94l5.62,6.56Z" style="fill:#38430e"/><path d="M394.57,171.94,388,177.57l5.62,6.56A8.66,8.66,0,0,0,394.57,171.94Z" style="fill:#38430e"/><path d="M416.19,164.79l-5.63-6.56L404,163.86A8.65,8.65,0,0,0,416.19,164.79Z" style="fill:#38430e"/><path d="M412.81,190.56a6.66,6.66,0,0,1-.69-1,3.34,3.34,0,0,1-.32-.81l1.39-.55a2.6,2.6,0,0,0,.21.64,4.84,4.84,0,0,0,.49.84l1.9-1.63a7.72,7.72,0,0,1-.2-.83,3,3,0,0,1-.06-.84,2.25,2.25,0,0,1,.23-.82,2.46,2.46,0,0,1,.63-.78,2.29,2.29,0,0,1,1.62-.64,2.68,2.68,0,0,1,1.56.66l.86-.73.83,1-.81.69a5.48,5.48,0,0,1,.5.82,6.38,6.38,0,0,1,.3.74l-1.32.55a5.38,5.38,0,0,0-.2-.53,4.3,4.3,0,0,0-.36-.65l-1.76,1.51c.08.27.14.54.2.83a3.65,3.65,0,0,1,.07.86,2.48,2.48,0,0,1-.21.83,2.22,2.22,0,0,1-.6.77,2.6,2.6,0,0,1-1.72.72,2.74,2.74,0,0,1-1.65-.67l-.87.75-.83-1Zm4.73-4.69a.77.77,0,0,0-.28.62,3.41,3.41,0,0,0,.12.85l1.53-1.31a1.1,1.1,0,0,0-.74-.42A1,1,0,0,0,417.54,185.87Zm-1.65,4.45a.76.76,0,0,0,.28-.65,4.32,4.32,0,0,0-.14-.88l-1.65,1.42a1.23,1.23,0,0,0,.78.39A1,1,0,0,0,415.89,190.32Z" style="fill:#a4c233"/><path d="M391.07,122.23l8.68-8.89a8.64,8.64,0,0,1-.14-12.22L373.8,75.91a8.64,8.64,0,0,1-12.22.15L352.9,85A8.65,8.65,0,0,1,353,97.17l25.81,25.2A8.65,8.65,0,0,1,391.07,122.23Zm-20.78-16.91a8.64,8.64,0,1,1,12.22-.14A8.63,8.63,0,0,1,370.29,105.32Z" style="fill:#a4c233"/><path d="M382.36,93a8.64,8.64,0,1,0,.15,12.22A8.64,8.64,0,0,0,382.36,93Z" style="fill:#38430e"/><path d="M399.75,113.34l6-6.18-6.18-6A8.64,8.64,0,0,0,399.75,113.34Z" style="fill:#38430e"/><path d="M391.07,122.23a8.65,8.65,0,0,0-12.22.14l6.18,6Z" style="fill:#38430e"/><path d="M352.9,85l-6,6.18,6.18,6A8.65,8.65,0,0,0,352.9,85Z" style="fill:#38430e"/><path d="M373.8,75.91l-6.18-6-6,6.18A8.64,8.64,0,0,0,373.8,75.91Z" style="fill:#38430e"/><path d="M372.71,101.88a6.63,6.63,0,0,1-.77-1,3,3,0,0,1-.39-.79l1.33-.67a2.67,2.67,0,0,0,.26.62,4.41,4.41,0,0,0,.57.79l1.75-1.79a7.58,7.58,0,0,1-.28-.8,3.49,3.49,0,0,1-.13-.83,2.28,2.28,0,0,1,.16-.84,2.3,2.3,0,0,1,.56-.83,2.27,2.27,0,0,1,1.55-.79,2.74,2.74,0,0,1,1.62.53l.78-.81.92.9-.75.77a5.7,5.7,0,0,1,.58.76,7.93,7.93,0,0,1,.36.71l-1.27.67c-.06-.15-.14-.32-.24-.52a4.8,4.8,0,0,0-.42-.61L377.28,99c.1.26.19.53.28.82a3.51,3.51,0,0,1,.14.85,2.47,2.47,0,0,1-.14.84,2.16,2.16,0,0,1-.53.82,2.52,2.52,0,0,1-1.65.86,2.68,2.68,0,0,1-1.7-.51l-.8.82-.92-.89Zm4.3-5.09a.76.76,0,0,0-.22.64,3.14,3.14,0,0,0,.19.84l1.41-1.44a1,1,0,0,0-.77-.35A.93.93,0,0,0,377,96.79Zm-1.25,4.58a.77.77,0,0,0,.22-.68,3.51,3.51,0,0,0-.22-.86l-1.52,1.56a1.3,1.3,0,0,0,.82.32A1,1,0,0,0,375.76,101.37Z" style="fill:#a4c233"/><path d="M367.82,174.91l5-11.37a8.63,8.63,0,0,1-4.42-11.39l-33-14.56A8.63,8.63,0,0,1,324,142l-5,11.37a8.63,8.63,0,0,1,4.42,11.39l33,14.56A8.65,8.65,0,0,1,367.82,174.91Zm-25.39-8.54a8.64,8.64,0,1,1,11.4-4.42A8.66,8.66,0,0,1,342.43,166.37Z" style="fill:#a4c233"/><path d="M349.41,150.56A8.64,8.64,0,1,0,353.83,162,8.65,8.65,0,0,0,349.41,150.56Z" style="fill:#38430e"/><path d="M372.84,163.54l3.48-7.91-7.9-3.48A8.63,8.63,0,0,0,372.84,163.54Z" style="fill:#38430e"/><path d="M367.82,174.91a8.65,8.65,0,0,0-11.39,4.42l7.91,3.49Z" style="fill:#38430e"/><path d="M319,153.38l-3.48,7.91,7.9,3.48A8.63,8.63,0,0,0,319,153.38Z" style="fill:#38430e"/><path d="M335.41,137.59l-7.91-3.49L324,142A8.63,8.63,0,0,0,335.41,137.59Z" style="fill:#38430e"/><path d="M343.5,162.29a6.87,6.87,0,0,1-1.07-.64,3.46,3.46,0,0,1-.64-.6l1-1.09a3.23,3.23,0,0,0,.46.49,5.16,5.16,0,0,0,.81.54l1-2.29q-.29-.31-.54-.66a3.1,3.1,0,0,1-.41-.73,2.32,2.32,0,0,1-.15-.84,2.44,2.44,0,0,1,.23-1,2.27,2.27,0,0,1,1.18-1.28,2.63,2.63,0,0,1,1.7-.08l.46-1,1.17.52-.43,1a4.94,4.94,0,0,1,.81.52,5,5,0,0,1,.58.54l-.95,1.06a5.41,5.41,0,0,0-.41-.39,3.83,3.83,0,0,0-.61-.43l-.93,2.12c.18.21.37.43.55.67a2.88,2.88,0,0,1,.42.74,2.42,2.42,0,0,1,.17.84,2.16,2.16,0,0,1-.21.95,2.5,2.5,0,0,1-1.24,1.39,2.77,2.77,0,0,1-1.77.12l-.46,1-1.18-.52Zm2.24-6.28a.8.8,0,0,0,0,.69,3.17,3.17,0,0,0,.48.71l.81-1.84a1.06,1.06,0,0,0-.84-.06A.94.94,0,0,0,345.74,156Zm.43,4.73a.75.75,0,0,0,0-.71,3.19,3.19,0,0,0-.51-.72l-.87,2a1.27,1.27,0,0,0,.88,0A1,1,0,0,0,346.17,160.74Z" style="fill:#a4c233"/><path d="M119.5,212.78,112.17,202a9.07,9.07,0,0,1-12.6-2.41L68.24,220.84a9.08,9.08,0,0,1-2.41,12.6l7.33,10.8a9,9,0,0,1,12.59,2.41l31.34-21.28A9,9,0,0,1,119.5,212.78ZM97.76,230.61a9.07,9.07,0,1,1,2.41-12.6A9.06,9.06,0,0,1,97.76,230.61Z" style="fill:#a4c233"/><path d="M87.57,215.6a9.07,9.07,0,1,0,12.6,2.41A9.06,9.06,0,0,0,87.57,215.6Z" style="fill:#38430e"/><path d="M112.17,202l-5.09-7.5-7.51,5.09A9.07,9.07,0,0,0,112.17,202Z" style="fill:#38430e"/><path d="M119.5,212.78a9,9,0,0,0-2.41,12.59l7.5-5.09Z" style="fill:#38430e"/><path d="M73.16,244.24l5.09,7.5,7.5-5.09A9,9,0,0,0,73.16,244.24Z" style="fill:#38430e"/><path d="M68.24,220.84l-7.51,5.1,5.1,7.5A9.08,9.08,0,0,0,68.24,220.84Z" style="fill:#38430e"/><path d="M94.72,227.39a6.81,6.81,0,0,1-1.16.6,3.32,3.32,0,0,1-.89.24l-.41-1.51a3.35,3.35,0,0,0,.69-.14,5.21,5.21,0,0,0,.93-.42L92.41,224a8.65,8.65,0,0,1-.89.11,3.23,3.23,0,0,1-.88,0,2.39,2.39,0,0,1-.83-.34,2.6,2.6,0,0,1-.74-.74,2.48,2.48,0,0,1-.48-1.77,2.86,2.86,0,0,1,.88-1.55l-.66-1,1.11-.75.63.93a4.88,4.88,0,0,1,.91-.43,5.46,5.46,0,0,1,.81-.22l.42,1.44a3.21,3.21,0,0,0-.58.14,4.25,4.25,0,0,0-.72.3l1.37,2a8,8,0,0,1,.89-.12,3,3,0,0,1,.91,0,2.45,2.45,0,0,1,.84.31,2.49,2.49,0,0,1,.73.72,2.69,2.69,0,0,1,.54,1.87,2.84,2.84,0,0,1-.88,1.64l.68,1-1.12.76Zm-4.34-5.48a.86.86,0,0,0,.62.37,3.47,3.47,0,0,0,.9,0l-1.19-1.75a1.1,1.1,0,0,0-.52.72A1.05,1.05,0,0,0,90.38,221.91Zm4.45,2.24a.83.83,0,0,0-.65-.37,4.22,4.22,0,0,0-.92.05l1.28,1.89A1.39,1.39,0,0,0,95,225,1.1,1.1,0,0,0,94.83,224.15Z" style="fill:#a4c233"/></g></g></g></g></svg>