<svg xmlns="http://www.w3.org/2000/svg" viewBox="0 0 346.728 164.9"><defs><style>.cls-1{fill:#fff;}.cls-2{fill:#5796b6;}.cls-10,.cls-3,.cls-7,.cls-8,.cls-9{fill:#094679;}.cls-4{fill:#f3f7f9;}.cls-5{fill:#245384;}.cls-6{fill:none;stroke:#245384;stroke-width:2.103px;}.cls-10,.cls-6,.cls-7,.cls-8,.cls-9{stroke-miterlimit:10;}.cls-10,.cls-7,.cls-8,.cls-9{stroke:#fff;}.cls-7{stroke-width:0.365px;}.cls-8{stroke-width:0.259px;}.cls-9{stroke-width:0.053px;}.cls-10{stroke-width:0.297px;}.cls-11{fill:#86a3b7;}.cls-12{fill:#86a2b6;}.cls-13{fill:#488dc6;}.cls-14{fill:#4a8ec7;}.cls-15{fill:#fdfdfd;}.cls-16{fill:#fdfefe;}.cls-17{fill:#fbfcfd;}.cls-18{fill:#5695b6;}.cls-19{fill:#f8fafb;}.cls-20{fill:#87a3b7;}.cls-21{fill:#87a4b7;}.cls-22{fill:#498dc7;}.cls-23{fill:#498ec7;}.cls-24{fill:#4b8fc7;}.cls-25{fill:#245c8d;}.cls-26{fill:#255d8d;}.cls-27{fill:#265e8e;}</style></defs><title>amrLogo</title><g id="Layer_2" data-name="Layer 2"><g id="Layer_3" data-name="Layer 3"><rect class="cls-1" width="346.728" height="164.9"/><path class="cls-2" d="M332.206,73.549l-.762-2.486c-.274.917-.5,1.688-.742,2.486Z"/><rect class="cls-3" x="21.207" y="86.342" width="57.578" height="1.827"/><path class="cls-4" d="M332.206,73.549h-1.5c.238-.8.468-1.569.742-2.486Z"/><rect class="cls-3" x="59.737" y="70.49" width="22.749" height="15.116"/><rect class="cls-3" x="83.035" y="70.501" width="6.507" height="15.117"/><ellipse class="cls-1" cx="72.912" cy="65.86" rx="17.537" ry="17.747"/><circle class="cls-5" cx="72.912" cy="65.65" r="17.537"/><circle class="cls-1" cx="68.177" cy="65.029" r="14.038"/><circle class="cls-6" cx="67.572" cy="64.835" r="12.481"/><rect class="cls-7" x="35.688" y="70.676" width="36.311" height="1.644"/><rect class="cls-8" x="35.759" y="72.473" width="18.361" height="1.644"/><rect class="cls-8" x="35.817" y="74.338" width="18.361" height="1.644"/><rect class="cls-8" x="35.817" y="76.283" width="18.361" height="1.644"/><rect class="cls-8" x="35.817" y="78.192" width="18.361" height="1.644"/><rect class="cls-8" x="35.817" y="80.176" width="18.361" height="1.644"/><rect class="cls-8" x="35.817" y="82.248" width="18.361" height="1.644"/><rect class="cls-3" x="50.289" y="64.068" width="14.441" height="6.446" rx="1.729"/><circle class="cls-3" cx="68.667" cy="67.122" r="3.518"/><path class="cls-9" d="M46.92,69.02l-9.752,1.512a1.85,1.85,0,0,1-2.112-1.545h0A1.851,1.851,0,0,1,36.6,66.875l9.367-1.436a2.214,2.214,0,0,1,2.5,1.469h0A1.851,1.851,0,0,1,46.92,69.02Z"/><path class="cls-3" d="M52.955,69.18l-1.536.453-7.91-.453,2.5-3.718,3.815-.159,3.321-.187v3.868A.193.193,0,0,1,52.955,69.18Z"/><path class="cls-10" d="M56.087,67.144h6.061a1.275,1.275,0,0,1,1.275,1.275v.661a.806.806,0,0,1-.806.806H55.763a1.3,1.3,0,0,1-.86-.325l-5.263-4.64s-.518-.37.223-1.037.593-.889,1.556-.519S56.087,67.144,56.087,67.144Z"/><rect class="cls-3" x="32.611" y="83.822" width="39.389" height="1.804"/><path class="cls-11" d="M172.009,63.394h-9.642c-.791,0-.974.192-1.015,1.1h.593c3.294,0,6.588.006,9.882-.007.361,0,.546.082.6.467a12.555,12.555,0,0,0,.3,1.243h-11.2c-.872,0-1,.124-1.079,1.105h.593c3.809,0,7.619.007,11.428-.009.405,0,.6.094.666.518.085.532.251,1.052.4,1.647H160.6c-1.034,0-1.034,0-1.23,1.131h.594c4.442,0,8.883.005,13.325-.009.4,0,.616.081.671.509.047.373.162.738.263,1.178h-.63c-4.658,0-9.316.012-13.974-.016a.87.87,0,0,0-1,.712c-1.334,4-2.706,7.99-4.067,11.982-.332.975-.679,1.945-.992,2.925a.5.5,0,0,1-.566.408q-6.537-.015-13.075,0a.481.481,0,0,1-.553-.356q-2.528-7.086-5.075-14.164c-.037-.1-.054-.218-.092-.375h.577c3.726,0,7.452-.006,11.179.009.388,0,.53-.117.629-.5q3.123-12.021,6.269-24.038a.578.578,0,0,1,.672-.526q7.161.025,14.323,0a.486.486,0,0,1,.571.444q1.761,7.154,3.54,14.3C171.973,63.162,171.982,63.242,172.009,63.394Z"/><path class="cls-3" d="M124.4,72.3c-.2.008-.4.023-.6.023H108.449c-.891,2.095-1.8,4.23-2.707,6.365-1.277,3.01-2.559,6.017-3.822,9.032a.628.628,0,0,1-.692.455c-3.825-.016-7.65-.01-11.475-.01h-.5c.053-.176.085-.314.135-.445q7.279-19.438,14.555-38.877a.574.574,0,0,1,.641-.446q6.287.021,12.574,0c.369,0,.5.114.6.466q2,7.116,4.035,14.223c.023.079.058.154.088.231l.009.272H107.223a3.118,3.118,0,0,1,.173.5c.079.533.377.657.9.642,1.394-.04,2.791-.015,4.187-.013l9.82.015.391,1.645H107.735c.22,1.115.22,1.115,1.249,1.115l14.113.01.487,2.055H108.137c.235,1.123.235,1.122,1.254,1.123l14.6.012Z"/><path class="cls-11" d="M123.584,69.557,123.1,67.5l-.407-1.125-.391-1.645-.4-1.141-.009-.272c.268-1.074.552-2.145.8-3.223q1.319-5.672,2.613-11.349c.074-.322.227-.409.547-.408q6.987.015,13.974,0c.289,0,.454.061.53.371q1.776,7.227,3.567,14.45a1.493,1.493,0,0,1,.012.24h-6.7c-1.011,0-1.011,0-1.194,1.1h1.347c2.129,0,4.259.009,6.388-.008.369,0,.542.1.6.474s.175.773.286,1.238H144.1c-2.628,0-5.257.024-7.885-.018-.6-.01-.9.171-1,.733a4.211,4.211,0,0,1-.136.443h.584c2.928,0,5.856.007,8.783-.007.376,0,.573.08.639.488.085.519.245,1.026.394,1.623H135.415c-1.043,0-1.043,0-1.278,1.107h.534c3.527,0,7.054.006,10.581-.008.386,0,.57.1.625.5a12.271,12.271,0,0,0,.293,1.213c-.214,0-.376,0-.538,0q-5.34-.01-10.68-.021c-1.249,0-1.233,0-1.593,1.187q-2.13,7.031-4.28,14.054a2.916,2.916,0,0,1-.161.357,2.618,2.618,0,0,1-.21-.429q-1.428-5.012-2.844-10.028c-.368-1.3-.714-2.614-1.07-3.922l-.4-1.176-.4-1.609Z"/><path class="cls-3" d="M124.794,73.477c.356,1.308.7,2.618,1.07,3.922q1.413,5.017,2.844,10.028a2.618,2.618,0,0,0,.21.429c-.09.072-.179.205-.269.206-5.137.008-10.274,0-15.412.012-.334,0-.485-.074-.577-.424q-1.827-6.954-3.688-13.9c-.021-.078-.028-.16-.046-.262.131-.011.244-.029.357-.029q7.606,0,15.213,0C124.6,73.457,124.694,73.47,124.794,73.477Z"/><path class="cls-12" d="M176.7,88.061l-11.677.016a9.33,9.33,0,0,0-1.1.008c-.5.061-.714-.115-.852-.616-1.254-4.527-2.538-9.045-3.812-13.566-.044-.157-.069-.319-.112-.525h.523q7.163,0,14.324-.007c.369,0,.545.071.642.477.6,2.485,1.228,4.961,1.852,7.439.048.19.131.371.2.556Z"/><path class="cls-13" d="M176.8,63.583V48.448c.22-.011.38-.026.541-.026q5.49.015,10.979.033c3.26.016,6.523-.027,9.78.083a15.642,15.642,0,0,1,11.3,4.8,16.818,16.818,0,0,1,4.493,9.444,18.054,18.054,0,0,1-2.292,11.767,27.614,27.614,0,0,1-1.863,2.51l7.429,10.98c-.2.02-.336.044-.471.044-5.024,0-10.048,0-15.072.011a.822.822,0,0,1-.752-.444q-4.262-6.182-8.534-12.353c-.108-.156-.218-.309-.412-.583-.065,4.537-.128,8.917-.191,13.333H176.7V73.385a2.673,2.673,0,0,1,.3-.037q7.26-.024,14.518-.042c1.478,0,2.956.055,4.433.047a4.978,4.978,0,0,0,4.982-3.8,4.928,4.928,0,0,0-4.638-5.962c-6.3-.018-12.6-.005-18.906-.005Z"/><path class="cls-13" d="M176.75,69.382V67.507h15.082v1.875Z"/><path class="cls-14" d="M191.854,64.73c0,.466.019.9-.013,1.322-.008.107-.163.232-.28.293-.092.048-.228.01-.344.01H176.768V64.73Z"/><path class="cls-13" d="M191.846,72.165H176.763V70.608h15.083Z"/><path class="cls-15" d="M123.584,69.557,124,70.692l-14.6-.012c-1.019,0-1.019,0-1.254-1.123Z"/><path class="cls-16" d="M122.69,66.377,123.1,67.5l-14.113-.01c-1.029,0-1.029,0-1.249-1.115Z"/><path class="cls-17" d="M121.9,63.591l.4,1.141-9.82-.015c-1.4,0-2.793-.027-4.187.013-.519.015-.817-.109-.9-.642a3.118,3.118,0,0,0-.173-.5Z"/><path class="cls-17" d="M236.4,83.007V81.6c.454,0,.912-.032,1.364.01a.561.561,0,0,1,.528.614.577.577,0,0,1-.5.644C237.349,82.942,236.891,82.961,236.4,83.007Z"/><path class="cls-18" d="M255.011,69.421V70.84c.444-.036.866-.063,1.287-.107a.62.62,0,0,0,.632-.685c-.019-.452-.328-.62-.743-.626C255.823,69.416,255.459,69.421,255.011,69.421Z"/><path class="cls-19" d="M255.011,69.421c.448,0,.812-.005,1.176,0,.415.006.724.174.743.626a.62.62,0,0,1-.632.685c-.421.044-.843.071-1.287.107Z"/><path class="cls-20" d="M251.976,64.9c-.374,1.347-.733,2.606-1.066,3.871-.085.321-.2.468-.568.443-.543-.037-1.09-.01-1.664-.01l-1.547-6.955c.652,0,1.257-.015,1.859.016.09.005.216.22.243.354.223,1.1.426,2.2.71,3.32.189-.663.38-1.325.566-1.989.116-.415.239-.829.33-1.25a.5.5,0,0,1,.57-.467c1.6-.014,1.595-.025,2.01,1.518a19.468,19.468,0,0,0,.685,2.17c.209-1.1.407-2.2.638-3.3.03-.143.214-.351.339-.36.56-.039,1.124-.017,1.75-.017-.517,2.347-1.021,4.636-1.534,6.961-.647,0-1.26.017-1.87-.016-.114-.006-.275-.2-.315-.333-.338-1.145-.652-2.3-.975-3.447C252.1,65.264,252.048,65.124,251.976,64.9Z"/><path class="cls-20" d="M222.494,66.314c.3-1.171.619-2.337.887-3.515.1-.44.285-.6.738-.57.613.04,1.231-.008,1.845.024.138.007.383.188.384.291.022,2.193.017,4.385.017,6.618h-1.752V64.308l-.108-.015c-.237.922-.476,1.844-.711,2.767-.143.563-.291,1.124-.416,1.691-.069.314-.181.468-.555.462-1.159-.018-1.159,0-1.452-1.146-.32-1.251-.641-2.5-1.053-3.746v4.846h-1.705V62.241c.87,0,1.715-.016,2.557.02.112,0,.265.257.309.419.325,1.2.627,2.407.936,3.612Z"/><path class="cls-21" d="M237.31,69.266c-.016-.265-.032-.411-.032-.556,0-1.977.009-3.955-.009-5.932,0-.4.1-.564.526-.546.994.043,1.993.01,2.986.07a2.568,2.568,0,0,1,2.78,2.485,6.735,6.735,0,0,1-.091,2.409,2.209,2.209,0,0,1-1.931,1.846C240.148,69.2,238.739,69.2,237.31,69.266Zm2.181-5.377v3.68c1.155.134,1.981.059,2-1.485,0-.082.03-.163.036-.245C241.633,64.331,240.909,63.63,239.491,63.889Z"/><path class="cls-20" d="M262.6,64.834h3.213c.042.076.069.1.071.133.093,1.318.093,1.318-1.212,1.318-.549,0-1.1.027-1.645-.008-.414-.027-.53.134-.491.514.024.244,0,.493,0,.8h3.645v1.585h-5.726V62.282h5.631V63.73h-2.673C262.437,63.73,262.437,63.73,262.6,64.834Z"/><path class="cls-21" d="M275.979,64.215c-.6.035-1.15.088-1.695.083a.6.6,0,0,1-.413-.283.966.966,0,0,0-1.158-.54c-.2.066-.348.292-.52.446.151.166.273.419.459.483.689.237,1.413.374,2.1.618a1.986,1.986,0,0,1,1.329,2.659,2.329,2.329,0,0,1-2.12,1.573,8.441,8.441,0,0,1-2.321-.126c-1.01-.2-1.535-.948-1.706-2.211l1.98-.146c.069.186.12.339.182.487a1.159,1.159,0,0,0,1.635.547.622.622,0,0,0-.014-1.121c-.465-.208-.98-.3-1.462-.474a6.145,6.145,0,0,1-1.267-.557,1.78,1.78,0,0,1-.006-2.984,3.978,3.978,0,0,1,2.635-.511,4.264,4.264,0,0,1,.781.146A2.05,2.05,0,0,1,275.979,64.215Z"/><path class="cls-11" d="M284.01,69.174h-2.122V64.011h-2.174V62.277h6.437v1.7H284.01Z"/><path class="cls-21" d="M232.856,69.178h-2.14c-.013-.148-.034-.275-.034-.4,0-2.011.008-4.022-.01-6.034,0-.4.115-.534.509-.509.43.029.865-.014,1.295.02.133.01.363.169.364.262C232.861,64.72,232.856,66.927,232.856,69.178Z"/><path class="cls-15" d="M239.491,64.732c1.418-.259,2.142.442,2.039,1.95-.006.082-.035.163-.036.245-.022,1.544-.848,1.619-2,1.485Z"/><path class="cls-15" d="M261.981,82.383a7.123,7.123,0,0,1-.1.849,1.37,1.37,0,0,1-2.676.013,5.714,5.714,0,0,1-.006-1.727,1.234,1.234,0,0,1,1.359-1.114,1.31,1.31,0,0,1,1.351,1.147A7.022,7.022,0,0,1,261.981,82.383Z"/><path class="cls-14" d="M220.752,75.992v2.744h-2.139v-6.8c.014-.012.038-.052.062-.052,1.526.011,3.057-.04,4.577.063a1.626,1.626,0,0,1,1.584,1.629,1.9,1.9,0,0,1-1.227,2.013c-.091.039-.184.073-.307.12,1.2.672,1.405,1.977,2.113,3.065-.813,0-1.524.017-2.233-.014-.133-.006-.3-.175-.38-.311-.364-.632-.7-1.284-1.054-1.92C221.5,76.091,221.341,76.011,220.752,75.992Zm.025-1.294c.491-.045.948-.064,1.4-.137a.577.577,0,0,0,.5-.644.559.559,0,0,0-.527-.613c-.452-.042-.911-.011-1.365-.011Z"/><path class="cls-14" d="M259.8,78.89a3.252,3.252,0,0,1-3.595-3.62,3.59,3.59,0,1,1,7.18.1A3.218,3.218,0,0,1,259.8,78.89Zm1.438-3.54a7.449,7.449,0,0,0-.075-.832,1.312,1.312,0,0,0-1.352-1.148,1.234,1.234,0,0,0-1.358,1.115,5.675,5.675,0,0,0,.006,1.726,1.369,1.369,0,0,0,2.675-.013A7.3,7.3,0,0,0,261.234,75.35Z"/><path class="cls-2" d="M309.1,71.345a7.48,7.48,0,0,0-.175-.908,1.239,1.239,0,0,0-1.316-.919,1.165,1.165,0,0,0-1.262.911,6.234,6.234,0,0,0-.03,1.961,1.232,1.232,0,0,0,1.464,1.036,1.27,1.27,0,0,0,1.217-1.171C309.036,71.994,309.053,71.728,309.1,71.345Z"/><path class="cls-22" d="M239.46,71.9c1.335,0,2.649-.08,3.948.024a2.331,2.331,0,0,1,2.182,2.014,8.193,8.193,0,0,1,.08,2.558,2.6,2.6,0,0,1-2.6,2.248c-1.189.07-2.385.014-3.613.014Zm2.091,5.281c.328,0,.605.013.88,0a1.032,1.032,0,0,0,1.143-1,5.847,5.847,0,0,0,.042-1.289c-.081-1.221-.635-1.486-1.791-1.463a.372.372,0,0,0-.262.256C241.545,74.837,241.551,75.994,241.551,77.182Z"/><path class="cls-14" d="M279.9,78.888a3.064,3.064,0,0,1-3.221-1.829,4.041,4.041,0,0,1,.437-4.2c1.041-1.361,3.38-1.311,4.562-.8a3.259,3.259,0,0,1,1.812,3.508,5.2,5.2,0,0,1-.511,1.844A3.093,3.093,0,0,1,279.9,78.888Zm1.483-3.547a8.325,8.325,0,0,0-.11-.847,1.3,1.3,0,0,0-1.415-1.124,1.256,1.256,0,0,0-1.3,1.193,6.2,6.2,0,0,0,.014,1.627,1.243,1.243,0,0,0,1.332,1.092,1.221,1.221,0,0,0,1.348-1.062C281.324,75.931,281.346,75.632,281.387,75.341Z"/><path class="cls-23" d="M294.231,73.7l-2.015.366a1.262,1.262,0,0,0-1.152-.8,1.37,1.37,0,0,0-1.514,1.151,4.827,4.827,0,0,0-.087,1.335,1.625,1.625,0,0,0,2.454,1.446c.417-.161.655-.376.48-.9H291.07V74.886h3.264c0,.922.007,1.848-.01,2.773,0,.1-.133.218-.232.288a5.351,5.351,0,0,1-4.521.783,2.88,2.88,0,0,1-2.2-2.566,5.215,5.215,0,0,1,.029-1.827c.359-1.776,1.708-2.679,3.752-2.6.249.009.5.022.747.037A2.39,2.39,0,0,1,294.231,73.7Z"/><path class="cls-14" d="M235.75,78.776c-.671,0-1.316.024-1.957-.02-.128-.009-.311-.263-.343-.428-.1-.527-.347-.773-.905-.68a4.538,4.538,0,0,1-.747.007c-.921,0-.915,0-1.256.851-.045.111-.188.254-.29.258-.627.024-1.255.012-1.938.012.063-.214.1-.372.157-.522.746-1.988,1.5-3.971,2.233-5.964a.554.554,0,0,1,.646-.438c.513.031,1.03-.013,1.543.021a.584.584,0,0,1,.427.282c.81,2.105,1.6,4.218,2.387,6.331A1.63,1.63,0,0,1,235.75,78.776Zm-3.681-4.965-.1.008-.686,2.294h1.5Z"/><path class="cls-22" d="M301.579,74.172c.417-.695.8-1.355,1.208-1.995a.672.672,0,0,1,.441-.3c.662-.034,1.327-.015,2.071-.015-.1.171-.158.3-.234.409-.737,1.1-1.485,2.2-2.208,3.319a1.406,1.406,0,0,0-.208.689c-.025.811-.009,1.623-.009,2.467h-2.131c0-.793.024-1.585-.012-2.374a1.835,1.835,0,0,0-.269-.868c-.759-1.186-1.553-2.35-2.405-3.627.834,0,1.567-.01,2.3.013.087,0,.184.172.251.28C300.769,72.818,301.158,73.472,301.579,74.172Z"/><path class="cls-24" d="M267.446,71.882h2.108v5.174h3.3v1.691h-5.406Z"/><path class="cls-13" d="M249.934,71.881h2.055v6.866h-2.055Z"/><path class="cls-15" d="M309.1,71.345c-.042.383-.059.649-.1.91a1.27,1.27,0,0,1-1.217,1.171,1.232,1.232,0,0,1-1.464-1.036,6.234,6.234,0,0,1,.03-1.961,1.165,1.165,0,0,1,1.262-.911,1.239,1.239,0,0,1,1.316.919A7.48,7.48,0,0,1,309.1,71.345Z"/><path class="cls-19" d="M242.3,84.215c0-1.187-.006-2.345.012-3.5a.377.377,0,0,1,.263-.256c1.156-.022,1.709.242,1.791,1.463a5.843,5.843,0,0,1-.043,1.289,1.032,1.032,0,0,1-1.142,1C242.9,84.228,242.627,84.215,242.3,84.215Z"/><path class="cls-17" d="M282.135,82.374c-.041.291-.063.59-.129.88a1.22,1.22,0,0,1-1.347,1.061,1.242,1.242,0,0,1-1.332-1.092,6.2,6.2,0,0,1-.014-1.627,1.254,1.254,0,0,1,1.3-1.193,1.3,1.3,0,0,1,1.416,1.125C282.087,81.8,282.1,82.084,282.135,82.374Z"/><path class="cls-25" d="M262.147,59.137h-2V52.215c.608,0,1.187-.02,1.764.014a.666.666,0,0,1,.4.3c.692,1,1.367,2,2.049,3.006.088.129.188.251.359.478V52.243h1.986V59.16c-.617,0-1.212.019-1.8-.015a.666.666,0,0,1-.4-.3c-.767-1.1-1.52-2.217-2.355-3.442Z"/><path class="cls-25" d="M229.78,52.29c1.379,0,2.728-.087,4.059.027a2.3,2.3,0,0,1,2.085,1.993,7.583,7.583,0,0,1,.091,2.464,2.672,2.672,0,0,1-2.813,2.369c-.977.053-1.959.015-2.939.017-.148,0-.3,0-.483,0Zm2.144,1.5v3.76c.36,0,.691.024,1.017-.005a.968.968,0,0,0,.932-.885,6.446,6.446,0,0,0,.046-1.532c-.108-.988-.51-1.314-1.5-1.337C232.267,53.785,232.118,53.788,231.924,53.788Z"/><path class="cls-25" d="M291.394,59.14V52.315c1.41,0,2.805-.085,4.183.029a2.259,2.259,0,0,1,1.9,1.7,5.022,5.022,0,0,1,.077,3.136,2.631,2.631,0,0,1-2.6,1.949C293.781,59.185,292.6,59.14,291.394,59.14Zm2.146-5.346v3.775c.27,0,.5.007.733,0,.789-.026,1.149-.3,1.251-1.066a5.886,5.886,0,0,0,0-1.535c-.108-.8-.486-1.109-1.3-1.171C294.011,53.78,293.794,53.794,293.54,53.794Z"/><path class="cls-26" d="M281.475,59.127V52.244h5.68V53.69h-3.514v1.089H286.9V56.2h-3.255v1.363h3.623v1.563Z"/><path class="cls-26" d="M226.086,59.145h-2.155c-.04-.093-.087-.181-.117-.274-.279-.856-.278-.856-1.154-.856h-.2c-.415.006-.913-.126-1.22.059-.27.163-.325.68-.487,1.067h-2.141c.557-1.489,1.1-2.945,1.647-4.4.274-.729.535-1.463.839-2.18a.628.628,0,0,1,.436-.33,13.859,13.859,0,0,1,1.693,0,.53.53,0,0,1,.4.248c.832,2.165,1.644,4.338,2.458,6.51A.53.53,0,0,1,226.086,59.145Zm-3.732-5.1-.739,2.423H223.1Z"/><path class="cls-26" d="M256.472,59.147H254.3c-.019-.043-.048-.1-.069-.154-.349-.978-.349-.978-1.417-.978h-.349c-.915,0-.907,0-1.215.844-.045.122-.2.283-.309.288-.625.028-1.252.013-1.962.013.273-.729.522-1.391.771-2.054.565-1.505,1.138-3.007,1.689-4.517.1-.274.219-.4.528-.383.53.027,1.064-.016,1.593.022a.629.629,0,0,1,.464.3c.817,2.118,1.609,4.246,2.405,6.372A1.746,1.746,0,0,1,256.472,59.147Zm-3-2.67-.757-2.442-.726,2.442Z"/><path class="cls-26" d="M277.452,54.262l-1.754.4a4.31,4.31,0,0,0-.786-.793,1.257,1.257,0,0,0-1.865.929,7.064,7.064,0,0,0,.006,1.877,1.109,1.109,0,0,0,1.093.986,1.193,1.193,0,0,0,1.29-.729c.084-.177.148-.365.243-.6l1.79.532a2.676,2.676,0,0,1-2.53,2.39,7.236,7.236,0,0,1-1.2-.005,3.1,3.1,0,0,1-2.917-3.045,6.284,6.284,0,0,1,.037-1.392c.326-1.935,1.87-2.944,3.983-2.689A2.868,2.868,0,0,1,277.452,54.262Z"/><path class="cls-27" d="M246.64,52.214c-.881,2.377-1.727,4.658-2.576,6.947-.7,0-1.363.011-2.027-.011a.479.479,0,0,1-.366-.218c-.838-2.184-1.659-4.375-2.481-6.565-.009-.026.01-.062.021-.123h2.163c.5,1.593,1.007,3.2,1.55,4.932.472-1.523.93-2.922,1.328-4.339.136-.481.322-.693.843-.635A14.741,14.741,0,0,0,246.64,52.214Z"/><path class="cls-17" d="M231.924,53.788c.194,0,.343,0,.492,0,.993.023,1.4.349,1.5,1.337a6.446,6.446,0,0,1-.046,1.532.968.968,0,0,1-.932.885c-.326.029-.657.005-1.017.005Z"/><path class="cls-19" d="M293.54,53.794c.254,0,.471-.014.684,0,.814.062,1.192.368,1.3,1.171a5.886,5.886,0,0,1,0,1.535c-.1.768-.462,1.04-1.251,1.066-.231.008-.463,0-.733,0Z"/><path class="cls-19" d="M222.354,54.041l.742,2.423h-1.481Z"/><path class="cls-19" d="M253.474,56.477h-1.483l.726-2.442Z"/><path class="cls-4" d="M247.692,82.12l.709,2.3h-1.5l.686-2.3Z"/><path class="cls-3" d="M14.522,92.082a12.511,12.511,0,0,1,2.206-.178,3.644,3.644,0,0,1,2.488.738A2.413,2.413,0,0,1,20,94.5a2.608,2.608,0,0,1-.69,1.9,3.669,3.669,0,0,1-2.713.972,3.741,3.741,0,0,1-.926-.083v3.56H14.522Zm1.146,4.273a3.511,3.511,0,0,0,.95.1c1.391,0,2.23-.683,2.23-1.895,0-1.175-.838-1.749-2.1-1.749a5.494,5.494,0,0,0-1.084.09Z"/><path class="cls-3" d="M21.279,96.464c0-.752-.02-1.393-.053-1.983h1.015l.044,1.248h.041A1.935,1.935,0,0,1,24.1,94.336a1.313,1.313,0,0,1,.322.032v1.089a1.9,1.9,0,0,0-.394-.033,1.619,1.619,0,0,0-1.551,1.481,3.076,3.076,0,0,0-.046.542v3.4H21.279Z"/><path class="cls-3" d="M31.217,97.6a3.12,3.12,0,0,1-3.168,3.39,3.03,3.03,0,0,1-3.06-3.28,3.11,3.11,0,0,1,3.161-3.377A3.012,3.012,0,0,1,31.217,97.6Zm-5.05.074c0,1.4.8,2.449,1.931,2.449,1.11,0,1.94-1.038,1.94-2.483,0-1.077-.543-2.44-1.919-2.44C26.758,95.2,26.167,96.47,26.167,97.677Z"/><path class="cls-3" d="M33.032,94.481l1.25,3.57c.213.59.379,1.116.521,1.644h.035c.145-.528.328-1.058.532-1.644l1.246-3.57h1.211l-2.5,6.367H34.217l-2.425-6.367Z"/><path class="cls-3" d="M40.211,92.681a.7.7,0,0,1-.737.719.69.69,0,0,1-.7-.719.7.7,0,0,1,.719-.721A.694.694,0,0,1,40.211,92.681Zm-1.294,8.167V94.481H40.07v6.367Z"/><path class="cls-3" d="M47.493,91.5v7.707c0,.566.021,1.2.052,1.642H46.516l-.059-1.1h-.03a2.333,2.333,0,0,1-2.161,1.246c-1.543,0-2.733-1.3-2.733-3.235-.01-2.129,1.311-3.422,2.861-3.422a2.125,2.125,0,0,1,1.921.966h.027V91.5Zm-1.151,5.573a2.451,2.451,0,0,0-.049-.5,1.713,1.713,0,0,0-1.678-1.333c-1.2,0-1.915,1.051-1.915,2.451,0,1.293.643,2.367,1.892,2.367a1.749,1.749,0,0,0,1.693-1.39,1.938,1.938,0,0,0,.057-.5Z"/><path class="cls-3" d="M50.714,92.681a.7.7,0,0,1-.736.719.69.69,0,0,1-.7-.719A.7.7,0,0,1,50,91.96.693.693,0,0,1,50.714,92.681Zm-1.294,8.167V94.481h1.153v6.367Z"/><path class="cls-3" d="M52.5,96.2c0-.666-.021-1.192-.051-1.72H53.47l.064,1.046h.033a2.35,2.35,0,0,1,2.1-1.191c.875,0,2.244.526,2.244,2.714v3.8H56.764V97.177c0-1.03-.388-1.892-1.472-1.892a1.668,1.668,0,0,0-1.56,1.189,1.769,1.769,0,0,0-.08.537v3.837H52.5Z"/><path class="cls-3" d="M65.3,94.481c-.032.449-.054.966-.054,1.742v3.7a3.708,3.708,0,0,1-.908,2.915,3.428,3.428,0,0,1-2.321.764,4.112,4.112,0,0,1-2.126-.524l.289-.891a3.59,3.59,0,0,0,1.875.51c1.183,0,2.051-.619,2.051-2.232v-.709h-.025a2.263,2.263,0,0,1-2.024,1.073,2.855,2.855,0,0,1-2.716-3.116c0-2.158,1.405-3.375,2.876-3.375a2.116,2.116,0,0,1,1.986,1.1h.027l.048-.953Zm-1.2,2.5a1.8,1.8,0,0,0-.066-.518,1.672,1.672,0,0,0-1.625-1.232c-1.105,0-1.9.934-1.9,2.415,0,1.245.643,2.293,1.884,2.293a1.7,1.7,0,0,0,1.613-1.194,2.111,2.111,0,0,0,.091-.616Z"/><path class="cls-3" d="M77.308,102.147c-1.2-.306-2.368-.671-3.4-1.024a1.889,1.889,0,0,0-.539-.13c-2.11-.079-3.9-1.631-3.9-4.491,0-2.843,1.731-4.673,4.126-4.673s3.98,1.864,3.98,4.487c0,2.282-1.055,3.737-2.53,4.259v.051c.88.222,1.844.435,2.6.569Zm-.945-5.774c0-1.776-.923-3.612-2.8-3.612-1.933,0-2.881,1.8-2.879,3.711,0,1.886,1.032,3.589,2.823,3.589C75.331,100.061,76.363,98.393,76.363,96.373Z"/><path class="cls-3" d="M84.385,99.106c0,.668.021,1.238.052,1.742H83.414l-.061-1.041H83.32a2.377,2.377,0,0,1-2.108,1.186c-1,0-2.193-.559-2.193-2.791V94.481h1.152V98c0,1.213.379,2.039,1.423,2.039a1.689,1.689,0,0,0,1.533-1.063,1.784,1.784,0,0,0,.105-.594v-3.9h1.153Z"/><path class="cls-3" d="M89.843,100.848l-.1-.8h-.034a2.373,2.373,0,0,1-1.95.949,1.816,1.816,0,0,1-1.944-1.827c0-1.543,1.367-2.39,3.826-2.372v-.136a1.31,1.31,0,0,0-1.448-1.468,3.1,3.1,0,0,0-1.66.474l-.263-.77a4,4,0,0,1,2.1-.558c1.945,0,2.42,1.331,2.42,2.606v2.383a9.745,9.745,0,0,0,.1,1.523Zm-.18-3.251c-1.254-.027-2.688.2-2.688,1.429a1.02,1.02,0,0,0,1.081,1.11,1.6,1.6,0,0,0,1.552-1.067,1.208,1.208,0,0,0,.055-.365Z"/><path class="cls-3" d="M92.655,91.5h1.154v9.349H92.655Z"/><path class="cls-3" d="M97.056,92.681a.718.718,0,1,1-.715-.721A.7.7,0,0,1,97.056,92.681Zm-1.294,8.167V94.481h1.152v6.367Z"/><path class="cls-3" d="M100.233,92.647v1.834H101.9v.877h-1.663V98.79c0,.793.227,1.241.875,1.241a2.278,2.278,0,0,0,.672-.084l.052.881a2.978,2.978,0,0,1-1.035.159,1.624,1.624,0,0,1-1.251-.491,2.442,2.442,0,0,1-.449-1.661V95.358H98.11v-.877H99.1V92.946Z"/><path class="cls-3" d="M103.735,94.481l1.392,3.764c.149.42.306.92.409,1.3h.033c.113-.375.253-.862.406-1.326l1.26-3.737h1.228l-1.742,4.535c-.824,2.19-1.392,3.3-2.18,3.995a3.22,3.22,0,0,1-1.422.743l-.287-.968a3.02,3.02,0,0,0,1.015-.566,3.684,3.684,0,0,0,.969-1.29.7.7,0,0,0,.089-.279.753.753,0,0,0-.08-.3l-2.348-5.873Z"/><path class="cls-3" d="M112.34,92.1a15.406,15.406,0,0,1,2.439-.191,5.084,5.084,0,0,1,3.595,1.115,4.057,4.057,0,0,1,1.258,3.175,4.722,4.722,0,0,1-1.278,3.453,5.519,5.519,0,0,1-3.928,1.28,18.447,18.447,0,0,1-2.086-.1Zm1.15,7.852a8.23,8.23,0,0,0,1.154.053,3.4,3.4,0,0,0,3.779-3.762c.015-2.1-1.17-3.419-3.587-3.419a6.879,6.879,0,0,0-1.346.117Z"/><path class="cls-3" d="M122.393,92.681a.7.7,0,0,1-.737.719.691.691,0,0,1-.7-.719.7.7,0,0,1,.72-.721A.7.7,0,0,1,122.393,92.681Zm-1.294,8.167V94.481h1.152v6.367Z"/><path class="cls-3" d="M127.709,100.848l-.1-.8h-.034a2.373,2.373,0,0,1-1.95.949,1.816,1.816,0,0,1-1.943-1.827c0-1.543,1.367-2.39,3.826-2.372v-.136a1.311,1.311,0,0,0-1.449-1.468,3.1,3.1,0,0,0-1.66.474l-.262-.77a3.993,3.993,0,0,1,2.1-.558c1.946,0,2.421,1.331,2.421,2.606v2.383a9.752,9.752,0,0,0,.1,1.523Zm-.18-3.251c-1.254-.027-2.688.2-2.688,1.429a1.02,1.02,0,0,0,1.081,1.11,1.6,1.6,0,0,0,1.553-1.067,1.206,1.206,0,0,0,.054-.365Z"/><path class="cls-3" d="M136.018,94.481c-.032.449-.054.966-.054,1.742v3.7a3.708,3.708,0,0,1-.909,2.915,3.426,3.426,0,0,1-2.32.764,4.112,4.112,0,0,1-2.126-.524l.289-.891a3.587,3.587,0,0,0,1.875.51c1.183,0,2.051-.619,2.051-2.232v-.709H134.8a2.263,2.263,0,0,1-2.024,1.073,2.855,2.855,0,0,1-2.716-3.116c0-2.158,1.405-3.375,2.876-3.375a2.116,2.116,0,0,1,1.986,1.1h.027l.047-.953Zm-1.205,2.5a1.8,1.8,0,0,0-.065-.518,1.672,1.672,0,0,0-1.626-1.232c-1.1,0-1.9.934-1.9,2.415,0,1.245.642,2.293,1.884,2.293a1.7,1.7,0,0,0,1.612-1.194,2.111,2.111,0,0,0,.091-.616Z"/><path class="cls-3" d="M137.8,96.2c0-.666-.02-1.192-.051-1.72h1.023l.064,1.046h.033a2.349,2.349,0,0,1,2.1-1.191c.875,0,2.244.526,2.244,2.714v3.8h-1.152V97.177c0-1.03-.388-1.892-1.471-1.892a1.669,1.669,0,0,0-1.562,1.189,1.837,1.837,0,0,0-.078.537v3.837H137.8Z"/><path class="cls-3" d="M150.871,97.6a3.12,3.12,0,0,1-3.167,3.39,3.031,3.031,0,0,1-3.062-3.28,3.111,3.111,0,0,1,3.162-3.377A3.012,3.012,0,0,1,150.871,97.6Zm-5.049.074c0,1.4.8,2.449,1.929,2.449,1.11,0,1.94-1.038,1.94-2.483,0-1.077-.542-2.44-1.918-2.44S145.822,96.47,145.822,97.677Z"/><path class="cls-3" d="M152.168,99.669a3.159,3.159,0,0,0,1.535.454c.846,0,1.237-.416,1.237-.948,0-.557-.336-.849-1.183-1.166-1.15-.417-1.694-1.043-1.692-1.806a1.968,1.968,0,0,1,2.2-1.867,3.075,3.075,0,0,1,1.558.391l-.288.842a2.494,2.494,0,0,0-1.3-.375c-.684,0-1.055.394-1.055.875,0,.527.375.761,1.208,1.085,1.1.409,1.669.963,1.671,1.914,0,1.129-.877,1.919-2.381,1.919a3.623,3.623,0,0,1-1.789-.444Z"/><path class="cls-3" d="M158.934,92.647v1.834H160.6v.877h-1.663V98.79c0,.793.229,1.241.875,1.241a2.273,2.273,0,0,0,.672-.084l.053.881a2.963,2.963,0,0,1-1.034.159,1.619,1.619,0,0,1-1.251-.491,2.442,2.442,0,0,1-.449-1.661V95.358h-.987v-.877h.987V92.946Z"/><path class="cls-3" d="M163.2,92.681a.7.7,0,0,1-.737.719.691.691,0,0,1-.7-.719.7.7,0,0,1,.72-.721A.7.7,0,0,1,163.2,92.681Zm-1.294,8.167V94.481h1.152v6.367Z"/><path class="cls-3" d="M169.522,100.618a4.4,4.4,0,0,1-1.828.369,3.035,3.035,0,0,1-3.178-3.254,3.244,3.244,0,0,1,3.422-3.4,3.731,3.731,0,0,1,1.609.339l-.257.889a2.814,2.814,0,0,0-1.354-.306,2.211,2.211,0,0,0-2.248,2.411,2.186,2.186,0,0,0,2.219,2.384,3.375,3.375,0,0,0,1.418-.306Z"/><path class="cls-3" d="M177.2,100.848l-.1-.8h-.034a2.369,2.369,0,0,1-1.948.949,1.817,1.817,0,0,1-1.946-1.827c0-1.543,1.367-2.39,3.828-2.372v-.136a1.311,1.311,0,0,0-1.451-1.468,3.1,3.1,0,0,0-1.658.474l-.264-.77a4,4,0,0,1,2.1-.558c1.947,0,2.42,1.331,2.42,2.606v2.383a9.995,9.995,0,0,0,.1,1.523Zm-.18-3.251c-1.252-.027-2.688.2-2.688,1.429a1.021,1.021,0,0,0,1.083,1.11,1.593,1.593,0,0,0,1.55-1.067,1.208,1.208,0,0,0,.055-.365Z"/><path class="cls-3" d="M180.011,96.2c0-.666-.022-1.192-.053-1.72h1.023l.064,1.046h.033a2.35,2.35,0,0,1,2.106-1.191c.875,0,2.244.526,2.244,2.714v3.8h-1.152V97.177c0-1.03-.388-1.892-1.473-1.892a1.669,1.669,0,0,0-1.56,1.189,1.769,1.769,0,0,0-.08.537v3.837h-1.152Z"/><path class="cls-3" d="M192.812,91.5v7.707c0,.566.022,1.2.053,1.642h-1.03l-.059-1.1h-.03a2.332,2.332,0,0,1-2.161,1.246c-1.543,0-2.732-1.3-2.732-3.235-.011-2.129,1.31-3.422,2.861-3.422a2.123,2.123,0,0,1,1.92.966h.028V91.5Zm-1.15,5.573a2.451,2.451,0,0,0-.049-.5,1.714,1.714,0,0,0-1.679-1.333c-1.2,0-1.914,1.051-1.914,2.451,0,1.293.642,2.367,1.891,2.367a1.748,1.748,0,0,0,1.693-1.39,1.894,1.894,0,0,0,.058-.5Z"/><path class="cls-3" d="M198.717,91.973v8.875h-1.154V91.973Z"/><path class="cls-3" d="M200.806,96.2c0-.666-.022-1.192-.053-1.72h1.023l.064,1.046h.033a2.35,2.35,0,0,1,2.106-1.191c.875,0,2.244.526,2.244,2.714v3.8h-1.152V97.177c0-1.03-.388-1.892-1.473-1.892a1.669,1.669,0,0,0-1.56,1.189,1.769,1.769,0,0,0-.08.537v3.837h-1.152Z"/><path class="cls-3" d="M209.448,92.647v1.834h1.664v.877h-1.664V98.79c0,.793.23,1.241.876,1.241a2.271,2.271,0,0,0,.671-.084l.053.881a2.963,2.963,0,0,1-1.034.159,1.617,1.617,0,0,1-1.25-.491,2.437,2.437,0,0,1-.45-1.661V95.358h-.986v-.877h.986V92.946Z"/><path class="cls-3" d="M212.985,97.873a2.032,2.032,0,0,0,2.178,2.211,4.273,4.273,0,0,0,1.764-.326l.2.823a5.143,5.143,0,0,1-2.124.406,2.969,2.969,0,0,1-3.134-3.215c0-1.929,1.137-3.436,3-3.436,2.078,0,2.621,1.822,2.621,3a2.7,2.7,0,0,1-.04.542Zm3.389-.832a1.643,1.643,0,0,0-1.6-1.875A1.9,1.9,0,0,0,213,97.041Z"/><path class="cls-3" d="M218.929,96.464c0-.752-.02-1.393-.052-1.983h1.013l.046,1.248h.04a1.936,1.936,0,0,1,1.775-1.393,1.318,1.318,0,0,1,.322.032v1.089a1.911,1.911,0,0,0-.4-.033,1.619,1.619,0,0,0-1.551,1.481,3.174,3.174,0,0,0-.046.542v3.4h-1.152Z"/><path class="cls-3" d="M224.009,94.481l1.249,3.57c.215.59.38,1.116.522,1.644h.035c.145-.528.328-1.058.531-1.644l1.247-3.57H228.8l-2.5,6.367h-1.105l-2.426-6.367Z"/><path class="cls-3" d="M230.411,97.873a2.032,2.032,0,0,0,2.178,2.211,4.273,4.273,0,0,0,1.764-.326l.2.823a5.143,5.143,0,0,1-2.124.406,2.969,2.969,0,0,1-3.134-3.215c0-1.929,1.137-3.436,3-3.436,2.078,0,2.621,1.822,2.621,3a2.7,2.7,0,0,1-.04.542Zm3.389-.832a1.643,1.643,0,0,0-1.6-1.875,1.9,1.9,0,0,0-1.779,1.875Z"/><path class="cls-3" d="M236.357,96.2c0-.666-.022-1.192-.053-1.72h1.023l.064,1.046h.033a2.35,2.35,0,0,1,2.106-1.191c.875,0,2.244.526,2.244,2.714v3.8h-1.152V97.177c0-1.03-.388-1.892-1.473-1.892a1.669,1.669,0,0,0-1.56,1.189,1.769,1.769,0,0,0-.08.537v3.837h-1.152Z"/><path class="cls-3" d="M245,92.647v1.834h1.664v.877H245V98.79c0,.793.229,1.241.876,1.241a2.271,2.271,0,0,0,.671-.084l.053.881a2.963,2.963,0,0,1-1.034.159,1.617,1.617,0,0,1-1.25-.491,2.437,2.437,0,0,1-.45-1.661V95.358h-.986v-.877h.986V92.946Z"/><path class="cls-3" d="M249.26,92.681a.7.7,0,0,1-.737.719.691.691,0,0,1-.7-.719.705.705,0,0,1,.721-.721A.694.694,0,0,1,249.26,92.681Zm-1.294,8.167V94.481h1.152v6.367Z"/><path class="cls-3" d="M256.81,97.6a3.12,3.12,0,0,1-3.167,3.39,3.03,3.03,0,0,1-3.061-3.28,3.11,3.11,0,0,1,3.161-3.377A3.012,3.012,0,0,1,256.81,97.6Zm-5.049.074c0,1.4.8,2.449,1.929,2.449,1.111,0,1.941-1.038,1.941-2.483,0-1.077-.543-2.44-1.919-2.44C252.351,95.2,251.761,96.47,251.761,97.677Z"/><path class="cls-3" d="M258.272,96.2c0-.666-.022-1.192-.053-1.72h1.023l.063,1.046h.033a2.35,2.35,0,0,1,2.106-1.191c.876,0,2.244.526,2.244,2.714v3.8h-1.152V97.177c0-1.03-.388-1.892-1.472-1.892a1.668,1.668,0,0,0-1.56,1.189,1.769,1.769,0,0,0-.08.537v3.837h-1.152Z"/><path class="cls-3" d="M269.107,100.848l-.1-.8h-.035a2.365,2.365,0,0,1-1.947.949,1.817,1.817,0,0,1-1.946-1.827c0-1.543,1.367-2.39,3.828-2.372v-.136a1.311,1.311,0,0,0-1.451-1.468,3.1,3.1,0,0,0-1.66.474l-.262-.77a4,4,0,0,1,2.1-.558c1.946,0,2.421,1.331,2.421,2.606v2.383a9.995,9.995,0,0,0,.1,1.523Zm-.18-3.251c-1.253-.027-2.689.2-2.689,1.429a1.021,1.021,0,0,0,1.082,1.11,1.6,1.6,0,0,0,1.552-1.067,1.208,1.208,0,0,0,.055-.365Z"/><path class="cls-3" d="M271.919,91.5h1.152v9.349h-1.152Z"/><path class="cls-3" d="M277.7,99.451a3.993,3.993,0,0,0,2.047.576c1.172,0,1.862-.613,1.862-1.511,0-.824-.48-1.308-1.678-1.756-1.449-.515-2.348-1.276-2.348-2.518,0-1.381,1.149-2.407,2.878-2.407a4.054,4.054,0,0,1,1.958.43l-.32.939a3.367,3.367,0,0,0-1.676-.421c-1.218,0-1.679.722-1.679,1.326,0,.825.539,1.231,1.764,1.7,1.5.591,2.264,1.313,2.264,2.615,0,1.361-1,2.559-3.105,2.559a4.551,4.551,0,0,1-2.268-.579Z"/><path class="cls-3" d="M290.148,97.6a3.12,3.12,0,0,1-3.167,3.39,3.031,3.031,0,0,1-3.062-3.28,3.111,3.111,0,0,1,3.164-3.377A3.011,3.011,0,0,1,290.148,97.6Zm-5.049.074c0,1.4.8,2.449,1.929,2.449,1.11,0,1.94-1.038,1.94-2.483,0-1.077-.542-2.44-1.918-2.44C285.69,95.2,285.1,96.47,285.1,97.677Z"/><path class="cls-3" d="M291.609,91.5h1.152v9.349h-1.152Z"/><path class="cls-3" d="M300.04,99.106c0,.668.022,1.238.053,1.742h-1.025l-.06-1.041h-.033a2.375,2.375,0,0,1-2.107,1.186c-1,0-2.194-.559-2.194-2.791V94.481h1.153V98c0,1.213.378,2.039,1.423,2.039a1.687,1.687,0,0,0,1.532-1.063,1.758,1.758,0,0,0,.106-.594v-3.9h1.152Z"/><path class="cls-3" d="M303.356,92.647v1.834h1.664v.877h-1.664V98.79c0,.793.228,1.241.876,1.241a2.278,2.278,0,0,0,.672-.084l.052.881a2.969,2.969,0,0,1-1.035.159,1.616,1.616,0,0,1-1.249-.491,2.431,2.431,0,0,1-.449-1.661V95.358h-.987v-.877h.987V92.946Z"/><path class="cls-3" d="M307.616,92.681a.719.719,0,1,1-.716-.721A.7.7,0,0,1,307.616,92.681Zm-1.295,8.167V94.481h1.153v6.367Z"/><path class="cls-3" d="M315.166,97.6a3.12,3.12,0,0,1-3.168,3.39,3.03,3.03,0,0,1-3.061-3.28,3.111,3.111,0,0,1,3.163-3.377A3.011,3.011,0,0,1,315.166,97.6Zm-5.05.074c0,1.4.8,2.449,1.93,2.449,1.112,0,1.942-1.038,1.942-2.483,0-1.077-.544-2.44-1.92-2.44C310.708,95.2,310.116,96.47,310.116,97.677Z"/><path class="cls-3" d="M316.627,96.2c0-.666-.022-1.192-.053-1.72H317.6l.064,1.046h.031a2.35,2.35,0,0,1,2.106-1.191c.875,0,2.244.526,2.244,2.714v3.8h-1.152V97.177c0-1.03-.388-1.892-1.473-1.892a1.669,1.669,0,0,0-1.56,1.189,1.834,1.834,0,0,0-.08.537v3.837h-1.152Z"/><path class="cls-3" d="M323.767,99.669a3.166,3.166,0,0,0,1.535.454c.846,0,1.238-.416,1.238-.948,0-.557-.337-.849-1.184-1.166-1.15-.417-1.694-1.043-1.692-1.806a1.968,1.968,0,0,1,2.2-1.867,3.089,3.089,0,0,1,1.56.391l-.288.842a2.5,2.5,0,0,0-1.307-.375c-.684,0-1.055.394-1.055.875,0,.527.375.761,1.21,1.085,1.1.409,1.667.963,1.671,1.914,0,1.129-.877,1.919-2.383,1.919a3.623,3.623,0,0,1-1.789-.444Z"/><path class="cls-3" d="M127.487,116.643v-5.491H126.6v-.877h.888v-.308a3.054,3.054,0,0,1,.741-2.23,2.223,2.223,0,0,1,1.549-.588,2.5,2.5,0,0,1,.988.186l-.153.89a1.764,1.764,0,0,0-.742-.145c-.979,0-1.236.867-1.236,1.85v.345h1.54v.877h-1.533v5.491Z"/><path class="cls-3" d="M136.812,113.4a3.12,3.12,0,0,1-3.167,3.39,3.031,3.031,0,0,1-3.062-3.279,3.111,3.111,0,0,1,3.162-3.378A3.012,3.012,0,0,1,136.812,113.4Zm-5.049.074c0,1.4.8,2.449,1.929,2.449,1.11,0,1.94-1.037,1.94-2.483,0-1.077-.542-2.439-1.918-2.439C132.353,111,131.763,112.264,131.763,113.471Z"/><path class="cls-3" d="M138.272,112.258c0-.752-.02-1.392-.053-1.983h1.014l.045,1.249h.04a1.937,1.937,0,0,1,1.775-1.394,1.363,1.363,0,0,1,.322.032v1.089a1.9,1.9,0,0,0-.395-.033,1.621,1.621,0,0,0-1.551,1.481,3.178,3.178,0,0,0-.045.542v3.4h-1.152Z"/><path class="cls-3" d="M146.781,116.643V112.88l-2.814-5.112h1.312l1.247,2.451c.339.673.61,1.211.883,1.831h.025c.246-.583.548-1.164.89-1.838l1.282-2.444h1.3l-2.97,5.095v3.78Z"/><path class="cls-3" d="M156.646,113.4a3.12,3.12,0,0,1-3.167,3.39,3.03,3.03,0,0,1-3.06-3.279,3.11,3.11,0,0,1,3.162-3.378A3.011,3.011,0,0,1,156.646,113.4Zm-5.049.074c0,1.4.8,2.449,1.931,2.449,1.11,0,1.94-1.037,1.94-2.483,0-1.077-.542-2.439-1.92-2.439C152.188,111,151.6,112.264,151.6,113.471Z"/><path class="cls-3" d="M163.433,114.9c0,.668.022,1.239.053,1.743h-1.023L162.4,115.6h-.033a2.377,2.377,0,0,1-2.107,1.185c-1,0-2.194-.558-2.194-2.79v-3.722h1.153v3.518c0,1.213.378,2.039,1.423,2.039a1.688,1.688,0,0,0,1.533-1.063,1.778,1.778,0,0,0,.105-.593v-3.9h1.152Z"/><path class="cls-3" d="M165.359,112.258c0-.752-.02-1.392-.053-1.983h1.014l.045,1.249h.041a1.936,1.936,0,0,1,1.774-1.394,1.358,1.358,0,0,1,.322.032v1.089a1.9,1.9,0,0,0-.4-.033,1.619,1.619,0,0,0-1.55,1.481,3.076,3.076,0,0,0-.046.542v3.4h-1.152Z"/><path class="cls-3" d="M172.488,107.876a12.624,12.624,0,0,1,2.206-.177,3.646,3.646,0,0,1,2.489.738,2.417,2.417,0,0,1,.78,1.857,2.61,2.61,0,0,1-.689,1.9,3.675,3.675,0,0,1-2.714.972,3.752,3.752,0,0,1-.927-.082v3.56h-1.145Zm1.145,4.274a3.56,3.56,0,0,0,.95.1c1.391,0,2.23-.683,2.23-1.895,0-1.175-.837-1.749-2.095-1.749a5.5,5.5,0,0,0-1.085.09Z"/><path class="cls-3" d="M182.645,116.643l-.1-.805h-.035a2.363,2.363,0,0,1-1.947.949,1.816,1.816,0,0,1-1.946-1.827c0-1.543,1.367-2.39,3.828-2.372v-.135a1.312,1.312,0,0,0-1.451-1.469,3.1,3.1,0,0,0-1.658.474l-.264-.77a4.013,4.013,0,0,1,2.1-.558c1.948,0,2.421,1.331,2.421,2.607v2.382a10.008,10.008,0,0,0,.1,1.524Zm-.18-3.252c-1.253-.026-2.689.2-2.689,1.43a1.021,1.021,0,0,0,1.083,1.109,1.594,1.594,0,0,0,1.551-1.066,1.208,1.208,0,0,0,.055-.365Z"/><path class="cls-3" d="M186.8,108.441v1.834h1.663v.877H186.8v3.432c0,.794.227,1.241.875,1.241a2.319,2.319,0,0,0,.672-.083l.052.88a2.978,2.978,0,0,1-1.035.159,1.627,1.627,0,0,1-1.251-.49,2.444,2.444,0,0,1-.449-1.661v-3.478h-.987v-.877h.987v-1.534Z"/><path class="cls-3" d="M191.058,108.475a.7.7,0,0,1-.738.719.692.692,0,0,1-.7-.719.705.705,0,0,1,.721-.721A.7.7,0,0,1,191.058,108.475Zm-1.295,8.168v-6.368h1.153v6.368Z"/><path class="cls-3" d="M193.491,113.668a2.033,2.033,0,0,0,2.179,2.21,4.264,4.264,0,0,0,1.763-.326l.2.823a5.143,5.143,0,0,1-2.124.406,2.969,2.969,0,0,1-3.134-3.214c0-1.93,1.138-3.437,3-3.437,2.078,0,2.621,1.822,2.621,3a2.719,2.719,0,0,1-.04.543Zm3.389-.833a1.642,1.642,0,0,0-1.6-1.875,1.9,1.9,0,0,0-1.778,1.875Z"/><path class="cls-3" d="M199.437,112c0-.665-.021-1.192-.052-1.72h1.023l.063,1.047h.033a2.351,2.351,0,0,1,2.106-1.192c.875,0,2.244.526,2.244,2.714v3.8H203.7v-3.672c0-1.03-.388-1.892-1.472-1.892a1.668,1.668,0,0,0-1.56,1.189,1.774,1.774,0,0,0-.08.537v3.838h-1.153Z"/><path class="cls-3" d="M208.079,108.441v1.834h1.664v.877h-1.664v3.432c0,.794.23,1.241.876,1.241a2.319,2.319,0,0,0,.672-.083l.052.88a2.96,2.96,0,0,1-1.033.159,1.621,1.621,0,0,1-1.251-.49,2.443,2.443,0,0,1-.45-1.661v-3.478h-.986v-.877h.986v-1.534Z"/><path class="cls-3" d="M210.882,115.463a3.148,3.148,0,0,0,1.535.454c.846,0,1.238-.416,1.238-.948,0-.557-.337-.849-1.184-1.166-1.15-.417-1.694-1.043-1.692-1.806a1.968,1.968,0,0,1,2.2-1.867,3.064,3.064,0,0,1,1.558.392l-.288.841a2.5,2.5,0,0,0-1.3-.375c-.684,0-1.055.395-1.055.875,0,.527.375.762,1.208,1.086,1.1.408,1.669.963,1.671,1.913,0,1.129-.877,1.919-2.381,1.919a3.623,3.623,0,0,1-1.789-.444Z"/></g></g></svg>