<svg xmlns="http://www.w3.org/2000/svg" xmlns:xlink="http://www.w3.org/1999/xlink" viewBox="0 0 651.87 583.72"><defs><clipPath id="clip-path"><circle cx="101.65" cy="461.09" r="85.78" style="fill:#781ff7"/></clipPath><clipPath id="clip-path-2"><circle cx="343.28" cy="79.28" r="42.89" style="fill:#781ff7"/></clipPath></defs><title>boost</title><g id="Layer_2" data-name="Layer 2"><g id="Layer_1-2" data-name="Layer 1"><path d="M368,170.45a8.14,8.14,0,0,0-1.31-.22c-10.7-.89-148.28-12.17-158.34-4.13-6.79,5.44,2.31,10.87,9.52,14,7.39,3.22,5.89,14.5-2.14,15.22-.36,0-.72,0-1.1,0-10.46,0-56.49,6.28-56.49,16.74,0,8.88,13.58,31.33,17.67,37.91a7.94,7.94,0,0,0,3.06,2.83l37.22,19.59a7.13,7.13,0,0,0,1.31.55l77.9,24.6a8.65,8.65,0,0,0,1.89.36l40,2.58,33.29,2.14c13.29.86,26.61,1.29,39.84,3,2.66.35,5.77,1,8.44.48a4.82,4.82,0,0,0,3.52-2.44,6.38,6.38,0,0,0,.21-3.85c-.64-3.75,50-7.59,47.36-10.34,0-.52-12-7.88-10.46-8.36,6.29-2-10.66-1.45-12.47-9.47-1.74-7.76-9.35-14.44-14.7-19.8L409,228.66a8,8,0,0,1,3.9-13.44l37-8.33c8.19-1.84,8.35-13.46.21-15.54Z" style="fill:#4904ab"/><path d="M422.91,181.3l-.62,1.85c-.32,1-51.5-8.9-52.51-9-50.15-7.05-101.46-7.52-152-5.14-1.4.07-3.18.45-3.42,1.83-.29,1.7,2,2.51,3.7,2.7a78.06,78.06,0,0,1,22,5.84c2.49,1.08,5.24,2.67,5.66,5.36.56,3.54-3.19,6.12-6.46,7.6a125.54,125.54,0,0,1-48.58,11c-2.68.06-5.63.14-7.64,1.92-2.95,2.62-2.27,7.3-1.61,11.19s.54,8.87-3,10.6c-1.79.88-4.66,1.42-4.34,3.39.17,1.06,1.29,1.64,2.27,2.06a118.7,118.7,0,0,1,39.06,27.75c3.49,3.74,5.56,8,10.3,10a2.12,2.12,0,0,1,1.2,1.35c.44,1.49,12.35,14.36,12.79,15.85.5,1.66-10.92,2.68-12.55,2.09-9-3.27-19.75-17.43-28.8-20.7-3.28-1.19-6.51-3.09-10.13-2.24a2.13,2.13,0,0,0-1.39,3,50.12,50.12,0,0,1,4.92,19.91c.09,2.28,5,14.61,4,12.58-7-14-15.38-28.49-27.28-39.07-11.58-10.28-25.8-17.31-37-27.95a6.25,6.25,0,0,1-1.81-2.41c-1.05-3.09,2.54-5.59,5.5-7,2.41-1.12,6.65-4,4.83-7.12s-8.88-2.07-11.74-2.1c-2.08,0-4.55-.6-5.31-2.54a4,4,0,0,1,.87-3.85,10.52,10.52,0,0,1,3.34-2.39c11.14-5.79,23.59-8.57,36-10.35,9.18-1.31,18.38-2.42,27.59-3.54,8.35-1,17.4-1.21,25.36-4.1,1.38-.5,3-1.5,2.76-2.95a3.1,3.1,0,0,0-1.36-1.8c-4.47-3.35-10.33-4.28-15.91-4.08s-11.08,1.44-16.64,1.93a14.13,14.13,0,0,1-6.21-.49,5.63,5.63,0,0,1-3.83-4.54c-.22-3,2.63-5.24,5.26-6.7a57,57,0,0,1,18.06-6.64,195.71,195.71,0,0,1,27.88-2.4c20.88-.33,41.78-.61,62.65.07,17.59.56,35.15,2.51,52.72,3.83,2.83,0,5.72.42,8.54.63l8.72.63a139.34,139.34,0,0,1,16.42,1.73c4.72.9,9.36,2.2,14,3.3,4.17,1,8.35,2,12.51,3,6.45,1.59,13,3,19.33,5.17C421.2,180.48,423,181,422.91,181.3Z" style="fill:#ff8c3d"/><path d="M607,522.06l-141.2-81.53c-4.91-2.83-4.3-7.78,1.37-11h0c5.67-3.28,14.25-3.63,19.15-.8l141.21,81.53c4.91,2.83,4.3,7.78-1.37,11.06h0C620.44,524.54,611.86,524.89,607,522.06Z" style="opacity:0.15"/><path d="M632.52,90.16,480.37,2.3c-5-2.88-9.54-2.95-13-.79v0L448.3,12.54l12.8,2.38c0,.66-.07,1.32-.07,2V375.79c0,14.24,8.66,30.79,19.34,37l150,86.63c-1.36,4.29-4.27,13.3-4.27,13.3l18.67-10.83h0c4.32-2.23,7.09-7.82,7.09-15.86V127.13C651.87,112.88,643.21,96.33,632.52,90.16Z" style="fill:#781ff7"/><path d="M461,375.79c0,14.24,8.66,30.8,19.34,37l150,86.63c-1.36,4.29-4.27,13.3-4.27,13.3l18.67-10.83h0c4.32-2.23,7.09-7.82,7.09-15.86V127.13a48.1,48.1,0,0,0-6.14-22.36L461,211.4Z" style="fill:#07078e"/><path d="M613.33,511.73,461.18,423.87c-10.68-6.17-19.35-22.72-19.35-37V28.05c0-14.25,8.67-20.8,19.35-14.63l152.15,87.86c10.68,6.17,19.35,22.72,19.35,37V497.11C632.68,511.35,624,517.9,613.33,511.73Z" style="fill:#d4ecff"/><path d="M615.31,100,463.16,12.15c-5.51-3.18-10.47-3-14-.06,3.3-1.59,7.47-1.29,12,1.33l152.15,87.86c10.68,6.17,19.35,22.72,19.35,37V497.11c0,6.9-2,12-5.36,14.69,4.47-2.15,7.34-7.78,7.34-16V137C634.66,122.73,626,106.18,615.31,100Z" style="fill:#fff"/><path d="M610.49,499.85,464.3,415.43c-7.94-4.59-14.38-16.89-14.38-27.48V34.19c0-10.59,6.44-15.45,14.38-10.87l146.19,84.42c8,4.59,14.39,16.89,14.39,27.48V489C624.88,499.57,618.44,504.44,610.49,499.85Z" style="fill:#fff"/><path d="M611.7,499.36,465.5,414.93c-7.94-4.58-14.38-16.88-14.38-27.47V33.7c0-6,2-10.08,5.21-11.76-3.86,1.2-6.41,5.59-6.41,12.25V388c0,10.59,6.44,22.89,14.38,27.48l146.19,84.42c3.49,2,6.68,2.2,9.17.89C617.38,501.45,614.65,501.06,611.7,499.36Z" style="fill:#5793ce"/><path d="M550.69,391.2l-71.76-41.43V175.32l33.81,19.52a75.92,75.92,0,0,1,38,65.74Z" style="fill:#efefef"/><path d="M453.27,158.45h0c-7.24-4.31-17.31-3.78-28.42,2.64-22,12.7-39.91,43.71-39.91,69.11v18.34h0l.76.44,71.89,42.3,1.09-21.94.9-8.52,3.81-13.23.44-2L472,229.1l6.44-8,5.22-6.22,12.72-10,1.12-.84,6.25-2.69,8.41-2.18h6.56l7.33,1.28Z" style="fill:#d4ecff"/><path d="M462.43,328l2.33-1.35V243.14a17.21,17.21,0,0,0-2.33,5.91Z" style="fill:#d4ecff"/><polygon points="535.08 369.87 462.43 328.02 463.18 248.94 465.96 240.95 474.37 226.49 484.32 214.69 493.29 207.51 502.98 201.63 520.58 199.61 529.88 204.88 535.08 212.84 536.72 225.06 536.16 357.24 535.08 369.87" style="fill:#781ff7"/><path d="M453.28,158.46c-6.06-3.61-14.1-3.81-23.07,0l74,42.73,7.94-2.06h6.56l7.33,1.28-72.79-41.94Z" style="fill:#4904ab"/><path d="M432,157.75a46,46,0,0,0-7.09,3.35c-1.62.93-3.22,2-4.79,3.1l73.79,42.6,2.53-2,1.12-.84,6.25-2.69,2.5-.64Z" style="fill:#e9f6ff"/><path d="M484.3,214.34l10-7.91-73.76-42.59A72.09,72.09,0,0,0,411,172Z" style="fill:#fff"/><path d="M537.41,368.53l-2.33,1.34V227.34c0-23.93-16.85-33.66-37.57-21.7s-37.58,41.16-37.58,65.08v19.22l-2.33,1.35V272.07c0-25.41,17.9-56.41,39.91-69.12s39.9-2.37,39.9,23Z" style="fill:#4904ab"/><path d="M525.86,323.57a2.79,2.79,0,0,1-1.36-.4l-52.84-30.51a6.47,6.47,0,0,1-2.77-5.22V245.87a2.91,2.91,0,0,1,1.24-2.64,2.31,2.31,0,0,1,2.38.13l52.84,30.5a6.48,6.48,0,0,1,2.77,5.23v41.56a2.88,2.88,0,0,1-1.24,2.64A2,2,0,0,1,525.86,323.57Zm-54.7-78.91a.27.27,0,0,0-.18.05c-.18.1-.39.47-.39,1.16v41.57a4.77,4.77,0,0,0,1.92,3.75l52.84,30.51c.13.07.47.25.68.12s.39-.47.39-1.17V279.09a4.78,4.78,0,0,0-1.92-3.76l-52.84-30.5A1.09,1.09,0,0,0,471.16,244.66Z" style="fill:#fff;opacity:0.4"/><path d="M488.07,294.36l-.38-.22a6,6,0,0,1-2.49-4.76V269.57c0-1.84,1.12-2.68,2.49-1.88l.38.21a6,6,0,0,1,2.49,4.76v19.81C490.56,294.31,489.44,295.15,488.07,294.36Z" style="fill:#fff"/><path d="M498.69,300.49l-.37-.21a6,6,0,0,1-2.49-4.77V283.92c0-1.84,1.11-2.68,2.49-1.89l.37.22a6,6,0,0,1,2.49,4.76v11.6C501.18,300.44,500.07,301.29,498.69,300.49Z" style="fill:#fff"/><path d="M509.32,306.63l-.38-.22a6,6,0,0,1-2.49-4.76v-27.6c0-1.83,1.12-2.68,2.49-1.88l.38.21a6,6,0,0,1,2.49,4.77v27.59C511.81,306.58,510.69,307.42,509.32,306.63Z" style="fill:#051cb8"/><path d="M533,432.07,486.5,405.23c-2.07-1.2-3.74-4.39-3.74-7.15V363.52c0-2.76,1.67-4,3.74-2.83L533,387.53c2.07,1.19,3.74,4.39,3.74,7.14v34.57C536.72,432,535.05,433.26,533,432.07Z" style="fill:#efefef"/><path d="M528.38,377.23,481.9,350.39a2.39,2.39,0,0,0-2.41-.19v0L475,352.78l3.17,1.15v33.86c0,2.75,1.67,5.95,3.74,7.14l44.43,25.65v4l4.55-2.63h0a3.3,3.3,0,0,0,1.26-3V384.38C532.12,381.62,530.45,378.42,528.38,377.23Z" style="fill:#07078e"/><path d="M523.79,424.42,477.3,397.58c-2.06-1.19-3.74-4.39-3.74-7.15V355.87c0-2.76,1.68-4,3.74-2.83l46.49,26.84c2.07,1.19,3.74,4.39,3.74,7.14v34.57C527.53,424.34,525.86,425.61,523.79,424.42Z" style="fill:#4904ab"/><path d="M523.79,379.88,477.3,353a2.2,2.2,0,0,0-2.89.19,2.86,2.86,0,0,1,1.65.42l46.49,26.84c2.06,1.2,3.74,4.39,3.74,7.15V422.2a3.81,3.81,0,0,1-.85,2.64c1.23-.1,2.09-1.29,2.09-3.25V387C527.53,384.27,525.86,381.07,523.79,379.88Z" style="fill:#fff"/><path d="M492.94,385.67c0,2-1.41,2.81-3.14,1.81a6.94,6.94,0,0,1-3.14-5.43c0-2,1.41-2.81,3.14-1.81A6.94,6.94,0,0,1,492.94,385.67Z" style="fill:#fff"/><path d="M502.44,391.15c0,2-1.41,2.81-3.14,1.81a6.93,6.93,0,0,1-3.13-5.43c0-2,1.4-2.81,3.13-1.81A6.94,6.94,0,0,1,502.44,391.15Z" style="fill:#fff"/><path d="M511.94,396.64c0,2-1.4,2.81-3.14,1.81a6.93,6.93,0,0,1-3.13-5.43c0-2,1.4-2.81,3.13-1.81A6.91,6.91,0,0,1,511.94,396.64Z" style="fill:#fff"/><path d="M610.08,476.58,563.6,449.74c-2.07-1.19-3.74-4.39-3.74-7.14V364.81c0-2.76,1.67-4,3.74-2.83l46.48,26.84c2.07,1.19,3.74,4.39,3.74,7.14v77.79C613.82,476.51,612.15,477.77,610.08,476.58Z" style="fill:#efefef"/><path d="M605.48,378.52,559,351.68a2.39,2.39,0,0,0-2.41-.19v0l-4.51,2.61,3.17,1.15V432.3c0,2.75,1.67,5.95,3.74,7.15l44.43,25.65v4l4.55-2.62h0a3.31,3.31,0,0,0,1.26-3V385.67C609.22,382.91,607.55,379.71,605.48,378.52Z" style="fill:#d61bde"/><path d="M600.89,468.93,554.4,442.09c-2.06-1.19-3.74-4.39-3.74-7.14V357.16c0-2.76,1.68-4,3.74-2.83l46.49,26.84c2.07,1.19,3.74,4.39,3.74,7.14V466.1C604.63,468.86,603,470.12,600.89,468.93Z" style="fill:#b005b8"/><path d="M600.89,381.17,554.4,354.33a2.2,2.2,0,0,0-2.89.19,2.86,2.86,0,0,1,1.65.42l46.48,26.84c2.07,1.19,3.74,4.39,3.74,7.15v77.79a3.76,3.76,0,0,1-.84,2.63c1.23-.1,2.09-1.29,2.09-3.25V388.31C604.63,385.56,603,382.36,600.89,381.17Z" style="fill:#fff"/><path d="M584.43,391.71c0,4.32-3,6.08-6.78,3.92a15,15,0,0,1-6.78-11.75c0-4.32,3-6.08,6.78-3.92A15,15,0,0,1,584.43,391.71Z" style="fill:#fff"/><path d="M587.26,403.93l0-.2c-.29-1.82-2-3.42-3.15-3-1.76.62-4,.32-6.43-1.09a20,20,0,0,1-6.43-6.34c-1.14-1.71-2.86-2.11-3.15-.62l0,.17-3.22,20.42,25.65,14.81Z" style="fill:#fff"/><polygon points="592.29 443.62 561.15 425.64 561.15 423.39 592.29 441.37 592.29 443.62" style="fill:#fff"/><polygon points="582.88 448 561.15 435.45 561.15 433.2 582.88 445.75 582.88 448" style="fill:#fff"/><polygon points="579.95 441.4 561.15 430.54 561.15 428.3 579.95 439.15 579.95 441.4" style="fill:#fff"/><polygon points="592.29 448.52 582.88 443.09 582.88 440.85 592.29 446.28 592.29 448.52" style="fill:#fff"/><path d="M610.08,366.56,563.6,339.72c-2.07-1.2-3.74-4.4-3.74-7.15V254.78c0-2.75,1.67-4,3.74-2.83l46.48,26.84c2.07,1.19,3.74,4.39,3.74,7.15v77.79C613.82,366.48,612.15,367.75,610.08,366.56Z" style="fill:#efefef"/><path d="M605.48,268.5,559,241.66a2.42,2.42,0,0,0-2.41-.2v0L552.09,244l3.17,1.16v77.07c0,2.76,1.67,6,3.74,7.15l44.43,25.65v4l4.55-2.63h0a3.31,3.31,0,0,0,1.26-3V275.64C609.22,272.89,607.55,269.69,605.48,268.5Z" style="fill:#07078e"/><path d="M600.89,358.91,554.4,332.07c-2.06-1.19-3.74-4.39-3.74-7.15V247.13c0-2.75,1.68-4,3.74-2.83l46.49,26.84c2.07,1.2,3.74,4.39,3.74,7.15v77.79C604.63,358.83,603,360.1,600.89,358.91Z" style="fill:#781ff7"/><path d="M600.89,271.14,554.4,244.3a2.2,2.2,0,0,0-2.89.2,2.78,2.78,0,0,1,1.65.42l46.48,26.84c2.07,1.19,3.74,4.39,3.74,7.14v77.79a3.81,3.81,0,0,1-.84,2.64c1.23-.11,2.09-1.29,2.09-3.25V278.29C604.63,275.53,603,272.33,600.89,271.14Z" style="fill:#fff"/><polygon points="592.36 288.71 561.22 270.73 561.22 268.49 592.36 286.46 592.36 288.71" style="fill:#fff"/><polygon points="582.96 293.09 561.22 280.54 561.22 278.29 582.96 290.84 582.96 293.09" style="fill:#fff"/><polygon points="580.02 286.49 561.22 275.63 561.22 273.39 580.02 284.25 580.02 286.49" style="fill:#fff"/><polygon points="592.36 293.61 582.96 288.18 582.96 285.94 592.36 291.37 592.36 293.61" style="fill:#fff"/><polygon points="592.36 307.65 561.22 289.67 561.22 287.43 592.36 305.4 592.36 307.65" style="fill:#fff"/><polygon points="582.96 312.03 561.22 299.48 561.22 297.23 582.96 309.78 582.96 312.03" style="fill:#fff"/><polygon points="580.02 305.43 561.22 294.57 561.22 292.33 580.02 303.19 580.02 305.43" style="fill:#fff"/><polygon points="592.36 312.55 582.96 307.13 582.96 304.88 592.36 310.31 592.36 312.55" style="fill:#fff"/><polygon points="592.36 326.59 561.22 308.61 561.22 306.37 592.36 324.35 592.36 326.59" style="fill:#fff"/><polygon points="582.96 330.97 561.22 318.42 561.22 316.17 582.96 328.72 582.96 330.97" style="fill:#fff"/><polygon points="580.02 324.37 561.22 313.51 561.22 311.27 580.02 322.13 580.02 324.37" style="fill:#fff"/><polygon points="592.36 331.49 582.96 326.06 582.96 323.82 592.36 329.25 592.36 331.49" style="fill:#fff"/><polygon points="494.22 321.43 472.01 308.61 472.01 306.54 494.22 319.36 494.22 321.43" style="fill:#fff"/><polygon points="507.99 329.38 498.5 323.91 498.5 321.83 507.99 327.31 507.99 329.38" style="fill:#fff"/><polygon points="494.99 326.39 485.5 320.92 485.5 318.84 494.99 324.32 494.99 326.39" style="fill:#fff"/><polygon points="515.54 338.25 498.5 328.42 498.5 326.35 515.54 336.18 515.54 338.25" style="fill:#fff"/><polygon points="527.19 349.5 502 334.96 502 332.88 527.19 347.43 527.19 349.5" style="fill:#fff"/><polygon points="521.56 337.22 512.08 331.74 512.08 329.67 521.56 335.14 521.56 337.22" style="fill:#fff"/><polygon points="481.5 318.6 472.01 313.12 472.01 311.05 481.5 316.53 481.5 318.6" style="fill:#fff"/><polygon points="497.94 332.61 471.96 317.61 471.96 315.54 497.94 330.54 497.94 332.61" style="fill:#fff"/><polygon points="487.94 331.35 472.27 322.3 472.27 320.23 487.94 329.28 487.94 331.35" style="fill:#fff"/><path d="M604.1,223.14,482.53,153c-7.87-4.54-14.25-16.73-14.25-27.23h0c0-10.49,6.38-15.32,14.25-10.77L604.1,185.13c7.87,4.55,14.25,16.74,14.25,27.23h0C618.35,222.86,612,227.68,604.1,223.14Z" style="fill:#efefef"/><path d="M615.36,205.46c0-10.49-6.39-22.68-14.26-27.23L479.54,108.05c-3.66-2.12-7-2.18-9.52-.61l0,0-6,3.5,2.75.31a17.61,17.61,0,0,0-1.51,7.61h0c0,10.5,6.38,22.69,14.25,27.24L601.1,216.24a12.38,12.38,0,0,0,4.41,1.61l-.74,2.43,5.91-3.44h0C613.52,215,615.36,211.07,615.36,205.46Z" style="fill:#d61bde"/><path d="M595.28,219.63,473.72,149.44c-7.87-4.54-14.25-16.73-14.25-27.23h0c0-10.49,6.38-15.32,14.25-10.77l121.56,70.18c7.87,4.55,14.26,16.74,14.26,27.23h0C609.54,219.35,603.15,224.17,595.28,219.63Z" style="fill:#b005b8"/><path d="M596.49,180.84,474.93,110.65c-4-2.31-7.62-2.19-10.21-.13,2.46-1.26,5.59-1,9,.92l121.56,70.18c7.88,4.55,14.26,16.74,14.26,27.23,0,5.16-1.55,8.93-4,10.92,3.21-1.64,5.25-5.76,5.25-11.7C610.74,197.57,604.36,185.38,596.49,180.84Z" style="fill:#fff"/><path d="M558.45,138.93,483.14,95.5c-7.88-4.55-14.26-16.74-14.26-27.24h0c0-10.49,6.38-15.32,14.26-10.77l75.31,43.44c7.88,4.54,14.26,16.73,14.26,27.23h0C572.71,138.65,566.33,143.48,558.45,138.93Z" style="fill:#efefef"/><path d="M569.11,121.22c0-10.49-6.38-22.68-14.25-27.23L479.54,50.55c-3.66-2.11-7-2.17-9.52-.6l0,0-6,3.5,2.75.31a17.58,17.58,0,0,0-1.51,7.61h0c0,10.49,6.38,22.69,14.25,27.23L554.86,132a12.38,12.38,0,0,0,4.41,1.61l-.74,2.43,5.9-3.44h0C567.28,130.79,569.11,126.83,569.11,121.22Z" style="fill:#07078e"/><path d="M549,135.39,473.72,92c-7.87-4.54-14.25-16.74-14.25-27.23h0c0-10.5,6.38-15.32,14.25-10.78L549,97.38c7.87,4.54,14.25,16.74,14.25,27.23h0C563.29,135.11,556.91,139.93,549,135.39Z" style="fill:#781ff7"/><path d="M550.25,96.59,474.93,53.16c-4-2.31-7.62-2.19-10.21-.14,2.46-1.25,5.59-1.05,9,.92L549,97.38c7.87,4.54,14.25,16.74,14.25,27.23,0,5.16-1.54,8.93-4,10.91,3.2-1.63,5.25-5.75,5.25-11.69C564.5,113.33,558.12,101.14,550.25,96.59Z" style="fill:#fff"/><polygon points="515.02 95.56 483.88 77.58 483.88 75.34 515.02 93.32 515.02 95.56" style="fill:#fff"/><polygon points="539.77 109.83 518.03 97.28 518.03 95.04 539.77 107.59 539.77 109.83" style="fill:#fff"/><polygon points="502.68 93.34 483.88 82.49 483.88 80.24 502.68 91.1 502.68 93.34" style="fill:#fff"/><polygon points="515.02 100.47 505.62 95.04 505.62 92.79 515.02 98.22 515.02 100.47" style="fill:#fff"/><polygon points="588.23 196.1 557.09 178.12 557.09 175.87 588.23 193.85 588.23 196.1" style="fill:#fff"/><polygon points="554.18 176.44 532.45 163.89 532.45 161.65 554.18 174.2 554.18 176.44" style="fill:#fff"/><polygon points="575.89 193.88 557.09 183.02 557.09 180.78 575.89 191.63 575.89 193.88" style="fill:#fff"/><polygon points="588.23 201 578.83 195.57 578.83 193.33 588.23 198.76 588.23 201" style="fill:#fff"/><polygon points="554.18 181.31 544.78 175.88 544.78 173.64 554.18 179.07 554.18 181.31" style="fill:#fff"/><polygon points="404.11 203.39 399.32 200.62 400.11 199.18 404.9 201.94 404.11 203.39" style="fill:#2005c2"/><path d="M395.09,198.18l.79-1.44-1.82-1.05c-.25.49-.46,1-.7,1.49Z" style="fill:#2005c2"/><polygon points="413.13 208.59 408.33 205.83 409.12 204.38 413.92 207.15 413.13 208.59" style="fill:#2005c2"/><polygon points="422.14 213.8 417.35 211.03 418.14 209.59 422.93 212.35 422.14 213.8" style="fill:#2005c2"/><polygon points="431.16 219.01 426.37 216.24 427.16 214.79 431.95 217.56 431.16 219.01" style="fill:#2005c2"/><polygon points="440.18 224.21 435.38 221.45 436.18 220 440.97 222.77 440.18 224.21" style="fill:#2005c2"/><polygon points="449.19 229.42 444.4 226.65 445.19 225.21 449.98 227.97 449.19 229.42" style="fill:#2005c2"/><polygon points="458.21 234.62 453.42 231.86 454.21 230.41 459 233.18 458.21 234.62" style="fill:#2005c2"/><polygon points="467.23 239.83 462.44 237.06 463.23 235.62 468.02 238.38 467.23 239.83" style="fill:#2005c2"/><polygon points="490.68 215.7 485.81 212.89 486.81 211.53 490.68 213.76 490.68 215.7" style="fill:#2005c2"/><polygon points="499.85 221 494.98 218.18 494.98 216.24 499.85 219.06 499.85 221" style="fill:#2005c2"/><polygon points="509.02 226.29 504.15 223.47 504.15 221.54 509.02 224.35 509.02 226.29" style="fill:#2005c2"/><polygon points="518.2 231.58 513.32 228.77 513.32 226.83 518.2 229.65 518.2 231.58" style="fill:#2005c2"/><polygon points="527.37 236.88 522.49 234.06 522.49 232.13 527.37 234.94 527.37 236.88" style="fill:#2005c2"/><polygon points="536.54 242.17 531.66 239.36 531.66 237.42 536.54 240.24 536.54 242.17" style="fill:#2005c2"/><polygon points="529.56 162.24 512.03 152.12 512.03 149.88 529.56 159.99 529.56 162.24" style="fill:#fff"/><path d="M406.58,555.42c-2.76-2-5.84-3.6-8.22-5.94-11.64-11.42-23.32-22.82-34.57-34.62-17.44-18.27-34.45-36.94-51.86-55.22-3.44-3.61-7.9-6.25-11.89-9.33,7.85-24.05,10.88-49.08,15.08-73.87l2.17-3.2,0,.16c7.44-1.46,14.24.59,20.8,3.88v5.31c-8.52-3.36-10.25-2.95-13.85,3.78-2.76,5.13-5.07,10.5-7.68,16,2.57,2.8,4.48,5.27,6.77,7.32,12.11,10.87,24.33,21.61,36.47,32.44,13.7,12.22,27.21,24.66,41.09,36.67,7.29,6.31,15.19,11.92,22.81,17.84,0,.66,0,1.32,0,2-2.57,4.08-5.5,8-7.66,12.28C409,524.86,407.27,540.05,406.58,555.42Z" style="fill:#8705c2"/><path d="M423.62,498.59c0-.66,0-1.32,0-2,12.85-15.19,26.66-29.15,46.16-35.75l12.82,10.73c.6.76,1.2,1.51,1.79,2.27q5.24,8.26,10.45,16.54l2.26,4,6.9,12.84,1.41,1.86,18,33.91,4.68,8.67,6.57,12,2.14,3.89,1.79-.65-1.47-6-5-22.47-1.39-2.82q-8.67-22.61-17.33-45.22c-.42-.77-.85-1.53-1.28-2.3-4-10.65-10.93-19.22-19.12-26.9.67,0-2.92-1.95-2.28-2.19,13.49,2.54,27.22,12.33,31.36,25,7.56,23.09,14,46.55,20.85,69.86,1.28,4.33,3.07,8.58,3.71,13,.71,4.85,3,10.48-3.16,13.92A78.26,78.26,0,0,1,515,565.23q-3.58-3-7.37-5.77Q465.63,529,423.62,498.59Z" style="fill:#d61bde"/><path d="M315.12,376.44c-4.2,24.79-7.23,49.82-15.08,73.87-7.6,19.29-15.45,38.48-22.66,57.92-2.49,6.69-5.75,10.92-13.38,10.14l-16.07-4.92c-9.7-8.15-9.7-8.15-4.84-19.83,3.76,15.21,9.29,19.26,22.87,16.4-2-2.95-4.32-5.6-5.6-8.69-1.67-4.05-4.28-8.9-3.36-12.64,6.34-25.74,13.53-51.26,20.35-76.88,1-3.63,3-5.25,6.69-5,.84.58,2.12,1,2.45,1.78,2.28,5.63,7.14.83,10.46,2.06a1.7,1.7,0,0,0,2.16-.72,40.44,40.44,0,0,0,3.3-7.11c1.06-3.53,1.32-7.3,1.81-10.3l-6-11.06c-.05-2.49.41-5.12-.23-7.45-1.61-5.85-3.71-11.57-5.61-17.35,6.53-.1,13.18.52,19.57-.46,8.76-1.35,18-2.88,21.28-13.36,14.68,3.9,29.46,7.48,44,11.84,8.75,2.62,14.57,9.24,18.29,17.44,4.3,9.46,8.26,19.07,12.37,28.61l-4.58-.75V400q-3.16-2.08-6.31-4.19l0,.05-6.75-5.74a21.2,21.2,0,0,0-15.95-20.48,152.1,152.1,0,0,0-49.1-4.64c-4.69.31-9,2.07-7.9,8.37l0-.16Z" style="fill:#4904ab"/><path d="M423.62,498.59q42,30.44,84,60.87,3.79,2.76,7.37,5.77a78.26,78.26,0,0,0,28.57,15.54c-2.88,3.15-6.33,3.26-10.38,2.68-33.19-4.78-66.41-9.36-99.62-14-9-1.25-17.7-3.4-24.66-9.73-1.14-1-1.55-2.85-2.3-4.3.69-15.37,2.37-30.56,9.38-44.55C418.12,506.57,421.05,502.67,423.62,498.59Z" style="fill:#b005b8"/><path d="M191.49,298a51.67,51.67,0,0,0-5.66-30.42c4.62-2.71,8.55-.2,12.54,1.25l31.08,11.25c4.68,5.21,10.69,7.89,17,10.94,8.13,4,13.39.28,19.57-2.87a10,10,0,0,1,3-.5c-.06,3.1-.07,6.2-.19,9.29-.44,10.94-.93,21.87-1.39,32.8q.72,6.17,1.45,12.34c1.33,4.62,2.65,9.25,4,13.87,2.71,9.35,5.83,18.31,20,18.08L275,384.16l-10.26-26.9-10.32-13.91q1.38-2.58,2.78-5.15c3.23-5.94,2.78-8.07-2.75-13.21-.58-13.41-5.87-23.78-18.82-29.23l-8.36-4.19c-5.8-4.93-12.69-5.63-20.72-5.87,1,3.78,2.13,6.62,2.53,9.55a78.72,78.72,0,0,1,.93,13.26c-.29,8.57-1.3,17.13-1.48,25.7,0,2.49,1.4,5.2,2.71,7.49,4.35,7.53,11.27,9.55,19.45,8.45l5.77,8.15c-11.78,4-21.85-.37-30.51-7.54A37.08,37.08,0,0,1,192,321.82C191.87,313.88,191.66,305.94,191.49,298Z" style="fill:#fcbc3b"/><path d="M493.06,461.18c8.19,7.68,15.11,16.25,19.12,26.9l-1.44,1.29,2.72,1q8.67,22.62,17.33,45.22l1.39,2.82,5,22.47-2.46,2.72-6.57-12c2.82-7.07,2.64-7.41-4.68-8.67l-18-33.91L504,507.22l-6.9-12.84c1.28-2.48,1.36-4.28-2.26-4q-5.22-8.26-10.45-16.54c-.59-.76-1.19-1.51-1.79-2.27l-12.82-10.73c-6.4-4.63-12.75-9.34-19.21-13.88Q426,429.73,401.4,412.61c-6.5-4.53-13.13-8.89-19.49-13.61-2.65-2-5.63-4.4-2.42-8.92a84.48,84.48,0,0,0,8.56,3.88,79.52,79.52,0,0,0,8.9,1.93l0-.05c-.46,5.25,3,4.63,6.31,4.19V400c.06,1-.26,2.67.24,3,10.26,6.14,18.52,15.64,30.78,18.42l0,0c1.52,3.95,4.79,4.43,8.4,4.21l0,0c4.48,8.46,12.27,12.19,21,14.67l0,0h2.22l4.06,2,2.27,2.2c.62,0-.78,0-.16,0,1.42,1.4,4.86,2.79,6.29,4.19l0,0,2.12,2.24,2,1.94q1.1,2.08,2.21,4.17l2.54,3.45" style="fill:#fcfcfc"/><path d="M383.89,285l-6.21,6.1c-5.74,5.4-11.45,10.81-17.2,16.18-8,7.49-11.43,7.53-20.25.37a29.55,29.55,0,0,0-2.58-1.69l-3.3,2.48c-4.11,2.75-7.9,6.3-12.4,8s-10,1.74-15,2.51c5.72-11.44,4.7-23.58,3.73-35.72q.85-5.34,1.7-10.69l2.74-.33,12.44,4.94c2.69,8.52,8.74,14.57,15.1,20.35,3.52,3.21,7.38,3.8,11.15.43,7.46-6.68,15.07-13.23,22.11-20.33,2.15-2.17,2.47-6.06,4-9,.77-1.47,2.36-2.49,3.59-3.72,1.06,4.11,1.35,8.67,6.23,10.52a4.36,4.36,0,0,0,.26,1.23Z" style="fill:#b005b8"/><path d="M307,318.94c5-.77,10.34-.74,15-2.51s8.29-5.27,12.4-8c-.29,2,.11,4.64-1,6-7.41,9.52-4.77,18.89-.16,28.36-3.28,10.48-12.52,12-21.28,13.36-6.39,1-13,.36-19.57.46q-4.58-9.64-9.16-19.28C291.29,331.44,301.11,327.74,307,318.94Z" style="fill:#b005b8"/><path d="M264.69,357.26,275,384.16c.81,6.58,4.51.28,6.53,1.47q1.29,10.58,2.56,21.16c-3.65-.23-5.73,1.39-6.69,5-6.82,25.62-14,51.14-20.35,76.88-.92,3.74,1.69,8.59,3.36,12.64,1.28,3.09,3.64,5.74,5.6,8.69-13.58,2.86-19.11-1.19-22.87-16.4,7.5-22.2,15.11-44.38,22.44-66.64,1.71-5.19,2.46-10.69,3.65-16.05,3.73-10.1,4.17-19.84-2.12-29.34C262.07,374,260.48,365.85,264.69,357.26Z" style="fill:#07078e"/><path d="M264.69,357.26c-4.21,8.59-2.62,16.78,2.37,24.33,6.29,9.5,5.85,19.24,2.12,29.34-.34,0-.83.06-1-.14-9.28-9.62-19.41-18.76-24.9-31.16-2.55-5.78-2.47-12.72-3.58-19.13,1.95-3.89,4-7.74,5.82-11.68s4.93-5.22,8.86-5.47Z" style="fill:#8705c2"/><path d="M260.36,542.79c1.93,11.36-3.48,20.21-10.5,28-4.23,4.7-11.18,3.45-12.48-2.4-3.42-15.31-3.95-30.77,3.71-45.32.42-.79,1.66-1.14,2.51-1.69,0,5.75-.48,11.54.09,17.24.79,7.83,3.42,10.3,11.37,12.23Z" style="fill:#ff8c3d"/><path d="M260.36,542.79l-5.3,8.06c-7.95-1.93-10.58-4.4-11.37-12.23-.57-5.7-.09-11.49-.09-17.24q2.16-4,4.33-7.93L264,518.37c-.53,2.94-1.14,5.87-1.57,8.83C261.68,532.39,261.05,537.59,260.36,542.79Z" style="fill:#781ff7"/><path d="M254.37,343.35c-3.93.25-7.08,1.64-8.86,5.47s-3.87,7.79-5.82,11.68l-3.28-2.2-5.77-8.15c1.7-14.17,9.82-22.77,23.76-25.16,5.53,5.14,6,7.27,2.75,13.21Q255.76,340.77,254.37,343.35Z" style="fill:#07078e"/><path d="M434.31,421.35c-12.26-2.78-20.52-12.28-30.78-18.42-.5-.3-.18-1.95-.24-3l4.58.75c7.45,5.16,15,10.22,22.3,15.55C431.88,417.5,433,419.63,434.31,421.35Z" style="fill:#e9e9e9"/><path d="M480.33,450.76l-2.12-2.24Z" style="fill:#e9e9e9"/><path d="M472.11,444.36l-2.27-2.2Z" style="fill:#e9e9e9"/><path d="M465.78,440.15h0Z" style="fill:#e9e9e9"/><path d="M379.85,258.64l2.74,1.74,2.05,3.5c-.36.35-.73.7-1.11,1-1.23,1.23-2.82,2.25-3.59,3.72-1.53,2.9-1.85,6.79-4,9-7,7.1-14.65,13.65-22.11,20.33-3.77,3.37-7.63,2.78-11.15-.43-6.36-5.78-12.41-11.83-15.1-20.35a47.94,47.94,0,0,1-2.86-4.81c-1.28-2.82-2.34-5.74-3.49-8.63,7.8,1.08,12.46,6.65,17.14,12.09,10.88,12.63,11,12.67,22.5.58a36.45,36.45,0,0,0,2.48-3.24Z" style="fill:#d61bde"/><path d="M392.35,269c5.32,1.24,6.67,6,8.82,10L390,276.66a4.36,4.36,0,0,1-.26-1.23q.3-3.17.58-6.33Z" style="fill:#4904ab"/><path d="M397,395.89a79.52,79.52,0,0,1-8.9-1.93,84.48,84.48,0,0,1-8.56-3.88c-3.21,4.52-.23,7,2.42,8.92,6.36,4.72,13,9.08,19.49,13.61Q426,429.77,450.61,447c6.46,4.54,12.81,9.25,19.21,13.88-19.5,6.6-33.31,20.56-46.16,35.75-7.62-5.92-15.52-11.53-22.81-17.84-13.88-12-27.39-24.45-41.09-36.67-12.14-10.83-24.36-21.57-36.47-32.44-2.29-2.05-4.2-4.52-6.77-7.32,2.61-5.47,4.92-10.84,7.68-16,3.6-6.73,5.33-7.14,13.85-3.78v-5.31c7.49,1.15,15,3.23,22.46,3.23a48.15,48.15,0,0,1,29.69,9.64Z" style="fill:#8705c2"/><path d="M390.2,390.15a48.15,48.15,0,0,0-29.69-9.64c-7.49,0-15-2.08-22.46-3.23-6.56-3.29-13.36-5.34-20.8-3.88-1.1-6.3,3.21-8.06,7.9-8.37a152.1,152.1,0,0,1,49.1,4.64A21.2,21.2,0,0,1,390.2,390.15Z" style="fill:#07078e"/><path d="M315.12,376.44l2.17-3.2Z" style="fill:#1c32a8"/><path d="M523.42,543c7.32,1.26,7.5,1.6,4.68,8.67Z" style="fill:#f4f6f7"/><path d="M534.67,563.61l2.46-2.72,1.47,6-1.79.65Z" style="fill:#f4f6f7"/><path d="M494.88,490.4c3.62-.3,3.54,1.5,2.26,4Z" style="fill:#f4f6f7"/><path d="M513.46,490.38l-2.72-1,1.44-1.29C512.61,488.85,513,489.61,513.46,490.38Z" style="fill:#f4f6f7"/><path d="M482.64,471.59l1.79,2.27Z" style="fill:#f4f6f7"/><path d="M504,507.22l1.41,1.86Z" style="fill:#f4f6f7"/><path d="M532.18,538.42l-1.39-2.82Z" style="fill:#f4f6f7"/><path d="M281.48,385.63c-2-1.19-5.72,5.11-6.53-1.47L292.9,374c-14.22.23-17.34-8.73-20-18.08-1.34-4.62-2.66-9.25-4-13.87l14.33-4.72q4.57,9.64,9.16,19.28c1.9,5.78,4,11.5,5.61,17.35.64,2.33.18,5,.23,7.45C292.22,381.27,286.36,381.49,281.48,385.63Z" style="fill:#b005b8"/><path d="M281.48,385.63c4.88-4.14,10.75-4.36,16.71-4.19.44,0,2.11,3.88,2.39,4.4.93,1.71,1.88,3.42,2.83,5.12a5.68,5.68,0,0,1,.54,1.24,4.43,4.43,0,0,1,.06,1.21,34.4,34.4,0,0,1-5.31,17.17,1.12,1.12,0,0,1-.39.39,1.15,1.15,0,0,1-.79-.07c-3-1-7.31,2.05-9.83-.41-.86-.85-1.12-2.25-2.14-2.88-.36-.23-.79-.33-1.14-.57-.94-.66-.75-3.38-.87-4.42-.24-1.94-.47-3.89-.71-5.83s-.45-3.72-.67-5.58C282.08,390.52,281.07,386,281.48,385.63Z" style="fill:#6169f3"/><path d="M403.28,400c-3.32.44-6.77,1.06-6.31-4.19Q400.12,397.94,403.28,400Z" style="fill:#e9e9e9"/><path d="M254.4,325c-13.94,2.39-22.06,11-23.76,25.16-8.18,1.1-15.1-.92-19.45-8.45-1.31-2.29-2.76-5-2.71-7.49.18-8.57,1.19-17.13,1.48-25.7a78.72,78.72,0,0,0-.93-13.26c-.4-2.93-1.5-5.77-2.53-9.55,8,.24,14.92.94,20.72,5.87l-1.34,1.64c-3.71-.71-7.19-3.63-11-1.94,5.53,7.93,10.62,15.47,16,22.82,2.59,3.55,5.8,6.2,10.37,2.67,3-8.54-2.66-13.68-7.24-19.24.54-.58,1.07-1.17,1.61-1.76C248.53,301.21,253.82,311.58,254.4,325Z" style="fill:#fd9203"/><path d="M284.05,319.5q-8.32,5.12-16.64,10.24c.46-10.93.95-21.86,1.39-32.8.12-3.09.13-6.19.19-9.29l5.91-2.91c4.88.93,6.87,3.92,6.7,8.82-.19,5.85-.35,11.73,0,17.56C281.8,314,283.2,316.71,284.05,319.5Z" style="fill:#b005b8"/><path d="M227.22,291.57l8.36,4.19c-.54.59-1.07,1.18-1.61,1.76l-8.09-4.31Z" style="fill:#fd9203"/><path d="M487.07,460.32l-2.54-3.45" style="fill:#f4f6f7"/><path d="M310.7,283.22l-5.11-2-3.76-5.82c4.07-3,3.12-6.4.88-9.93a2,2,0,0,0,.86-.75l7.43,2.5c.45,1.7.92,3.52,1.4,5.34Q311.56,277.87,310.7,283.22Z" style="fill:#4904ab"/><path d="M308.42,262.14l6.35-6.32,2.44.54,4,7.34c1.15,2.89,2.21,5.81,3.49,8.63a47.94,47.94,0,0,0,2.86,4.81l-12.44-4.94,5.22-9.25Z" style="fill:#4904ab"/><path d="M308.42,262.14l11.94.81-5.22,9.25-2.74.33c-.48-1.82-.95-3.64-1.4-5.34l-7.43-2.5Z" style="fill:#781ff7"/><path d="M390.34,269.1q-.29,3.16-.58,6.33c-4.88-1.85-5.17-6.41-6.23-10.52.38-.33.75-.68,1.11-1Z" style="fill:#b005b8"/><path d="M317.21,256.36l-2.44-.54c-8.27-5.63-10.07-14.12-10.08-23.29,0-8.77,4.36-14.73,12.27-18.24a72.34,72.34,0,0,1,6.63,30C323.57,249.66,321.94,253.71,317.21,256.36Z" style="fill:#666ffc"/><path d="M394.1,249.26a.7.7,0,0,1,.36.14l3,1.78a1.85,1.85,0,0,0,.8.32c.8.06,2.22-1.41,2.86-1.85,1-.68,2-1.36,3-2a9.54,9.54,0,0,1,4.25-1.7c3.23-.15,5.58,3,7.48,5.18a.64.64,0,0,1,.2.39.59.59,0,0,1-.25.42c-5.49,5.09-13.17,8.23-17.44,14.52a8.67,8.67,0,0,1-1.47,1.87c-1.21,1-3.12.46-4.59.65l-2,.1-5.7-5.22-2.05-3.5c1.55-2.1,2.85-4.45,4.7-6.24a47.81,47.81,0,0,1,6.41-4.71A.8.8,0,0,1,394.1,249.26Z" style="fill:#6169f3"/><path d="M301.83,275.37l3.76,5.82-.33,8.45a1.83,1.83,0,0,0-.16,1.91c-.67,3.35-1.25,6.72-2,10.05-2.33,10.22-9.16,15.69-19,17.9-.85-2.79-2.25-5.55-2.43-8.38-.37-5.83-.21-11.71,0-17.56.17-4.9-1.82-7.89-6.7-8.82l10-7.83.9.17c.91,2.73,1.82,5.45,3.14,9.42l5.32-5Z" style="fill:#d61bde"/><path d="M301.83,275.37l-7.62,6.1-8.46-4.39-.9-.17,1.51-2c.52-.6,1-1.21,1.57-1.81.62-.81,1.24-1.62,1.87-2.42L292,269l4.15-.64c.81,1.22,1.63,2.44,2.44,3.67.6-1.73,1.19-3.46,1.79-5.2l2.32-1.41C305,269,305.9,272.4,301.83,275.37Z" style="fill:#781ff7"/><path d="M300.39,266.85c-.6,1.74-1.19,3.47-1.79,5.2-.81-1.23-1.63-2.45-2.44-3.67Z" style="fill:#781ff7"/><path d="M287.93,273.06c-.53.6-1.05,1.21-1.57,1.81C286.88,274.27,287.4,273.66,287.93,273.06Z" style="fill:#e9e9e9"/><path d="M292,269l-2.21,1.62Z" style="fill:#e9e9e9"/><path d="M225.82,293.35a31.17,31.17,0,0,1,9.17,5.42,22.3,22.3,0,0,1,6.79,11.48c.58,2.53.53,5.62-1.52,7.22-1.74,1.35-4.33,1-6.2-.11a16.27,16.27,0,0,1-4.43-4.83L220.23,299c-1.41-2-4-4.57-4.8-6.9-.45-1.3.35-1.36,1.8-1.35a11.36,11.36,0,0,1,3.4.73C222.37,292.05,224.12,292.66,225.82,293.35Z" style="fill:#f4f6f7"/><path d="M285.75,277.08l8.46,4.39-5.32,5C287.57,282.53,286.66,279.81,285.75,277.08Z" style="fill:#4904ab"/><circle cx="101.65" cy="461.09" r="85.78" style="fill:#781ff7"/><g style="clip-path:url(#clip-path)"><path d="M33.88,463.24c4.35-3.23,10.59-1.63,15.33,1s9.21,6.23,14.59,6.86c6.65.77,13.09-3.38,17-8.85s5.62-12.11,7.31-18.58c1.11-4.26,2.24-8.64,1.79-13s-2.8-8.85-6.86-10.55c-6.08-2.55-12.89,1.94-16.89,7.17s-6.9,11.62-12.41,15.24-15,2.18-16.09-4.32c-.78-4.54,2.93-8.6,6.78-11.14s8.32-4.61,10.63-8.59.51-10.6-4.09-10.7c7-.66,15.71-2.82,16.91-9.74,1.15-6.7-6.42-11.93-13.22-12.27-10.38-.52-20.13,5.86-26.38,14.16s-9.64,18.35-12.92,28.2C10.49,442.58-10.8,480.55,7,491.91c6.68,4.27,15.81,2.81,20-4.16C31.35,480.51,26.37,468.83,33.88,463.24Z" style="fill:#4904ab"/><path d="M118.45,421.36c-.39,5.93,5.87,11.06,11.75,10.2s10.31-6.76,10.26-12.7-4-11.46-9.29-14.18l14.59-4.75a25.89,25.89,0,0,0,8-3.65c20.16-15.53-15.22-42-32.24-28.12-11,9,.72,16.37,4.48,25.56C131.44,407,119.2,409.8,118.45,421.36Z" style="fill:#4904ab"/><path d="M80.07,540.44A23.89,23.89,0,0,1,98,529.82c6-.45,12.36,1.33,17.78-1.23,10.61-5,8.73-21.24,16.24-30.26s23.4-7.27,30.84,1.84,7.24,22.78,2.06,33.34S150.45,552,140.72,558.63c-11.63,7.88-25.94,14.51-39.36,10.38C86.62,564.47,67.83,559.27,80.07,540.44Z" style="fill:#4904ab"/><path d="M171.41,464.41c2.78,3.23,1.59,8.43,3.84,12,9,14.5,22.54-9.17,23.33-17.06,1.14-11.33-4.34-20.89-15.78-23.29-9.28-1.95-26,1.77-30.84,10.85C142.6,464.42,165.65,457.71,171.41,464.41Z" style="fill:#4904ab"/></g><path d="M166.5,406.69c7.84-1.68,18,6.49,18.56,14.49s-4.55,15.55-11.12,20.15-14.48,6.79-22.22,8.91L110,461.68c-3.59,1-7.26,2-10.25,4.22s-5.15,5.93-4.47,9.59c.75,4,4.69,6.74,8.68,7.35s8-.46,11.91-1.67a179.6,179.6,0,0,0,78.33-49.72c6-6.53,11.84-14.76,10.25-23.48-1.63-8.88-10.82-14.76-19.81-15.6s-20,.86-28.55,3.86" style="fill:#ff8c3d"/><circle cx="343.28" cy="79.28" r="42.89" style="fill:#781ff7"/><g style="clip-path:url(#clip-path-2)"><path d="M309.4,80.36c2.18-1.62,5.29-.82,7.66.49s4.61,3.12,7.3,3.43c3.32.39,6.55-1.69,8.47-4.43s2.81-6,3.66-9.29a18.55,18.55,0,0,0,.9-6.51A6.3,6.3,0,0,0,334,58.78c-3-1.28-6.45,1-8.45,3.59s-3.45,5.8-6.2,7.62-7.5,1.08-8.05-2.17c-.39-2.27,1.47-4.3,3.39-5.57S318.81,60,320,58s.25-5.3-2.05-5.35c3.5-.33,7.86-1.41,8.45-4.87s-3.21-6-6.6-6.13c-5.19-.26-10.07,2.93-13.2,7.07s-4.82,9.18-6.46,14.11C297.7,70,287.06,89,295.94,94.69a7.15,7.15,0,0,0,10-2.08C308.13,89,305.64,83.15,309.4,80.36Z" style="fill:#4904ab"/><path d="M351.69,59.41c-.2,3,2.93,5.53,5.87,5.11a6.44,6.44,0,0,0,5.13-6.36A8.38,8.38,0,0,0,358,51.07l7.3-2.37a12.76,12.76,0,0,0,4-1.83c10.09-7.76-7.61-21-16.11-14-5.49,4.48.36,8.18,2.24,12.77C358.18,52.24,352.06,53.63,351.69,59.41Z" style="fill:#4904ab"/><path d="M332.49,119a12,12,0,0,1,9-5.32c3-.22,6.19.67,8.9-.61,5.3-2.51,4.36-10.62,8.12-15.13s11.7-3.64,15.42.92,3.62,11.39,1,16.67-7.24,9.25-12.11,12.56c-5.81,3.94-13,7.25-19.68,5.19C335.77,131,326.38,128.37,332.49,119Z" style="fill:#4904ab"/><path d="M378.17,80.94c1.39,1.62.79,4.22,1.92,6,4.51,7.24,11.27-4.59,11.66-8.54.57-5.66-2.17-10.44-7.89-11.64-4.64-1-13,.88-15.42,5.42C363.76,81,375.28,77.59,378.17,80.94Z" style="fill:#4904ab"/></g><path d="M375.71,52.08c3.92-.84,9,3.25,9.28,7.25s-2.27,7.77-5.56,10.07-7.24,3.39-11.11,4.45l-20.88,5.72a15,15,0,0,0-5.13,2.12,5.08,5.08,0,0,0-2.23,4.79c.37,2,2.34,3.37,4.34,3.68a13.53,13.53,0,0,0,5.95-.84,89.67,89.67,0,0,0,39.16-24.86c3-3.27,5.93-7.38,5.13-11.74s-5.41-7.38-9.9-7.8a36.14,36.14,0,0,0-14.28,1.93" style="fill:#ff8c3d"/><path d="M390.36,390s110.88,64.85,117.15,90S446.84,436,446.84,436l-67.27-44.85a.64.64,0,0,1,.35-1.17Z" style="fill:#fcfcfc"/><path d="M254.37,289.53s-2.09,25.11,0,35.57-2.09,12.55,0,18.83,20.84,41.62,20.84,41.62l18.91-10.24-6.28-10.46-10.46-8.37L269,341.84V283.26s-12.49,10.36-14.61,9.37" style="fill:#b005b8"/><path d="M283.19,337.36l-14.33,4.72q-.72-6.16-1.45-12.34,8.31-5.13,16.64-10.24c9.88-2.21,16.71-7.68,19-17.9.76-3.33,1.34-6.7,2-10.05.23-.18.68-.38.65-.51a7.28,7.28,0,0,0-.49-1.4l.33-8.45,5.11,2c1,12.14,2,24.28-3.73,35.72C301.11,327.74,291.29,331.44,283.19,337.36Z" style="fill:#4904ab"/><path d="M226.55,270.69a19.19,19.19,0,0,1,.68-7.61,19.39,19.39,0,0,1,10.45-11.88c7.21-3.23,16.78-2.3,21.67-8.5,4.37-5.55,5-14.82,7.76-21.35C274.9,202.91,298.3,194.56,315,204c5.38,3,5.58,4.08,1.93,10.27-7.91,3.51-12.27,9.47-12.27,18.24,0,9.17,1.81,17.66,10.08,23.29,1.32.9-15.39,11.15-16.86,11.63-2.43.79-5,1.33-7.13,2.74-2.33,1.55-3.21,4.68-5,6.79-6,6.93-15.42,10-23.91,13.37a25.21,25.21,0,0,1-8.31,2.27c-3.77.14-7.39-1.39-10.76-3.09-5.19-2.61-10.34-5.85-13.44-10.77A19.34,19.34,0,0,1,226.55,270.69Z" style="fill:#07078e"/></g></g></svg>