<svg xmlns="http://www.w3.org/2000/svg" xmlns:xlink="http://www.w3.org/1999/xlink" width="1075.182" height="360.593" viewBox="0 0 1075.182 360.593">
  <defs>
    <linearGradient id="linear-gradient" x1="0.5" x2="0.5" y2="1" gradientUnits="objectBoundingBox">
      <stop offset="0" stop-color="#f99603"/>
      <stop offset="1" stop-color="#e65e3e"/>
    </linearGradient>
  </defs>
  <g id="Group_1672" data-name="Group 1672" transform="translate(-34.798 202.472)">
    <g id="line_design" data-name="line design" transform="translate(34.798 -202.472)">
      <g id="Group_1442" data-name="Group 1442" transform="translate(0 95.749)" opacity="0.5">
        <g id="Group_1439" data-name="Group 1439">
          <path id="Path_5908" data-name="Path 5908" d="M130.109,47.986a101.24,101.24,0,0,1-11.491-1.191l.605-3.735a96.77,96.77,0,0,0,11.06,1.148Zm-22.771-3.7a99.733,99.733,0,0,1-10.92-3.8l1.45-3.493a96.129,96.129,0,0,0,10.5,3.657Zm-21.322-8.85a100.108,100.108,0,0,1-9.744-6.214l2.214-3.065a96.911,96.911,0,0,0,9.375,5.979ZM67.309,21.925a100.937,100.937,0,0,1-8.063-8.277L62.1,11.169a96.99,96.99,0,0,0,7.759,7.965ZM52.185,4.5a99.954,99.954,0,0,1-5.96-9.893L49.57-7.152a96.445,96.445,0,0,0,5.737,9.521ZM41.448-15.905A99.477,99.477,0,0,1,37.92-26.911l3.663-.944a95.778,95.778,0,0,0,3.394,10.587ZM35.7-38.251a100.133,100.133,0,0,1-.9-11.516l3.782-.076a96.422,96.422,0,0,0,.862,11.081ZM38.99-60.957l-3.765-.354a100.926,100.926,0,0,1,1.74-11.421l3.7.785A97.715,97.715,0,0,0,38.99-60.957ZM43.6-82.669l-3.585-1.21A99.79,99.79,0,0,1,44.345-94.6l3.417,1.619A95.616,95.616,0,0,0,43.6-82.669Zm9.5-20.072-3.209-2a100.867,100.867,0,0,1,6.679-9.434l2.956,2.36A96.122,96.122,0,0,0,53.1-102.741ZM66.946-120.1l-2.664-2.683a100.7,100.7,0,0,1,8.653-7.656l2.339,2.971A97.076,97.076,0,0,0,66.946-120.1ZM84.388-133.83l-1.98-3.22a99.892,99.892,0,0,1,10.168-5.476l1.6,3.426A97.134,97.134,0,0,0,84.388-133.83ZM104.5-143.2l-1.189-3.589a99.375,99.375,0,0,1,11.164-2.991l.764,3.7A95.762,95.762,0,0,0,104.5-143.2Zm21.736-4.485-.329-3.769a101.154,101.154,0,0,1,11.548-.342l-.1,3.78A97.082,97.082,0,0,0,126.235-147.687Z" transform="translate(-34.798 151.836)"/>
        </g>
        <g id="Group_1440" data-name="Group 1440" transform="translate(95.311 0.108)">
          <path id="Path_5909" data-name="Path 5909" d="M89.948,48.047q-2.368,0-4.746-.112l.174-3.778a95.573,95.573,0,0,0,69.246-24.985,95.552,95.552,0,0,0,31.3-66.631,95.558,95.558,0,0,0-24.987-69.246A95.552,95.552,0,0,0,94.3-148l.176-3.778a99.312,99.312,0,0,1,69.252,32.526A99.311,99.311,0,0,1,189.7-47.283a99.311,99.311,0,0,1-32.526,69.25A99.247,99.247,0,0,1,89.948,48.047Z" transform="translate(-85.202 151.779)"/>
        </g>
        <g id="Group_1441" data-name="Group 1441" transform="translate(102.659 37.778)">
          <path id="Path_5910" data-name="Path 5910" d="M128.308-23.654l-2.547-2.795a58.1,58.1,0,0,0,19.025-40.51,58.1,58.1,0,0,0-15.19-42.1A58.088,58.088,0,0,0,89.088-128.08l.176-3.778A61.847,61.847,0,0,1,132.391-111.6a61.842,61.842,0,0,1,16.173,44.819A61.847,61.847,0,0,1,128.308-23.654Z" transform="translate(-89.088 131.858)"/>
        </g>
      </g>
      <g id="Group_1446" data-name="Group 1446" transform="translate(759.313 25.731)" opacity="0.5">
        <g id="Group_1443" data-name="Group 1443">
          <path id="Path_5911" data-name="Path 5911" d="M467.063-6.862a92.506,92.506,0,0,1-11.548-.724l.477-3.754a88.508,88.508,0,0,0,11.071.7Zm-22.914-2.91a90.125,90.125,0,0,1-11-3.623l1.411-3.508a86.562,86.562,0,0,0,10.542,3.47Zm-21.455-8.621a91.271,91.271,0,0,1-9.723-6.284l2.248-3.039a87.821,87.821,0,0,0,9.322,6.023ZM404.121-32.141a92.007,92.007,0,0,1-7.836-8.519l2.94-2.379a88.443,88.443,0,0,0,7.511,8.167ZM389.591-50.1a91.584,91.584,0,0,1-5.444-10.211l3.447-1.562a86.764,86.764,0,0,0,5.215,9.784Zm-9.54-21.037A91.162,91.162,0,0,1,377.372-82.4l3.727-.639a86.783,86.783,0,0,0,2.57,10.792Zm-3.9-22.773q-.085-1.968-.085-3.956c0-2.547.106-5.107.316-7.615l3.767.314c-.2,2.4-.3,4.858-.3,7.3q0,1.906.081,3.793Zm5.614-22.232-3.7-.789A90.636,90.636,0,0,1,381.2-128.08l3.568,1.254A87.4,87.4,0,0,0,381.762-116.138Zm7.354-20.9-3.379-1.7a90.713,90.713,0,0,1,5.856-9.99l3.135,2.116A86.9,86.9,0,0,0,389.116-137.037Zm12.391-18.357-2.84-2.5a91.828,91.828,0,0,1,8.173-8.2l2.506,2.835A88.087,88.087,0,0,0,401.508-155.394Zm16.6-14.662-2.127-3.128a91.327,91.327,0,0,1,9.967-5.883l1.709,3.373A87.31,87.31,0,0,0,418.106-170.057Zm19.745-10.013-1.267-3.564a90.61,90.61,0,0,1,11.134-3.169l.8,3.7A86.725,86.725,0,0,0,437.852-180.069Zm21.636-4.688-.325-3.767c2.606-.227,5.264-.34,7.9-.34v3.782C464.535-185.082,461.986-184.972,459.488-184.757Z" transform="translate(-376.063 188.864)"/>
        </g>
        <g id="Group_1444" data-name="Group 1444" transform="translate(91)">
          <path id="Path_5912" data-name="Path 5912" d="M424.187-6.862v-3.782a87.317,87.317,0,0,0,87.22-87.218,87.318,87.318,0,0,0-87.22-87.22v-3.782a91.105,91.105,0,0,1,91,91A91.1,91.1,0,0,1,424.187-6.862Z" transform="translate(-424.187 188.864)"/>
        </g>
        <g id="Group_1445" data-name="Group 1445" transform="translate(91 34.262)">
          <path id="Path_5913" data-name="Path 5913" d="M424.187-57.268v-3.782a53.018,53.018,0,0,0,52.958-52.956,53.018,53.018,0,0,0-52.958-52.958v-3.782a56.8,56.8,0,0,1,56.74,56.74A56.8,56.8,0,0,1,424.187-57.268Z" transform="translate(-424.187 170.745)"/>
        </g>
      </g>
      <g id="Group_1450" data-name="Group 1450" transform="translate(341.948 12.164)" opacity="0.5">
        <g id="Group_1447" data-name="Group 1447">
          <path id="Path_5914" data-name="Path 5914" d="M353.867,140.706c-3.81,0-7.666-.13-11.459-.386l.251-3.772c3.71.25,7.481.376,11.208.376ZM331,139.165c-3.765-.511-7.569-1.159-11.3-1.929l.762-3.7c3.651.753,7.371,1.386,11.051,1.887Zm-22.451-4.629c-3.665-1.021-7.343-2.184-10.935-3.459l1.263-3.564c3.511,1.244,7.106,2.381,10.688,3.379Zm-21.625-7.664c-3.5-1.518-6.991-3.177-10.37-4.928l1.74-3.356c3.3,1.709,6.713,3.33,10.135,4.814Zm-20.379-10.55c-3.254-1.978-6.484-4.1-9.6-6.291l2.18-3.092c3.044,2.146,6.2,4.217,9.383,6.151ZM247.8,103.1c-2.948-2.394-5.86-4.926-8.655-7.53l2.577-2.768c2.732,2.545,5.58,5.022,8.462,7.363ZM231.021,87.48c-2.6-2.774-5.143-5.677-7.556-8.625l2.927-2.4c2.36,2.884,4.845,5.72,7.388,8.434ZM216.512,69.737c-2.2-3.1-4.332-6.321-6.318-9.564l3.224-1.976c1.944,3.169,4.02,6.316,6.178,9.351ZM204.544,50.2c-1.762-3.372-3.43-6.847-4.958-10.33l3.464-1.517c1.492,3.4,3.124,6.8,4.845,10.1Zm-9.194-20.971c-1.288-3.587-2.466-7.261-3.5-10.922l3.638-1.029c1.014,3.576,2.165,7.167,3.423,10.674ZM189.1,7.173c-.785-3.721-1.448-7.522-1.976-11.295l3.744-.526c.516,3.689,1.167,7.4,1.933,11.041Zm-3.179-22.7c-.268-3.788-.414-7.643-.429-11.461L189.277-27c.015,3.731.157,7.5.42,11.2Zm3.682-22.684-3.774-.238c.24-3.8.615-7.643,1.11-11.412l3.75.492C190.207-45.681,189.842-41.927,189.606-38.209Zm2.929-22.215-3.708-.749c.754-3.731,1.647-7.486,2.655-11.158l3.648,1C194.144-67.74,193.271-64.072,192.535-60.424Zm5.93-21.608-3.57-1.248c1.259-3.6,2.659-7.2,4.162-10.7l3.476,1.492C201.063-89.07,199.694-85.551,198.465-82.032Zm8.844-20.619-3.366-1.725c1.734-3.383,3.612-6.756,5.582-10.03l3.241,1.95C210.839-109.254,209-105.956,207.309-102.651Zm11.567-19.21-3.1-2.167c2.182-3.122,4.5-6.21,6.891-9.175l2.946,2.369C223.276-127.931,221.009-124.913,218.876-121.861Zm14.063-17.461-2.778-2.568c2.592-2.806,5.306-5.55,8.065-8.156l2.6,2.749C238.126-144.749,235.473-142.066,232.939-139.322Zm16.287-15.4-2.405-2.918c2.937-2.422,5.994-4.775,9.088-6.991l2.2,3.075C255.087-159.385,252.1-157.086,249.226-154.718Zm18.212-13.048-1.989-3.216c3.232-2,6.579-3.914,9.948-5.692l1.764,3.343C273.868-171.591,270.6-169.721,267.437-167.766Zm19.8-10.449-1.532-3.457c3.472-1.539,7.046-2.98,10.623-4.281l1.293,3.555C294.124-181.127,290.632-179.718,287.237-178.215Zm21.044-7.651-1.044-3.633c3.667-1.057,7.409-1.995,11.124-2.791l.792,3.7C315.524-187.813,311.867-186.9,308.282-185.866Zm21.909-4.7-.539-3.742c3.759-.543,7.594-.962,11.4-1.25l.286,3.772C337.614-191.508,333.866-191.1,330.19-190.569Zm22.347-1.685-.032-3.782,1.362,0v3.782Z" transform="translate(-185.495 196.039)"/>
        </g>
        <g id="Group_1448" data-name="Group 1448" transform="translate(168.372)">
          <path id="Path_5915" data-name="Path 5915" d="M274.536,140.706v-3.782c90.754,0,164.59-73.836,164.59-164.592s-73.836-164.59-164.59-164.59v-3.782c92.84,0,168.372,75.53,168.372,168.372S367.376,140.706,274.536,140.706Z" transform="translate(-274.536 196.039)"/>
        </g>
        <g id="Group_1449" data-name="Group 1449" transform="translate(168.372 64.012)">
          <path id="Path_5916" data-name="Path 5916" d="M274.536,46.532V42.75A100.691,100.691,0,0,0,375.114-57.828,100.691,100.691,0,0,0,274.536-158.405v-3.782A104.477,104.477,0,0,1,378.9-57.828,104.477,104.477,0,0,1,274.536,46.532Z" transform="translate(-274.536 162.187)"/>
        </g>
      </g>
      <g id="Group_1451" data-name="Group 1451" transform="translate(292.141 95.946)">
        <path id="Path_5917" data-name="Path 5917" d="M183.1-128.74a11.451,11.451,0,0,1-4.406-.893l1.462-3.489a7.681,7.681,0,0,0,2.957.6Zm4.413-.862-1.441-3.494a7.7,7.7,0,0,0,2.513-1.675l2.67,2.678A11.431,11.431,0,0,1,187.51-129.6Zm-12.545-2.547a11.484,11.484,0,0,1-2.479-3.752l3.5-1.426a7.687,7.687,0,0,0,1.664,2.517Zm18.79-3.676-3.491-1.452a7.664,7.664,0,0,0,.586-2.959h3.782A11.421,11.421,0,0,1,193.756-135.825Zm-18.333-4.465-3.782-.026a11.426,11.426,0,0,1,.908-4.4l3.481,1.477A7.683,7.683,0,0,0,175.423-140.29ZM190.3-143.1a7.657,7.657,0,0,0-1.647-2.528l2.706-2.644a11.44,11.44,0,0,1,2.453,3.769Zm-12.575-2.642-2.651-2.7a11.456,11.456,0,0,1,3.757-2.468l1.416,3.508A7.66,7.66,0,0,0,177.73-145.738Zm8.441-1.6a7.662,7.662,0,0,0-2.952-.616l.036-3.782a11.4,11.4,0,0,1,4.4.921Z" transform="translate(-171.641 151.732)"/>
      </g>
      <g id="Group_1452" data-name="Group 1452" transform="translate(768.01 272.689)">
        <path id="Path_5918" data-name="Path 5918" d="M406-35.27a11.443,11.443,0,0,1-4.406-.893l1.462-3.489a7.7,7.7,0,0,0,2.959.6Zm4.413-.862-1.441-3.5a7.645,7.645,0,0,0,2.511-1.672l2.672,2.678A11.481,11.481,0,0,1,410.416-36.132Zm-12.543-2.549a11.338,11.338,0,0,1-2.479-3.752l3.5-1.424a7.68,7.68,0,0,0,1.664,2.515Zm18.79-3.676-3.495-1.452a7.67,7.67,0,0,0,.588-2.957h3.782A11.494,11.494,0,0,1,416.663-42.357Zm-18.337-4.465-3.782-.025a11.462,11.462,0,0,1,.908-4.4l3.483,1.473A7.722,7.722,0,0,0,398.327-46.822Zm14.88-2.806a7.669,7.669,0,0,0-1.645-2.528l2.708-2.64a11.428,11.428,0,0,1,2.453,3.771ZM400.634-52.27l-2.651-2.7a11.509,11.509,0,0,1,3.755-2.468l1.418,3.508A7.69,7.69,0,0,0,400.634-52.27Zm8.441-1.592a7.644,7.644,0,0,0-2.952-.62l.04-3.782a11.424,11.424,0,0,1,4.4.925Z" transform="translate(-394.545 58.264)"/>
      </g>
      <g id="Group_1453" data-name="Group 1453" transform="translate(348.16 115.156)">
        <rect id="Rectangle_45" data-name="Rectangle 45" width="63.22" height="3.782"/>
      </g>
      <g id="Group_1454" data-name="Group 1454" transform="translate(419.874 115.156)">
        <rect id="Rectangle_46" data-name="Rectangle 46" width="5.042" height="3.782"/>
      </g>
      <g id="Group_1455" data-name="Group 1455" transform="translate(83.759 17.492)">
        <rect id="Rectangle_47" data-name="Rectangle 47" width="63.22" height="3.782"/>
      </g>
      <g id="Group_1456" data-name="Group 1456" transform="translate(149.798 17.492)">
        <rect id="Rectangle_48" data-name="Rectangle 48" width="5.042" height="3.782"/>
      </g>
      <g id="Group_1457" data-name="Group 1457" transform="translate(400.387 96.302)">
        <rect id="Rectangle_49" data-name="Rectangle 49" width="46.911" height="3.782"/>
      </g>
      <g id="Group_1458" data-name="Group 1458" transform="translate(454.227 96.302)">
        <rect id="Rectangle_50" data-name="Rectangle 50" width="5.042" height="3.782"/>
      </g>
      <g id="Group_1459" data-name="Group 1459" transform="translate(467.986 96.302)">
        <rect id="Rectangle_51" data-name="Rectangle 51" width="5.042" height="3.782"/>
      </g>
      <g id="Group_1460" data-name="Group 1460" transform="translate(776.612 12.163)">
        <rect id="Rectangle_52" data-name="Rectangle 52" width="46.91" height="3.782"/>
      </g>
      <g id="Group_1461" data-name="Group 1461" transform="translate(849.431 12.163)">
        <rect id="Rectangle_53" data-name="Rectangle 53" width="5.043" height="3.782"/>
      </g>
      <g id="Group_1462" data-name="Group 1462" transform="translate(861.646 12.163)">
        <rect id="Rectangle_54" data-name="Rectangle 54" width="5.043" height="3.782"/>
      </g>
      <g id="Group_1463" data-name="Group 1463" transform="translate(667.991 43.35)">
        <rect id="Rectangle_55" data-name="Rectangle 55" width="63.707" height="3.782"/>
      </g>
      <g id="Group_1464" data-name="Group 1464" transform="translate(736.816 43.35)">
        <rect id="Rectangle_56" data-name="Rectangle 56" width="5.043" height="3.782"/>
      </g>
      <g id="Group_1465" data-name="Group 1465" transform="translate(235.122 281.114)">
        <rect id="Rectangle_57" data-name="Rectangle 57" width="46.911" height="3.782" transform="translate(0 0)"/>
      </g>
      <g id="Group_1466" data-name="Group 1466" transform="translate(265.638 291.9)">
        <rect id="Rectangle_58" data-name="Rectangle 58" width="67.47" height="3.782"/>
      </g>
      <g id="Group_1467" data-name="Group 1467" transform="translate(289.86 281.114)">
        <rect id="Rectangle_59" data-name="Rectangle 59" width="5.042" height="3.782" transform="translate(0 0)"/>
      </g>
      <g id="Group_1468" data-name="Group 1468" transform="translate(299.385 281.114)">
        <rect id="Rectangle_60" data-name="Rectangle 60" width="5.043" height="3.782" transform="translate(0 0)"/>
      </g>
      <g id="Group_1469" data-name="Group 1469" transform="translate(770.978 320.661)">
        <rect id="Rectangle_61" data-name="Rectangle 61" width="46.912" height="3.782" transform="translate(0 0)"/>
      </g>
      <g id="Group_1470" data-name="Group 1470" transform="translate(821.002 331.447)">
        <rect id="Rectangle_62" data-name="Rectangle 62" width="67.47" height="3.782" transform="translate(0 0)"/>
      </g>
      <g id="Group_1471" data-name="Group 1471" transform="translate(561.63 356.811)">
        <rect id="Rectangle_63" data-name="Rectangle 63" width="144.18" height="3.782" transform="translate(0 0)"/>
      </g>
      <g id="Group_1472" data-name="Group 1472" transform="translate(492.039 356.811)">
        <rect id="Rectangle_64" data-name="Rectangle 64" width="47.022" height="3.782" transform="translate(0 0)"/>
      </g>
      <g id="Group_1473" data-name="Group 1473" transform="translate(369.748 4.994)">
        <rect id="Rectangle_65" data-name="Rectangle 65" width="191.747" height="3.782"/>
      </g>
      <g id="Group_1474" data-name="Group 1474" transform="translate(844.458 320.661)">
        <rect id="Rectangle_66" data-name="Rectangle 66" width="5.043" height="3.782" transform="translate(0 0)"/>
      </g>
      <g id="Group_1475" data-name="Group 1475" transform="translate(852.913 320.661)">
        <rect id="Rectangle_67" data-name="Rectangle 67" width="5.043" height="3.782" transform="translate(0 0)"/>
      </g>
      <g id="Group_1479" data-name="Group 1479" transform="translate(242.414 66.394)">
        <g id="Group_1476" data-name="Group 1476">
          <path id="Path_5919" data-name="Path 5919" d="M177.313-138.308H148.259V-167.36h29.054Zm-25.272-3.782h21.491v-21.489H152.041Z" transform="translate(-148.259 167.36)"/>
        </g>
        <g id="Group_1477" data-name="Group 1477" transform="translate(0.555 0.554)">
          <rect id="Rectangle_68" data-name="Rectangle 68" width="3.782" height="35.739" transform="translate(0 2.674) rotate(-45.001)"/>
        </g>
        <g id="Group_1478" data-name="Group 1478" transform="translate(0.554 0.554)">
          <rect id="Rectangle_69" data-name="Rectangle 69" width="35.739" height="3.782" transform="translate(0 25.271) rotate(-44.998)"/>
        </g>
      </g>
      <g id="Group_1483" data-name="Group 1483" transform="translate(928.065 279.156)">
        <g id="Group_1480" data-name="Group 1480" transform="translate(0 0)">
          <path id="Path_5920" data-name="Path 5920" d="M494.357-25.79H465.305V-54.844h29.052Zm-25.271-3.782h21.489V-51.062H469.087Z" transform="translate(-465.305 54.844)"/>
        </g>
        <g id="Group_1481" data-name="Group 1481" transform="translate(0.554 0.554)">
          <rect id="Rectangle_70" data-name="Rectangle 70" width="3.782" height="35.739" transform="translate(0 2.674) rotate(-45)"/>
        </g>
        <g id="Group_1482" data-name="Group 1482" transform="translate(0.554 0.555)">
          <rect id="Rectangle_71" data-name="Rectangle 71" width="35.739" height="3.782" transform="translate(0 25.27) rotate(-44.998)"/>
        </g>
      </g>
      <g id="Group_1487" data-name="Group 1487" transform="translate(968.588 279.263)">
        <g id="Group_1484" data-name="Group 1484" transform="translate(0 0)">
          <path id="Path_5921" data-name="Path 5921" d="M515.788-25.733H486.735V-54.787h29.052Zm-25.271-3.782h21.489V-51.005H490.517Z" transform="translate(-486.735 54.787)"/>
        </g>
        <g id="Group_1485" data-name="Group 1485" transform="translate(0.554 0.554)">
          <rect id="Rectangle_72" data-name="Rectangle 72" width="3.782" height="35.739" transform="translate(0 2.674) rotate(-44.999)"/>
        </g>
        <g id="Group_1486" data-name="Group 1486" transform="translate(0.553 0.554)">
          <rect id="Rectangle_73" data-name="Rectangle 73" width="35.739" height="3.782" transform="translate(0 25.272) rotate(-45)"/>
        </g>
      </g>
      <g id="Group_1491" data-name="Group 1491" transform="translate(202.264 66.394)">
        <g id="Group_1488" data-name="Group 1488">
          <path id="Path_5922" data-name="Path 5922" d="M158.52-138.308H129.467V-167.36H158.52Zm-25.271-3.782h21.489v-21.489H133.249Z" transform="translate(-129.467 167.36)"/>
        </g>
        <g id="Group_1489" data-name="Group 1489" transform="translate(0.554 0.554)">
          <rect id="Rectangle_74" data-name="Rectangle 74" width="3.782" height="35.739" transform="matrix(0.707, -0.707, 0.707, 0.707, 0, 2.674)"/>
        </g>
        <g id="Group_1490" data-name="Group 1490" transform="translate(0.553 0.554)">
          <rect id="Rectangle_75" data-name="Rectangle 75" width="35.739" height="3.782" transform="matrix(0.707, -0.707, 0.707, 0.707, 0, 25.271)"/>
        </g>
      </g>
      <g id="Group_1495" data-name="Group 1495" transform="translate(143.477 66.394)">
        <g id="Group_1492" data-name="Group 1492">
          <path id="Path_5923" data-name="Path 5923" d="M139.728-138.308H110.674V-167.36h29.054Zm-25.272-3.782h21.491v-21.489H114.456Z" transform="translate(-110.674 167.36)"/>
        </g>
        <g id="Group_1493" data-name="Group 1493" transform="translate(0.554 0.554)">
          <rect id="Rectangle_76" data-name="Rectangle 76" width="3.782" height="35.739" transform="translate(0 2.674) rotate(-45.001)"/>
        </g>
        <g id="Group_1494" data-name="Group 1494" transform="translate(0.554 0.554)">
          <rect id="Rectangle_77" data-name="Rectangle 77" width="35.739" height="3.782" transform="translate(0 25.272) rotate(-45)"/>
        </g>
      </g>
      <g id="Group_1498" data-name="Group 1498" transform="translate(264.082 23.369)">
        <g id="Group_1496" data-name="Group 1496" transform="translate(0 3.777)">
          <rect id="Rectangle_78" data-name="Rectangle 78" width="11.336" height="3.782"/>
        </g>
        <g id="Group_1497" data-name="Group 1497" transform="translate(3.777)">
          <rect id="Rectangle_79" data-name="Rectangle 79" width="3.782" height="11.337"/>
        </g>
      </g>
      <g id="Group_1501" data-name="Group 1501" transform="translate(318.891)">
        <g id="Group_1499" data-name="Group 1499" transform="translate(0 4.994)">
          <rect id="Rectangle_80" data-name="Rectangle 80" width="13.769" height="3.782"/>
        </g>
        <g id="Group_1500" data-name="Group 1500" transform="translate(4.993)">
          <rect id="Rectangle_81" data-name="Rectangle 81" width="3.782" height="13.769"/>
        </g>
      </g>
      <g id="Group_1504" data-name="Group 1504" transform="translate(306.921 60.184)">
        <g id="Group_1502" data-name="Group 1502" transform="translate(0 3.046)">
          <rect id="Rectangle_82" data-name="Rectangle 82" width="9.874" height="3.782"/>
        </g>
        <g id="Group_1503" data-name="Group 1503" transform="translate(3.046)">
          <rect id="Rectangle_83" data-name="Rectangle 83" width="3.782" height="9.874"/>
        </g>
      </g>
      <g id="Group_1507" data-name="Group 1507" transform="translate(406.825 274.579)">
        <g id="Group_1505" data-name="Group 1505" transform="translate(0 3.777)">
          <rect id="Rectangle_84" data-name="Rectangle 84" width="11.337" height="3.782"/>
        </g>
        <g id="Group_1506" data-name="Group 1506" transform="translate(3.777)">
          <rect id="Rectangle_85" data-name="Rectangle 85" width="3.782" height="11.336"/>
        </g>
      </g>
      <g id="Group_1510" data-name="Group 1510" transform="translate(845.383 278.516)">
        <g id="Group_1508" data-name="Group 1508" transform="translate(0 3.777)">
          <rect id="Rectangle_86" data-name="Rectangle 86" width="11.336" height="3.782"/>
        </g>
        <g id="Group_1509" data-name="Group 1509" transform="translate(3.776 0)">
          <rect id="Rectangle_87" data-name="Rectangle 87" width="3.782" height="11.336"/>
        </g>
      </g>
      <g id="Group_1515" data-name="Group 1515" transform="translate(651.998 12.164)">
        <g id="Group_1511" data-name="Group 1511" transform="translate(27.986 5.187)">
          <path id="Path_5924" data-name="Path 5924" d="M367.45-185.273a9.268,9.268,0,0,0-7.8-4.241,9.32,9.32,0,0,0-4.741,1.293l-1.927-3.252a13.074,13.074,0,0,1,6.667-1.823,13.041,13.041,0,0,1,10.971,5.964Z" transform="translate(-352.984 193.296)"/>
        </g>
        <g id="Group_1512" data-name="Group 1512">
          <path id="Path_5925" data-name="Path 5925" d="M401.052-161.07H346.966a8.791,8.791,0,0,1-8.782-8.782v-.507a8.791,8.791,0,0,1,8.782-8.782h.008a11.032,11.032,0,0,1,11.781-7.713,15.244,15.244,0,0,1,14.05-9.186,15.216,15.216,0,0,1,14.549,10.529,11.667,11.667,0,0,1,4.007-.709,11.77,11.77,0,0,1,10.777,7.146,8.8,8.8,0,0,1,7.7,8.715v.507A8.791,8.791,0,0,1,401.052-161.07Zm-54.087-14.288a5.005,5.005,0,0,0-5,5v.507a5.005,5.005,0,0,0,5,5h54.087a5.005,5.005,0,0,0,5-5v-.507a5.005,5.005,0,0,0-5-5h-1.69l-.4-1.363a7.963,7.963,0,0,0-7.607-5.716,7.9,7.9,0,0,0-4.273,1.257l-2.447,1.573-.443-2.876a11.469,11.469,0,0,0-11.393-9.774,11.491,11.491,0,0,0-11.028,8.116l-.539,1.738-1.759-.473a7.262,7.262,0,0,0-9.143,5.922l-.251,1.6Z" transform="translate(-338.184 196.039)"/>
        </g>
        <g id="Group_1513" data-name="Group 1513" transform="translate(22.258 16.436)">
          <path id="Path_5926" data-name="Path 5926" d="M353.478-185.609l-3.523-1.377a2.949,2.949,0,0,0,.114-.361l3.678.876A6.393,6.393,0,0,1,353.478-185.609Z" transform="translate(-349.955 187.347)"/>
        </g>
        <g id="Group_1514" data-name="Group 1514" transform="translate(19.56 9.08)">
          <path id="Path_5927" data-name="Path 5927" d="M355.2-184.564h-3.782a2.9,2.9,0,0,0-2.893-2.891v-3.782A6.681,6.681,0,0,1,355.2-184.564Z" transform="translate(-348.528 191.237)"/>
        </g>
      </g>
      <g id="Group_1520" data-name="Group 1520" transform="translate(22.595 50.321)">
        <g id="Group_1516" data-name="Group 1516" transform="translate(23.143 4.258)">
          <path id="Path_5928" data-name="Path 5928" d="M70.751-166.5a7.271,7.271,0,0,0-6.119-3.328,7.315,7.315,0,0,0-3.719,1.015l-1.927-3.252a11.064,11.064,0,0,1,5.646-1.545,11.041,11.041,0,0,1,9.292,5.051Z" transform="translate(-58.986 173.608)"/>
        </g>
        <g id="Group_1517" data-name="Group 1517">
          <path id="Path_5929" data-name="Path 5929" d="M98.7-146.473H54.294a7.556,7.556,0,0,1-7.547-7.547v-.418a7.556,7.556,0,0,1,7.307-7.543,9.421,9.421,0,0,1,9.71-6.359,12.855,12.855,0,0,1,11.745-7.52,12.827,12.827,0,0,1,12.157,8.553,9.9,9.9,0,0,1,3.078-.49,10,10,0,0,1,9.082,5.9,7.559,7.559,0,0,1,6.424,7.464v.418A7.554,7.554,0,0,1,98.7-146.473ZM54.294-158.2a3.769,3.769,0,0,0-3.765,3.765v.418a3.769,3.769,0,0,0,3.765,3.765H98.7a3.769,3.769,0,0,0,3.765-3.765v-.418A3.769,3.769,0,0,0,98.7-158.2H97.061l-.4-1.365a6.2,6.2,0,0,0-5.921-4.447,6.148,6.148,0,0,0-3.324.978l-2.449,1.573-.442-2.874a9.077,9.077,0,0,0-9.02-7.74,9.1,9.1,0,0,0-8.731,6.425l-.541,1.738-1.757-.473A5.623,5.623,0,0,0,57.4-159.8l-.253,1.6Z" transform="translate(-46.747 175.86)"/>
        </g>
        <g id="Group_1518" data-name="Group 1518" transform="translate(18.295 13.747)">
          <path id="Path_5930" data-name="Path 5930" d="M59.951-166.96l-3.529-1.363a1.819,1.819,0,0,0,.083-.267l3.676.891A6.57,6.57,0,0,1,59.951-166.96Z" transform="translate(-56.422 168.59)"/>
        </g>
        <g id="Group_1519" data-name="Group 1519" transform="translate(16.398 7.454)">
          <path id="Path_5931" data-name="Path 5931" d="M61.237-166.1H57.456a2.038,2.038,0,0,0-2.037-2.036v-3.782A5.825,5.825,0,0,1,61.237-166.1Z" transform="translate(-55.419 171.918)"/>
        </g>
      </g>
      <g id="Group_1525" data-name="Group 1525" transform="translate(961.276 91.997)">
        <g id="Group_1521" data-name="Group 1521" transform="translate(23.141 4.258)">
          <path id="Path_5932" data-name="Path 5932" d="M506.873-144.458a7.271,7.271,0,0,0-6.119-3.328,7.312,7.312,0,0,0-3.721,1.015l-1.927-3.252a11.066,11.066,0,0,1,5.648-1.545,11.035,11.035,0,0,1,9.29,5.051Z" transform="translate(-495.106 151.568)"/>
        </g>
        <g id="Group_1522" data-name="Group 1522">
          <path id="Path_5933" data-name="Path 5933" d="M534.822-124.433H490.415a7.554,7.554,0,0,1-7.547-7.547v-.418a7.554,7.554,0,0,1,7.3-7.543,9.4,9.4,0,0,1,9.712-6.359,12.853,12.853,0,0,1,11.745-7.52,12.825,12.825,0,0,1,12.155,8.553,9.911,9.911,0,0,1,3.078-.49,10,10,0,0,1,9.084,5.9,7.557,7.557,0,0,1,6.422,7.464v.418A7.555,7.555,0,0,1,534.822-124.433Zm-44.407-11.73a3.769,3.769,0,0,0-3.765,3.765v.418a3.769,3.769,0,0,0,3.765,3.765h44.407a3.769,3.769,0,0,0,3.765-3.765v-.418a3.769,3.769,0,0,0-3.765-3.765H533.18l-.4-1.365a6.2,6.2,0,0,0-5.922-4.447,6.15,6.15,0,0,0-3.326.98l-2.445,1.571-.444-2.874a9.077,9.077,0,0,0-9.018-7.74,9.1,9.1,0,0,0-8.732,6.425l-.541,1.738-1.755-.473a5.62,5.62,0,0,0-7.087,4.589l-.25,1.6Z" transform="translate(-482.868 153.82)"/>
        </g>
        <g id="Group_1523" data-name="Group 1523" transform="translate(18.299 13.759)">
          <path id="Path_5934" data-name="Path 5934" d="M496.062-144.908l-3.517-1.4a1.515,1.515,0,0,0,.076-.238l3.68.87A5.612,5.612,0,0,1,496.062-144.908Z" transform="translate(-492.545 146.544)"/>
        </g>
        <g id="Group_1524" data-name="Group 1524" transform="translate(16.398 7.456)">
          <path id="Path_5935" data-name="Path 5935" d="M497.357-144.06h-3.782a2.038,2.038,0,0,0-2.035-2.035v-3.782A5.823,5.823,0,0,1,497.357-144.06Z" transform="translate(-491.54 149.877)"/>
        </g>
      </g>
      <g id="Group_1529" data-name="Group 1529" transform="translate(481.217 46.539)">
        <g id="Group_1526" data-name="Group 1526">
          <path id="Path_5936" data-name="Path 5936" d="M265.239-166.514a5.68,5.68,0,0,1-5.673-5.673,5.679,5.679,0,0,1,5.673-5.673,5.679,5.679,0,0,1,5.673,5.673A5.68,5.68,0,0,1,265.239-166.514Zm0-7.564a1.893,1.893,0,0,0-1.891,1.891,1.894,1.894,0,0,0,1.891,1.891,1.894,1.894,0,0,0,1.891-1.891A1.893,1.893,0,0,0,265.239-174.078Z" transform="translate(-259.566 177.86)"/>
        </g>
        <g id="Group_1527" data-name="Group 1527" transform="translate(16.589)">
          <path id="Path_5937" data-name="Path 5937" d="M274.012-166.514a5.68,5.68,0,0,1-5.673-5.673,5.679,5.679,0,0,1,5.673-5.673,5.677,5.677,0,0,1,5.673,5.673A5.679,5.679,0,0,1,274.012-166.514Zm0-7.564a1.893,1.893,0,0,0-1.891,1.891,1.894,1.894,0,0,0,1.891,1.891,1.893,1.893,0,0,0,1.891-1.891A1.892,1.892,0,0,0,274.012-174.078Z" transform="translate(-268.339 177.86)"/>
        </g>
        <g id="Group_1528" data-name="Group 1528" transform="translate(33.18)">
          <path id="Path_5938" data-name="Path 5938" d="M282.786-166.514a5.68,5.68,0,0,1-5.673-5.673,5.679,5.679,0,0,1,5.673-5.673,5.679,5.679,0,0,1,5.673,5.673A5.68,5.68,0,0,1,282.786-166.514Zm0-7.564a1.893,1.893,0,0,0-1.891,1.891,1.894,1.894,0,0,0,1.891,1.891,1.894,1.894,0,0,0,1.891-1.891A1.893,1.893,0,0,0,282.786-174.078Z" transform="translate(-277.113 177.86)"/>
        </g>
      </g>
      <g id="Group_1533" data-name="Group 1533" transform="translate(695.13 278.513)">
        <g id="Group_1530" data-name="Group 1530" transform="translate(0 0)">
          <path id="Path_5939" data-name="Path 5939" d="M365.154-43.838a5.679,5.679,0,0,1-5.673-5.673,5.677,5.677,0,0,1,5.673-5.673,5.678,5.678,0,0,1,5.673,5.673A5.68,5.68,0,0,1,365.154-43.838Zm0-7.564a1.892,1.892,0,0,0-1.891,1.891,1.893,1.893,0,0,0,1.891,1.891,1.894,1.894,0,0,0,1.891-1.891A1.893,1.893,0,0,0,365.154-51.4Z" transform="translate(-359.481 55.184)"/>
        </g>
        <g id="Group_1531" data-name="Group 1531" transform="translate(16.589 0)">
          <path id="Path_5940" data-name="Path 5940" d="M373.927-43.838a5.68,5.68,0,0,1-5.673-5.673,5.679,5.679,0,0,1,5.673-5.673,5.679,5.679,0,0,1,5.673,5.673A5.68,5.68,0,0,1,373.927-43.838Zm0-7.564a1.893,1.893,0,0,0-1.891,1.891,1.894,1.894,0,0,0,1.891,1.891,1.894,1.894,0,0,0,1.891-1.891A1.893,1.893,0,0,0,373.927-51.4Z" transform="translate(-368.254 55.184)"/>
        </g>
        <g id="Group_1532" data-name="Group 1532" transform="translate(33.179 0)">
          <path id="Path_5941" data-name="Path 5941" d="M382.7-43.838a5.68,5.68,0,0,1-5.673-5.673,5.679,5.679,0,0,1,5.673-5.673,5.679,5.679,0,0,1,5.673,5.673A5.68,5.68,0,0,1,382.7-43.838Zm0-7.564a1.892,1.892,0,0,0-1.891,1.891A1.893,1.893,0,0,0,382.7-47.62a1.893,1.893,0,0,0,1.891-1.891A1.892,1.892,0,0,0,382.7-51.4Z" transform="translate(-377.027 55.184)"/>
        </g>
      </g>
      <g id="Group_1534" data-name="Group 1534" transform="translate(920.48 17.492)">
        <path id="Path_5942" data-name="Path 5942" d="M471.639-172.53a2.356,2.356,0,0,1-2.2-1.49c-1.526-3.823-2.833-5.13-6.656-6.656a2.358,2.358,0,0,1-1.49-2.2,2.358,2.358,0,0,1,1.49-2.2c3.825-1.528,5.13-2.835,6.656-6.656a2.356,2.356,0,0,1,2.2-1.49,2.358,2.358,0,0,1,2.2,1.488c1.526,3.824,2.831,5.13,6.656,6.658a2.361,2.361,0,0,1,1.49,2.2,2.362,2.362,0,0,1-1.488,2.2h0c-3.823,1.526-5.13,2.833-6.656,6.654A2.356,2.356,0,0,1,471.639-172.53Zm-4.654-10.345a11.528,11.528,0,0,1,4.654,4.656,11.52,11.52,0,0,1,4.655-4.656,11.528,11.528,0,0,1-4.654-4.656A11.531,11.531,0,0,1,466.986-182.876Z" transform="translate(-461.294 193.221)"/>
      </g>
      <g id="Group_1535" data-name="Group 1535" transform="translate(959.086 61.464)">
        <path id="Path_5943" data-name="Path 5943" d="M490.021-153.347a2.244,2.244,0,0,1-2.093-1.416c-1.112-2.791-2.01-3.687-4.8-4.8a2.24,2.24,0,0,1-1.418-2.091,2.244,2.244,0,0,1,1.422-2.1c2.785-1.112,3.684-2.008,4.8-4.8a2.241,2.241,0,0,1,2.093-1.42,2.24,2.24,0,0,1,2.091,1.42c1.114,2.787,2.012,3.685,4.8,4.8a2.24,2.24,0,0,1,1.418,2.093,2.238,2.238,0,0,1-1.418,2.091h0c-2.787,1.114-3.685,2.01-4.8,4.8A2.242,2.242,0,0,1,490.021-153.347Zm-2.668-8.309a9.034,9.034,0,0,1,2.668,2.666,9.005,9.005,0,0,1,2.666-2.666,9.033,9.033,0,0,1-2.666-2.668A9.04,9.04,0,0,1,487.353-161.656Z" transform="translate(-481.71 169.967)"/>
      </g>
      <g id="Group_1536" data-name="Group 1536" transform="translate(533.413 313.077)">
        <path id="Path_5944" data-name="Path 5944" d="M293.172-20.285a2.248,2.248,0,0,1-2.093-1.418c-1.114-2.789-2.01-3.687-4.8-4.8a2.243,2.243,0,0,1-1.42-2.093,2.245,2.245,0,0,1,1.42-2.093c2.787-1.112,3.684-2.01,4.8-4.8a2.241,2.241,0,0,1,2.093-1.418h0a2.235,2.235,0,0,1,2.091,1.424c1.114,2.782,2.01,3.68,4.8,4.792a2.245,2.245,0,0,1,1.418,2.093,2.244,2.244,0,0,1-1.416,2.093h0c-2.787,1.112-3.684,2.01-4.8,4.8a2.241,2.241,0,0,1-2.09,1.418ZM290.5-28.6a9.019,9.019,0,0,1,2.668,2.668A9.018,9.018,0,0,1,295.84-28.6a9.018,9.018,0,0,1-2.668-2.668A9.019,9.019,0,0,1,290.5-28.6Z" transform="translate(-284.861 36.905)"/>
      </g>
      <g id="Group_1537" data-name="Group 1537" transform="translate(137.059 34.401)">
        <path id="Path_5945" data-name="Path 5945" d="M115.589-167.66h0a2.247,2.247,0,0,1-2.091-1.422c-1.11-2.785-2.008-3.682-4.8-4.8a2.236,2.236,0,0,1-1.416-2.089,2.244,2.244,0,0,1,1.416-2.1c2.789-1.112,3.687-2.01,4.8-4.8a2.238,2.238,0,0,1,2.089-1.418h0a2.241,2.241,0,0,1,2.093,1.418c1.114,2.787,2.01,3.685,4.8,4.8a2.245,2.245,0,0,1,1.418,2.1,2.241,2.241,0,0,1-1.418,2.089h0c-2.787,1.114-3.684,2.01-4.8,4.8A2.247,2.247,0,0,1,115.589-167.66Zm-2.668-8.311a9.041,9.041,0,0,1,2.668,2.668,9.034,9.034,0,0,1,2.666-2.668,9.011,9.011,0,0,1-2.666-2.668A9,9,0,0,1,112.921-175.97Z" transform="translate(-107.28 184.279)"/>
      </g>
      <g id="Group_1538" data-name="Group 1538" transform="translate(202.105 339.902)">
        <path id="Path_5946" data-name="Path 5946" d="M139.84-2.028a2.358,2.358,0,0,1-2.2-1.49c-1.528-3.823-2.833-5.13-6.654-6.656a2.357,2.357,0,0,1-1.492-2.2,2.361,2.361,0,0,1,1.49-2.2c3.823-1.526,5.128-2.833,6.656-6.654a2.358,2.358,0,0,1,2.2-1.49,2.357,2.357,0,0,1,2.2,1.488c1.528,3.823,2.833,5.13,6.656,6.656a2.361,2.361,0,0,1,1.49,2.2,2.358,2.358,0,0,1-1.49,2.2h0c-3.822,1.526-5.126,2.833-6.654,6.654A2.355,2.355,0,0,1,139.84-2.028Zm-4.655-10.345A11.539,11.539,0,0,1,139.84-7.72a11.527,11.527,0,0,1,4.656-4.654,11.555,11.555,0,0,1-4.656-4.656A11.543,11.543,0,0,1,135.185-12.374Z" transform="translate(-129.495 22.719)"/>
      </g>
      <g id="Group_1539" data-name="Group 1539" transform="translate(260.128 311.994)">
        <path id="Path_5947" data-name="Path 5947" d="M166.106-18.693a2.306,2.306,0,0,1-2.15-1.452c-1.343-3.366-2.424-4.448-5.786-5.79a2.3,2.3,0,0,1-1.458-2.146,2.3,2.3,0,0,1,1.454-2.152c3.366-1.344,4.447-2.426,5.79-5.786a2.3,2.3,0,0,1,2.15-1.458h0a2.3,2.3,0,0,1,2.146,1.458c1.343,3.36,2.424,4.442,5.786,5.784a2.305,2.305,0,0,1,1.458,2.154,2.3,2.3,0,0,1-1.458,2.146c-3.362,1.343-4.444,2.424-5.786,5.786a2.3,2.3,0,0,1-2.146,1.456Zm-3.7-9.392a10.261,10.261,0,0,1,3.7,3.7,10.242,10.242,0,0,1,3.7-3.7,10.227,10.227,0,0,1-3.7-3.7A10.246,10.246,0,0,1,162.4-28.086Z" transform="translate(-156.712 37.478)"/>
      </g>
    </g>
    <g id="text" transform="translate(46.8 -72.481)">
      <g id="Group_1540" data-name="Group 1540" transform="translate(24.831 1.859)">
        <path id="Path_5948" data-name="Path 5948" d="M141.488-47.42c-6.042,6.04-15.75,9.944-24.734,9.944-24.662,0-33.6-17.121-33.734-33.143-.081-9.7,3.356-18.777,9.436-24.909,5.989-6.04,14.165-9.1,24.3-9.1a33.487,33.487,0,0,1,23.667,9.192l2.886,2.825,19.8-19.127-3.029-2.986a60.647,60.647,0,0,0-43.32-18.017c-18.236,0-33.793,5.949-44.987,17.208-11.21,11.27-17.584,27.665-17.489,44.978.153,28.086,16.608,60.883,62.477,60.883,17.625,0,33.1-6.066,44.734-17.546l2.961-2.92L144.442-50.374Z" transform="translate(-54.276 132.745)" fill="#9752dd" stroke="#414042" stroke-miterlimit="10" stroke-width="4"/>
      </g>
      <g id="Group_1541" data-name="Group 1541" transform="translate(173.673 6.416)">
        <path id="Path_5949" data-name="Path 5949" d="M222.057-89.551c0-19.439-13.69-40.444-43.77-40.625q-13.079,0-26.159-.079-13.1-.06-26.193-.079h-4.153V-11.824H150.84V-48.61h13.923l32.07,36.786h30.724v-7.144L197.594-52.746C213.238-58.352,222.057-71.445,222.057-89.551ZM150.84-102.534h27.447c10.846,0,14.712,6.951,14.712,13.456s-3.865,13.454-14.712,13.454H150.84Z" transform="translate(-121.782 130.335)" fill="#9752dd" stroke="#414042" stroke-miterlimit="10" stroke-width="4"/>
      </g>
      <g id="Group_1542" data-name="Group 1542" transform="translate(311.217 6.575)">
        <path id="Path_5950" data-name="Path 5950" d="M185.963-11.9h90.683V-40.641H214.863V-57.175h59.582V-84.818H214.863v-17.005h61.783v-28.428H185.963Z" transform="translate(-185.963 130.251)" fill="#9752dd" stroke="#414042" stroke-miterlimit="10" stroke-width="4"/>
      </g>
      <g id="Group_1673" data-name="Group 1673" transform="translate(895.217 6.575)">
        <path id="Path_5950-2" data-name="Path 5950" d="M185.963-11.9h90.683V-40.641H214.863V-57.175h59.582V-84.818H214.863v-17.005h61.783v-28.428L187.6-128.626Z" transform="translate(-185.963 130.251)" fill="#fff" stroke="#414042" stroke-miterlimit="10" stroke-width="4"/>
      </g>
      <g id="Group_1543" data-name="Group 1543" transform="translate(428.297 6.575)">
        <path id="Path_5951" data-name="Path 5951" d="M292.228-130.251,239.138-11.9h31.569l9.432-20.751h52.171L341.586-11.9h31.747l-53.09-118.352Zm-.089,69.957,14.1-32.311,14.1,32.311Z" transform="translate(-239.138 130.251)" fill="#9752dd" stroke="#414042" stroke-miterlimit="10" stroke-width="4"/>
      </g>
      <g id="Group_1544" data-name="Group 1544" transform="translate(567.375 6.575)">
        <path id="Path_5952" data-name="Path 5952" d="M304.849-103.081h34.9V-11.9h29.057v-91.183h34.9v-27.17h-98.86Z" transform="translate(-304.849 130.251)" fill="#9752dd" stroke="#414042" stroke-miterlimit="10" stroke-width="4"/>
      </g>
      <g id="Group_1545" data-name="Group 1545" transform="translate(696.142 6.575)">
        <rect id="Rectangle_88" data-name="Rectangle 88" width="28.901" height="118.353" fill="#984bdd" stroke="#414042" stroke-miterlimit="10" stroke-width="4"/>
      </g>
      <g id="Group_1546" data-name="Group 1546" transform="translate(747.854 6.104)">
        <path id="Path_5953" data-name="Path 5953" d="M454.876-52.146,424.541-130.5H392.215L441.4-11.676h27.089L517.675-130.5h-32.32Z" transform="translate(-392.215 130.5)" fill="#9752dd" stroke="#414042" stroke-miterlimit="10" stroke-width="4"/>
      </g>
      <g id="Group_1547" data-name="Group 1547" transform="translate(921.086 6.575)">
        <path id="Path_5954" data-name="Path 5954" d="M558.648-101.823v-28.428H467.961V-11.9h90.687V-40.641H496.863V-57.175h59.583V-84.818H496.863v-17.005Z" transform="translate(-493.961 130.251)" fill="#9752dd"/>
      </g>
      <g id="Group_1548" data-name="Group 1548" transform="translate(22.94 16.162)">
        <path id="Path_5955" data-name="Path 5955" d="M117.645-16.1c-47.255,0-64.209-33.81-64.368-62.762-.1-17.813,6.476-34.7,18.04-46.322L74-122.515C63.141-111.6,56.967-95.694,57.059-78.879c.149,27.218,16.105,59,60.586,59Z" transform="translate(-53.276 125.181)" fill="#414042"/>
      </g>
      <g id="Group_1549" data-name="Group 1549" transform="translate(64.721)">
        <path id="Path_5956" data-name="Path 5956" d="M76.531-128.358l-1.159-3.6a66.228,66.228,0,0,1,6.683-1.772l.781,3.7A62.507,62.507,0,0,0,76.531-128.358Z" transform="translate(-75.372 133.728)" fill="#414042"/>
      </g>
      <g id="Group_1550" data-name="Group 1550" transform="translate(51.684 36.174)">
        <path id="Path_5957" data-name="Path 5957" d="M150.455-46.55,131.782-65.432l-1.607,1.609c-6.378,6.378-16.614,10.5-26.072,10.5-26.044,0-35.48-18.089-35.624-35.017-.089-10.2,3.551-19.77,9.982-26.258l2.685,2.664c-5.726,5.775-8.965,14.364-8.886,23.561.129,15.116,8.56,31.267,31.842,31.267,8.507,0,17.692-3.685,23.4-9.39l4.3-4.3,21.347,21.587Z" transform="translate(-68.477 114.598)" fill="#414042"/>
      </g>
      <g id="Group_1551" data-name="Group 1551" transform="translate(724.353 69.563)">
        <rect id="Rectangle_89" data-name="Rectangle 89" width="3.782" height="53.793" fill="#414042"/>
      </g>
      <g id="Group_1552" data-name="Group 1552" transform="translate(739.185 36.783)">
        <path id="Path_5958" data-name="Path 5958" d="M464.146-25.811H434.531L398.509-112.83,402-114.276l35.054,84.683H461.62l25.925-62.632,3.494,1.446Z" transform="translate(-377.509 114.276)" fill="#414042"/>
      </g>
      <g id="Group_1553" data-name="Group 1553" transform="translate(24.831 121.466)">
        <rect id="Rectangle_90" data-name="Rectangle 90" width="1038.349" height="3.782" fill="#414042"/>
      </g>
      <g id="Group_1554" data-name="Group 1554" transform="translate(384.788 132.105)">
        <rect id="Rectangle_91" data-name="Rectangle 91" width="608.843" height="3.782" fill="#414042"/>
      </g>
      <g id="Group_1555" data-name="Group 1555" transform="translate(107.298 132.105)">
        <rect id="Rectangle_92" data-name="Rectangle 92" width="151.527" height="3.782" fill="#414042"/>
      </g>
      <g id="Group_1556" data-name="Group 1556" transform="translate(0 121.466)">
        <rect id="Rectangle_93" data-name="Rectangle 93" width="19.027" height="3.782" fill="#414042"/>
      </g>
      <g id="Group_1557" data-name="Group 1557" transform="translate(1030.898 121.466)">
        <rect id="Rectangle_94" data-name="Rectangle 94" width="9.1" height="3.782" fill="#414042"/>
      </g>
      <g id="Group_1561" data-name="Group 1561" transform="translate(38.023 12.582)">
        <g id="Group_1558" data-name="Group 1558" transform="translate(43.399 95.071)">
          <path id="Path_5959" data-name="Path 5959" d="M90.091-72.7a50.394,50.394,0,0,1-5.887-.346l.442-3.755a46.588,46.588,0,0,0,5.444.32Z" transform="translate(-84.204 76.797)" fill="#414042"/>
        </g>
        <g id="Group_1559" data-name="Group 1559" transform="translate(0 2.886)">
          <path id="Path_5960" data-name="Path 5960" d="M93.881-32.13a49.593,49.593,0,0,1-9.926-4.852l2.029-3.192a45.786,45.786,0,0,0,9.167,4.482ZM75.352-43.91a49.894,49.894,0,0,1-6.868-8.655l3.205-2.006a46.248,46.248,0,0,0,6.344,7.995ZM63.7-62.525A49.44,49.44,0,0,1,61.261-73.3l3.757-.42a45.7,45.7,0,0,0,2.258,9.952Zm1.309-21.4-3.759-.416a49.286,49.286,0,0,1,2.434-10.78l3.572,1.24A45.649,45.649,0,0,0,65.012-83.928Zm6.654-19.159-3.207-2a49.839,49.839,0,0,1,6.86-8.661L78-111.09A45.965,45.965,0,0,0,71.666-103.087ZM85.949-117.5l-2.033-3.188a49.47,49.47,0,0,1,9.918-4.862l1.274,3.561A45.657,45.657,0,0,0,85.949-117.5Z" transform="translate(-61.253 125.548)" fill="#414042"/>
        </g>
        <g id="Group_1560" data-name="Group 1560" transform="translate(43.399)">
          <path id="Path_5961" data-name="Path 5961" d="M84.646-122.973,84.2-126.73a50.394,50.394,0,0,1,5.887-.344v3.782A46.592,46.592,0,0,0,84.646-122.973Z" transform="translate(-84.204 127.074)" fill="#414042"/>
        </g>
      </g>
      <g id="Group_1562" data-name="Group 1562" transform="translate(350.863 18.461)">
        <path id="Path_5962" data-name="Path 5962" d="M239.7-120.183H228.358v-3.782H239.7Zm-22.691,0H205.667v-3.782h11.346Z" transform="translate(-205.667 123.965)" fill="#414042"/>
      </g>
      <g id="Group_1563" data-name="Group 1563" transform="translate(581.484 17.423)">
        <path id="Path_5963" data-name="Path 5963" d="M380.66-120.732H373.1v-3.782h7.564Zm-15.128,0h-7.564v-3.782h7.564Zm-15.128,0h-7.564v-3.782H350.4Zm-15.128,0h-7.564v-3.782h7.564Zm-15.128,0h-7.564v-3.782h7.564Z" transform="translate(-312.586 124.514)" fill="#414042"/>
      </g>
      <g id="Group_1564" data-name="Group 1564" transform="translate(313.778 4.684)">
        <rect id="Rectangle_95" data-name="Rectangle 95" width="88.799" height="3.782" fill="#414042"/>
      </g>
      <g id="Group_1565" data-name="Group 1565" transform="translate(568.166 4.684)">
        <rect id="Rectangle_96" data-name="Rectangle 96" width="98.11" height="3.782" fill="#414042"/>
      </g>
      <g id="Group_1566" data-name="Group 1566" transform="translate(150.59 75.15)">
        <rect id="Rectangle_97" data-name="Rectangle 97" width="3.782" height="47.277" fill="#414042"/>
      </g>
      <g id="Group_1567" data-name="Group 1567" transform="translate(424.191 31.916)">
        <rect id="Rectangle_98" data-name="Rectangle 98" width="100.584" height="3.782" transform="translate(0 91.782) rotate(-65.852)" fill="#414042"/>
      </g>
    </g>
    <g id="Layer_14" data-name="Layer 14" transform="translate(942.775 -9.184)">
      <g id="Group_1574" data-name="Group 1574">
        <g id="Group_1568" data-name="Group 1568" transform="translate(12.456 13.315)">
          <rect id="Rectangle_99" data-name="Rectangle 99" width="3.782" height="46.744" fill="#414042"/>
        </g>
        <g id="Group_1571" data-name="Group 1571" transform="translate(0 36.507)">
          <g id="Group_1569" data-name="Group 1569" transform="translate(13.353)">
            <path id="Path_5964" data-name="Path 5964" d="M457.2-64.711a14.746,14.746,0,0,1-1.655-.079l-1.484-.174-.174-1.482c-.036-.293-.8-7.208,3.207-11.213s10.92-3.243,11.215-3.209l1.482.176.174,1.483c.034.293.8,7.206-3.209,11.211C463.9-65.142,459.562-64.711,457.2-64.711Zm9.054-12.45c-1.808.04-4.714.4-6.486,2.175S457.637-70.3,457.6-68.5c1.806-.04,4.716-.4,6.49-2.176C465.845-72.433,466.216-75.351,466.258-77.16Z" transform="translate(-453.811 80.948)" fill="#414042"/>
          </g>
          <g id="Group_1570" data-name="Group 1570">
            <path id="Path_5965" data-name="Path 5965" d="M459.594-64.711c-2.358,0-6.7-.431-9.555-3.288-4.005-4.005-3.245-10.918-3.211-11.211L447-80.693l1.483-.176c.3-.034,7.21-.8,11.213,3.209s3.245,10.92,3.209,11.213l-.172,1.482-1.486.174A14.745,14.745,0,0,1,459.594-64.711Zm-9.06-12.45c.042,1.806.407,4.716,2.178,6.488s4.68,2.137,6.488,2.176c-.04-1.806-.4-4.718-2.176-6.49S452.342-77.121,450.535-77.16Z" transform="translate(-446.749 80.948)" fill="#414042"/>
          </g>
        </g>
        <g id="Group_1572" data-name="Group 1572" transform="translate(1.594)">
          <path id="Path_5966" data-name="Path 5966" d="M460.795-73.853a13.217,13.217,0,0,1-13.2-13.2,13.217,13.217,0,0,1,13.2-13.2,13.216,13.216,0,0,1,13.2,13.2A13.216,13.216,0,0,1,460.795-73.853Zm0-22.619a9.431,9.431,0,0,0-9.421,9.419,9.43,9.43,0,0,0,9.421,9.419,9.428,9.428,0,0,0,9.417-9.419A9.429,9.429,0,0,0,460.795-96.472Z" transform="translate(-447.592 100.254)" fill="#414042"/>
        </g>
        <g id="Group_1573" data-name="Group 1573" transform="translate(9.072 7.925)">
          <path id="Path_5967" data-name="Path 5967" d="M462.1-90.787a5.275,5.275,0,0,1-5.274,5.276,5.275,5.275,0,0,1-5.276-5.276,5.275,5.275,0,0,1,5.276-5.276A5.275,5.275,0,0,1,462.1-90.787Z" transform="translate(-451.547 96.063)" fill="url(#linear-gradient)"/>
        </g>
      </g>
    </g>
    <g id="Layer_10" data-name="Layer 10" transform="translate(103.258 -30.68)">
      <g id="Group_1579" data-name="Group 1579">
        <g id="Group_1575" data-name="Group 1575">
          <path id="Path_5968" data-name="Path 5968" d="M105.612-68.438c-14.963,0-32.719-19.5-33.468-20.326L71-90.031,72.144-91.3c.749-.83,18.5-20.326,33.468-20.326s32.719,19.5,33.468,20.326l1.142,1.265-1.142,1.267C138.331-87.934,120.575-68.438,105.612-68.438ZM76.153-90.031C80.3-85.767,94.363-72.22,105.612-72.22c11.264,0,25.316-13.547,29.459-17.809-4.145-4.262-18.21-17.811-29.459-17.811S80.3-94.293,76.153-90.031Z" transform="translate(-71.002 111.622)" fill="#414042"/>
        </g>
        <g id="Group_1576" data-name="Group 1576" transform="translate(16.489 3.476)">
          <path id="Path_5969" data-name="Path 5969" d="M97.849-73.552A18.144,18.144,0,0,1,79.722-91.671a18.14,18.14,0,0,1,18.127-18.113,18.135,18.135,0,0,1,18.115,18.113A18.139,18.139,0,0,1,97.849-73.552Zm0-32.451A14.354,14.354,0,0,0,83.5-91.671,14.357,14.357,0,0,0,97.849-77.333a14.351,14.351,0,0,0,14.333-14.337A14.348,14.348,0,0,0,97.849-106Z" transform="translate(-79.722 109.784)" fill="#414042"/>
        </g>
        <g id="Group_1577" data-name="Group 1577" transform="translate(25.624 12.611)">
          <path id="Path_5970" data-name="Path 5970" d="M102.525-95.975a8.981,8.981,0,0,1-8.984,8.984,8.982,8.982,0,0,1-8.988-8.984,8.981,8.981,0,0,1,8.988-8.978A8.98,8.98,0,0,1,102.525-95.975Z" transform="translate(-84.553 104.953)" fill="url(#linear-gradient)"/>
        </g>
        <g id="Group_1578" data-name="Group 1578" transform="translate(23.733 10.72)">
          <path id="Path_5971" data-name="Path 5971" d="M94.432-84.209A10.888,10.888,0,0,1,83.553-95.084a10.886,10.886,0,0,1,10.879-10.869,10.885,10.885,0,0,1,10.875,10.869A10.887,10.887,0,0,1,94.432-84.209Zm0-17.962a7.1,7.1,0,0,0-7.1,7.087,7.1,7.1,0,0,0,7.1,7.093,7.1,7.1,0,0,0,7.093-7.093A7.1,7.1,0,0,0,94.432-102.171Z" transform="translate(-83.553 105.953)" fill="#414042"/>
        </g>
      </g>
    </g>
    <g id="Layer_7" data-name="Layer 7" transform="translate(1037.885 -15.876)">
      <g id="Group_1591" data-name="Group 1591">
        <g id="Group_1585" data-name="Group 1585">
          <g id="Group_1582" data-name="Group 1582" transform="translate(49.656 6.516)">
            <g id="Group_1580" data-name="Group 1580" transform="translate(0 6.902)">
              <path id="Path_5972" data-name="Path 5972" d="M495.573-63.81l-1.352-3.532a10.97,10.97,0,0,0,7.019-10.187v-5.641a10.9,10.9,0,0,0-6.664-10.045L496.05-96.7a14.67,14.67,0,0,1,8.973,13.528v5.641A14.775,14.775,0,0,1,495.573-63.81Z" transform="translate(-494.221 96.697)" fill="#414042"/>
            </g>
            <g id="Group_1581" data-name="Group 1581" transform="translate(0.675)">
              <path id="Path_5973" data-name="Path 5973" d="M495.573-53.849l-.993-3.65a17.424,17.424,0,0,0,12.826-16.778v-5.641A17.428,17.428,0,0,0,494.578-96.7l.993-3.65a21.219,21.219,0,0,1,15.617,20.43v5.641A21.216,21.216,0,0,1,495.573-53.849Z" transform="translate(-494.578 100.347)" fill="#414042"/>
            </g>
          </g>
          <g id="Group_1583" data-name="Group 1583">
            <path id="Path_5974" data-name="Path 5974" d="M514.856-35.152H472.983a5.028,5.028,0,0,1-5.022-5.02v-58.6a5.028,5.028,0,0,1,5.022-5.022h41.873a5.026,5.026,0,0,1,5.02,5.022v58.6A5.026,5.026,0,0,1,514.856-35.152Zm-41.873-64.859a1.241,1.241,0,0,0-1.241,1.24v58.6a1.241,1.241,0,0,0,1.241,1.239h41.873a1.239,1.239,0,0,0,1.239-1.239v-58.6a1.24,1.24,0,0,0-1.239-1.24Z" transform="translate(-467.961 103.793)" fill="#414042"/>
          </g>
          <g id="Group_1584" data-name="Group 1584" transform="translate(4.877 34.411)">
            <path id="Path_5975" data-name="Path 5975" d="M495.139-56.142H474.426a3.891,3.891,0,0,1-3.886-3.886V-85.6h3.782v25.567l20.817.1Z" transform="translate(-470.54 85.595)" fill="#414042"/>
          </g>
        </g>
        <g id="Group_1586" data-name="Group 1586" transform="translate(9.506 1.891)">
          <path id="Path_5976" data-name="Path 5976" d="M472.988-102.793v23.951a3.575,3.575,0,0,0,3.574,3.576h1.008a3.575,3.575,0,0,0,3.576-3.576V-89.331a3.468,3.468,0,0,1,3.468-3.468h0a3.466,3.466,0,0,1,3.466,3.468v3.36a3.575,3.575,0,0,0,3.576,3.574h0a3.575,3.575,0,0,0,3.576-3.574v-16.822Z" transform="translate(-472.988 102.793)" fill="url(#linear-gradient)"/>
        </g>
        <g id="Group_1589" data-name="Group 1589" transform="translate(9.506 1.891)">
          <g id="Group_1587" data-name="Group 1587">
            <path id="Path_5977" data-name="Path 5977" d="M475.191-102.793v22.85a3.573,3.573,0,0,0,3.574,3.574h1.01a3.549,3.549,0,0,0,.4-.04,3.56,3.56,0,0,1-2.608,1.142h-1.008a3.575,3.575,0,0,1-3.574-3.576v-23.951Z" transform="translate(-472.988 102.793)" fill="#fbddae"/>
          </g>
          <g id="Group_1588" data-name="Group 1588" transform="translate(11.278 8.891)">
            <path id="Path_5978" data-name="Path 5978" d="M481.5-98.091a3.468,3.468,0,0,1,3.468,3.468v3.36a3.575,3.575,0,0,0,3.574,3.576,3.578,3.578,0,0,0,.4-.042,3.553,3.553,0,0,1-2.608,1.142,3.575,3.575,0,0,1-3.576-3.576v-3.358a3.466,3.466,0,0,0-3.466-3.468,3.009,3.009,0,0,0-.348.036A3.445,3.445,0,0,1,481.5-98.091Z" transform="translate(-478.952 98.091)" fill="#fbddae"/>
          </g>
        </g>
        <g id="Group_1590" data-name="Group 1590" transform="translate(7.615)">
          <path id="Path_5979" data-name="Path 5979" d="M478.463-72.485h-1.01a5.473,5.473,0,0,1-5.465-5.467v-25.842h26.023V-85.08a5.471,5.471,0,0,1-5.465,5.465,5.473,5.473,0,0,1-5.467-5.465v-3.36a1.578,1.578,0,0,0-1.575-1.577,1.579,1.579,0,0,0-1.577,1.577v10.489A5.473,5.473,0,0,1,478.463-72.485Zm-2.693-27.526v22.06a1.686,1.686,0,0,0,1.683,1.685h1.01a1.686,1.686,0,0,0,1.683-1.685V-88.44A5.365,5.365,0,0,1,485.5-93.8a5.363,5.363,0,0,1,5.357,5.359v3.36a1.686,1.686,0,0,0,1.685,1.683,1.684,1.684,0,0,0,1.683-1.683v-14.931Z" transform="translate(-471.988 103.793)" fill="#414042"/>
        </g>
      </g>
    </g>
    <g id="Layer_13" data-name="Layer 13" transform="translate(356.401 -30.718)">
      <g id="Group_1608" data-name="Group 1608">
        <g id="Group_1592" data-name="Group 1592" transform="translate(63.733 49.922)">
          <rect id="Rectangle_100" data-name="Rectangle 100" width="3.782" height="31.406" fill="#414042"/>
        </g>
        <g id="Group_1593" data-name="Group 1593" transform="translate(47.8 58.675)">
          <rect id="Rectangle_101" data-name="Rectangle 101" width="3.782" height="22.652" fill="#414042"/>
        </g>
        <g id="Group_1594" data-name="Group 1594" transform="translate(31.866 49.922)">
          <rect id="Rectangle_102" data-name="Rectangle 102" width="3.782" height="31.406" fill="#414042"/>
        </g>
        <g id="Group_1595" data-name="Group 1595" transform="translate(6.911 48.03)">
          <path id="Path_5980" data-name="Path 5980" d="M258.135-51.053H188.51v-3.782h69.625a3.134,3.134,0,0,0,3.13-3.131V-79.329a3.134,3.134,0,0,0-3.13-3.131H239.443v-3.782h18.692a6.922,6.922,0,0,1,6.911,6.913v21.362A6.921,6.921,0,0,1,258.135-51.053Z" transform="translate(-188.51 86.242)" fill="#414042"/>
        </g>
        <g id="Group_1596" data-name="Group 1596" transform="translate(46.225 14.64)">
          <rect id="Rectangle_103" data-name="Rectangle 103" width="3.781" height="31.406" transform="translate(0 2.674) rotate(-44.999)" fill="#414042"/>
        </g>
        <g id="Group_1597" data-name="Group 1597" transform="translate(34.958 25.907)">
          <rect id="Rectangle_104" data-name="Rectangle 104" width="3.782" height="31.405" transform="translate(0 2.674) rotate(-45.001)" fill="#414042"/>
        </g>
        <g id="Group_1598" data-name="Group 1598" transform="translate(22.911 37.481)">
          <rect id="Rectangle_105" data-name="Rectangle 105" width="3.781" height="31.406" transform="translate(0 2.674) rotate(-44.999)" fill="#414042"/>
        </g>
        <g id="Group_1599" data-name="Group 1599" transform="translate(31.868 4.902)">
          <path id="Path_5981" data-name="Path 5981" d="M204.382-37.866l-2.674-2.674,44.278-44.28a3.134,3.134,0,0,0,0-4.429l-15.1-15.1a3.137,3.137,0,0,0-4.429,0L204.471-82.371,201.8-85.045l21.982-21.982a6.919,6.919,0,0,1,9.776,0l15.1,15.1a6.922,6.922,0,0,1,0,9.776Z" transform="translate(-201.708 109.05)" fill="#414042"/>
        </g>
        <g id="Group_1600" data-name="Group 1600" transform="translate(1.89 1.609)">
          <path id="Rectangle_106" data-name="Rectangle 106" d="M3.42,0H27.985a3.42,3.42,0,0,1,3.42,3.42v60.6a0,0,0,0,1,0,0H0a0,0,0,0,1,0,0V3.42A3.42,3.42,0,0,1,3.42,0Z" fill="#45c1e3"/>
        </g>
        <g id="Group_1601" data-name="Group 1601" transform="translate(1.89 1.609)">
          <path id="Rectangle_107" data-name="Rectangle 107" d="M3.42,0H27.985a3.42,3.42,0,0,1,3.42,3.42v60.6a0,0,0,0,1,0,0H0a0,0,0,0,1,0,0V3.42A3.42,3.42,0,0,1,3.42,0Z" fill="url(#linear-gradient)"/>
        </g>
        <g id="Group_1602" data-name="Group 1602" transform="translate(12.7 68.813)">
          <path id="Path_5982" data-name="Path 5982" d="M196.465-65.465a4.9,4.9,0,0,1-4.894-4.892,4.9,4.9,0,0,1,4.894-4.894,4.9,4.9,0,0,1,4.892,4.894A4.9,4.9,0,0,1,196.465-65.465Zm0-6a1.114,1.114,0,0,0-1.112,1.112,1.112,1.112,0,0,0,1.112,1.11,1.112,1.112,0,0,0,1.11-1.11A1.113,1.113,0,0,0,196.465-71.469Z" transform="translate(-191.571 75.251)" fill="#414042"/>
        </g>
        <g id="Group_1603" data-name="Group 1603" transform="translate(1.89 15.933)">
          <rect id="Rectangle_108" data-name="Rectangle 108" width="31.405" height="3.782" fill="#414042"/>
        </g>
        <g id="Group_1604" data-name="Group 1604" transform="translate(1.89 31.866)">
          <rect id="Rectangle_109" data-name="Rectangle 109" width="31.405" height="3.782" fill="#414042"/>
        </g>
        <g id="Group_1605" data-name="Group 1605" transform="translate(1.89 47.8)">
          <rect id="Rectangle_110" data-name="Rectangle 110" width="31.405" height="3.782" fill="#414042"/>
        </g>
        <g id="Group_1606" data-name="Group 1606" transform="translate(1.89 63.733)">
          <rect id="Rectangle_111" data-name="Rectangle 111" width="31.405" height="3.782" fill="#414042"/>
        </g>
        <g id="Group_1607" data-name="Group 1607">
          <path id="Path_5983" data-name="Path 5983" d="M212.221-28.193H192.674a7.83,7.83,0,0,1-7.819-7.821v-67.809a7.828,7.828,0,0,1,7.819-7.819h19.547a7.828,7.828,0,0,1,7.819,7.819v67.809A7.83,7.83,0,0,1,212.221-28.193ZM192.674-107.86a4.042,4.042,0,0,0-4.037,4.037v67.809a4.043,4.043,0,0,0,4.037,4.039h19.547a4.043,4.043,0,0,0,4.037-4.039v-67.809a4.042,4.042,0,0,0-4.037-4.037Z" transform="translate(-184.855 111.642)" fill="#414042"/>
        </g>
      </g>
    </g>
    <g id="Layer_12" data-name="Layer 12" transform="translate(631.229 -37.99)">
      <g id="Group_1619" data-name="Group 1619">
        <g id="Group_1609" data-name="Group 1609" transform="translate(11.891 33.737)">
          <path id="Path_5984" data-name="Path 5984" d="M317.654-96.589a3.8,3.8,0,0,0-3.793,3.8v37.626a3.69,3.69,0,0,0,3.576,3.8,3.691,3.691,0,0,0,3.576-3.8v-9.337a3.59,3.59,0,0,1,3.345-3.793,3.59,3.59,0,0,1,3.345,3.793v2.566a3.744,3.744,0,0,0,3.691,3.8,3.745,3.745,0,0,0,3.691-3.8V-76.916c0-2.1,1.31-3.793,2.929-3.793a3.169,3.169,0,0,1,2.931,3.364,3.178,3.178,0,0,0,2.952,3.364c1.63,0,2.952-1.7,2.952-3.793v-15.02a3.8,3.8,0,0,0-3.793-3.8h-25.4Z" transform="translate(-313.861 96.589)" fill="url(#linear-gradient)"/>
        </g>
        <g id="Group_1610" data-name="Group 1610" transform="translate(12 31.846)">
          <path id="Path_5985" data-name="Path 5985" d="M318.328-48.591a5.586,5.586,0,0,1-5.467-5.686V-91.9a5.692,5.692,0,0,1,5.684-5.686h25.4A5.691,5.691,0,0,1,349.63-91.9v15.02c0,3.135-2.173,5.684-4.843,5.684a5.067,5.067,0,0,1-4.843-5.255c0-.785-.486-1.473-1.04-1.473-.412,0-1.038.758-1.038,1.9v14.976a5.643,5.643,0,0,1-5.584,5.686,5.641,5.641,0,0,1-5.58-5.686v-2.566a1.748,1.748,0,0,0-1.454-1.9,1.748,1.748,0,0,0-1.454,1.9v9.337A5.586,5.586,0,0,1,318.328-48.591Zm.217-45.216a1.907,1.907,0,0,0-1.9,1.9v37.626a1.806,1.806,0,0,0,1.685,1.9,1.807,1.807,0,0,0,1.685-1.9v-9.337a5.481,5.481,0,0,1,5.236-5.684,5.481,5.481,0,0,1,5.236,5.684v2.566a1.855,1.855,0,0,0,1.8,1.9,1.858,1.858,0,0,0,1.8-1.9V-76.025c0-3.135,2.163-5.684,4.82-5.684a5.057,5.057,0,0,1,4.822,5.255c0,.8.486,1.473,1.061,1.473.433,0,1.061-.741,1.061-1.9V-91.9a1.905,1.905,0,0,0-1.9-1.9Z" transform="translate(-312.861 97.589)" fill="#414042"/>
        </g>
        <g id="Group_1611" data-name="Group 1611" transform="translate(56.435 6.285)">
          <path id="Path_5986" data-name="Path 5986" d="M355.082-100.1H342.706v-12.062h12.376Zm-8.594-3.782H351.3v-4.5h-4.812Z" transform="translate(-342.706 112.164)" fill="#414042"/>
        </g>
        <g id="Group_1612" data-name="Group 1612" transform="translate(46.162 14.541)">
          <path id="Path_5987" data-name="Path 5987" d="M368.727-95.206a15.951,15.951,0,0,0-14.307-8.81A16.074,16.074,0,0,0,340.546-96L337.273-97.9a19.863,19.863,0,0,1,17.147-9.9A19.712,19.712,0,0,1,372.1-96.91Z" transform="translate(-337.273 107.798)" fill="#414042"/>
        </g>
        <g id="Group_1613" data-name="Group 1613" transform="translate(41.646 23.365)">
          <path id="Path_5988" data-name="Path 5988" d="M372.038-35.741H341.273a6.394,6.394,0,0,1-6.388-6.388V-99.581a3.555,3.555,0,0,1,3.551-3.551h33.6a6.394,6.394,0,0,1,6.388,6.388v54.616A6.394,6.394,0,0,1,372.038-35.741ZM338.667-99.35v57.222a2.608,2.608,0,0,0,2.606,2.606h30.766a2.608,2.608,0,0,0,2.606-2.606V-96.744a2.608,2.608,0,0,0-2.606-2.606Z" transform="translate(-334.885 103.132)" fill="#414042"/>
        </g>
        <g id="Group_1614" data-name="Group 1614" transform="translate(38.494 23.67)">
          <rect id="Rectangle_112" data-name="Rectangle 112" width="50.829" height="3.782" fill="#414042"/>
        </g>
        <g id="Group_1615" data-name="Group 1615" transform="translate(41.646 38.768)">
          <path id="Path_5989" data-name="Path 5989" d="M359.724-59.763H334.885V-94.986h24.839Zm-21.058-3.782h17.276V-91.2H338.667Z" transform="translate(-334.885 94.986)" fill="#414042"/>
        </g>
        <g id="Group_1616" data-name="Group 1616" transform="translate(3.566)">
          <path id="Path_5990" data-name="Path 5990" d="M339.673-85.312a8.376,8.376,0,0,1-7.6-4.879,11.611,11.611,0,0,1-5.574,1.426,11.77,11.77,0,0,1-11.756-11.758A11.769,11.769,0,0,1,326.5-112.279a11.545,11.545,0,0,1,4.347.858,9.593,9.593,0,0,1,7.844-4.067,9.59,9.59,0,0,1,9.01,6.312l12.146-.026.009,3.782-15.169.034-.285-1.554a5.809,5.809,0,0,0-5.711-4.765,5.818,5.818,0,0,0-5.348,3.528l-.86,2-1.861-1.133A7.816,7.816,0,0,0,326.5-108.5a7.984,7.984,0,0,0-7.974,7.974,7.984,7.984,0,0,0,7.974,7.976,7.932,7.932,0,0,0,5.418-2.159l2.942-2.744.234,4.015a4.6,4.6,0,0,0,4.576,4.342,4.615,4.615,0,0,0,4.61-4.61,4.593,4.593,0,0,0-.422-1.9l3.443-1.562a8.331,8.331,0,0,1,.76,3.462A8.4,8.4,0,0,1,339.673-85.312Z" transform="translate(-314.747 115.488)" fill="#414042"/>
        </g>
        <g id="Group_1617" data-name="Group 1617" transform="translate(39.327 11.188)">
          <rect id="Rectangle_113" data-name="Rectangle 113" width="15.346" height="3.782" fill="#414042"/>
        </g>
        <g id="Group_1618" data-name="Group 1618" transform="translate(10.181 8.795)">
          <path id="Path_5991" data-name="Path 5991" d="M322.027-104.544h-3.782a6.3,6.3,0,0,1,6.293-6.293v3.782A2.513,2.513,0,0,0,322.027-104.544Z" transform="translate(-318.245 110.837)" fill="#414042"/>
        </g>
      </g>
    </g>
    <g id="Layer_6" data-name="Layer 6" transform="translate(940.341 -68.682)">
      <g id="Group_1627" data-name="Group 1627">
        <g id="Group_1620" data-name="Group 1620" transform="translate(84.228 1.89)">
          <rect id="Rectangle_114" data-name="Rectangle 114" width="3.782" height="7.79" fill="#414042"/>
        </g>
        <g id="Group_1621" data-name="Group 1621" transform="translate(68.89 1.89)">
          <rect id="Rectangle_115" data-name="Rectangle 115" width="3.782" height="7.79" fill="#414042"/>
        </g>
        <g id="Group_1622" data-name="Group 1622" transform="translate(53.818 1.89)">
          <rect id="Rectangle_116" data-name="Rectangle 116" width="3.782" height="7.79" fill="#414042"/>
        </g>
        <g id="Group_1623" data-name="Group 1623" transform="translate(23.67 1.89)">
          <rect id="Rectangle_117" data-name="Rectangle 117" width="3.782" height="7.79" fill="#414042"/>
        </g>
        <g id="Group_1624" data-name="Group 1624" transform="translate(38.743 1.89)">
          <rect id="Rectangle_118" data-name="Rectangle 118" width="3.782" height="7.79" fill="#414042"/>
        </g>
        <g id="Group_1625" data-name="Group 1625" transform="translate(8.372 1.89)">
          <rect id="Rectangle_119" data-name="Rectangle 119" width="3.782" height="7.79" fill="#414042"/>
        </g>
        <g id="Group_1626" data-name="Group 1626">
          <path id="Path_5992" data-name="Path 5992" d="M558.464-96.351H471.131c-2.651,0-4.808-2.421-4.808-5.4v-23.185c0-2.976,2.157-5.4,4.808-5.4h87.333c3.156,0,5.727,2.882,5.727,6.426v21.126C564.191-99.236,561.62-96.351,558.464-96.351Zm-87.333-29.627a.992.992,0,0,0-.929,1.043v23.185a.993.993,0,0,0,.929,1.045h87.333a1.975,1.975,0,0,0,1.848-2.075v-21.126a1.973,1.973,0,0,0-1.848-2.072Z" transform="translate(-466.323 130.332)" fill="#414042"/>
        </g>
      </g>
    </g>
    <g id="Layer_8" data-name="Layer 8" transform="translate(815.703 -133.126)">
      <g id="Group_1633" data-name="Group 1633">
        <g id="Group_1628" data-name="Group 1628" transform="translate(17.502 17.969)">
          <circle id="Ellipse_50" data-name="Ellipse 50" cx="29.306" cy="29.306" r="29.306" fill="url(#linear-gradient)"/>
        </g>
        <g id="Group_1629" data-name="Group 1629" transform="translate(15.614 16.079)">
          <path id="Path_5993" data-name="Path 5993" d="M438.936-94.908h-.023v-1.885l.129,1.885Zm-.023,0a31.343,31.343,0,0,1-6.079-.581l.73-3.712a27.647,27.647,0,0,0,5.321.516ZM445-95.5l-.737-3.71a27.289,27.289,0,0,0,5.138-1.56l1.45,3.491A30.981,30.981,0,0,1,445-95.5Zm-18.015-1.753a31.3,31.3,0,0,1-5.393-2.88l2.1-3.147a27.51,27.51,0,0,0,4.741,2.53Zm29.253-2.914-2.107-3.143a27.607,27.607,0,0,0,4.153-3.413l2.674,2.674A31.579,31.579,0,0,1,456.234-100.167Zm-39.373-3.839a31.575,31.575,0,0,1-3.888-4.714l3.139-2.112a27.64,27.64,0,0,0,3.419,4.149Zm47.971-4.769-3.143-2.1a27.689,27.689,0,0,0,2.532-4.737l3.495,1.447A31.246,31.246,0,0,1,464.833-108.774Zm-54.756-5.332a31.036,31.036,0,0,1-1.785-5.849l3.708-.739a27.412,27.412,0,0,0,1.566,5.134Zm59.415-5.913-3.712-.73a27.836,27.836,0,0,0,.52-5.349l3.782-.123v.123A31.624,31.624,0,0,1,469.492-120.02Zm-61.514-6.023-.287,0a31.455,31.455,0,0,1,.579-6.072l3.71.724a27.741,27.741,0,0,0-.509,5.293Zm57.778-5.516a27.426,27.426,0,0,0-1.575-5.132l3.487-1.462a31.03,31.03,0,0,1,1.8,5.845Zm-52.23-4.973-3.5-1.441a31.237,31.237,0,0,1,2.872-5.4l3.15,2.1A27.306,27.306,0,0,0,413.525-136.532Zm48.1-4.882a27.493,27.493,0,0,0-3.425-4.139l2.662-2.685a31.378,31.378,0,0,1,3.9,4.707Zm-42.176-4.02-2.681-2.668a31.069,31.069,0,0,1,4.714-3.892l2.108,3.139A27.442,27.442,0,0,0,419.45-145.434Zm34.585-3.517a27.136,27.136,0,0,0-4.742-2.519l1.437-3.5a31.156,31.156,0,0,1,5.4,2.869Zm-25.715-2.454-1.458-3.489a31.155,31.155,0,0,1,5.845-1.791l.747,3.708A27.341,27.341,0,0,0,428.32-151.406Zm15.829-1.605a27.84,27.84,0,0,0-5.264-.5l-.07-2.948.015-.834h.013a31.519,31.519,0,0,1,6.026.573Z" transform="translate(-407.69 157.296)" fill="#414042"/>
        </g>
        <g id="Group_1630" data-name="Group 1630" transform="translate(29.69 28.846)">
          <path id="Path_5994" data-name="Path 5994" d="M448.971-135.626l-2.9-.011a13.407,13.407,0,0,0-1.738-4.187l2.056-2.055a1.875,1.875,0,0,0,.006-2.655l-1.537-1.539a1.88,1.88,0,0,0-2.655-.006l-2.059,2.055a13.324,13.324,0,0,0-4.181-1.736v-2.9a1.882,1.882,0,0,0-1.881-1.88h-2.171a1.881,1.881,0,0,0-1.882,1.88v2.9a13.439,13.439,0,0,0-4.122,1.7l-2.042-2.063a1.875,1.875,0,0,0-2.657-.011l-1.547,1.528a1.881,1.881,0,0,0-.013,2.655l2.042,2.067a13.332,13.332,0,0,0-1.753,4.175l-2.9-.011a1.868,1.868,0,0,0-1.882,1.876l-.015,2.173a1.883,1.883,0,0,0,1.87,1.887l2.9.009a13.233,13.233,0,0,0,1.728,4.185l-2.067,2.057a1.875,1.875,0,0,0,0,2.651l1.526,1.539a1.874,1.874,0,0,0,2.659.011l2.061-2.044a13.356,13.356,0,0,0,4.187,1.751l-.013,2.9a1.878,1.878,0,0,0,1.872,1.885l2.175.008a1.872,1.872,0,0,0,1.882-1.866l.008-2.906a13.448,13.448,0,0,0,4.192-1.732l2.05,2.065a1.891,1.891,0,0,0,2.664,0l1.532-1.534a1.863,1.863,0,0,0,0-2.651l-2.04-2.061a13.383,13.383,0,0,0,1.742-4.188l2.9.009a1.881,1.881,0,0,0,1.881-1.876v-2.178A1.869,1.869,0,0,0,448.971-135.626ZM433-123.331a9.362,9.362,0,0,1-9.366-9.368A9.35,9.35,0,0,1,433-142.044a9.344,9.344,0,0,1,9.355,9.345A9.357,9.357,0,0,1,433-123.331Z" transform="translate(-415.134 150.544)" fill="#fff"/>
        </g>
        <g id="Group_1631" data-name="Group 1631" transform="translate(6.301)">
          <path id="Path_5995" data-name="Path 5995" d="M406.547-92.052h-3.782v-5.673h3.782Zm0-11.346h-3.782v-5.673h3.782Zm0-11.346h-3.782v-5.673h3.782Zm0-11.346h-3.782v-5.673h3.782Zm0-11.346h-3.782v-5.673h3.782Zm0-11.346h-3.782v-5.673h3.782Zm0-11.346h-3.782V-165.8h3.782Z" transform="translate(-402.765 165.799)" fill="#414042"/>
        </g>
        <g id="Group_1632" data-name="Group 1632" transform="translate(0 6.637)">
          <path id="Path_5996" data-name="Path 5996" d="M473.18-158.507h-5.673v-3.782h5.673Zm-11.346,0h-5.673v-3.782h5.673Zm-11.346,0h-5.673v-3.782h5.673Zm-11.346,0H433.47v-3.782h5.673Zm-11.346,0h-5.673v-3.782H427.8Zm-11.346,0h-5.673v-3.782h5.673Zm-11.346,0h-5.673v-3.782h5.673Z" transform="translate(-399.433 162.289)" fill="#414042"/>
        </g>
      </g>
    </g>
    <g id="Layer_9" data-name="Layer 9" transform="translate(224.724 -65.933)">
      <g id="Group_1648" data-name="Group 1648" transform="translate(0 0)">
        <g id="Group_1634" data-name="Group 1634" transform="translate(13.47 14.716)">
          <path id="Path_5997" data-name="Path 5997" d="M190.629-92.415a30.068,30.068,0,0,0-30.068-30.068,30.067,30.067,0,0,0-30.066,30.068A30.056,30.056,0,0,0,146.031-66.1v13.35h29.062V-66.1A30.051,30.051,0,0,0,190.629-92.415Z" transform="translate(-130.495 122.483)" fill="url(#linear-gradient)"/>
        </g>
        <g id="Group_1635" data-name="Group 1635" transform="translate(16.491 18.077)">
          <path id="Path_6013" data-name="Path 6013" d="M18.884,0A18.884,18.884,0,1,1,0,18.884,18.884,18.884,0,0,1,18.884,0Z" transform="translate(0 26.706) rotate(-45)" fill="#fff"/>
        </g>
        <g id="Group_1636" data-name="Group 1636" transform="translate(4.984 68.743)">
          <rect id="Rectangle_120" data-name="Rectangle 120" width="17.18" height="3.782" transform="matrix(0.707, -0.707, 0.707, 0.707, 0, 12.148)" fill="#414042"/>
        </g>
        <g id="Group_1637" data-name="Group 1637" transform="translate(66.689 6.432)">
          <rect id="Rectangle_121" data-name="Rectangle 121" width="18.037" height="3.781" transform="translate(0 12.753) rotate(-44.998)" fill="#414042"/>
        </g>
        <g id="Group_1638" data-name="Group 1638" transform="translate(41.659)">
          <rect id="Rectangle_122" data-name="Rectangle 122" width="8.905" height="3.782" transform="matrix(0.014, -1, 1, 0.014, 0, 8.904)" fill="#414042"/>
        </g>
        <g id="Group_1639" data-name="Group 1639" transform="translate(4.984 6.432)">
          <rect id="Rectangle_123" data-name="Rectangle 123" width="3.782" height="16.953" transform="translate(0 2.674) rotate(-45)" fill="#414042"/>
        </g>
        <g id="Group_1640" data-name="Group 1640" transform="translate(67.295 68.742)">
          <rect id="Rectangle_124" data-name="Rectangle 124" width="3.782" height="17.18" transform="translate(0 2.674) rotate(-45)" fill="#414042"/>
        </g>
        <g id="Group_1641" data-name="Group 1641" transform="translate(0 43.109)">
          <rect id="Rectangle_125" data-name="Rectangle 125" width="9.173" height="3.782" transform="translate(0 0.327) rotate(-2.042)" fill="#414042"/>
        </g>
        <g id="Group_1642" data-name="Group 1642" transform="translate(77.677 42.894)">
          <rect id="Rectangle_126" data-name="Rectangle 126" width="9.303" height="3.781" transform="translate(0 0.214) rotate(-1.315)" fill="#414042"/>
        </g>
        <g id="Group_1643" data-name="Group 1643" transform="translate(33.005 91.185)">
          <path id="Path_5998" data-name="Path 5998" d="M151.018-68.3a10.2,10.2,0,0,1-10.192-10.192v-3.555h3.782v3.555a6.418,6.418,0,0,0,6.41,6.41,6.418,6.418,0,0,0,6.41-6.41v-3.555h3.782v3.555A10.2,10.2,0,0,1,151.018-68.3Z" transform="translate(-140.826 82.043)" fill="#414042"/>
        </g>
        <g id="Group_1644" data-name="Group 1644" transform="translate(11.579 12.826)">
          <path id="Path_5999" data-name="Path 5999" d="M177.875-49.966H145.031v-14.15a31.987,31.987,0,0,1-15.536-27.409,31.994,31.994,0,0,1,31.959-31.957,31.994,31.994,0,0,1,31.957,31.957,31.987,31.987,0,0,1-15.536,27.409Zm-29.062-3.782h25.28V-66.323l.976-.539a28.211,28.211,0,0,0,14.56-24.664A28.207,28.207,0,0,0,161.454-119.7a28.207,28.207,0,0,0-28.177,28.175,28.209,28.209,0,0,0,14.562,24.664l.974.539Z" transform="translate(-129.495 123.482)" fill="#414042"/>
        </g>
        <g id="Group_1645" data-name="Group 1645" transform="translate(26.92 81.006)">
          <path id="Path_6000" data-name="Path 6000" d="M171.119-75.47H137.608V-87.426h33.511ZM141.39-79.251h25.948v-4.393H141.39Z" transform="translate(-137.608 87.426)" fill="#414042"/>
        </g>
        <g id="Group_1646" data-name="Group 1646" transform="translate(41.306 44.783)">
          <rect id="Rectangle_127" data-name="Rectangle 127" width="3.782" height="38.114" fill="#414042"/>
        </g>
        <g id="Group_1647" data-name="Group 1647" transform="translate(33.128 43.436)">
          <rect id="Rectangle_128" data-name="Rectangle 128" width="20.435" height="3.782" fill="#414042"/>
        </g>
      </g>
    </g>
    <g id="Layer_11" data-name="Layer 11" transform="translate(732.967 -87.63)">
      <g id="Group_1653" data-name="Group 1653">
        <g id="Group_1649" data-name="Group 1649" transform="translate(1.89 17.886)">
          <rect id="Rectangle_129" data-name="Rectangle 129" width="13.02" height="103.009" fill="url(#linear-gradient)"/>
        </g>
        <g id="Group_1650" data-name="Group 1650">
          <path id="Path_6001" data-name="Path 6001" d="M379.82-2.756H363.369V-124.2l6.119-16.086a2.234,2.234,0,0,1,2.1-1.452h0a2.238,2.238,0,0,1,2.106,1.45L379.82-124.2ZM367.151-6.538h8.887V-123.507l-4.444-11.682-4.444,11.682Z" transform="translate(-363.369 141.739)" fill="#414042"/>
        </g>
        <g id="Group_1651" data-name="Group 1651" transform="translate(1.89 120.434)">
          <rect id="Rectangle_130" data-name="Rectangle 130" width="13.02" height="3.782" fill="#414042"/>
        </g>
        <g id="Group_1652" data-name="Group 1652" transform="translate(2.687 15.995)">
          <rect id="Rectangle_131" data-name="Rectangle 131" width="11.076" height="3.782" fill="#414042"/>
        </g>
      </g>
    </g>
    <g id="lines" transform="translate(484.786 -83.241)">
      <g id="Group_1671" data-name="Group 1671">
        <g id="Group_1654" data-name="Group 1654" transform="translate(51.659)">
          <path id="Path_6002" data-name="Path 6002" d="M284.029-126.49H271.1v-12.928h12.927Zm-9.145-3.782h5.363v-5.365h-5.363Z" transform="translate(-271.102 139.418)" fill="#414042"/>
        </g>
        <g id="Group_1655" data-name="Group 1655" transform="translate(103.115)">
          <path id="Path_6003" data-name="Path 6003" d="M311.239-126.49H298.314v-12.928h12.925Zm-9.143-3.782h5.361v-5.365H302.1Z" transform="translate(-298.314 139.418)" fill="#414042"/>
        </g>
        <g id="Group_1656" data-name="Group 1656" transform="translate(0.2)">
          <path id="Path_6004" data-name="Path 6004" d="M256.815-126.49H243.889v-12.928h12.926Zm-9.145-3.782h5.363v-5.365h-5.363Z" transform="translate(-243.889 139.418)" fill="#414042"/>
        </g>
        <g id="Group_1657" data-name="Group 1657" transform="translate(103.115 51.557)">
          <path id="Path_6005" data-name="Path 6005" d="M311.24-99.227H298.314v-12.926H311.24Zm-9.145-3.782h5.363v-5.363H302.1Z" transform="translate(-298.314 112.153)" fill="#414042"/>
        </g>
        <g id="Group_1658" data-name="Group 1658" transform="translate(0 51.557)">
          <path id="Path_6006" data-name="Path 6006" d="M256.711-99.227H243.783v-12.926h12.928Zm-9.146-3.782h5.365v-5.363h-5.365Z" transform="translate(-243.783 112.153)" fill="#414042"/>
        </g>
        <g id="Group_1659" data-name="Group 1659" transform="translate(62.428 4.778)">
          <path id="Path_6007" data-name="Path 6007" d="M321.864-88.05A49.534,49.534,0,0,0,276.8-133.122l.331-3.769a53.319,53.319,0,0,1,48.5,48.51Z" transform="translate(-276.797 136.891)" fill="#414042"/>
        </g>
        <g id="Group_1660" data-name="Group 1660" transform="translate(4.78 4.82)">
          <path id="Path_6008" data-name="Path 6008" d="M250.078-88.075l-3.767-.331a53.388,53.388,0,0,1,48.07-48.463l.361,3.765A49.606,49.606,0,0,0,250.078-88.075Z" transform="translate(-246.311 136.869)" fill="#414042"/>
        </g>
        <g id="Group_1661" data-name="Group 1661" transform="translate(37.197 32.014)">
          <path id="Path_6009" data-name="Path 6009" d="M273.962-61.094,263.454-93.74l16.811-28.747h3.459v3.782h-1.289L267.572-93.29l9.99,31.038Z" transform="translate(-263.454 122.488)" fill="#414042"/>
        </g>
        <g id="Group_1662" data-name="Group 1662" transform="translate(58.74 32.014)">
          <path id="Path_6010" data-name="Path 6010" d="M284.469-62.4l-3.592-1.185,9.766-29.58-14.483-25.54h-1.313v-3.782h3.516l16.4,28.915Z" transform="translate(-274.847 122.488)" fill="#414042"/>
        </g>
        <g id="Group_1663" data-name="Group 1663" transform="translate(11.236 4.572)">
          <rect id="Rectangle_132" data-name="Rectangle 132" width="41.794" height="3.782" fill="#414042"/>
        </g>
        <g id="Group_1664" data-name="Group 1664" transform="translate(62.809 4.572)">
          <rect id="Rectangle_133" data-name="Rectangle 133" width="41.795" height="3.782" fill="#414042"/>
        </g>
        <g id="Group_1665" data-name="Group 1665" transform="translate(41.446 92.829)">
          <rect id="Rectangle_134" data-name="Rectangle 134" width="32.958" height="40.912" fill="url(#linear-gradient)"/>
        </g>
        <g id="Group_1666" data-name="Group 1666" transform="translate(39.555 90.937)">
          <path id="Path_6011" data-name="Path 6011" d="M301.44-46.633H264.7V-91.327H301.44Zm-32.957-3.782h29.175V-87.545H268.483Z" transform="translate(-264.701 91.327)" fill="#414042"/>
        </g>
        <g id="Group_1667" data-name="Group 1667" transform="translate(56.034 31.957)">
          <rect id="Rectangle_135" data-name="Rectangle 135" width="3.782" height="27.936" fill="#414042"/>
        </g>
        <g id="Group_1668" data-name="Group 1668" transform="translate(50.216 57.591)">
          <path id="Path_6012" data-name="Path 6012" d="M278.048-93.545a7.718,7.718,0,0,1-7.709-7.709,7.717,7.717,0,0,1,7.709-7.707,7.715,7.715,0,0,1,7.707,7.707A7.717,7.717,0,0,1,278.048-93.545Zm0-11.635a3.931,3.931,0,0,0-3.928,3.926,3.933,3.933,0,0,0,3.928,3.928,3.931,3.931,0,0,0,3.926-3.928A3.929,3.929,0,0,0,278.048-105.18Z" transform="translate(-270.339 108.962)" fill="#414042"/>
        </g>
        <g id="Group_1669" data-name="Group 1669" transform="translate(32.133 131.85)">
          <rect id="Rectangle_136" data-name="Rectangle 136" width="51.573" height="3.782" fill="#414042"/>
        </g>
        <g id="Group_1670" data-name="Group 1670" transform="translate(61.851 110.036)">
          <rect id="Rectangle_137" data-name="Rectangle 137" width="3.782" height="23.705" fill="#414042"/>
        </g>
      </g>
    </g>
  </g>
</svg>
