<svg xmlns="http://www.w3.org/2000/svg" viewBox="0 0 790.89 700.21"><title>desktop</title><g id="Layer_2" data-name="Layer 2"><g id="computerWhole"><g id="computerBody"><line x1="89.78" y1="325.04" x2="120.3" y2="500.31" style="fill:none;stroke:#fff;stroke-miterlimit:10;stroke-width:1.74399995803833px"/><circle cx="121.17" cy="501.18" r="3.49" style="fill:#f6890a"/><circle cx="120.3" cy="500.31" r="6.1" style="fill:none;stroke:#fff;stroke-miterlimit:10;stroke-width:0.8740000128746033px"/><path id="gearOne" d="M50.85,243.68c1.74,2.13,3.19,3.83,4.57,5.59,3.89,4.92,7.38,5.5,12.53,1.89a3.66,3.66,0,0,0,1.26-2.38,42.39,42.39,0,0,0,.08-5c0-6.64,0-6.49,6.45-7.81,2.61-.54,4-.05,4.54,2.59a25.32,25.32,0,0,0,1.11,3.17c2.43,6.79,3.8,7.67,11,6.35A4.64,4.64,0,0,0,95,245.43c1.34-3.21,2.37-6.55,3.6-10.06l9.89,1.23c0,3.6.1,7.06,0,10.51-.09,2.24.58,3.51,2.84,4.38,7.12,2.73,7.08,2.84,11.87-3.31,1.28-1.65,2.57-3.29,4-5.12,1.47.7,2.83,1.34,4.17,2s2.73,1.41,4.59,2.37c-1,3.59-1.94,7.22-3.19,10.71-.73,2-.55,3.28,1.27,4.61,7,5.15,4.28,5.54,11.93.67l5.82-3.73,6.73,7.15c-1.89,2.6-3.6,5.7-6,8.1-3.83,3.82-.12,6.1,1.14,9.05,1.45,3.38,3.79,2.52,6.27,1.89,3.1-.79,6.22-1.5,9.59-2.31l4.17,8.76c-3.38,2.34-6.47,4.72-9.8,6.72-2.25,1.36-2.28,3.06-1.38,4.95,1.12,2.37-.33,6.36,4.19,6.67,3.07.22,6.11.78,9.19,1,4,.24,3,3.28,3.3,5.58s1,4.54-2.41,5.16c-2.33.43-4.54,1.54-6.87,1.91-3.91.62-5.06,2.69-5.3,6.56s.77,5.82,4.37,6.67a6.9,6.9,0,0,1,1.15.5c8.25,3.53,8.25,3.53,5.48,12.33-4,0-8.07.22-12.08-.05-4.85-.33-4.23,4.11-5.76,6.5-.56.87.3,3.33,1.26,4.4,2.6,2.89,5.6,5.42,8.39,8-4.66,8.75-4.66,8.75-13.32,5-6-2.58-7.5-2.21-11.12,3.48a4.56,4.56,0,0,0,.1,3.69c1.67,3.53,3.64,6.93,5.69,10.74L141,398.38c-3.22-2.82-6.51-5.4-9.44-8.35-2-2-3.64-.93-5.11.21-1.86,1.43-5.7,1.05-4.87,5.15.59,2.88.68,5.86,1.39,8.7s0,4.22-2.69,5c-1.88.5-3.69,1.27-6.06,2.11-1.92-3.36-4.06-6.6-5.67-10.09s-4-2.54-6.7-2.23-4.94.81-5.1,4.21a39.64,39.64,0,0,1-.89,5c-1.13,6.27-3.46,7.84-9.64,6.2A3.56,3.56,0,0,1,84.42,412c-.65-2.13-1-4.36-1.46-6.55-1.26-5.89-2.64-7.12-8.57-6.9a4.79,4.79,0,0,0-3.12,2.09c-1.69,2.57-2.84,5.5-4.64,8a5.13,5.13,0,0,1-3.87,1.49,10,10,0,0,1-4.72-1.6,4.06,4.06,0,0,1-1.76-3A81.17,81.17,0,0,1,57.57,396c.79-4.38-3.24-4.35-5.44-5.71-1.05-.65-3.44-.28-4.56.54-3,2.21-5.68,4.91-8.73,7.64L31,392.16c1.78-3.58,3.34-7,5.15-10.28,2.26-4.11-1.84-5.34-3.5-7.46-.73-.92-3-.79-4.58-.79a7.88,7.88,0,0,0-2.71,1.09c-8.46,3.7-8.46,3.7-13-5.39a91.15,91.15,0,0,1,7.51-7.07c3.48-2.65,1.14-5.12.36-7.76s-2.44-3.72-5.32-3.38c-3.31.4-6.67.36-10.32.53-.87-3.27-1.69-6.33-2.56-9.57,2.95-1.38,5.48-3,8.25-3.79,4.45-1.23,4.07-4.29,4.09-7.8,0-3.89-2.4-4.53-5.21-5.24s-5.63-1.54-8.7-2.4c.27-3.41.51-6.58.78-10.05,3.79-.5,7.36-1.12,11-1.39,4.33-.32,3-4,4-6.3.81-2,1.23-4.16-1.58-5.21a8.13,8.13,0,0,1-1.43-.89c-7.91-5.12-7.9-5.12-3.38-14.22,3.37.7,7,1.2,10.39,2.26,2.84.88,3.94-.72,4.83-2.65,1-2.27,4.52-4,1.78-7.27-2.23-2.68-4.27-5.54-6.61-8.61l6.58-7.71a90,90,0,0,1,8.43,5.33c2.87,2.29,4.8.88,6.92-1s4.88-2.94,3.15-6.68A98.93,98.93,0,0,1,42,249Zm53.54,81.18a14.5,14.5,0,1,0-29-.34v.16c0,8.36,6.32,14.91,14.42,15A14.6,14.6,0,0,0,104.39,325Zm27.07,30.43c-6.24-3.58-11.9-6.92-17.64-10.1-2.51-1.39-17,6.61-17.1,9.58-.22,7-.07,13.91-.07,21.3,14.65-2.32,25.86-9.07,34.81-20.78Zm-82.62,0c9,11.59,20,18.58,34.55,20.47V353.66l-12.65-8.07a.9.9,0,0,0-.37-.2c-1.4,0-3.08-.57-4.16,0-5.65,3-11.16,6.35-17.37,9.94Zm-5.93-11c6.26-3.65,12.06-7,17.79-10.42,2.37-1.42,3.1-17.7.67-19.22-5.85-3.67-11.92-7-18.29-10.64C37.9,317.77,37.27,330.72,42.91,344.35Zm94-40.18c-6.17,3.55-11.91,6.74-17.52,10.14-2.46,1.49-2.76,17.79-.31,19.3,5.92,3.64,12,7,18.39,10.7,5.34-13.65,5.28-26.6-.56-40.14ZM96.6,274c0,5.56.43,10.62-.11,15.56-.6,5.57,1.82,8.12,6.36,11,6.08,3.91,10.86,3.89,16.42-.35,3.46-2.63,7.47-4.53,11.45-6.89C121.58,282.46,110.94,275.71,96.6,274Zm-12.92,1c-11.18-.93-28.9,9.3-33,19,5.63,3.3,11.27,6.64,17,9.88a3.4,3.4,0,0,0,2.71.38c4.19-2.24,8.3-4.65,12.38-7.09a2.36,2.36,0,0,0,.94-1.72c.06-6.82,0-13.65,0-20.43Z" style="fill:none;stroke:#f6890a;stroke-miterlimit:10"/><path id="gearTwo" d="M211.3,485.14a52.09,52.09,0,0,1,.52,7.6,4.24,4.24,0,0,1-2.19,3,69.68,69.68,0,0,1-7.51,2.24c-2.37.72-5.43.57-5.27,4.47s-1.18,7.93,4.27,9.55c3.29,1,6.32,2.8,9.2,4.13.15.57.24.73.21.85-2.65,10.74-.41,9.18-11.28,8.59-6.2-.33-9,1.59-10,7.78a4.6,4.6,0,0,0,1.51,3.21c2.87,2.86,5.92,5.54,9.1,8.48l-5.46,8.84c-4-1.63-7.87-2.93-11.48-4.73-4.64-2.32-5.55,2.2-8,3.92-2.27,1.59-1.57,3.32-.44,5.26,2,3.39,3.77,6.87,5.86,10.74l-8.15,6.54c-3.36-3-6.39-5.9-9.74-8.42-1.07-.8-3.44-1.18-4.43-.53-2.19,1.42-6.22,1.24-5.84,5.38a44.85,44.85,0,0,0,1.21,8.63c1.09,3.65-.11,5.46-3.6,6.32-1.8.45-3.54,1.17-5.58,1.86-2-3.71-4.13-7.19-5.82-10.87-1.94-4.21-5.18-1.89-7.93-1.88s-4.14,1.3-4.44,4.2c-.37,3.6-1.2,7.16-1.93,11.29a50.77,50.77,0,0,1-7.8-.12,4.77,4.77,0,0,1-3-2.62,39.7,39.7,0,0,1-1.54-6.79c-.91-4.5-5.69-7.77-10-6.6-.81.22-1.55,1.21-2,2-1.06,1.73-1.9,3.6-2.9,5.37-3.55,6.32-1.57,5.83-9,3.77-3.3-.91-4.22-2.4-3.43-5.53.46-1.83.38-3.8.92-5.59,1.32-4.32-.44-6.51-4.35-8.31-2.85-1.32-4.63-1.33-6.8,1-2.39,2.52-5.16,4.67-8.07,7.26l-8.5-6.61c1.91-3.62,3.61-7.13,5.61-10.46,1.19-2,1.32-3.52-.63-4.83-2.37-1.6-3-6.32-7.45-4.25-3.54,1.62-7.14,3.14-11,4.81l-5.9-8.88c2.85-2.71,5.57-5.47,8.48-8,1.69-1.46,2.46-2.84,1-4.79-1.73-2.31-1-6.82-5.8-6.41-3.74.32-7.49.6-11.49.93l-3-10.32c3.23-1.48,6.27-3.15,9.49-4.26,3.38-1.17,4-3.35,3.46-6.45-.47-2.87.27-6.14-4.33-6.61-3.26-.33-6.41-1.68-9.42-2.52-.25-.54-.48-.8-.46-1.06.44-9.58.42-9.88,9.92-10.53,4.59-.31,5.35-2.83,6.46-6.37,1.22-3.9-.4-5.69-3.44-7.15a2.35,2.35,0,0,1-.37-.24c-8.06-5.19-8.06-5.19-2.87-14.38,3.54.71,7.26,1.29,10.89,2.24,4.35,1.13,4.36-3,6.09-4.87,1.46-1.6,2.46-3.45.4-5.73-2.42-2.66-4.43-5.7-6.78-8.8L53.56,432a96.26,96.26,0,0,0,9.34,5.66c1.3.62,3.78.5,4.77-.36,2.14-1.89,6.54-2.43,5.2-6.94-1.07-3.61-2.23-7.19-3.45-11.08l9-5.18c2.51,3.08,5.05,5.87,7.21,8.93,2,2.82,4.14,1.41,6.12.52,2.27-1,5.93-.5,5.81-4.63-.07-2.47.22-5-.07-7.42-.4-3.48,1.24-4.75,4.38-4.88,2.85-.12,6.52-2.61,7.41,2.71a16.33,16.33,0,0,0,1,2.88c2.5,6.73,4.19,7.74,11.26,6.4a4.79,4.79,0,0,0,2.51-1.94,10.28,10.28,0,0,0,1-2.85c3.18-9.14,3.18-9.14,13.23-6.55,0,3.3.1,6.76,0,10.2-.1,2.48.55,3.92,3.18,4.8,7.3,2.48,7.25,2.62,12.21-3.63,1.34-1.69,2.71-3.37,4.13-5.14,1.13.46,2.08.77,3,1.21,1.94,1,3.85,2,6.26,3.29-1.16,3.74-2.14,7.5-3.49,11.12-1.81,4.85,3.05,5.16,4.86,7.52,1.56,2,3.34,1.69,5.3.31,3.09-2.15,6.34-4.1,9.7-6.26l7.38,7c-2.55,3.4-4.94,6.82-7.56,10.05-3.1,3.8,1.13,5.62,2.08,8.3.78,2.19,2.22,3.07,4.77,2.3,3.73-1.11,7.6-1.79,11.67-2.71l4.34,9.15c-3.42,2.35-6.67,4.74-10.08,6.87-4.14,2.58-1,5.7-.78,8.56.18,2.31,1.16,3.95,4.11,4C203.2,484.2,207.09,484.77,211.3,485.14Zm-92.49,29.57A17,17,0,0,0,136,498.08c.15-8.66-8-16.87-16.68-16.84-8.91,0-16.87,7.83-16.92,16.59a16.7,16.7,0,0,0,16.38,16.88Zm-1,52.93c2.73-.39,5.5-.58,8.17-1.21,6.64-1.57,10-5.68,8-12a57.33,57.33,0,0,0-8.82-17.15c-3.78-5-10.83-4.45-15.34.42a35,35,0,0,0-5.51,8.3c-6.61,13.57-1.6,21.45,13.47,21.67ZM73.7,509.4l0-.37c-2.43.33-4.9.48-7.29,1-9.75,2.19-13,8.73-8.93,17.9A85,85,0,0,0,61.7,536c4.63,7.93,13.7,8.77,19.36,1.56a52,52,0,0,0,6.65-11.15c4-9-.31-15.93-10.1-17A36.41,36.41,0,0,0,73.7,509.4Zm0-23.73,0-.42c1.89,0,3.78.14,5.66,0,9.07-.78,13.74-7.58,10-15.9a46.48,46.48,0,0,0-9.83-13.52c-4.48-4.43-10-3.91-14.15,1a59.05,59.05,0,0,0-8.14,12.76c-3,6.37.21,12.78,7,14.76,3,.88,6.29.94,9.44,1.37Zm91.19,2.11.06.38a85,85,0,0,0,8.95-1.68c7.62-2.24,10.4-7.66,7.59-15.16A59.74,59.74,0,0,0,175.85,460c-4.18-6.51-11.32-7.47-16.66-2.06a45.17,45.17,0,0,0-7.46,10.63c-5.95,11.27-1.38,18.78,11.39,19.18.58,0,1.17,0,1.75,0Zm-45.43-58c-1,.07-2.88.09-4.74.36-9.94,1.43-13.37,7.2-9.32,16.33a78.48,78.48,0,0,0,7.1,12.44c3.62,5.27,9.19,6.24,13.86,2a32.08,32.08,0,0,0,7.75-10.29c6.16-13.81,1.36-20.83-14.64-20.87ZM147.82,523c.05,7.22,8,18.35,14.8,20.74,3.54,1.24,6.95.64,9.17-2.16a78.06,78.06,0,0,0,8.85-13.35c3.37-6.74.19-13.74-7.16-15.18a61.78,61.78,0,0,0-17.28-.6c-5.45.52-8.41,5-8.38,10.55Z" style="fill:none;stroke:#f6890a;stroke-miterlimit:10"/><rect x="309.89" y="585.21" width="234" height="96" style="fill:#0d1247"/><path d="M268.21,672.21H577.57a10.31,10.31,0,0,1,10.32,10.31v17.69h-330V682.56A10.33,10.33,0,0,1,268.21,672.21Z" style="fill:#1d2b68"/><rect x="122.89" y="211.21" width="600" height="421" rx="12" style="fill:#1f296b"/><rect x="136.89" y="230.21" width="572" height="383" style="fill:#8937eb"/><rect x="204.89" y="248.21" width="436" height="345" rx="12" style="fill:#fff"/><path d="M216.17,248.21H629.6a11.29,11.29,0,0,1,11.29,11.29v39.71h-436V259.59a11.32,11.32,0,0,1,11.28-11.38Z" style="fill:#d3adff"/><rect x="326.89" y="267.21" width="234" height="21" rx="3.87" style="fill:#8836ea"/><rect x="257.89" y="274.21" width="17" height="5" style="fill:#fff"/><path d="M238.66,267.49h2.2a.64.64,0,0,1,.64.64v16.15a.64.64,0,0,1-.64.64h-2.2a.65.65,0,0,1-.65-.65V268.13a.65.65,0,0,1,.65-.65Z" transform="translate(-125.08 250.44) rotate(-45)" style="fill:#fff"/><path d="M231.68,274.46h16.15a.65.65,0,0,1,.65.65v2.2a.65.65,0,0,1-.65.65H231.68a.65.65,0,0,1-.65-.65v-2.2A.64.64,0,0,1,231.68,274.46Z" transform="translate(-125.08 250.43) rotate(-45)" style="fill:#fff"/><circle cx="289.46" cy="277.08" r="5.23" style="fill:none;stroke:#fff;stroke-miterlimit:10;stroke-width:1.74399995803833px"/><rect x="591.89" y="266.21" width="21" height="4" rx="0.79" style="fill:#823dde"/><rect x="591.89" y="276.21" width="21" height="4" rx="0.79" style="fill:#823dde"/><rect x="591.89" y="284.21" width="21" height="4" rx="0.79" style="fill:#823dde"/><rect id="panelTwo" x="453.38" y="305.59" width="184.31" height="81.58" rx="6.57" transform="translate(-81.24 189.09) rotate(-18.33)" style="fill:#6d60c6"/><rect x="449.89" y="331.21" width="183" height="91" style="fill:none;stroke:#d2afff;stroke-miterlimit:10;stroke-width:1.74399995803833px"/><rect x="453.89" y="433.21" width="136" height="19" rx="3.55" style="fill:none;stroke:#8937eb;stroke-miterlimit:10;stroke-width:1.74399995803833px"/><rect x="454.89" y="472.21" width="136" height="19" rx="3.55" style="fill:none;stroke:#8937eb;stroke-miterlimit:10;stroke-width:1.74399995803833px"/><rect x="454.89" y="512.21" width="136" height="19" rx="3.55" style="fill:none;stroke:#8937eb;stroke-miterlimit:10;stroke-width:1.74399995803833px"/><rect x="454.89" y="553.21" width="136" height="19" rx="3.55" style="fill:none;stroke:#8937eb;stroke-miterlimit:10;stroke-width:1.74399995803833px"/><circle cx="618.86" cy="442.54" r="10.46" style="fill:none;stroke:#8937eb;stroke-miterlimit:10;stroke-width:1.74399995803833px"/><circle cx="618.86" cy="442.54" r="6.54" style="fill:#58c6a1"/><circle id="ballTop" cx="510.73" cy="6.54" r="6.54" style="fill:#58c6a1"/><circle cx="618.86" cy="482.65" r="6.54" style="fill:#58c6a1"/><circle cx="618.86" cy="522.77" r="6.54" style="fill:#58c6a1"/><circle cx="619.08" cy="482.87" r="10.46" style="fill:none;stroke:#8937eb;stroke-miterlimit:10;stroke-width:1.74399995803833px"/><circle cx="619.08" cy="522.98" r="10.46" style="fill:none;stroke:#8937eb;stroke-miterlimit:10;stroke-width:1.74399995803833px"/><circle cx="619.08" cy="563.1" r="10.46" style="fill:none;stroke:#8937eb;stroke-miterlimit:10;stroke-width:1.74399995803833px"/><polygon points="157.79 672.1 154.3 682.56 159.53 684.3 163.02 670.35 157.79 672.1" style="fill:#fcb9a9"/><polygon points="187.89 672.18 187.86 683.21 193.37 683.22 192.31 668.88 187.89 672.18" style="fill:#fcb9a9"/><polygon points="183.89 506.21 193.89 506.21 193.89 516.88 190.89 520.37 190.89 530.65 182.93 530.08 182.56 513.21 180.89 513.21 180.89 508.21 183.89 508.21 183.89 506.21" style="fill:#fcb9a9"/><polygon points="192.83 588.21 203.24 588.21 201.5 615.96 192.83 673.21 185.89 673.21 185.89 588.21 192.83 588.21" style="fill:#26775c"/><polygon points="170.89 588.21 170.89 626.37 155.28 673.21 163.95 673.21 184.77 628.1 191.71 588.21 170.89 588.21" style="fill:#2fae97"/><polygon points="181.89 525.21 171.39 525.21 169.64 588.21 202.89 588.21 202.89 525.21 192.39 525.21 187.14 530.46 181.89 525.21" style="fill:#f6890a"/><path d="M185.7,548.27s12.2,12.21,40.11,10.47l27.9-1.75s5.23-3.49,0-3.49S215.34,557,190.92,543Z" style="fill:#eaa698"/><path d="M180.46,543s12.21,12.21,40.12,10.46l27.9-1.74s5.23-3.49,0-3.49-38.37,3.49-62.79-10.46Z" style="fill:#fcb9a9"/><polygon points="178.53 525.6 170 530.83 180.46 546.53 189.18 537.81 178.53 525.6" style="fill:#dd7105"/><polygon points="179.89 508.21 179.89 499.21 195.89 499.21 195.89 508.21 193.89 508.21 193.89 506.21 183.89 506.21 183.89 508.21 179.89 508.21" style="fill:#41507b"/><path d="M170.76,690.49c-.82,1.74-5.73,1.17-11-1.28s-6.31-6.65-5.5-8.39,3.22-.38,8.46,2.07S171.57,688.74,170.76,690.49Z" style="fill:#4f6a9c"/><path d="M204.74,683.75c.2,1.92-4.31,4-10.06,4.53s-8.83-2.46-9-4.38,2.57-2,8.32-2.56S204.55,681.84,204.74,683.75Z" style="fill:#4f6a9c"/><circle id="ballBottom" cx="660.72" cy="550.67" r="6.54" style="fill:#58c6a1"/><path d="M668.86,541.76c1.95-2,4.47-2.86,6.9-3.67" style="fill:#1f296b"/><path d="M671,543.42l.83-.46a12.8,12.8,0,0,1,3.94-1.66" style="fill:#1f296b"/><path d="M672.73,545.17l1.77-1a28,28,0,0,1,8.41-3.53" style="fill:#1f296b"/><rect id="panelOne" x="203.87" y="365.61" width="245.44" height="165.59" rx="12" transform="translate(-198.42 627.55) rotate(-72.77)" style="fill:#6e61c7"/><rect x="241.89" y="329.21" width="166" height="242" style="fill:none;stroke:#d2acff;stroke-miterlimit:10;stroke-width:1.74399995803833px"/><circle cx="427.38" cy="125.51" r="33.14" style="fill:none;stroke:#f6890a;stroke-miterlimit:10"/><circle cx="427.38" cy="125.51" r="20.93" style="fill:none;stroke:#f6890a;stroke-miterlimit:10"/><polyline points="437.36 156.91 475.59 326.58 458.43 376.49" style="fill:none;stroke:#fff;stroke-miterlimit:10;stroke-width:1.1009999513626099px"/><polyline points="460.38 125.35 593.79 288.42 634.13 320.75" style="fill:none;stroke:#fff;stroke-miterlimit:10;stroke-width:1.1009999513626099px"/><line x1="90.65" y1="325.91" x2="394.24" y2="133.19" style="fill:none;stroke:#fff;stroke-miterlimit:10;stroke-width:0.8740000128746033px"/><circle cx="89.52" cy="324.63" r="3.9" style="fill:#f6890a"/><path d="M495.89,20.61V104c0,20,12.47,36.22,27.86,36.22h220.7c5.76,0,10.44,6.14,10.44,13.71V515.6c0,7.58-5.3,12.85-10.44,13.72l-58.81,9.54-1.73,15.6c30.56,0,60.74-.15,91-5.11,2.22-.36,4.53-.78,6.34-2.11,5.13-3.75,4.63-12.73,4.63-18.37V142.75c0-22.94-14.16-41.54-31.62-41.54H536.44c-5.83,0-10.55-6.14-10.55-13.72V19.75Z" style="fill:#1f296b;stroke:#8836ea;stroke-miterlimit:10;stroke-width:1.74399995803833px"/><rect x="488.89" y="35.21" width="42" height="7" style="fill:#f6890a"/><rect x="748.89" y="187.21" width="42" height="7" style="fill:#f6890a"/><rect x="694.89" y="98.21" width="7" height="44" style="fill:#f6890a"/><rect x="574.89" y="98.21" width="7" height="44" style="fill:#f6890a"/><rect x="748.89" y="323.21" width="42" height="7" style="fill:#f6890a"/><rect x="748.89" y="459.21" width="42" height="7" style="fill:#f6890a"/><rect x="711.89" y="524.21" width="7" height="42" style="fill:#f6890a"/><path id="gearTop" d="M498.75,92.83c-3.78,3.24-7.23,6.34-10.83,9.24-1.54,1.24-1.65,2.3-1.42,4.3.85,7.23,4.65,9.83,11.8,10.58,8.24.86,7.05-.7,7.12,8.32,0,2.43,0,4.85,0,7.63-4.61.85-9,1.79-13.43,2.43-2.12.31-2.78,1.33-3.67,3.24-3.25,7-.93,11.56,5.22,15.19,1.85,1.09,3.33,2.8,5.18,4.4-2.18,3.77-4.19,7.54-6.51,11.09a3.61,3.61,0,0,1-3.21.83c-3.62-1.06-7.18-2.37-10.69-3.78-1.92-.77-3.25-.45-4.41,1.2a6.54,6.54,0,0,1-1.68,1.91c-5.09,3.06-4.86,7-2.41,11.7,1.33,2.55,2,5.45,3,8.35-3.87,2.27-7.47,4.54-11.26,6.46-.74.37-2.5-.28-3.21-1-2.6-2.74-4.92-5.75-7.44-8.57-.58-.66-1.64-1.51-2.28-1.37a72.92,72.92,0,0,0-9.84,2.76c-.8.3-1.39,1.86-1.61,2.94-.88,4.17-1.58,8.37-2.4,12.94-4.53,0-8.9.09-13.27-.1-.68,0-1.71-1.22-1.89-2-.83-3.69-1.24-7.48-2.2-11.13a5.93,5.93,0,0,0-2.87-3c-7.07-3.84-12.25-1.51-16.12,5.11a32.94,32.94,0,0,1-3.7,4.39c-3.81-2.2-7.56-4.2-11.1-6.53a3.64,3.64,0,0,1-.87-3.23c1-3.5,2.6-6.86,3.57-10.38a5.89,5.89,0,0,0-.95-4c-4.3-7-9.92-7-16.85-3.69-5.57,2.65-4.5,2.86-8-2.86-1.53-2.5-2.88-5.1-4.55-8.08,3.31-2.78,6.55-5.68,10-8.34,1.84-1.42,1.74-2.83,1.57-5-.63-7.85-5.18-10.64-12.36-10.84a38,38,0,0,1-5.8-1.08V118.07c4.35-.79,8.62-1.67,12.93-2.3,2.13-.31,2.75-1.46,3.62-3.32,3.28-7,1.32-11.85-5.13-15.54-1.76-1-3.15-2.62-4.78-4,.62-1.21,1.08-2.19,1.62-3.12,1.86-3.15,3.75-6.28,5.82-9.75,4.41,1.59,8.68,3.28,13.08,4.59a5.79,5.79,0,0,0,4-.9c6.63-4,6.91-9.17,3.66-15.84-2.95-6.09-2.45-6.33,3.54-9.79l7-4c3.05,3.63,6,7.35,9.21,10.79a5.72,5.72,0,0,0,3.93,1.27c7.51-.18,10.34-4.37,10.92-11.66.56-7.12,1.15-7.07,8.31-7.07,7.81,0,7.81,0,9.12,7.71,1.66,9.76,1.65,9.82,11.22,11.34a4.45,4.45,0,0,0,3.22-1.53c3.12-3.42,6.05-7,9.28-10.83l6.29,3.6,6.59,3.81c-1.64,4.57-3.16,9-4.85,13.46-.71,1.84-.11,2.87,1,4.46,4.31,6,9.06,6.07,15.47,3.18,7.28-3.27,5.91-4.31,10.59,3.86C496.22,88.49,497.39,90.49,498.75,92.83Zm-46.36,32.6a24.8,24.8,0,1,0,0,.27Z" style="fill:none;stroke:#f6890a;stroke-miterlimit:10"/></g></g></g></svg>