<svg xmlns="http://www.w3.org/2000/svg" xmlns:xlink="http://www.w3.org/1999/xlink" viewBox="0 0 1920 1080"><defs><clipPath id="clip-path"><ellipse cx="201.98" cy="873.75" rx="121.51" ry="145.37" style="fill:none"/></clipPath><clipPath id="clip-path-3"><polygon points="80.47 841.54 91.55 862.76 108.76 856.46 125.4 873.75 148.92 865.06 179.9 881.7 216.61 861.62 268.24 884.9 292.9 873.75 302.65 884.9 330.19 845.56 330.19 985.52 258.48 1024.53 139.17 1027.4 89.83 972.9 64.59 902.35 80.47 841.54" style="fill:none"/></clipPath><clipPath id="clip-path-4"><ellipse cx="1721.28" cy="873.75" rx="121.51" ry="145.37" style="fill:none"/></clipPath><clipPath id="clip-path-6"><polygon points="1599.76 841.54 1610.85 862.76 1628.06 856.46 1644.7 873.75 1668.22 865.06 1699.19 881.7 1735.9 861.62 1787.53 884.9 1812.2 873.75 1821.95 884.9 1849.49 845.56 1849.49 985.52 1777.78 1024.53 1658.46 1027.4 1609.13 972.9 1583.89 902.35 1599.76 841.54" style="fill:none"/></clipPath></defs><title>easterWeb</title><g id="Layer_2" data-name="Layer 2"><g id="easter"><g id="EasterWeb"><path d="M1920,1080H0V0H1920Z" style="fill:#333"/><path d="M554.22,125.86a.72.72,0,0,1-1.23.62c-4.45-4.94-18.54-21.72-9.55-26.67S554,118.66,554.22,125.86Z" style="fill:#008f97"/><path d="M552.73,131.32a.85.85,0,0,1-.44,1.45c-6.21.29-26.56.44-23.5-10.43S548,126.58,552.73,131.32Z" style="fill:#008f97"/><path d="M1205.26,956a.94.94,0,0,1,1.8,0c2.32,8.37,9,36.17-4.36,36.72S1201.37,964.58,1205.26,956Z" style="fill:#008f97"/><path d="M657.05,921.31c.79-.58,1.79,0,1.57.87-2.06,8.44-9.79,36-21.74,29.91S649.47,926.87,657.05,921.31Z" style="fill:#008f97"/><path d="M1210.18,950.51c-.29-.86.58-1.78,1.36-1.43,7.42,3.27,31.29,14.93,21.4,25.85S1213,958.81,1210.18,950.51Z" style="fill:#008f97"/><path d="M1383.06,696.69a.5.5,0,0,1-.85-.24c-.25-3.59-.6-15.37,5.73-13.74S1385.74,693.88,1383.06,696.69Z" style="fill:#008f97"/><path d="M1208.56,330.75a.5.5,0,0,1-.85-.24c-.25-3.58-.6-15.36,5.73-13.73S1211.24,328,1208.56,330.75Z" style="fill:#008f97"/><path d="M1190.41,332.75a.65.65,0,0,1-1,.61c-3.72-2.92-15.53-13-8.36-17.72S1190,327.65,1190.41,332.75Z" style="fill:#008f97"/><path d="M1406.7,792.07a.68.68,0,0,1,.26-1.19c4.92-.66,21.11-2.17,19.42,6.69S1410.8,795.52,1406.7,792.07Z" style="fill:#008f97"/><path d="M1396.35,806.08a.57.57,0,0,1,.91-.45c3,2.89,12.47,12.74,5.76,16.27S1396.22,810.58,1396.35,806.08Z" style="fill:#00cac1"/><path d="M779,875a.57.57,0,0,1-.25-1c3.44-2.36,15-9.62,17.1-2.33S783.4,876,779,875Z" style="fill:#00cac1"/><path d="M1392.61,301.82c-.85.32-1.79-.53-1.47-1.32,3-7.52,14-31.73,25.18-22.18S1400.82,298.79,1392.61,301.82Z" style="fill:#008f97"/><path d="M1401,314.57a1.4,1.4,0,0,1-.64-2.41c8.4-5.82,36.65-23.77,41.87-6S1411.77,317.05,1401,314.57Z" style="fill:#008f97"/><path d="M580.21,619.43a1,1,0,0,1-.55-.16c-.57-.35-56.86-35.92-83-81.65a1.06,1.06,0,0,1,1.84-1c25.85,45.27,81.7,80.56,82.26,80.91a1.06,1.06,0,0,1,.33,1.46A1,1,0,0,1,580.21,619.43Z" style="fill:#008f97"/><path d="M563.2,605a.78.78,0,0,1-1.44,0c-2.65-6.09-10.65-26.33,0-27S565.51,598.68,563.2,605Z" style="fill:#008f97"/><path d="M558.44,603.59a.77.77,0,0,1,.57,1.32c-4.66,4.73-20.47,19.69-25,10S551.71,603.8,558.44,603.59Z" style="fill:#008f97"/><path d="M547.31,593.27a.78.78,0,0,1-1.44,0c-2.66-6.09-10.66-26.33,0-27S549.61,586.94,547.31,593.27Z" style="fill:#008f97"/><path d="M542.94,591.35a.77.77,0,0,1,.57,1.32c-4.66,4.73-20.48,19.69-25,10S536.2,591.57,542.94,591.35Z" style="fill:#008f97"/><path d="M532.85,579.86a.78.78,0,0,1-1.44-.05c-2.26-6.24-9-26.95,1.71-26.91S535.55,573.69,532.85,579.86Z" style="fill:#008f97"/><path d="M528.44,577.82a.77.77,0,0,1,.5,1.35c-5,4.43-21.68,18.36-25.62,8.43S521.71,577.61,528.44,577.82Z" style="fill:#008f97"/><path d="M520,566.7a.77.77,0,0,1-1.42-.18c-1.68-6.43-6.43-27.67,4.2-26.63S523.31,560.81,520,566.7Z" style="fill:#008f97"/><path d="M516,564a.77.77,0,0,1,.36,1.39c-5.35,3.94-23.29,16.26-26.29,6S509.32,563.16,516,564Z" style="fill:#008f97"/><path d="M507.62,550.71a.78.78,0,0,1-1.39-.38c-.77-6.59-2.57-28.29,7.82-25.81S511.66,545.32,507.62,550.71Z" style="fill:#008f97"/><path d="M504,547.47a.77.77,0,0,1,.17,1.43c-5.83,3.18-25.3,12.92-26.86,2.35S497.49,545.73,504,547.47Z" style="fill:#008f97"/><path d="M501.3,541.35a1,1,0,0,1-1.64.91c-6.75-5.5-28.23-24.26-16.2-31.41S500.18,532.59,501.3,541.35Z" style="fill:#008f97"/><path d="M584.92,607.72a1.05,1.05,0,0,1-1-.79c-.11-.44-11.48-44.77-3-80a1.06,1.06,0,1,1,2.05.5c-8.38,34.68,2.85,78.49,3,78.93a1.07,1.07,0,0,1-.76,1.29Z" style="fill:#008f97"/><path d="M582.73,592a.53.53,0,0,1-.74-.65c1.54-4.29,7.08-18.16,12.69-13.46S586.86,589.91,582.73,592Z" style="fill:#008f97"/><path d="M581,589a.53.53,0,0,1-.34.93c-4.55.17-19.48.19-17.21-6.78S577.56,586,581,589Z" style="fill:#008f97"/><path d="M580.32,578.64a.53.53,0,0,1-.74-.65c1.54-4.29,7.08-18.16,12.7-13.46S584.45,576.57,580.32,578.64Z" style="fill:#008f97"/><path d="M579,575.63a.53.53,0,0,1-.33.93c-4.56.16-19.49.19-17.22-6.78S575.58,572.57,579,575.63Z" style="fill:#008f97"/><path d="M579.42,565.15a.53.53,0,0,1-.7-.7c1.81-4.18,8.21-17.68,13.52-12.63S583.67,563.34,579.42,565.15Z" style="fill:#008f97"/><path d="M578.18,562.06a.53.53,0,0,1-.39.9c-4.56-.12-19.46-1-16.75-7.85S574.92,558.78,578.18,562.06Z" style="fill:#008f97"/><path d="M579.22,552.56a.54.54,0,0,1-.63-.77c2.19-4,9.82-16.83,14.64-11.31S583.62,551.15,579.22,552.56Z" style="fill:#008f97"/><path d="M578.48,549.3a.54.54,0,0,1-.48.87c-4.52-.55-19.27-2.85-15.94-9.38S575.53,545.74,578.48,549.3Z" style="fill:#008f97"/><path d="M580.55,538.73a.53.53,0,0,1-.52-.84c2.72-3.66,12-15.33,16.05-9.2S585.1,537.94,580.55,538.73Z" style="fill:#008f97"/><path d="M580.26,535.4a.54.54,0,0,1-.59.8c-4.4-1.16-18.7-5.47-14.51-11.48S577.83,531.47,580.26,535.4Z" style="fill:#008f97"/><path d="M581.8,531.08a.69.69,0,0,1-1.25-.32c-.78-5.92-2.67-25.4,6.7-23.29S585.37,526.18,581.8,531.08Z" style="fill:#008f97"/><path d="M615.25,605a20.63,20.63,0,1,0-38.09,11.62,20.63,20.63,0,1,0-9.06,35.93A20.63,20.63,0,1,0,598.2,672a20.63,20.63,0,1,0,28.46-23,20.4,20.4,0,0,0,9.08-1.14A20.63,20.63,0,1,0,613,615.14,20.51,20.51,0,0,0,615.25,605Z" style="fill:#ffb540"/><path d="M607.84,640.1a13.9,13.9,0,1,1-14.34-13.44A13.9,13.9,0,0,1,607.84,640.1Z" style="fill:#008f97"/><path d="M758.38,858.61a9.49,9.49,0,1,0-14.87,10.69,9.5,9.5,0,1,0,1.36,17,9.5,9.5,0,1,0,16,4,9.37,9.37,0,0,0,3,3.2,9.49,9.49,0,1,0,6-17.42,9.49,9.49,0,1,0-11-12.74A9.28,9.28,0,0,0,758.38,858.61Z" style="fill:#008f97"/><path d="M760.35,875a6.39,6.39,0,1,1-8.24-3.74A6.39,6.39,0,0,1,760.35,875Z" style="fill:#fff"/><path d="M1379.5,701.63a6.28,6.28,0,1,0-9.84,7.08,6.06,6.06,0,0,0-2.56-.44,6.28,6.28,0,1,0,.53,12.54,6.09,6.09,0,0,0,2.93-.87,6.37,6.37,0,0,0-1.55,2.8,9.73,9.73,0,0,1,14.14,2,6.28,6.28,0,1,0,3.94-11.52,6.33,6.33,0,0,0,2.5-1.22,9.75,9.75,0,0,1-10.09-10.35Z" style="fill:#008f97"/><path d="M1380.79,712.47a4.23,4.23,0,1,1-5.44-2.47A4.22,4.22,0,0,1,1380.79,712.47Z" style="fill:#ffabaa"/><path d="M1133.1,286.13a1.43,1.43,0,0,1-.88,1.5c-.58.22-57.73,22.72-106,17.23a1.42,1.42,0,1,1,.32-2.82c47.59,5.42,104.08-16.82,104.65-17.05a1.42,1.42,0,0,1,1.84.79A1.21,1.21,0,0,1,1133.1,286.13Z" style="fill:#00cac1"/><path d="M1112.5,291.67a.71.71,0,0,1-.75,1.09c-6-1.34-25.36-6.41-20-14.67S1109.05,286.52,1112.5,291.67Z" style="fill:#00cac1"/><path d="M1108.86,294.44a.71.71,0,0,1,1.29.29c1,6,3.48,25.92-6.17,24S1105.35,299.56,1108.86,294.44Z" style="fill:#00cac1"/><path d="M1095.13,297.09a.71.71,0,0,1-.75,1.09c-6-1.34-25.36-6.41-20-14.68S1091.68,291.93,1095.13,297.09Z" style="fill:#00cac1"/><path d="M1091.33,299.3a.71.71,0,0,1,1.29.29c1,6,3.49,25.92-6.17,24.05S1087.83,304.42,1091.33,299.3Z" style="fill:#00cac1"/><path d="M1077.31,300.53a.72.72,0,0,1-.82,1.05c-5.87-1.72-24.91-8-19.07-15.92S1074.19,295.17,1077.31,300.53Z" style="fill:#00cac1"/><path d="M1073.39,302.7a.71.71,0,0,1,1.27.37c.6,6.09,1.85,26.09-7.67,23.62S1069.57,307.59,1073.39,302.7Z" style="fill:#00cac1"/><path d="M1060.56,302.89a.71.71,0,0,1-.91,1c-5.68-2.25-24.05-10.28-17.5-17.62S1058,297.26,1060.56,302.89Z" style="fill:#00cac1"/><path d="M1056.36,304.42a.71.71,0,0,1,1.23.49c0,6.11-.6,26.15-9.84,22.8S1052.1,308.93,1056.36,304.42Z" style="fill:#00cac1"/><path d="M1041.92,303.41a.71.71,0,0,1-1,.83c-5.33-3-22.42-13.48-14.92-19.85S1040.12,297.48,1041.92,303.41Z" style="fill:#00cac1"/><path d="M1037.54,304.35a.72.72,0,0,1,1.16.65c-.82,6.06-4.17,25.83-12.87,21.24S1032.71,308.24,1037.54,304.35Z" style="fill:#00cac1"/><path d="M1031.53,303a.94.94,0,0,1-.22,1.73c-7.75,2-33.39,7.76-32.14-5.06S1024.41,299.08,1031.53,303Z" style="fill:#00cac1"/><path d="M1199.26,247.81a20.63,20.63,0,1,0-33.2-22,20.63,20.63,0,1,0-33.49,15.87,20.63,20.63,0,1,0,4.17,35.6,20.62,20.62,0,1,0,35.83,7.32A20.62,20.62,0,1,0,1190,252.48,20.5,20.5,0,0,0,1199.26,247.81Z" style="fill:#ffb540"/><path d="M1167.47,264.43a13.9,13.9,0,1,1,1.24-19.62A13.91,13.91,0,0,1,1167.47,264.43Z" style="fill:#00cac1"/><path d="M1112.75,668.71a7,7,0,1,0-11.47,7.06,7,7,0,1,0,.1,12.54,6.85,6.85,0,0,0-1.94,3,7,7,0,0,0,13.25,4.39,6.86,6.86,0,0,0,.21-3.58,7,7,0,1,0,7.35-10,7,7,0,1,0-5.08-12.62,6.84,6.84,0,0,0-2.3,2.7A7,7,0,0,0,1112.75,668.71Z" style="fill:#ff5b7d"/><path d="M1113.33,680.83a4.7,4.7,0,1,1-5.85-3.17A4.72,4.72,0,0,1,1113.33,680.83Z" style="fill:#ffb843"/><path d="M840.57,151a1.36,1.36,0,0,1,1.45-.8c.58.09,58.52,9.14,95.65,37a1.35,1.35,0,0,1-1.62,2.17c-36.59-27.44-93.86-36.39-94.44-36.47a1.38,1.38,0,0,1-1-1.88Z" style="fill:#008f97"/><path d="M860.21,156.35a.69.69,0,0,1,1.15-.54c4.27,4,17.79,17.53,9.41,21.76S860.57,162.26,860.21,156.35Z" style="fill:#008f97"/><path d="M864.55,155.83a.67.67,0,0,1-.92-.86c2.11-5.44,9.64-23,16.69-16.83S869.91,153.31,864.55,155.83Z" style="fill:#008f97"/><path d="M877.14,160.27a.68.68,0,0,1,1.14-.53c4.27,4,17.8,17.52,9.42,21.76S877.49,166.19,877.14,160.27Z" style="fill:#008f97"/><path d="M881.33,160.29a.68.68,0,0,1-.92-.86c2.11-5.45,9.64-23,16.69-16.84S886.69,157.77,881.33,160.29Z" style="fill:#008f97"/><path d="M893.48,166a.68.68,0,0,1,1.18-.46c4,4.25,16.65,18.61,8,22.31S893.46,172,893.48,166Z" style="fill:#008f97"/><path d="M897.75,166.15a.68.68,0,0,1-.87-.92c2.45-5.3,11.08-22.38,17.73-15.75S903.26,164,897.75,166.15Z" style="fill:#008f97"/><path d="M908.41,172.18a.69.69,0,0,1,1.22-.35c3.59,4.6,14.84,20.08,5.91,23S907.84,178.08,908.41,172.18Z" style="fill:#008f97"/><path d="M912.61,173a.68.68,0,0,1-.77-1c2.93-5.05,13.11-21.26,19.11-14S918.3,171.29,912.61,173Z" style="fill:#008f97"/><path d="M924,180.75a.68.68,0,0,1,1.25-.18c2.93,5.05,12,21.93,2.71,23.55S922.64,186.51,924,180.75Z" style="fill:#008f97"/><path d="M928.08,182.09a.68.68,0,0,1-.64-1.09c3.6-4.6,15.9-19.26,20.86-11.28S933.94,181.23,928.08,182.09Z" style="fill:#008f97"/><path d="M932.39,186.1a.89.89,0,0,1,1-1.32c7.36,2.08,31.25,9.72,24,19.69S936.35,192.77,932.39,186.1Z" style="fill:#008f97"/><path d="M822.63,118.52a1.82,1.82,0,0,1,1.25-1.83c.75-.25,75.48-24.45,136.68-13.62a1.81,1.81,0,0,1-.63,3.57C899.61,96,825.75,119.89,825,120.14a1.82,1.82,0,0,1-2.29-1.16A1.87,1.87,0,0,1,822.63,118.52Z" style="fill:#008f97"/><path d="M849.36,113.08a.91.91,0,0,1,1-1.33c7.51,2.18,31.86,10.18,24.4,20.31S853.36,119.93,849.36,113.08Z" style="fill:#008f97"/><path d="M854.24,109.84a.91.91,0,0,1-1.63-.47c-.77-7.79-2.4-33.37,9.77-30.22S859.11,103.58,854.24,109.84Z" style="fill:#008f97"/><path d="M872,107.54a.92.92,0,0,1,1-1.34c7.51,2.19,31.86,10.19,24.4,20.32S876,114.39,872,107.54Z" style="fill:#008f97"/><path d="M877,105a.91.91,0,0,1-1.63-.47c-.77-7.78-2.4-33.37,9.78-30.21S881.87,98.76,877,105Z" style="fill:#008f97"/><path d="M895,104.55a.91.91,0,0,1,1.12-1.27c7.36,2.66,31.16,12.18,23.08,21.82S898.54,111.64,895,104.55Z" style="fill:#008f97"/><path d="M900.15,102.1a.91.91,0,0,1-1.59-.58c-.28-7.81-.29-33.45,11.66-29.53S905.41,96.16,900.15,102.1Z" style="fill:#008f97"/><path d="M916.54,102.87a.91.91,0,0,1,1.24-1.16c7.08,3.33,29.89,15,21,23.87S919.42,110.26,916.54,102.87Z" style="fill:#008f97"/><path d="M922,101.25a.91.91,0,0,1-1.53-.72c.45-7.81,2.83-33.33,14.36-28.32S927.83,95.83,922,101.25Z" style="fill:#008f97"/><path d="M940.38,103.67a.91.91,0,0,1,1.38-1c6.56,4.26,27.55,19,17.48,26.51S942.21,111.39,940.38,103.67Z" style="fill:#008f97"/><path d="M946,102.82a.91.91,0,0,1-1.42-.92c1.52-7.68,7.36-32.63,18.11-26.09S952.52,98.24,946,102.82Z" style="fill:#008f97"/><path d="M953.61,105a1.19,1.19,0,0,1,.42-2.18c10.05-2,43.22-7.27,40.62,9S962.38,110.59,953.61,105Z" style="fill:#008f97"/><path d="M860.5,129.61a20.29,20.29,0,0,0-22.09-18.32,20.62,20.62,0,0,0-4.19.85,20.53,20.53,0,0,0,3.5-3.36A20.28,20.28,0,0,0,806.9,82.42c0-.28,0-.55,0-.83a20.29,20.29,0,0,0-40.33,4.58c0,.21.08.42.11.63a21.73,21.73,0,0,0-1.57-1.62,20.3,20.3,0,1,0-24,32.45,20.29,20.29,0,1,0-2.69,40.19,19.56,19.56,0,0,0,4.23-.68,20.29,20.29,0,1,0,26.82,30.06,19.67,19.67,0,0,0,2.47-3.5,20.54,20.54,0,0,0-.24,4.85,20.29,20.29,0,0,0,40.48-3,20.82,20.82,0,0,0-.76-4.22,19.7,19.7,0,0,0,3.28,3.57,20.3,20.3,0,0,0,26.23-31,20.51,20.51,0,0,0-3.55-2.4,20.62,20.62,0,0,0,4.85.15A20.3,20.3,0,0,0,860.5,129.61Z" style="fill:#ff5b7d"/><circle cx="788.91" cy="135.52" r="31.99" transform="translate(201.01 678.76) rotate(-52.49)" style="fill:#ffb540"/><path d="M1407.3,781.54a7,7,0,0,0-8.52-5.19,7.27,7.27,0,0,0-1.4.5,7.54,7.54,0,0,0,1-1.33A7,7,0,0,0,1386.5,768l-.06-.28a7.05,7.05,0,0,0-13.64,3.6l.07.21a7.31,7.31,0,0,0-.62-.48,7.05,7.05,0,1,0-6.62,12.37,6.91,6.91,0,0,0-1.69.12,7.05,7.05,0,0,0,2.78,13.83,7.33,7.33,0,0,0,1.42-.44,7.15,7.15,0,0,0-1.09,1.28,7.05,7.05,0,1,0,11.82,7.7,6.56,6.56,0,0,0,.67-1.32,7.47,7.47,0,0,0,.16,1.68,7.06,7.06,0,1,0,13.3-4.46,7.59,7.59,0,0,0,1.31,1.06,7.05,7.05,0,1,0,7.46-12,6.62,6.62,0,0,0-1.34-.65,7.4,7.4,0,0,0,1.68-.19A7.06,7.06,0,0,0,1407.3,781.54Z" style="fill:#ffabaa"/><path d="M1393.73,784.33a11.12,11.12,0,1,1-13.59-7.92A11.12,11.12,0,0,1,1393.73,784.33Z" style="fill:#008f97"/><path d="M1228.29,351.32a7.06,7.06,0,0,0-8.52-5.19,7.27,7.27,0,0,0-1.4.5,6.88,6.88,0,0,0,1-1.33,7,7,0,0,0-11.92-7.52l-.06-.28a7.05,7.05,0,0,0-13.64,3.6l.07.21a7.21,7.21,0,0,0-.62-.47,7.05,7.05,0,0,0-7.94,11.66,7,7,0,0,0,1.32.7,6.92,6.92,0,0,0-1.69.13,7.05,7.05,0,0,0,2.78,13.83,7.35,7.35,0,0,0,1.42-.45A7.22,7.22,0,0,0,1188,368a7.05,7.05,0,0,0,11.82,7.7,6.64,6.64,0,0,0,.67-1.33,7.36,7.36,0,0,0,.16,1.68,7.06,7.06,0,1,0,13.3-4.46,6.76,6.76,0,0,0,1.31,1.06,7.05,7.05,0,1,0,7.46-12,7.19,7.19,0,0,0-1.34-.65,6.88,6.88,0,0,0,1.68-.19A7.06,7.06,0,0,0,1228.29,351.32Z" style="fill:#ff5b7d"/><path d="M1214.72,354.11a11.12,11.12,0,1,1-13.59-7.91A11.13,11.13,0,0,1,1214.72,354.11Z" style="fill:#ffb540"/><path d="M1394,428.52a1.05,1.05,0,0,1,1.19.51c.22.4,22.26,40.5,22.77,76.71a1.07,1.07,0,0,1-1,1.07,1.06,1.06,0,0,1-1.07-1c-.5-35.68-22.28-75.32-22.5-75.72a1.05,1.05,0,0,1,.41-1.43A.87.87,0,0,1,1394,428.52Z" style="fill:#00cac1"/><path d="M1400,443.21a.53.53,0,0,1,.87.45c-.42,4.54-2.34,19.35-9,16.19S1396.55,446.25,1400,443.21Z" style="fill:#00cac1"/><path d="M1402.42,445.65a.53.53,0,0,1,.1-1c4.37-1.29,18.82-5,18.35,2.29S1406.54,447.75,1402.42,445.65Z" style="fill:#00cac1"/><path d="M1405.68,455.54a.53.53,0,0,1,.88.45c-.43,4.53-2.34,19.34-9,16.19S1402.2,458.57,1405.68,455.54Z" style="fill:#00cac1"/><path d="M1407.67,458.14a.54.54,0,0,1,.09-1c4.37-1.29,18.83-5,18.36,2.29S1411.79,460.24,1407.67,458.14Z" style="fill:#00cac1"/><path d="M1409.91,468.38a.53.53,0,0,1,.85.51c-.71,4.5-3.55,19.16-10,15.59S1406.25,471.19,1409.91,468.38Z" style="fill:#00cac1"/><path d="M1411.88,471.07a.54.54,0,0,1,.16-1c4.44-1,19.1-3.83,18.17,3.44S1415.86,473.43,1411.88,471.07Z" style="fill:#00cac1"/><path d="M1413.24,480.53a.53.53,0,0,1,.8.58c-1.13,4.42-5.33,18.75-11.37,14.6S1409.32,483,1413.24,480.53Z" style="fill:#00cac1"/><path d="M1414.77,483.49a.52.52,0,0,1,.24-.95c4.52-.6,19.38-2,17.78,5.11S1418.5,486.21,1414.77,483.49Z" style="fill:#00cac1"/><path d="M1415.39,494.25a.54.54,0,0,1,.71.69c-1.72,4.22-7.84,17.84-13.26,12.9S1411.18,496.15,1415.39,494.25Z" style="fill:#00cac1"/><path d="M1416.5,497.4a.53.53,0,0,1,.37-.91c4.56,0,19.48.64,16.91,7.5S1419.83,500.61,1416.5,497.4Z" style="fill:#00cac1"/><path d="M1416.08,502a.7.7,0,0,1,1.29,0c2.23,5.54,8.9,23.94-.7,24.23S1413.84,507.6,1416.08,502Z" style="fill:#00cac1"/><path d="M1370.22,418.24a1.42,1.42,0,0,1,.86,1.51c-.08.61-8.79,61.41-37.45,100.67a1.44,1.44,0,0,1-2,.31,1.42,1.42,0,0,1-.3-2c28.24-38.68,36.85-98.78,36.93-99.38a1.42,1.42,0,0,1,1.6-1.21A1.28,1.28,0,0,1,1370.22,418.24Z" style="fill:#00cac1"/><path d="M1364.85,438.89a.71.71,0,0,1,.58,1.19c-4.12,4.52-18.12,18.87-22.67,10.15S1358.66,439.33,1364.85,438.89Z" style="fill:#00cac1"/><path d="M1365.45,443.42a.71.71,0,0,1,.89-1c5.73,2.14,24.26,9.8,17.85,17.26S1368.17,449,1365.45,443.42Z" style="fill:#00cac1"/><path d="M1361,456.66a.72.72,0,0,1,.57,1.2c-4.11,4.52-18.11,18.87-22.66,10.14S1354.78,457.11,1361,456.66Z" style="fill:#00cac1"/><path d="M1361,461.06a.71.71,0,0,1,.89-1c5.74,2.14,24.26,9.79,17.86,17.26S1363.72,466.63,1361,461.06Z" style="fill:#00cac1"/><path d="M1355.14,473.86a.71.71,0,0,1,.51,1.22c-4.4,4.26-19.28,17.69-23.26,8.7S1348.94,473.91,1355.14,473.86Z" style="fill:#00cac1"/><path d="M1355.09,478.33a.71.71,0,0,1,1-.92c5.58,2.49,23.59,11.3,16.73,18.35S1357.45,484.07,1355.09,478.33Z" style="fill:#00cac1"/><path d="M1348.91,489.57a.72.72,0,0,1,.39,1.27c-4.78,3.83-20.84,15.82-24,6.5S1342.73,489.05,1348.91,489.57Z" style="fill:#00cac1"/><path d="M1348.16,494a.71.71,0,0,1,1-.83c5.33,3,22.44,13.45,15,19.83S1350,499.92,1348.16,494Z" style="fill:#00cac1"/><path d="M1340.15,506a.71.71,0,0,1,.2,1.31c-5.25,3.14-22.8,12.82-24.63,3.15S1334.09,504.67,1340.15,506Z" style="fill:#00cac1"/><path d="M1338.8,510.3a.71.71,0,0,1,1.13-.68c4.87,3.71,20.38,16.4,12.09,21.69S1339.78,516.43,1338.8,510.3Z" style="fill:#00cac1"/><path d="M1334.66,514.87a.93.93,0,0,1,1.39,1c-2.08,7.74-9.76,32.86-20.3,25.44S1327.72,519.11,1334.66,514.87Z" style="fill:#00cac1"/><path d="M1416.58,383.05a12.34,12.34,0,0,0-17.37-8.22,12.72,12.72,0,0,0,1.81-2.33,12.35,12.35,0,0,0-20.88-13.17c0-.16-.06-.33-.1-.49a12.36,12.36,0,0,0-23.9,6.3c0,.13.09.25.12.37a12.85,12.85,0,0,0-1.08-.83,12.36,12.36,0,1,0-11.6,21.66,12.83,12.83,0,0,0-2.95.21,12.36,12.36,0,0,0,4.86,24.23A12.23,12.23,0,0,0,1348,410a12,12,0,0,0-1.91,2.26,12.36,12.36,0,0,0,20.71,13.48,12.67,12.67,0,0,0,1.18-2.32,12.35,12.35,0,1,0,24.4-2.4,12,12,0,0,0-.83-2.47,13,13,0,0,0,2.29,1.86,12.36,12.36,0,0,0,13.08-21,12.71,12.71,0,0,0-2.35-1.14,12.78,12.78,0,0,0,2.93-.33A12.36,12.36,0,0,0,1416.58,383.05Z" style="fill:#008f97"/><circle cx="1373.97" cy="392.9" r="19.47" transform="translate(390.68 1429.87) rotate(-62.48)" style="fill:#ffb540"/><path d="M1153.13,923a18.79,18.79,0,0,0-22.68-13.83,19,19,0,0,0-3.73,1.34,18.51,18.51,0,0,0,2.75-3.54,18.77,18.77,0,0,0-31.74-20c-.06-.25-.09-.5-.16-.75a18.79,18.79,0,0,0-36.33,9.59c0,.19.13.37.18.56a18.78,18.78,0,1,0-22.78,29.79,18.68,18.68,0,0,0,3.49,1.87,18.78,18.78,0,1,0,2.91,37.17,18.71,18.71,0,0,0,3.78-1.19,18.78,18.78,0,1,0,30.39,20.41,18.45,18.45,0,0,0,.42,4.47,18.78,18.78,0,1,0,36.68-8.12,18.46,18.46,0,0,0-1.26-3.76,19.29,19.29,0,0,0,3.48,2.83,18.79,18.79,0,1,0,16.31-33.61,18.47,18.47,0,0,0,4.46-.52A18.77,18.77,0,0,0,1153.13,923Z" style="fill:#008f97"/><path d="M1117,930.47a29.6,29.6,0,1,1-36.18-21.08A29.6,29.6,0,0,1,1117,930.47Z" style="fill:#ffb540"/><path d="M596.61,312.76a5.17,5.17,0,0,0-6.26-3.81,5.24,5.24,0,0,0-1,.36,4.79,4.79,0,0,0,.76-1,5.18,5.18,0,0,0-8.76-5.53,1.55,1.55,0,0,0,0-.21,5.18,5.18,0,1,0-10,2.65.88.88,0,0,0,0,.15c-.15-.12-.3-.24-.46-.35a5.19,5.19,0,0,0-5.83,8.58,4.94,4.94,0,0,0,1,.51,5.14,5.14,0,0,0-1.23.09,5.19,5.19,0,1,0,2,10.17,6,6,0,0,0,1-.33,4.91,4.91,0,0,0-.8.95,5.19,5.19,0,0,0,8.69,5.66,5.61,5.61,0,0,0,.49-1,5.27,5.27,0,0,0,.12,1.24,5.18,5.18,0,1,0,10.12-2.25,5,5,0,0,0-.35-1,5.72,5.72,0,0,0,1,.78,5.18,5.18,0,1,0,4.5-9.28,5.28,5.28,0,0,0,1.23-.14A5.18,5.18,0,0,0,596.61,312.76Z" style="fill:#ff5b7d"/><path d="M586.64,314.81a8.17,8.17,0,1,1-10-5.82A8.17,8.17,0,0,1,586.64,314.81Z" style="fill:#ffb540"/><path d="M1280.47,687.44a32.9,32.9,0,0,0-1,22.2s-2.91-.7-3.94.3,5.83,8.82,5.83,8.82c-1.06.12-2.73.33-2.92,1.56s9,7.35,9,7.35a3.21,3.21,0,0,0-2.26,1.2c5.86,10.86,24.91,5.72,24.91,5.72l-19-31.51,21.55,29.69s13.11-14.93,4.32-25.08a3.27,3.27,0,0,0-2,1.63s-2-10.88-3.27-11.17-2.06,1.17-2.58,2.11c0,0-4.56-9.36-5.89-8.79s-1.82,3.54-1.82,3.54a32.79,32.79,0,0,0-21-7.57" style="fill:#00cac1"/><path d="M961,1023.13a48.65,48.65,0,0,0,32.74-2.86s-.46,4.4,1.21,5.72,11.79-10.27,11.79-10.27c.37,1.52,1,3.93,2.85,4s9-14.65,9-14.65a4.77,4.77,0,0,0,2.21,3.07c14.77-10.71,3.5-37.62,3.5-37.62l-42.45,34,39.28-37.4s-24.45-16.29-37.61-1.42a4.85,4.85,0,0,0,2.79,2.61s-15.55,5.14-15.74,7,2.13,2.8,3.6,3.38c0,0-12.82,8.51-11.72,10.34s5.54,2,5.54,2a48.48,48.48,0,0,0-7,32.18" style="fill:#00cac1"/><path d="M1183.94,97.32a41.07,41.07,0,0,0-1.27,27.72s-3.63-.87-4.91.38,7.27,11,7.27,11c-1.32.14-3.4.41-3.64,1.94s11.25,9.18,11.25,9.18a4,4,0,0,0-2.82,1.5c7.31,13.56,31.1,7.14,31.1,7.14l-23.69-39.34,26.9,37.07s16.38-18.65,5.4-31.32a4.05,4.05,0,0,0-2.49,2s-2.57-13.59-4.09-14-2.58,1.47-3.23,2.64c0,0-5.69-11.69-7.34-11s-2.28,4.41-2.28,4.41a41,41,0,0,0-26.16-9.45" style="fill:#00cac1"/><path d="M650.59,685.45a32.9,32.9,0,0,0-15.72,15.71s-1.67-2.48-3.11-2.43-1.64,10.44-1.64,10.44c-.86-.63-2.24-1.59-3.21-.82s1.71,11.51,1.71,11.51a3.2,3.2,0,0,0-2.48-.63c-3,12,14.54,21,14.54,21l7.22-36.06-4.09,36.45s19.75-2.19,20.1-15.61a3.28,3.28,0,0,0-2.58-.14s5.82-9.43,5.12-10.46-2.32-.53-3.34-.18c0,0,2.95-10,1.58-10.46s-3.73,1.38-3.73,1.38a32.76,32.76,0,0,0-10.37-19.7" style="fill:#008f97"/><path d="M875.59,266.65a45.74,45.74,0,0,0,.54-30.92s4.08.86,5.47-.58-8.45-12-8.45-12c1.46-.2,3.78-.57,4-2.28S864.32,211,864.32,211a4.45,4.45,0,0,0,3.09-1.77c-8.57-14.87-34.87-7-34.87-7l27.64,43.07L829,204.86s-17.66,21.28-5,35.06a4.57,4.57,0,0,0,2.72-2.35s3.29,15.06,5,15.42,2.83-1.72,3.52-3c0,0,6.7,12.84,8.53,12s2.39-5,2.39-5a45.68,45.68,0,0,0,29.44,9.7" style="fill:#008f97"/><path d="M535.78,275a9.88,9.88,0,1,1-9.88-9.87A9.88,9.88,0,0,1,535.78,275Z" style="fill:#ffb540"/><circle cx="962.06" cy="290.16" r="9.88" style="fill:#ffb540"/><circle cx="493.23" cy="381.58" r="9.88" style="fill:#ffabaa"/><path d="M970.52,943.8a9.88,9.88,0,1,1-9.88-9.88A9.88,9.88,0,0,1,970.52,943.8Z" style="fill:#ffb540"/><circle cx="1184.61" cy="865.67" r="9.88" style="fill:#ffb540"/><circle cx="1302.7" cy="640.55" r="9.88" style="fill:#ffb540"/><circle cx="1139.43" cy="112.33" r="9.88" style="fill:#ffb540"/><circle cx="630.93" cy="514.73" r="9.88" style="fill:#ffb540"/><circle cx="516.69" cy="691.48" r="9.88" style="fill:#ff5b7d"/><circle cx="827.21" cy="849.85" r="9.88" style="fill:#ff5b7d"/><path d="M823.81,1000.3a9.88,9.88,0,1,1-9.88-9.87A9.88,9.88,0,0,1,823.81,1000.3Z" style="fill:#ff5b7d"/><circle cx="1133.11" cy="1010.18" r="9.88" style="fill:#ff5b7d"/><circle cx="935.37" cy="256.1" r="9.88" style="fill:#ff5b7d"/><path d="M698,63.79a9.88,9.88,0,1,1-9.87-9.88A9.87,9.87,0,0,1,698,63.79Z" style="fill:#ff5b7d"/><path d="M529.2,310.62a4.94,4.94,0,1,1-4.94-4.94A4.94,4.94,0,0,1,529.2,310.62Z" style="fill:#ff5b7d"/><path d="M999.45,904.44a4.94,4.94,0,1,1-4.94-4.94A4.94,4.94,0,0,1,999.45,904.44Z" style="fill:#ff5b7d"/><path d="M1297.77,443.08a4.94,4.94,0,1,1-4.94-4.94A4.94,4.94,0,0,1,1297.77,443.08Z" style="fill:#ffabaa"/><path d="M783.51,947.51a4.94,4.94,0,1,1-4.94-4.94A4.94,4.94,0,0,1,783.51,947.51Z" style="fill:#ffabaa"/><path d="M1431.44,185a4.94,4.94,0,1,1-4.93-4.94A4.94,4.94,0,0,1,1431.44,185Z" style="fill:#ff5b7d"/><path d="M1140.28,156.47a4.94,4.94,0,1,1-4.94-4.94A4.94,4.94,0,0,1,1140.28,156.47Z" style="fill:#ff5b7d"/><path d="M1328.15,349.63a4.94,4.94,0,1,1-4.93-4.94A4.94,4.94,0,0,1,1328.15,349.63Z" style="fill:#ffb540"/><path d="M716.21,955a4.94,4.94,0,1,1-4.93-4.94A4.93,4.93,0,0,1,716.21,955Z" style="fill:#ffb540"/><path d="M911.41,292.78a4.94,4.94,0,1,1-4.94-4.93A4.94,4.94,0,0,1,911.41,292.78Z" style="fill:#ffb540"/><path d="M635.87,556.05a4.94,4.94,0,1,1-4.94-4.94A4.94,4.94,0,0,1,635.87,556.05Z" style="fill:#ffb540"/><path d="M1008.53,196.25c4.38,34,25.91,46.35,50.09,43.23s41.86-20.58,37.48-54.53-32.65-71.09-53.35-68.42S1004.15,162.3,1008.53,196.25Z" style="fill:#008f97"/><path d="M1019.15,138.48l42.8-15.23a39.39,39.39,0,0,0-9.12-5.24l-26.59,9.46A66.21,66.21,0,0,0,1019.15,138.48Z" style="fill:#ff5b7d"/><path d="M1011.33,159.22l63.81-22.71c-1.81-2.31-3.69-4.49-5.61-6.49l-55.25,19.66C1013.17,152.76,1012.18,156,1011.33,159.22Z" style="fill:#ff5b7d"/><path d="M1008.15,178.31l76.52-27.23q-2-3.62-4.16-7l-71.32,25.38C1008.72,172.39,1008.37,175.35,1008.15,178.31Z" style="fill:#ff5b7d"/><path d="M1008.52,196.13l83.07-29.56q-1.33-3.76-3-7.43l-80.72,28.72A80,80,0,0,0,1008.52,196.13Z" style="fill:#ff5b7d"/><path d="M1012.54,212.66,1095.81,183c-.41-2.63-.94-5.28-1.62-7.92l-84,29.91A62.83,62.83,0,0,0,1012.54,212.66Z" style="fill:#ff5b7d"/><path d="M1021.46,227.44l75-26.7a66.62,66.62,0,0,0,.21-8.56l-80.23,28.55A42.07,42.07,0,0,0,1021.46,227.44Z" style="fill:#ff5b7d"/><path d="M1040.47,238.63,1090,221a40.84,40.84,0,0,0,4.57-10.12l-65.09,23.17A38.69,38.69,0,0,0,1040.47,238.63Z" style="fill:#ff5b7d"/><path d="M1234.08,210.16c-17,56.27,7.93,90.86,48,103s80.06-2.75,97.12-59-1.06-134.35-35.35-144.75S1251.14,153.89,1234.08,210.16Z" style="fill:#ffb540"/><path d="M1282,135.3a176.49,176.49,0,0,0-12.47,12.94c13,.29,28.25-2,45.54-8.65,20-7.7,38.27-8.7,54.27-5.9a69.38,69.38,0,0,0-9.52-13.57c-15-1-31.52,1.14-49.19,7.95A115.18,115.18,0,0,1,1282,135.3Z" style="fill:#00cac1"/><path d="M1253.36,169.62q-3.69,5.7-6.94,11.65c15.4,2.33,34.65,1.22,57.58-7.62,31.25-12.06,58.41-7.72,79,2-.87-5-1.94-10-3.2-14.7-22-8.29-49.37-10.74-80.3,1.19C1281.44,169.12,1266,170.72,1253.36,169.62Z" style="fill:#00cac1"/><path d="M1385.42,217.27c.26-4.77.34-9.55.24-14.31-24-13.84-57.72-22-97.15-6.78-21,8.1-38.34,9-52,6.78-.87,2.4-1.71,4.8-2.44,7.2-.48,1.59-.91,3.15-1.33,4.71,15.82,2.88,36,2.19,60.2-7.17C1331.54,192.81,1363.89,202.91,1385.42,217.27Z" style="fill:#00cac1"/><path d="M1277.46,230.24c-19.27,7.43-35.48,8.77-48.57,7.25a90.76,90.76,0,0,0,0,12.45c14.59,1.48,32.31-.19,53-8.18,41.49-16,75.78-3.13,97.15,12.87,0-.16.1-.31.15-.48,1.21-4,2.23-8.12,3.09-12.32C1358.06,225.28,1321.3,213.33,1277.46,230.24Z" style="fill:#00cac1"/><path d="M1364.4,286.08a94.92,94.92,0,0,0,6.27-10.58c-24.24-16.35-60.76-28-104.25-11.21a112.15,112.15,0,0,1-32.68,7.59,64.39,64.39,0,0,0,6.23,11.84,128.83,128.83,0,0,0,30.89-7.91C1310.09,260.67,1342.88,271.35,1364.4,286.08Z" style="fill:#00cac1"/><path d="M1255.37,298.34c-.46.18-.91.33-1.37.5a77.17,77.17,0,0,0,13.3,8.45c26.93-8.35,50.53-4.71,69.15,3.45a64.91,64.91,0,0,0,12.33-7.68C1325.05,290.52,1292.8,283.91,1255.37,298.34Z" style="fill:#00cac1"/><path d="M491.12,443.37c-10.74,29.93,1.82,49.28,23.13,56.93s43.31.68,54-29.24,3.06-72.59-15.18-79.13S501.85,413.45,491.12,443.37Z" style="fill:#ff5b7d"/><path d="M519,404.24c-2.41,2-4.78,4.27-7.08,6.65a64.26,64.26,0,0,0,24.83-3.43,54.24,54.24,0,0,1,29.46-1.72,37.69,37.69,0,0,0-4.77-7.59,62.19,62.19,0,0,0-26.78,3A61.93,61.93,0,0,1,519,404.24Z" style="fill:#ffb540"/><path d="M502.62,422c-1.43,2-2.78,4-4.06,6.1,8.25,1.68,18.68,1.6,31.3-2.55,17.2-5.67,31.75-2.59,42.63,3.21-.33-2.75-.77-5.43-1.32-8-11.65-5.07-26.37-7.14-43.4-1.53C517.8,422.49,509.43,422.94,502.62,422Z" style="fill:#ffb540"/><path d="M572.65,451.3c.27-2.56.44-5.14.51-7.71-12.59-8.13-30.57-13.44-52.27-6.29-11.55,3.8-20.95,3.8-28.26,2.25-.54,1.27-1.05,2.54-1.51,3.82-.3.85-.58,1.68-.85,2.51,8.47,2,19.36,2.15,32.7-2.24C544.22,436.64,561.41,443,572.65,451.3Z" style="fill:#ffb540"/><path d="M514,455.39c-10.61,3.49-19.4,3.77-26.43,2.6a50.17,50.17,0,0,0-.34,6.72c7.84,1.19,17.45.77,28.86-3,22.84-7.53,41,.36,52.11,9.58a1.86,1.86,0,0,1,.1-.25c.76-2.13,1.42-4.33,2-6.57C557.66,454.89,538.13,447.44,514,455.39Z" style="fill:#ffb540"/><path d="M559.44,487.9a53.91,53.91,0,0,0,3.67-5.55c-12.65-9.48-32.06-16.76-56-8.87a60.68,60.68,0,0,1-17.85,3.21,35.37,35.37,0,0,0,3,6.56,69.74,69.74,0,0,0,16.9-3.43C530.8,472.71,548.22,479.36,559.44,487.9Z" style="fill:#ffb540"/><path d="M500.23,491.57l-.76.23a41.47,41.47,0,0,0,7,4.92,52.44,52.44,0,0,1,37.24,3.74,35,35,0,0,0,6.87-3.82C538.07,489.23,520.83,484.78,500.23,491.57Z" style="fill:#ffb540"/><path d="M616.45,915.07c16-3.94,29.69-11.84,39-23.71l-57.78,26.16A82.28,82.28,0,0,0,616.45,915.07Z" style="fill:#00cac1"/><path d="M583.24,916.17a67.32,67.32,0,0,0,14.47,1.35l57.78-26.16a58.21,58.21,0,0,0,6.82-11Z" style="fill:#ffb540"/><path d="M583.24,916.17l79.07-35.8a62.34,62.34,0,0,0,3.63-9.54L572.78,913A60.34,60.34,0,0,0,583.24,916.17Z" style="fill:#ffabaa"/><path d="M572.78,913l93.16-42.18a70.05,70.05,0,0,0,1.94-8.79L564.49,908.86A58.33,58.33,0,0,0,572.78,913Z" style="fill:#008f97"/><path d="M668.69,853.78,557.7,904a59.65,59.65,0,0,0,6.79,4.83L667.88,862A77.3,77.3,0,0,0,668.69,853.78Z" style="fill:#ff5b7d"/><path d="M557.7,904l111-50.25q.18-3.84,0-7.91L552,898.72A61.72,61.72,0,0,0,557.7,904Z" style="fill:#00cac1"/><path d="M552,898.72l116.74-52.85q-.16-3.72-.62-7.62L547.1,893A66.78,66.78,0,0,0,552,898.72Z" style="fill:#ff5b7d"/><path d="M547.1,893l121-54.77q-.44-3.62-1.13-7.4L542.94,887C544.27,889.13,545.65,891.14,547.1,893Z" style="fill:#fff"/><path d="M542.94,887l124-56.15c-.43-2.35-.93-4.75-1.53-7.21l-126,57.07C540.51,882.92,541.7,885,542.94,887Z" style="fill:#00cac1"/><path d="M539.39,880.71l126-57.07-.09-.41c-.54-2.2-1.18-4.41-1.85-6.61L536.34,874.19C537.29,876.47,538.32,878.63,539.39,880.71Z" style="fill:#008f97"/><path d="M536.34,874.19l127.15-57.57q-1.05-3.43-2.29-6.86L533.78,867.45C534.59,869.77,535.43,872,536.34,874.19Z" style="fill:#ffb540"/><path d="M533.78,867.45,661.2,809.76q-1.23-3.37-2.64-6.71L531.62,860.52C532.29,862.92,533,865.22,533.78,867.45Z" style="fill:#ff5b7d"/><path d="M655.6,796.49,529.86,853.42c.21,1,.42,2,.66,3,.35,1.41.72,2.77,1.1,4.12l126.94-57.47C657.63,800.84,656.64,798.66,655.6,796.49Z" style="fill:#ffabaa"/><path d="M529.86,853.42,655.6,796.49c-1-2.17-2.11-4.32-3.24-6.44l-123.9,56.1C528.85,848.61,529.33,851,529.86,853.42Z" style="fill:#ff5b7d"/><path d="M528.46,846.15l123.9-56.1c-1.13-2.12-2.32-4.22-3.54-6.3L527.49,838.69C527.75,841.19,528.06,843.69,528.46,846.15Z" style="fill:#008f97"/><path d="M527.49,838.69l121.33-54.94c-1.23-2.09-2.51-4.14-3.82-6.17L526.86,831.07C527,833.63,527.22,836.16,527.49,838.69Z" style="fill:#00cac1"/><path d="M526.86,831.07,645,777.58c-1.32-2.05-2.68-4.08-4.08-6.06L526.64,823.27Q526.66,827.19,526.86,831.07Z" style="fill:#ffb540"/><path d="M526.64,823.27l114.28-51.75c-1.42-2-2.9-4-4.39-5.91l-109.77,49.7C526.65,818,526.62,820.62,526.64,823.27Z" style="fill:#fff"/><path d="M526.76,815.31l109.77-49.7c-1.53-2-3.09-3.91-4.68-5.78L527.3,807.16C527.06,809.87,526.87,812.59,526.76,815.31Z" style="fill:#ff5b7d"/><path d="M527.3,807.16l104.55-47.33c-1.64-1.94-3.32-3.81-5-5.63l-98.61,44.64C527.85,801.6,527.55,804.37,527.3,807.16Z" style="fill:#00cac1"/><path d="M528.22,798.84l98.61-44.64c-1.76-1.89-3.55-3.73-5.35-5.48l-91.86,41.59C529.09,793.12,528.62,796,528.22,798.84Z" style="fill:#ffb540"/><path d="M529.62,790.31l91.86-41.59c-1.92-1.85-3.86-3.6-5.81-5.27l-84.15,38.1C530.82,784.42,530.18,787.34,529.62,790.31Z" style="fill:#ffabaa"/><path d="M531.52,781.55l84.15-38.1c-2.1-1.79-4.2-3.48-6.32-5L534,772.51Q532.67,776.92,531.52,781.55Z" style="fill:#008f97"/><path d="M534,772.51l75.32-34.1c-2.32-1.73-4.66-3.32-7-4.74l-65,29.44Q535.55,767.64,534,772.51Z" style="fill:#00cac1"/><path d="M537.34,763.11l65-29.44a73.57,73.57,0,0,0-8-4.28L541.78,753.2C540.19,756.31,538.71,759.64,537.34,763.11Z" style="fill:#008f97"/><path d="M594.35,729.39a52.75,52.75,0,0,0-9.91-3.41l-36.08,16.34a83,83,0,0,0-6.58,10.88Z" style="fill:#ffb540"/><path d="M584.44,726a31.42,31.42,0,0,0-14.57-.2c-8,2-15.3,7.92-21.51,16.54Z" style="fill:#ff5b7d"/><path d="M1336.66,633.62c7.59,32.78,29.86,42.81,53.2,37.4s38.94-24.21,31.34-57-38.86-66.34-58.84-61.72S1329.06,600.84,1336.66,633.62Z" style="fill:#ff5b7d"/><path d="M1404.8,579.28,1403,582l-12.44-7.6-9.45,12.23L1368.84,579l-9.3,12.19L1346,583.83l-8.76,12.08-1.11-.55c-2.17,12.58-2.22,26.18.58,38.26a68.61,68.61,0,0,0,6,16.52l11.63,6,8.33-11.27,13.79,6.59,7.51-11.7,13.91,7.17,9.55-11.77,12.92,7,1.86-2.07c1.55-7.4,1.39-16.06-.92-26C1418.39,601.9,1412.33,589.66,1404.8,579.28Z" style="fill:#ffabaa"/><path d="M1419.64,639.22l-11.5-7.16a2.12,2.12,0,0,0-2.87.61l-7.63,11.21-11.5-7.16a2.11,2.11,0,0,0-2.87.6l-7.63,11.21-11.5-7.16a2.14,2.14,0,0,0-2.88.6l-7.62,11.21-11.5-7.16a2.09,2.09,0,0,0-1.59-.26,60.89,60.89,0,0,0,3,6.16l9.54,5.93a2.12,2.12,0,0,0,2.87-.6l7.62-11.21,11.51,7.16a2.12,2.12,0,0,0,2.87-.61l7.63-11.2,11.5,7.16a2.12,2.12,0,0,0,2.87-.61l7.63-11.2,11.5,7.16a2.09,2.09,0,0,0,2,.1,44.8,44.8,0,0,0,1.84-9.63Z" style="fill:#008f97"/><path d="M1402.85,579.27l-11.5-7.16a2.13,2.13,0,0,0-2.88.61l-7.62,11.21-11.5-7.16a2.13,2.13,0,0,0-2.88.6l-7.62,11.21-11.51-7.16a2.13,2.13,0,0,0-2.87.6l-7.62,11.21-.34-.21q-.43,2.24-.78,4.5l.61.38a2.13,2.13,0,0,0,2.87-.6l7.62-11.21,11.51,7.16a2.12,2.12,0,0,0,2.87-.61l7.62-11.2,11.51,7.16a2.12,2.12,0,0,0,2.87-.61l7.62-11.2,11.51,7.16a2.12,2.12,0,0,0,2.87-.61l1.21-1.78q-1.29-1.86-2.64-3.65Z" style="fill:#008f97"/><path d="M597.11,194.77C592.77,238.27,616,259.9,647,263s58-13.53,62.35-57-20.12-97.85-46.63-100.5S601.45,151.27,597.11,194.77Z" style="fill:#008f97"/><path d="M703.63,156.35l-3.38,2.59L688.12,144.4l-16.73,11.1L659.51,141,643,152.11l-13.65-14.73-15.82,11.21-1.14-1.14c-7.92,14.58-13.66,31.28-15.26,47.32a89.51,89.51,0,0,0,.44,22.81l11.83,12.17,15-10.39,14.21,13.87L652.67,222,666.8,236.6l16.66-10.49,13,14,3.16-1.77c5-8.46,8.41-19.19,9.73-32.41C710.91,189.85,708.57,172.26,703.63,156.35Z" style="fill:#00cac1"/><path d="M696.87,236.3l-11.16-13.61a2.76,2.76,0,0,0-3.79-.45l-14,10.6L656.7,219.23a2.76,2.76,0,0,0-3.79-.45l-14,10.6-11.17-13.61a2.76,2.76,0,0,0-3.79-.45l-14.06,10.6-11.16-13.61a2.8,2.8,0,0,0-1.84-1,72.78,72.78,0,0,0,1.17,8.85l9.25,11.29a2.76,2.76,0,0,0,3.79.45l14.06-10.6,11.17,13.61a2.75,2.75,0,0,0,3.78.45l14.06-10.6,11.16,13.61a2.75,2.75,0,0,0,3.79.45l14.06-10.6,11.16,13.61a2.74,2.74,0,0,0,2.39.95A58.67,58.67,0,0,0,703,231.71Z" style="fill:#ffb540"/><path d="M701.24,155.53l-11.17-13.61a2.76,2.76,0,0,0-3.79-.45l-14,10.6-11.16-13.61a2.76,2.76,0,0,0-3.79-.45l-14.06,10.6L632.05,135a2.76,2.76,0,0,0-3.79-.45l-14,10.6-.33-.39c-1,1.7-1.93,3.44-2.85,5.21l.6.72a2.75,2.75,0,0,0,3.78.45l14.06-10.6,11.17,13.61a2.76,2.76,0,0,0,3.79.45L658.48,144l11.17,13.61a2.75,2.75,0,0,0,3.79.45l14-10.6,11.17,13.61a2.75,2.75,0,0,0,3.78.45l2.23-1.68c-.53-1.89-1.11-3.75-1.72-5.6Z" style="fill:#ffb540"/><path d="M593.78,225.58c-14.62,29.9-38.31,34.61-59.6,24.2s-32.12-32-17.51-61.89,52.22-55.28,70.44-46.38S608.39,195.69,593.78,225.58Z" style="fill:#ff5b7d"/><path d="M538.85,186.84a2,2,0,0,0-1.22-.73,2.09,2.09,0,1,0-3-2.88,2.06,2.06,0,0,0-.79-1.26,2.09,2.09,0,0,0-3.18,2.5,2.09,2.09,0,0,0-3,2.71,2.12,2.12,0,0,0,1.77,1.14,2,2,0,0,0-1,1.82,4.4,4.4,0,0,1,5.12,2.66,2.08,2.08,0,0,0,2.79-2.74,2.09,2.09,0,0,0,2.49-3.22Z" style="fill:#fff"/><path d="M535.39,188.49a2.38,2.38,0,1,1-.8-3.27A2.39,2.39,0,0,1,535.39,188.49Z" style="fill:#ffb540"/><path d="M564.31,199.52a2.06,2.06,0,0,0-1.22-.73,2.09,2.09,0,0,0-1.8-3.66,1,1,0,1,1-2-.48,2.09,2.09,0,0,0-3.18,2.5,2.09,2.09,0,0,0-3,2.71A2.1,2.1,0,0,0,554.9,201a15.57,15.57,0,0,1,4.13,4.48,2.09,2.09,0,0,0,2.79-2.74,2.09,2.09,0,0,0,2.49-3.22Z" style="fill:#fff"/><path d="M560.85,201.17a2.38,2.38,0,1,1-.8-3.27A2.38,2.38,0,0,1,560.85,201.17Z" style="fill:#ffb540"/><path d="M538.32,222.41a2.11,2.11,0,0,0-1.22-.73,2.09,2.09,0,0,0-1.8-3.65,2.08,2.08,0,0,0-1.19.77,2.11,2.11,0,0,0-.79-1.25,2.09,2.09,0,0,0-3.18,2.49,2.09,2.09,0,0,0-3,2.72,2.08,2.08,0,0,0,1.76,1.13,15.73,15.73,0,0,1,4.13,4.49,2.1,2.1,0,0,0,2.78-1,2.07,2.07,0,0,0,0-1.72,2.09,2.09,0,0,0,2.49-3.23Z" style="fill:#fff"/><path d="M534.86,224.06a2.38,2.38,0,1,1-.8-3.27A2.38,2.38,0,0,1,534.86,224.06Z" style="fill:#ffb540"/><path d="M594.28,174.49a2.08,2.08,0,0,0-1.23-.73,2.09,2.09,0,1,0-3-2.88,2,2,0,0,0-.79-1.26,2.09,2.09,0,0,0-2.93.41,2.13,2.13,0,0,0-.25,2.09A2.07,2.07,0,0,0,584,172a2.1,2.1,0,0,0,.85,4,15.68,15.68,0,0,1,4.12,4.48,2.09,2.09,0,0,0,2.78-1,2.07,2.07,0,0,0,0-1.72,2.09,2.09,0,0,0,2.5-3.22Z" style="fill:#fff"/><path d="M590.81,176.14a2.38,2.38,0,1,1-.8-3.27A2.37,2.37,0,0,1,590.81,176.14Z" style="fill:#ffb540"/><path d="M563.35,160.89a2.05,2.05,0,0,0-1.23-.73,2.09,2.09,0,0,0-1.79-3.66,2.12,2.12,0,0,0-1.2.78,2,2,0,0,0-.79-1.26,2.09,2.09,0,0,0-3.18,2.5,2.09,2.09,0,0,0-3,2.71,2.1,2.1,0,0,0,1.76,1.14,2.09,2.09,0,1,0,2.92,2.78,2.09,2.09,0,1,0,4-1,2.09,2.09,0,0,0,2.49-3.22Z" style="fill:#fff"/><path d="M559.88,162.54a2.38,2.38,0,1,1-.8-3.27A2.39,2.39,0,0,1,559.88,162.54Z" style="fill:#ffb540"/><path d="M590,213.67a2.07,2.07,0,0,0-1.22-.74,2.09,2.09,0,0,0-1.8-3.65,2,2,0,0,0-1.19.78,2.09,2.09,0,1,0-4,1.23,2.09,2.09,0,0,0-3,2.72,2.07,2.07,0,0,0,1.76,1.13,2.12,2.12,0,0,0-1,1.83,2.1,2.1,0,0,0,2.13,2.05,2.12,2.12,0,0,0,1.8-1.09,2.09,2.09,0,1,0,4-1,2.09,2.09,0,0,0,2.49-3.22Z" style="fill:#fff"/><path d="M586.5,215.31a2.38,2.38,0,1,1-.79-3.27A2.38,2.38,0,0,1,586.5,215.31Z" style="fill:#ffb540"/><path d="M558.33,231.78a2.11,2.11,0,0,0-1.22-.73,2.09,2.09,0,0,0-1.8-3.66,2.14,2.14,0,0,0-1.19.78,2.17,2.17,0,0,0-.79-1.26,2.1,2.1,0,0,0-2.93.42,2.07,2.07,0,0,0-.25,2.08,2.09,2.09,0,0,0-3,2.72,2.07,2.07,0,0,0,1.76,1.13,15.73,15.73,0,0,1,4.13,4.49,2.09,2.09,0,0,0,2.79-2.74,2.09,2.09,0,0,0,2.49-3.23Z" style="fill:#fff"/><path d="M554.87,233.43a2.38,2.38,0,1,1-.8-3.27A2.39,2.39,0,0,1,554.87,233.43Z" style="fill:#ffb540"/><path d="M565.51,147.59a2.93,2.93,0,1,1-1.28-4A2.92,2.92,0,0,1,565.51,147.59Z" style="fill:#00cac1"/><path d="M573.86,151.85a2.93,2.93,0,1,1-1.28-3.95A2.93,2.93,0,0,1,573.86,151.85Z" style="fill:#ffb540"/><path d="M582,156a2.93,2.93,0,1,1-1.28-4A2.95,2.95,0,0,1,582,156Z" style="fill:#00cac1"/><path d="M590.38,160.28a2.94,2.94,0,1,1-1.28-3.95A2.95,2.95,0,0,1,590.38,160.28Z" style="fill:#ffb540"/><path d="M598.55,164.45a2.94,2.94,0,1,1-1.28-3.95A2.95,2.95,0,0,1,598.55,164.45Z" style="fill:#00cac1"/><path d="M540.68,168.58a2.94,2.94,0,1,1-1.28-3.94A2.93,2.93,0,0,1,540.68,168.58Z" style="fill:#00cac1"/><path d="M549,172.84a2.93,2.93,0,1,1-1.28-3.94A2.93,2.93,0,0,1,549,172.84Z" style="fill:#ffb540"/><path d="M557.2,177a2.93,2.93,0,1,1-1.28-3.94A2.93,2.93,0,0,1,557.2,177Z" style="fill:#00cac1"/><path d="M565.55,181.28a2.94,2.94,0,1,1-1.28-3.95A2.95,2.95,0,0,1,565.55,181.28Z" style="fill:#ffb540"/><path d="M573.71,185.45a2.93,2.93,0,1,1-1.28-3.95A2.92,2.92,0,0,1,573.71,185.45Z" style="fill:#00cac1"/><path d="M582.06,189.71a2.93,2.93,0,1,1-1.28-4A2.93,2.93,0,0,1,582.06,189.71Z" style="fill:#ffb540"/><path d="M590.23,193.88a2.94,2.94,0,1,1-1.28-3.95A2.95,2.95,0,0,1,590.23,193.88Z" style="fill:#00cac1"/><path d="M598.58,198.14a2.94,2.94,0,1,1-1.28-3.95A2.95,2.95,0,0,1,598.58,198.14Z" style="fill:#ffb540"/><path d="M525.06,203.29a2.93,2.93,0,1,1-1.28-3.94A2.92,2.92,0,0,1,525.06,203.29Z" style="fill:#ffb540"/><path d="M533.23,207.46a2.93,2.93,0,1,1-1.28-3.94A2.93,2.93,0,0,1,533.23,207.46Z" style="fill:#00cac1"/><path d="M541.58,211.73a2.94,2.94,0,1,1-1.28-3.95A2.93,2.93,0,0,1,541.58,211.73Z" style="fill:#ffb540"/><path d="M549.75,215.89a2.93,2.93,0,1,1-1.28-3.94A2.93,2.93,0,0,1,549.75,215.89Z" style="fill:#00cac1"/><path d="M558.1,220.16a2.94,2.94,0,1,1-1.28-3.95A2.95,2.95,0,0,1,558.1,220.16Z" style="fill:#ffb540"/><path d="M566.27,224.33a2.94,2.94,0,1,1-1.28-4A2.95,2.95,0,0,1,566.27,224.33Z" style="fill:#00cac1"/><path d="M574.62,228.59a2.94,2.94,0,1,1-1.28-4A2.95,2.95,0,0,1,574.62,228.59Z" style="fill:#ffb540"/><path d="M582.78,232.76a2.93,2.93,0,1,1-1.28-3.95A2.93,2.93,0,0,1,582.78,232.76Z" style="fill:#00cac1"/><path d="M525.6,234.06a2.94,2.94,0,1,1-1.28-3.94A2.93,2.93,0,0,1,525.6,234.06Z" style="fill:#00cac1"/><path d="M534,238.32a2.93,2.93,0,1,1-1.28-3.94A2.93,2.93,0,0,1,534,238.32Z" style="fill:#ffb540"/><path d="M542.12,242.49a2.93,2.93,0,1,1-1.28-3.94A2.93,2.93,0,0,1,542.12,242.49Z" style="fill:#00cac1"/><path d="M550.47,246.76a2.94,2.94,0,1,1-1.28-3.95A2.94,2.94,0,0,1,550.47,246.76Z" style="fill:#ffb540"/><path d="M558.63,250.92a2.93,2.93,0,1,1-1.28-3.94A2.92,2.92,0,0,1,558.63,250.92Z" style="fill:#00cac1"/><path d="M920.81,955.39c7.5,32.42-7.93,51-31,56.34s-45.1-4.59-52.6-37,5.7-75.83,25.46-80.4S913.32,923,920.81,955.39Z" style="fill:#ffabaa"/><path d="M897,927.51c-8.35,1.15-11.81,6.78-14.86,11.74-2.76,4.49-4.94,8-10.32,8.78s-8.44-2.1-12.31-5.68c-4.27-4-9.12-8.45-17.47-7.31a17.35,17.35,0,0,0-5.31,1.57c-.52,3-.93,6-1.2,9.07a10.72,10.72,0,0,1,7.37-4.36c5.38-.74,8.44,2.1,12.3,5.68,4.28,4,9.12,8.45,17.48,7.31s11.81-6.78,14.86-11.74c2.76-4.49,4.94-8,10.32-8.78s8.45,2.1,12.32,5.68a33,33,0,0,0,7.58,5.74,98.16,98.16,0,0,0-5.82-12.66C908.17,929.36,903.72,926.59,897,927.51Z" style="fill:#008f97"/><path d="M882,899.09a37.88,37.88,0,0,0-7.42,9.4c-2.89,4.71-3.71,5.52-5.78,5.81s-3.08-.28-7.13-4c-2.71-2.51-6.26-5.78-11.11-7.66A59.6,59.6,0,0,0,841,920.28a5.8,5.8,0,0,1,.65-.12c2.08-.29,3.08.28,7.14,4,4.5,4.18,11.31,10.49,22.64,8.94s16.19-9.46,19.41-14.7c2.89-4.71,3.7-5.53,5.78-5.81a4.88,4.88,0,0,1,1.2,0A73.66,73.66,0,0,0,882,899.09Z" style="fill:#008f97"/><path d="M920.07,986.89c-3.89-3.47-8.5-6.74-15.77-5.74-8.36,1.14-11.82,6.77-14.87,11.73-2.75,4.49-4.93,8-10.32,8.78s-8.44-2.09-12.3-5.68c-4.28-4-9.12-8.45-17.48-7.31a16.87,16.87,0,0,0-6.35,2.18,47.44,47.44,0,0,0,3.3,5.41,10.86,10.86,0,0,1,3.91-1.31c5.39-.73,8.44,2.1,12.31,5.68,4.27,4,9.12,8.45,17.47,7.31s11.82-6.77,14.87-11.74c2.75-4.49,4.93-8,10.32-8.77s8.33,2,12.09,5.47A37.63,37.63,0,0,0,920.07,986.89Z" style="fill:#008f97"/><path d="M920.81,955.39c0-.06,0-.11,0-.17-4.49-4-11-8.85-21-7.47-11.33,1.55-16.19,9.47-19.41,14.7-2.9,4.72-3.71,5.53-5.78,5.82s-3.08-.29-7.13-4c-4.51-4.18-11.32-10.49-22.65-8.94a22.86,22.86,0,0,0-9.62,3.53,85.38,85.38,0,0,0,2.05,15.91,75.81,75.81,0,0,0,2.44,8.25c.72-1.06,1.35-2.09,1.93-3,2.89-4.72,3.7-5.53,5.78-5.82s3.08.29,7.13,4c4.51,4.18,11.32,10.49,22.65,8.94s16.19-9.46,19.41-14.7c2.89-4.71,3.7-5.53,5.78-5.81s3.08.28,7.14,4c3,2.77,7,6.48,12.68,8.21A61.81,61.81,0,0,0,920.81,955.39Z" style="fill:#008f97"/><path d="M1225.83,876.16c-10.41,43.32,10,68.37,40.87,75.79s60.44-5.62,70.85-48.94-6.74-101.58-33.14-107.93S1236.25,832.84,1225.83,876.16Z" style="fill:#ff5b7d"/><path d="M1265.54,810.83l59.09,1.33a50.85,50.85,0,0,0-8.66-10.61l-36.72-.82A85.45,85.45,0,0,0,1265.54,810.83Z" style="fill:#00cac1"/><path d="M1246.41,832.43l88.12,2a109.73,109.73,0,0,0-3.81-10.5l-76.3-1.71Q1250.25,827,1246.41,832.43Z" style="fill:#00cac1"/><path d="M1233.69,854.16l105.67,2.37q-.72-5.32-1.8-10.45l-98.5-2.21C1237.12,847.23,1235.33,850.67,1233.69,854.16Z" style="fill:#00cac1"/><path d="M1225.87,876l114.72,2.56c.08-3.46,0-6.94-.15-10.41L1229,865.67A107.91,107.91,0,0,0,1225.87,876Z" style="fill:#00cac1"/><path d="M1223.1,898l115,2.57c.73-3.39,1.31-6.85,1.71-10.37l-116.06-2.6A83.94,83.94,0,0,0,1223.1,898Z" style="fill:#00cac1"/><path d="M1227.1,920.08l103.61,2.31a84.87,84.87,0,0,0,4.23-10.31l-110.8-2.48A54.89,54.89,0,0,0,1227.1,920.08Z" style="fill:#00cac1"/><path d="M1245,942.5,1313.4,944a53.62,53.62,0,0,0,10.25-10.18l-89.89-2A50.5,50.5,0,0,0,1245,942.5Z" style="fill:#00cac1"/><path d="M1320.59,911.05c4.88,31.42,25.16,42.41,47.54,38.93s38.36-20.1,33.48-51.52-32-65.21-51.16-62.24S1315.71,879.64,1320.59,911.05Z" style="fill:#008f97"/><circle cx="1361.09" cy="873.74" r="9.88" style="fill:#fff"/><path d="M1397.84,900.64a9.88,9.88,0,1,1-9.88-9.87A9.88,9.88,0,0,1,1397.84,900.64Z" style="fill:#fff"/><circle cx="1359.52" cy="914.74" r="9.88" style="fill:#ffb540"/><path d="M1331.07,870.44a9.86,9.86,0,0,0,1.49-19.6,78.68,78.68,0,0,0-7.87,17.21A9.78,9.78,0,0,0,1331.07,870.44Z" style="fill:#ffb540"/><path d="M1374.82,847.33c-5.45-5.21-11.17-9-16.61-10.49a9.84,9.84,0,1,0,16.61,10.49Z" style="fill:#fff"/><path d="M1386.62,870.44a9.87,9.87,0,0,0,9.88,9.87h0a102.9,102.9,0,0,0-7.94-15.72A9.75,9.75,0,0,0,1386.62,870.44Z" style="fill:#ffb540"/><path d="M1379.27,936.22a9.87,9.87,0,0,0-9.88,9.87,9.71,9.71,0,0,0,.69,3.55,42.75,42.75,0,0,0,18.06-7.81A9.85,9.85,0,0,0,1379.27,936.22Z" style="fill:#fff"/><path d="M1343.46,934.5a9.84,9.84,0,0,0-17.67-6,39.44,39.44,0,0,0,11.86,15A9.86,9.86,0,0,0,1343.46,934.5Z" style="fill:#ffb540"/><path d="M1320.44,909.92a9.86,9.86,0,1,0,3.27-19.15,10,10,0,0,0-3.72.73A85.54,85.54,0,0,0,1320.44,909.92Z" style="fill:#fff"/><path d="M1192.23,428.56s-14.15-.44-18.83,0c0,0-19.59,67.78,9.41,68.54s46.32-34.37,46.32-34.37-5.27,67.51-12.05,99.14-17.32,61.51-35.4,63.89-27.11-39.79-25.61-72.93c0,0-16.57-3-21.08,0,0,0-3.2,43.22,0,62.51,4.51,27.28,17.32,49.72,45.9,49.71,22.65,0,47.49-30.13,58-113.73,9.83-77.88,12.81-174,10.55-184.52,0,0-4.52-5.44-19.59-1.67,0,0,2.26,50.63-9,72.47-8.68,16.77-17.33,31.41-24.86,31.9S1192.23,428.56,1192.23,428.56Z" style="fill:#fff"/><path d="M925.68,564.88s-11-8.28-22.29-1.51c0,0,3.76,49-25.61,49-24.1,0-36.9-48-36.15-114s3.78-134.51,3-148.83c-.41-7.67-20.33-1.51-27.86,4.52,0,0-1.66,52.83-2.4,109.8-22.76-2.35-40.06,16.53-50.13,31.75.15-45.52,0-89.09-1-103.14-2.26-33.14-.75-76.07-9-79.84s-16.76,2.26-21.09,19.58c-4.51,18.08-19.95,70.8-59.49,48.21,0,0-6,13.18-3,21.84a33,33,0,0,0,28.25,10.54c27.11-3,34.26-34.64,34.26-34.64s9,227.45,9,244.77c0,0,12,5.28,21.09,0,0,0,.5-44,.8-93.85,19.44-33.71,40.24-38,50-37.88-.22,32.91,0,64.62,1.14,85.79,3.77,69.46,48.23,71.55,63.29,71.55C905.65,648.48,928.39,617.6,925.68,564.88Z" style="fill:#fff"/><path d="M960.08,414c-3.25-27.59-11.26-41.07-29.21-43-14.93-1.6-35.3,10-39.41,37.61,0,0-1.62,17.09,1.13,28.51,0,0,9.07,2.84,13.13,2,0,0-2.43-35.29,16.63-32.86s24.34,41.38,17,89.24c0,0-3.65-29.61-28-28.39S890,493,889.9,506.44c-.12,14.19,4.87,32.22,25.11,32.08,18.25-.13,26.22-16.67,27.53-27.62v24.34s11.05,2.43,17.54-.41C960.08,534.83,963.32,441.53,960.08,414Zm-45.5,104.71c-4.51.22-6.48-2-6.71-16s4.4-14.13,5.35-14.2c5.25-.38,6.59,9,6.74,14.63S920.57,518.36,914.58,518.66Z" style="fill:#fff"/><path d="M1067.2,388.64c-2.8-25.59-37.34-34.64-66.15-27.48-10.62,2.64-32.23,13.55-29.41,24.85,2.39,9.52,4.24,22,4.24,22s5.08,35.3,5.93,89,6.5,110.43-48.58,110.43c0,0,.18,21.39,3.67,29.38,1.93,4.41,32.28,11.29,49.71-1.7,28.81-21.46,28.51-53.9,26.55-108.6-1.43-40.07-8.19-98.7-8.19-98.7s8.64,11.43,29.52,8.71C1055.15,433.83,1070.21,416.13,1067.2,388.64Zm-38.45,24.28c-5.53.27-7.94-2.51-8.22-19.64s5.39-17.33,6.56-17.42c6.44-.46,8.08,11,8.26,17.95S1036.1,412.55,1028.75,412.92Z" style="fill:#fff"/><path d="M1161.57,433.06c-2.81-25.59-37.35-34.64-66.15-27.48-10.62,2.65-31.85,13.47-29.41,24.85.77,3.59,4.24,22,4.24,22s5.08,35.3,5.93,89,.62,80.11-54.45,80.11c0,0,.17,21.38,3.67,29.37,1.93,4.41,31,9.44,49.71-1.69,34.64-20.65,33-48.39,31.07-103.09a677.31,677.31,0,0,0-6.84-73.9s8.64,11.43,29.52,8.71C1149.52,478.25,1164.58,460.55,1161.57,433.06Zm-36.76,26.17c-5.53.28-7.94-2.5-8.22-19.63s5.39-17.34,6.56-17.42c6.44-.46,8.08,11,8.26,17.95S1132.17,458.87,1124.81,459.23Z" style="fill:#fff"/><path d="M1157.63,763.67c-3.05-33.7,3.22-51.39,18.24-51.9s11.16,32.9,11.16,32.9c3.12.81,10.37-.59,10.37-.59,5-17.4,2.45-37.81,2.45-37.81-1.68-19.43-16.94-28.77-28.68-28.58-14.12.22-21.12,9.09-25.18,28.06,0,0-6.36-10.79-13.14-11.16,0,0-7.08,2-8.81,6.56,0,0,18.38,23.23,13.87,105.28,0,0,17.31,2.15,22.58-1.72Z" style="fill:#6dbb4c"/><path d="M905,758.68s9-3,13.18,0c0,0-5,36.91,12.43,36.91,16.57,0,20.55-15.08,21.84-52.35.75-21.77-6.63-25-17-29-8.62-3.31-12-9-12.39-18.45-.25-6,.75-32.38,23.72-31.63s21.84,22.59,21.84,22.59.4,6.78,0,8.67c0,0-7.92,3.39-12.06.75,0,0,.38-18.45-8.66-18.45-6.41,0-11.3,4.52-12.05,17.32-.27,4.63,2,8.57,13.8,12.8,12.56,4.52,19.14,23,19,36.52-.25,19.22,2.36,85.49-39.92,85.49C890,829.85,905,758.68,905,758.68Z" style="fill:#6dbb4c"/><path d="M1036.33,765.71s5.9,41.39-13,40.67c-12.47-.47-15.39-23.16-14.82-44.62.33-12.53,1.43-43.12,2.29-66.44,15.65-1.31,32.12-2.36,38.34-1.65,0,0,1.51-13.56-3.38-17.32-2.36-1.81-18.36-.05-34.35,2.26.3-7.83.49-12.88.49-12.88s-17.58-4.67-22.66,2.11c0,0-.44,5.61-1,14.43-6.79,1.15-11.38,2-11.38,2s-1.13,8.28,0,14.31c0,0,4.14-.45,10.45-1.08-1,18-2,41-1.89,59.78.17,24.88-6.26,85.06,31.33,85.06,41.49,0,39.23-44.62,39.79-76.62C1056.5,765.71,1039.88,762.13,1036.33,765.71Z" style="fill:#6dbb4c"/><path d="M901.32,695.09c-.73-19.34-5.55-29.15-17.91-31.48-10.28-1.94-25.08,5-29.46,23.95,0,0-2.07,11.78-.79,19.86,0,0,6.15,2.48,9,2.14,0,0,.26-24.65,13.37-21.91s14.62,30.09,6.9,62.94c0,0-.9-20.78-17.87-21.28s-16.29,16.83-17.11,26.15c-.87,9.86,1.6,22.65,15.67,23.68,12.68.92,19.13-10.14,20.65-17.67l-1.35,16.91s7.54,2.3,12.21.68C894.64,779.06,902.05,714.43,901.32,695.09Zm-36.27,69.26c-3.12.16-4.48-1.41-4.64-11.08s3-9.79,3.71-9.84c3.63-.26,4.55,6.21,4.66,10.14S869.2,764.15,865.05,764.35Z" style="fill:#6dbb4c"/><path d="M817.33,728.46s-2.26,29.68-17.52,30.25c-12.71.47-22-11.87-20.89-36.72.9-19.82,13.18-28.23,16.1-22.88a19.09,19.09,0,0,0,18.08,13.28c14.68.56,26-11,26-24.29,0-11.3-4.52-30-28-33.52s-44.48,24.35-49.46,53.85c-4.23,25.12,2,80.23,38.19,80.21,27.7,0,33.86-42.93,32.45-60.18C832.3,728.46,824.39,725.32,817.33,728.46Zm-13.57-42.7c1.48-11.76,14.56-10.13,14.56-10.13,10.21,1.48,9.79,10.47,9.27,14.1-.58,4.08-6.87,1.18-11.8,1C810.58,690.58,802.61,694.87,803.76,685.76Z" style="fill:#6dbb4c"/><path d="M1107.39,763.34s.38,23.46-11.56,25c-9.95,1.3-18.15-7.71-19.06-27.3-.74-15.63,8.29-23.12,11-19.13a15,15,0,0,0,15.15,9.11,19.48,19.48,0,0,0,18.64-20.95c-.82-8.87-5.73-23.25-24.38-24.28s-33.15,22.34-34.92,45.86c-1.5,20,7.41,62.83,35.81,60.19,21.73-2,23.46-36.16,21.1-49.6C1119.14,762.25,1112.7,760.36,1107.39,763.34ZM1094,732.19c1.21-9.58,11.86-8.25,11.86-8.25,8.32,1.21,8,8.53,7.55,11.48-.47,3.33-5.6,1-9.61.84C1099.56,736.12,1093.07,739.61,1094,732.19Z" style="fill:#6dbb4c"/><g style="clip-path:url(#clip-path)"><polygon points="109.91 841.54 93.85 851.29 80.47 841.54 80.47 873.75 140.89 914.39 290.03 917.26 314.13 891.45 330.19 845.56 322.63 856.36 291.18 858.18 268.81 845.56 244.14 850.14 205.33 841.54 188.5 856.46 151.21 841.54 125.4 853.59 109.91 841.54" style="fill:#45554a"/></g><path d="M163.19,812.44s-38.69,33.84-26.63,128.65,46.23,17.42,46.23,16.08,11.73,3.35,38.19-.33c0,0,11.73,36.72,29.82,33.16s26.13-142.72-7.2-177.56C243.6,812.44,180.07,804.5,163.19,812.44Z" style="fill:#fffdfe"/><ellipse cx="202.87" cy="897.44" rx="33.34" ry="52.03" style="fill:#e7e7e4"/><g style="clip-path:url(#clip-path)"><polygon points="80.47 841.54 91.55 862.76 108.76 856.46 125.4 873.75 148.92 865.06 179.9 881.7 216.61 861.62 268.24 884.9 292.9 873.75 302.65 884.9 330.19 845.56 330.19 985.52 258.48 1024.53 139.17 1027.4 89.83 972.9 64.59 902.35 80.47 841.54" style="fill:#6dbb4c"/><g style="clip-path:url(#clip-path-3)"><circle cx="84.11" cy="874.52" r="16.08" style="fill:#396f22"/><circle cx="84.11" cy="928.12" r="16.08" transform="translate(-631.65 331.32) rotate(-45)" style="fill:#396f22"/><circle cx="84.11" cy="981.73" r="16.08" transform="translate(-669.55 347.02) rotate(-45)" style="fill:#ffb4a0"/><circle cx="137.71" cy="901.32" r="16.08" style="fill:#396f22"/><circle cx="137.71" cy="954.93" r="16.08" transform="translate(-336.41 114.66) rotate(-21.23)" style="fill:#396f22"/><circle cx="137.71" cy="1008.53" r="16.08" transform="translate(-879.96 987.52) rotate(-81.04)" style="fill:#396f22"/><circle cx="191.32" cy="874.52" r="16.08" style="fill:#396f22"/><circle cx="191.32" cy="928.12" r="16.08" transform="translate(-342.85 145.39) rotate(-22.66)" style="fill:#396f22"/><circle cx="191.32" cy="981.73" r="16.08" transform="translate(-363.51 149.53) rotate(-22.66)" style="fill:#396f22"/><circle cx="244.92" cy="901.32" r="16.08" style="fill:#396f22"/><circle cx="244.92" cy="954.93" r="16.08" transform="translate(-740.16 993.5) rotate(-77.86)" style="fill:#396f22"/><circle cx="244.92" cy="1008.53" r="16.08" transform="translate(-579 377.44) rotate(-38.9)" style="fill:#396f22"/><circle cx="298.53" cy="874.52" r="16.08" style="fill:#396f22"/><circle cx="298.53" cy="928.12" r="16.08" transform="translate(-568.85 482.93) rotate(-45)" style="fill:#396f22"/><circle cx="298.53" cy="981.73" r="16.08" transform="translate(-606.75 498.63) rotate(-45)" style="fill:#396f22"/></g></g><path d="M155.28,822.13s47.59,23.28,95.23,0C250.51,822.13,198.12,810.71,155.28,822.13Z" style="fill:#f5f6f1"/><path d="M283.83,766.25c0,46.5-13.6,61.6-84.19,61.6-59.4,0-84.19-15.1-84.19-61.6s37.69-80.17,84.19-80.17S283.83,719.76,283.83,766.25Z" style="fill:#fffdfe"/><path d="M168.05,777.1a4.86,4.86,0,1,1-4.86-4.86A4.86,4.86,0,0,1,168.05,777.1Z" style="fill:#22303d"/><path d="M243.6,777.1a4.86,4.86,0,1,1-4.86-4.86A4.86,4.86,0,0,1,243.6,777.1Z" style="fill:#22303d"/><path d="M156.66,789.3c0,2.42-3.9,4.38-8.71,4.38s-8.71-2-8.71-4.38,3.9-4.38,8.71-4.38S156.66,786.88,156.66,789.3Z" style="fill:#ffb4a0"/><path d="M264.54,789.3c0,2.42-3.9,4.38-8.71,4.38s-8.72-2-8.72-4.38,3.9-4.38,8.72-4.38S264.54,786.88,264.54,789.3Z" style="fill:#ffb4a0"/><path d="M224,801.54s-1,8.56-10.72,7.89-10.37-7.71-10.37-10.06" style="fill:none;stroke:#22303d;stroke-linecap:round;stroke-linejoin:round;stroke-width:2.6802061652719975px"/><path d="M181.78,801.54s1,8.56,10.73,7.89,10.36-7.71,10.36-10.06" style="fill:none;stroke:#22303d;stroke-linecap:round;stroke-linejoin:round;stroke-width:2.6802061652719975px"/><path d="M209.93,795.73l-5,5a3,3,0,0,1-4.27,0l-5.85-5.85a3,3,0,0,1,2.14-5.15h12a2.88,2.88,0,0,1,2,4.92Z" style="fill:#ffb4a0"/><path d="M185.8,705.57c-4.4,2-11.09,8.75-7.06,13.8,4.41,5.51,11.76,1.86,14.93-2.75-5.68,8.25.24,19.43,13.67,14.81,6.12-2.1,3.45-12.91,1.92-18.16.89,3,2.9,6.68,5.56,8.46,4.17,2.79,11.52.33,11.92-5.14.27-3.74-5-11-9.11-11" style="fill:none;stroke:#e7e7e4;stroke-linecap:round;stroke-linejoin:round;stroke-width:2.6802061652719975px"/><path d="M185,693.17s11.73-154.45-77.72-111.9c-20.68,9.84-62.67,33.23-48.53,62.82a31.89,31.89,0,0,0,11.47,12.85c20.53,13.22,37.53-15.39,47.11-29.1,17.08-24.46,31.49-7.7,40.54,13.74S175,696.86,175,696.86,182,700.21,185,693.17Z" style="fill:#fffdfe"/><path d="M181.34,694.18S174,564.86,124.05,592s-42.21,39.2-39.87,41.88a7.29,7.29,0,0,0,9,1.89c9.37-4.26,16.28-11.7,23.09-19.17,5.83-6.4,13.69-17.76,23.55-16.23,4.31.66,8.07,3.45,10.8,6.84,5.39,6.7,9.51,15.73,12.81,23.62a243.85,243.85,0,0,1,9.27,27.61C176.1,670.22,178.87,682.17,181.34,694.18Z" style="fill:#ffb4a0"/><path d="M214.59,693.17s-11.73-154.45,77.73-111.9C313,591.11,355,614.5,340.85,644.09a32,32,0,0,1-11.47,12.85c-20.54,13.22-37.54-15.39-47.11-29.1-17.09-24.46-31.5-7.7-40.54,13.74s-17.09,55.28-17.09,55.28S217.61,700.21,214.59,693.17Z" style="fill:#fffdfe"/><path d="M218.28,694.18S225.65,564.86,275.57,592s42.21,39.2,39.86,41.88a7.28,7.28,0,0,1-9,1.89c-9.37-4.26-16.29-11.7-23.1-19.17-5.82-6.4-13.69-17.76-23.55-16.23-4.31.66-8.07,3.45-10.8,6.84-5.38,6.7-9.51,15.73-12.8,23.62a243.9,243.9,0,0,0-9.28,27.61C223.52,670.22,220.74,682.17,218.28,694.18Z" style="fill:#ffb4a0"/><path d="M149.62,860c-.56,1.34.67,4.86.93,6.18A66.5,66.5,0,0,0,155,880.53c5.22,11.69,15.79,21.33,29.52,19.23a7.22,7.22,0,0,0,6.18-10.15c-2.24-6.83-5.47-13.28-8.65-19.71-2.55-5.16-7.28-11.85-5.93-17.93C176.76,849,160.34,834.55,149.62,860Z" style="fill:#fffdfe"/><path d="M253.4,860c.56,1.34-.67,4.86-.93,6.18a67.07,67.07,0,0,1-4.42,14.34c-5.22,11.69-15.79,21.33-29.52,19.23a7.23,7.23,0,0,1-6.19-10.15c2.25-6.83,5.48-13.28,8.66-19.71,2.55-5.16,7.28-11.85,5.93-17.93C226.26,849,242.68,834.55,253.4,860Z" style="fill:#fffdfe"/><g style="clip-path:url(#clip-path-4)"><polygon points="1629.21 841.54 1613.15 851.29 1599.76 841.54 1599.76 873.75 1660.18 914.39 1809.33 917.26 1833.42 891.45 1849.49 845.56 1841.92 856.36 1810.48 858.18 1788.11 845.56 1763.44 850.14 1724.63 841.54 1707.8 856.46 1670.51 841.54 1644.7 853.59 1629.21 841.54" style="fill:#45554a"/></g><path d="M1682.49,812.44s-38.7,33.84-26.64,128.65,46.24,17.42,46.24,16.08,11.72,3.35,38.19-.33c0,0,11.73,36.72,29.82,33.16s26.13-142.72-7.21-177.56C1762.89,812.44,1699.37,804.5,1682.49,812.44Z" style="fill:#fffdfe"/><ellipse cx="1722.17" cy="897.44" rx="33.34" ry="52.03" style="fill:#e7e7e4"/><g style="clip-path:url(#clip-path-4)"><polygon points="1599.76 841.54 1610.85 862.76 1628.06 856.46 1644.7 873.75 1668.22 865.06 1699.19 881.7 1735.9 861.62 1787.53 884.9 1812.2 873.75 1821.95 884.9 1849.49 845.56 1849.49 985.52 1777.78 1024.53 1658.46 1027.4 1609.13 972.9 1583.89 902.35 1599.76 841.54" style="fill:#6dbb4c"/><g style="clip-path:url(#clip-path-6)"><circle cx="1603.41" cy="874.52" r="16.08" style="fill:#396f22"/><circle cx="1603.41" cy="928.12" r="16.08" transform="translate(-186.66 1405.62) rotate(-45)" style="fill:#396f22"/><circle cx="1603.41" cy="981.73" r="16.08" transform="translate(-224.56 1421.32) rotate(-45)" style="fill:#ffb4a0"/><circle cx="1657.01" cy="901.32" r="16.08" style="fill:#396f22"/><circle cx="1657.01" cy="954.93" r="16.08" transform="translate(-233.33 664.76) rotate(-21.23)" style="fill:#396f22"/><circle cx="1657.01" cy="1008.53" r="16.08" transform="translate(402.76 2488.28) rotate(-81.04)" style="fill:#396f22"/><circle cx="1710.61" cy="874.52" r="16.08" style="fill:#396f22"/><circle cx="1710.61" cy="928.12" r="16.08" transform="translate(-225.54 730.8) rotate(-22.66)" style="fill:#396f22"/><circle cx="1710.61" cy="981.73" r="16.08" transform="translate(-246.19 734.94) rotate(-22.66)" style="fill:#396f22"/><circle cx="1764.22" cy="901.32" r="16.08" style="fill:#396f22"/><circle cx="1764.22" cy="954.93" r="16.08" transform="translate(459.56 2478.8) rotate(-77.86)" style="fill:#396f22"/><circle cx="1764.22" cy="1008.53" r="16.08" transform="translate(-242.09 1331.49) rotate(-38.9)" style="fill:#396f22"/><circle cx="1817.82" cy="874.52" r="16.08" style="fill:#396f22"/><circle cx="1817.82" cy="928.12" r="16.08" transform="translate(-123.85 1557.24) rotate(-45)" style="fill:#396f22"/><circle cx="1817.82" cy="981.73" r="16.08" transform="translate(-161.76 1572.94) rotate(-45)" style="fill:#396f22"/></g></g><path d="M1674.58,822.13s47.59,23.28,95.23,0C1769.81,822.13,1717.42,810.71,1674.58,822.13Z" style="fill:#f5f6f1"/><path d="M1803.12,766.25c0,46.5-13.59,61.6-84.18,61.6-59.4,0-84.19-15.1-84.19-61.6s37.69-80.17,84.19-80.17S1803.12,719.76,1803.12,766.25Z" style="fill:#fffdfe"/><path d="M1687.35,777.1a4.86,4.86,0,1,1-4.86-4.86A4.86,4.86,0,0,1,1687.35,777.1Z" style="fill:#22303d"/><path d="M1762.89,777.1a4.86,4.86,0,1,1-4.85-4.86A4.85,4.85,0,0,1,1762.89,777.1Z" style="fill:#22303d"/><path d="M1676,789.3c0,2.42-3.89,4.38-8.71,4.38s-8.71-2-8.71-4.38,3.9-4.38,8.71-4.38S1676,786.88,1676,789.3Z" style="fill:#ffb4a0"/><path d="M1783.83,789.3c0,2.42-3.9,4.38-8.71,4.38s-8.71-2-8.71-4.38,3.9-4.38,8.71-4.38S1783.83,786.88,1783.83,789.3Z" style="fill:#ffb4a0"/><path d="M1743.26,801.54s-1,8.56-10.73,7.89-10.36-7.71-10.36-10.06" style="fill:none;stroke:#22303d;stroke-linecap:round;stroke-linejoin:round;stroke-width:2.6802061652719975px"/><path d="M1701.08,801.54s1,8.56,10.72,7.89,10.37-7.71,10.37-10.06" style="fill:none;stroke:#22303d;stroke-linecap:round;stroke-linejoin:round;stroke-width:2.6802061652719975px"/><path d="M1729.22,795.73l-5,5a3,3,0,0,1-4.26,0l-5.85-5.85a3,3,0,0,1,2.14-5.15h12a2.88,2.88,0,0,1,2,4.92Z" style="fill:#ffb4a0"/><path d="M1726.63,731.43c6.12-2.1,3.46-12.91,1.92-18.16.89,3,2.91,6.68,5.57,8.46,4.16,2.79,11.52.33,11.92-5.14.27-3.74-5-11-9.11-11" style="fill:none;stroke:#e7e7e4;stroke-linecap:round;stroke-linejoin:round;stroke-width:2.6802061652719975px"/><path d="M1705.1,705.57c-4.4,2-11.09,8.75-7.06,13.8" style="fill:none;stroke:#e7e7e4;stroke-linecap:round;stroke-linejoin:round;stroke-width:2.6802061652719975px"/><path d="M1704.32,693.17s11.73-154.45-77.73-111.9c-20.67,9.84-62.66,33.23-48.53,62.82a32,32,0,0,0,11.48,12.85c20.53,13.22,37.53-15.39,47.11-29.1,17.08-24.46,31.49-7.7,40.53,13.74s17.09,55.28,17.09,55.28S1701.31,700.21,1704.32,693.17Z" style="fill:#fffdfe"/><path d="M1700.64,694.18s-7.37-129.32-57.29-102.19-42.22,39.2-39.87,41.88a7.28,7.28,0,0,0,9,1.89c9.37-4.26,16.29-11.7,23.1-19.17,5.83-6.4,13.69-17.76,23.55-16.23,4.31.66,8.07,3.45,10.8,6.84,5.39,6.7,9.51,15.73,12.81,23.62a245.85,245.85,0,0,1,9.27,27.61C1695.39,670.22,1698.17,682.17,1700.64,694.18Z" style="fill:#ffb4a0"/><path d="M1733.89,693.17s-11.73-154.45,77.72-111.9c20.68,9.84,62.67,33.23,48.54,62.82a32,32,0,0,1-11.48,12.85c-20.53,13.22-37.53-15.39-47.11-29.1-17.08-24.46-31.49-7.7-40.53,13.74s-17.09,55.28-17.09,55.28S1736.9,700.21,1733.89,693.17Z" style="fill:#fffdfe"/><path d="M1737.57,694.18s7.37-129.32,57.29-102.19,42.22,39.2,39.87,41.88a7.28,7.28,0,0,1-9,1.89c-9.37-4.26-16.29-11.7-23.1-19.17-5.83-6.4-13.69-17.76-23.55-16.23-4.31.66-8.07,3.45-10.8,6.84-5.39,6.7-9.51,15.73-12.81,23.62a243.85,243.85,0,0,0-9.27,27.61C1742.82,670.22,1740,682.17,1737.57,694.18Z" style="fill:#ffb4a0"/><path d="M1668.92,860c-.56,1.34.67,4.86.93,6.18a66.5,66.5,0,0,0,4.42,14.34c5.21,11.69,15.79,21.33,29.52,19.23a7.22,7.22,0,0,0,6.18-10.15c-2.25-6.83-5.48-13.28-8.65-19.71-2.55-5.16-7.28-11.85-5.93-17.93C1696.06,849,1679.64,834.55,1668.92,860Z" style="fill:#fffdfe"/><path d="M1772.69,860c.56,1.34-.67,4.86-.92,6.18a67.09,67.09,0,0,1-4.43,14.34c-5.21,11.69-15.78,21.33-29.51,19.23a7.22,7.22,0,0,1-6.19-10.15c2.25-6.83,5.48-13.28,8.66-19.71,2.54-5.16,7.28-11.85,5.93-17.93C1745.56,849,1762,834.55,1772.69,860Z" style="fill:#fffdfe"/></g></g></g></svg>