<svg xmlns="http://www.w3.org/2000/svg" xmlns:xlink="http://www.w3.org/1999/xlink" width="810.044" height="547.272" viewBox="0 0 810.044 547.272">
  <defs>
    <linearGradient id="linear-gradient" x1="0.5" x2="0.5" y2="1" gradientUnits="objectBoundingBox">
      <stop offset="0" stop-color="#f99603"/>
      <stop offset="1" stop-color="#e65e3e"/>
    </linearGradient>
  </defs>
  <g id="Group_1439" data-name="Group 1439" transform="translate(-63.449 -2824.5)">
    <path id="Path_5907" data-name="Path 5907" d="M408.609,56.253c27.48-20.375,70.615-24.552,109.884-22.93,123.328,5.11,234.651,54.7,330.95,110.8,34.866,20.3,69.185,42.193,91.811,70.162,46.1,56.933,32.4,135.8-31.648,182.7-21.8,15.955-48.215,28.212-75.338,39.034C786.044,455.3,761.7,568.272,706.97,572.7c-39.024,3.135-211.632-89.15-250.439-93.531-108.407-12.272-184.25,3.187-273.464-43.144-39.118-20.32-1.139-95.882-17.265-128.741s-5.8-74.55,34.141-94.04c16.52-8.048,36.277-11.684,55.61-15.1,28.468-5.023,57.388-9.976,83.072-20.187,26.54-10.548,57.953-30.947,52.684-54.3C385.7,98.634,381.166,76.628,408.609,56.253Z" transform="translate(-95.066 2798.993)" fill="url(#linear-gradient)"/>
    <g id="Group_1438" data-name="Group 1438" transform="translate(119 2824.5)">
      <path id="Path_5876" data-name="Path 5876" d="M831.938,237.649a44.391,44.391,0,0,1,44.33-42.071c1.349,0,2.681.07,4,.188a58.979,58.979,0,0,1,101.953-.048c1.112-.084,2.232-.14,3.366-.14a44.391,44.391,0,0,1,44.329,42.07" transform="translate(-285.167 -118.593)" fill="#f2f2f2"/>
      <path id="Path_5877" data-name="Path 5877" d="M844.569,232.984a44.391,44.391,0,0,1,44.33-42.071c1.349,0,2.681.07,4,.188a58.979,58.979,0,0,1,101.953-.048c1.112-.084,2.232-.14,3.366-.14a44.391,44.391,0,0,1,44.33,42.07" transform="translate(-288.553 -117.343)" fill="none" stroke="#3f3d56" stroke-miterlimit="10" stroke-width="1"/>
      <path id="Path_5878" data-name="Path 5878" d="M155.988,558.973c3.993-90.672,68.154-162.756,146.721-162.756a127.26,127.26,0,0,1,13.239.728c34.928-70.235,99.172-113.465,168.675-113.5S618.4,326.562,653.39,396.759c3.682-.323,7.388-.542,11.14-.542,78.568,0,142.729,72.084,146.721,162.756" transform="translate(-103.999 -149.955)" fill="#f2f2f2"/>
      <path id="Path_5879" data-name="Path 5879" d="M197.794,543.532c3.993-90.672,68.154-162.756,146.721-162.756a127.252,127.252,0,0,1,13.239.728C392.682,311.27,456.925,268.039,526.429,268S660.211,311.122,695.2,381.318c3.682-.323,7.388-.542,11.14-.542,78.568,0,142.729,72.084,146.721,162.756" transform="translate(-115.203 -145.817)" fill="none" stroke="#3f3d56" stroke-miterlimit="10" stroke-width="1"/>
      <path id="Path_5880" data-name="Path 5880" d="M84.962,204.442a60.064,60.064,0,0,1,59.98-56.925c1.825,0,3.628.1,5.412.255a79.8,79.8,0,0,1,137.948-.065c1.505-.113,3.02-.189,4.554-.189a60.063,60.063,0,0,1,59.98,56.923" transform="translate(-84.962 -102.953)" fill="#f2f2f2"/>
      <path id="Path_5881" data-name="Path 5881" d="M102.053,198.13a60.064,60.064,0,0,1,59.98-56.925c1.825,0,3.628.1,5.412.255a79.8,79.8,0,0,1,137.948-.065c1.505-.113,3.02-.189,4.554-.189a60.063,60.063,0,0,1,59.98,56.923" transform="translate(-89.543 -101.261)" fill="none" stroke="#3f3d56" stroke-miterlimit="10" stroke-width="1"/>
      <path id="Path_5882" data-name="Path 5882" d="M494.111,336.921s10.248,24.887-5.124,30.743c0,0,21.959,9.516,27.083,7.32s8.784-7.32,8.784-8.784-5.124-2.2-5.124-2.2-9.516.732-2.2-23.423Z" transform="translate(-193.249 -164.289)" fill="#a0616a"/>
      <circle id="Ellipse_41" data-name="Ellipse 41" cx="18.299" cy="18.299" r="18.299" transform="translate(294.274 149.209)" fill="#a0616a"/>
      <ellipse id="Ellipse_42" data-name="Ellipse 42" cx="16.104" cy="22.691" rx="16.104" ry="22.691" transform="translate(284.392 140.791)" fill="#ff6584"/>
      <ellipse id="Ellipse_43" data-name="Ellipse 43" cx="16.104" cy="22.691" rx="16.104" ry="22.691" transform="translate(272.681 133.471)" fill="#ff6584"/>
      <ellipse id="Ellipse_44" data-name="Ellipse 44" cx="8.052" cy="11.346" rx="8.052" ry="11.346" transform="translate(264.629 128.347)" fill="#ff6584"/>
      <path id="Path_5883" data-name="Path 5883" d="M536.988,338.494s4.392-8.784,20.5-13.176,47.579-57.094,47.579-57.094-1.464-31.475,5.856-21.959,1.464,28.547,1.464,28.547l-18.888,32.625a71.063,71.063,0,0,1-13.082,16.415c-11.678,10.869-32.543,30.013-34.64,30.013C542.843,353.866,536.988,338.494,536.988,338.494Z" transform="translate(-206.114 -139.511)" fill="#a0616a"/>
      <path id="Path_5884" data-name="Path 5884" d="M501.988,543.921s5.124,62.218,3.66,68.074-5.856,17.568,1.464,51.971-1.464,32.207-1.464,32.207l23.423,10.248s-8.052-39.527-6.588-50.507.732-33.671,5.124-49.043,5.124-58.558,5.124-58.558Z" transform="translate(-196.734 -219.769)" fill="#fbbebe"/>
      <path id="Path_5885" data-name="Path 5885" d="M501.988,543.921s5.124,62.218,3.66,68.074-5.856,17.568,1.464,51.971-1.464,32.207-1.464,32.207l23.423,10.248s-8.052-39.527-6.588-50.507.732-33.671,5.124-49.043,5.124-58.558,5.124-58.558Z" transform="translate(-196.734 -219.769)" fill="#a0616a" opacity="0.786"/>
      <path id="Path_5886" data-name="Path 5886" d="M527.875,751.45c-1.815,1.261-6.477,2.54-15.192-6.72,0,0-5.124-7.32-9.516,0s-1.464,8.052,1.464,11.712c2.826,3.533,25.434,27.529,34.9,26.555a4.516,4.516,0,0,0,.967-.2c8.784-2.928-3.66-12.444-3.66-12.444s-8.158-12.551-8.2-18.478a.489.489,0,0,0-.758-.421Z" transform="translate(-196.45 -272.718)" fill="#f97d02"/>
      <path id="Path_5887" data-name="Path 5887" d="M440.868,533.921s-12.444,28.547-17.568,43.187c-2.69,7.686-10.827,10.126-17.951,10.71a61.394,61.394,0,0,0-25.084,7.559c-10.245,5.751-24.225,12.276-33.091,11.01-15.372-2.2-2.928,21.959-2.928,21.959s22.691-13.908,43.919-15.372,43.919-3.66,54.166-16.836,35.135-54.9,35.135-54.9Z" transform="translate(-153.181 -217.089)" fill="#a0616a"/>
      <path id="Path_5888" data-name="Path 5888" d="M338.214,648.179s-7.32-5.124-1.464-10.248,8.052-9.516,8.052-9.516-10.248-10.98-13.908-5.124-19.763,32.207-16.1,40.259,7.32,10.248,11.712,1.464,15.468-15.7,15.468-15.7Z" transform="translate(-146.417 -240.581)" fill="#f97d02"/>
      <path id="Path_5889" data-name="Path 5889" d="M517.576,376.031s-2.433,4.867-25.046.181a13.89,13.89,0,0,0-15.3,7.139c-2.836,5.673-3.2,13.908,6.679,24.155,0,0,17.568,19.763,8.784,27.815s41.723-5.124,41.723-5.124-6.588-4.392-.732-17.568c4.6-10.352,4.231-16.186.666-20.7a22.606,22.606,0,0,1-4.274-9.551c-1-4.9-3.469-11.04-9.568-11.476,0,0-6.412-.376-6.866,1.276S519.04,375.3,517.576,376.031Z" transform="translate(-189.631 -173.388)" fill="#5d00ad"/>
      <path id="Path_5890" data-name="Path 5890" d="M462.96,394.05c-.151-1.032-.336-2.058-.466-3.093-.442-3.534-2.122-12.1-7.935-10.623-7.291,1.848-15.343,20.148-15.343,20.148s-6.588,20.5-16.1,25.619-35.867,31.475-35.867,31.475-21.959,5.856-13.908,11.712,18.3-3.66,18.3-3.66l25.889-15.533a74.112,74.112,0,0,0,22.835-21.47c5.393-7.811,12.147-16.839,16.427-19.822a14.112,14.112,0,0,0,5.532-7.231,16.787,16.787,0,0,0,.64-7.521Z" transform="translate(-161.777 -175.879)" fill="#a0616a"/>
      <path id="Path_5891" data-name="Path 5891" d="M474.126,454.181s-33.671-4.392-52.7,18.3-32.939,16.1-31.475,19.763,71.734,46.847,112.725,41.723c24.955-3.119,38.245-5.967,44.823-7.718a12.769,12.769,0,0,0,7.057-4.733,12.959,12.959,0,0,1,3.568-3.24,6.336,6.336,0,0,0,1.7-8.939c-11.609-16.8-43.126-61.288-52.028-62.475C496.818,445.4,474.126,454.181,474.126,454.181Z" transform="translate(-166.677 -193.711)" fill="#5d00ad"/>
      <ellipse id="Ellipse_45" data-name="Ellipse 45" cx="11.712" cy="8.418" rx="11.712" ry="8.418" transform="translate(301.228 139.327)" fill="#ff6584"/>
      <path id="Path_5892" data-name="Path 5892" d="M822.136,186.789a82.989,82.989,0,0,1,3.052-11.385c1.323-3.618,3-6.7,4.862-6.7,4.522,0-15.828-19.22-15.828-19.22s-1.277,2.374-3.392,5.574a78.845,78.845,0,0,1-5.065,6.9,37.807,37.807,0,0,1-8.5,7.88C788.219,175.483,822.136,186.789,822.136,186.789Z" transform="translate(-275.463 -114.051)" fill="#efb7b9"/>
      <path id="Path_5893" data-name="Path 5893" d="M911.5,302.834s45.337,28.644,31.367,33.351-37.112-28.945-37.112-28.945Z" transform="translate(-304.952 -155.153)" fill="#efb7b9"/>
      <path id="Path_5894" data-name="Path 5894" d="M822.008,213.668s21.714,15.833,28.059,27.878S889.4,280.355,889.4,280.355,882.593,293.814,879.3,293s-71.185-51.32-78.328-55.41S804.716,208.24,822.008,213.668Z" transform="translate(-276.272 -131.051)" fill="#6e16c7"/>
      <path id="Path_5895" data-name="Path 5895" d="M822.008,213.668s21.714,15.833,28.059,27.878S889.4,280.355,889.4,280.355,882.593,293.814,879.3,293s-71.185-51.32-78.328-55.41S804.716,208.24,822.008,213.668Z" transform="translate(-276.272 -131.051)" opacity="0.1"/>
      <path id="Path_5896" data-name="Path 5896" d="M916.643,252.964s50.876,16.959,38.439,24.873-42.962-19.22-42.962-19.22Z" transform="translate(-306.658 -141.787)" fill="#efb7b9"/>
      <path id="Path_5897" data-name="Path 5897" d="M867.3,568.513s21.481-9.045,19.22,4.522-12.436,26-12.436,32.786-19.22,21.481-22.611,18.089,5.653-16.959,3.392-24.873-4.522-26-4.522-26Z" transform="translate(-290.099 -225.569)" fill="#55536e"/>
      <path id="Path_5898" data-name="Path 5898" d="M867.3,568.513s21.481-9.045,19.22,4.522-12.436,26-12.436,32.786-19.22,21.481-22.611,18.089,5.653-16.959,3.392-24.873-4.522-26-4.522-26Z" transform="translate(-290.099 -225.569)" fill="#f97d02" opacity="0.768"/>
      <path id="Path_5899" data-name="Path 5899" d="M858.03,582.413s21.481-9.045,19.22,4.522-12.436,26-12.436,32.786S845.594,641.2,842.2,637.811s5.653-16.958,3.392-24.872-4.522-26-4.522-26Z" transform="translate(-287.615 -229.294)" fill="#f97d02"/>
      <path id="Path_5900" data-name="Path 5900" d="M796.221,470.744s66.7,63.312,64.442,68.965S843.7,557.8,843.7,557.8,792.829,491.094,796.221,470.744Z" transform="translate(-275.551 -200.156)" fill="#3f3d56"/>
      <path id="Path_5901" data-name="Path 5901" d="M796.221,470.744s66.7,63.312,64.442,68.965S843.7,557.8,843.7,557.8,792.829,491.094,796.221,470.744Z" transform="translate(-275.551 -200.156)" fill="#6e16c7" opacity="0.947"/>
      <path id="Path_5902" data-name="Path 5902" d="M757.6,313.825s16.958,16.959,12.436,49.745,3.392,64.442,12.436,74.618,46.353,68.965,46.353,68.965-15.828,26-28.264,12.436-49.745-68.965-49.745-68.965-33.917-66.7-37.309-84.793-4.522-46.353,4.522-52.006S757.6,313.825,757.6,313.825Z" transform="translate(-252.758 -157.425)" fill="#5d00ad"/>
      <path id="Path_5903" data-name="Path 5903" d="M812.961,157.384c13.2,2.736,11.894,3.267,20.011,6.116.045-.136.09-.249.136-.362,1.244-2.962,2.024.927,3.821.927,4.522,0-15.828-19.22-15.828-19.22s-.769,1.425-2.092,3.561c-.4.622-.825,1.3-1.3,2.012-.4.6-.825,1.232-1.278,1.888Z" transform="translate(-280.081 -112.809)" opacity="0.1"/>
      <circle id="Ellipse_46" data-name="Ellipse 46" cx="21.481" cy="21.481" r="21.481" transform="translate(535.367 17.34)" fill="#efb7b9"/>
      <path id="Path_5904" data-name="Path 5904" d="M770.948,175.737s32.786,3.392,39.57,18.089S768.687,279.749,765.3,280.88s-50.876,6.783-50.876,6.783,2.261-72.356,46.353-99.49C760.773,188.173,770.948,183.651,770.948,175.737Z" transform="translate(-253.67 -121.088)" fill="#6e16c7"/>
      <path id="Path_5905" data-name="Path 5905" d="M809.608,186.536s24.872,10.175,33.917,20.35,47.484,28.264,47.484,28.264-3.392,14.7-6.783,14.7-81.4-32.787-89.315-35.048S791.518,185.406,809.608,186.536Z" transform="translate(-274.24 -123.973)" fill="#6e16c7"/>
      <path id="Path_5906" data-name="Path 5906" d="M840.9,146.533s5.653-5.653-5.653-10.175c0,0,11.306-4.522,13.567-11.306s10.175-18.089,16.959,0S885,166.883,844.3,166.883c0,0-10.175,2.261-10.175-6.783a16.959,16.959,0,0,1,6.784-13.567Z" transform="translate(-285.752 -104.886)" fill="#fd570a"/>
    </g>
    <circle id="Ellipse_47" data-name="Ellipse 47" cx="21.274" cy="21.274" r="21.274" transform="translate(212.675 2979.764)" fill="#5d00ad" opacity="0.1"/>
    <circle id="Ellipse_48" data-name="Ellipse 48" cx="13.169" cy="13.169" r="13.169" transform="translate(176.206 2937.217)" fill="#5d00ad" opacity="0.1"/>
    <circle id="Ellipse_49" data-name="Ellipse 49" cx="8.104" cy="8.104" r="8.104" transform="translate(112.392 2971.66)" fill="#5d00ad" opacity="0.1"/>
  </g>
</svg>
