<svg id="Layer_1" data-name="Layer 1" xmlns="http://www.w3.org/2000/svg" xmlns:xlink="http://www.w3.org/1999/xlink" viewBox="0 0 982.85 640"><defs><radialGradient id="radial-gradient" cx="2193.44" cy="1915.6" r="236.36" gradientTransform="matrix(0.9, 0, 0, -0.9, 277.14, 1500.73)" gradientUnits="userSpaceOnUse"><stop offset="0.01" stop-color="#ff8c3d"/><stop offset="0.37" stop-color="#e56268"/><stop offset="1" stop-color="#b413bb"/></radialGradient><clipPath id="clip-path" transform="translate(-1587.7 481.37)"><path d="M1810.48-157.56c-31-29.09-66.6-50.48-100-66-8.54-4-16.93-7.58-25.06-10.82l-1.14-.45a2.44,2.44,0,0,1,.28.26c20.55,22.79-13.63,50.14-38.3,61.28-27.65,12.49-47.53,7.38-47.53,7.38-7.23-17.29-6.12-93.46-6.09-95.43l-.3,0c-4.39,99.37,24.77,180,58.24,234.08l.14.22.16-.23a398.72,398.72,0,0,0,48.37,63.18c0,.06-.09.12-.14.17,13.39,14.15,22.5,21.44,22.5,21.44s21.08-6.46,47.14-17.58c4.64-2,9.43-4.1,14.29-6.38,3.78-1.74,7.59-3.58,11.4-5.52,6.11-3.06,12.22-6.33,18.13-9.78,4.93-2.88,10.73-8.1,16.79-14.54,2.23-2.36,4.49-4.88,6.76-7.51,4-4.67,8.12-9.71,12-14.76,15.9-20.42,29.4-41.18,29.4-41.18A251.13,251.13,0,0,0,1862.9-91,272.42,272.42,0,0,0,1810.48-157.56Zm-69.37-20.51a3.84,3.84,0,0,1,3.83,3.83,3.83,3.83,0,0,1-3.83,3.83,3.82,3.82,0,0,1-3.83-3.83A3.83,3.83,0,0,1,1741.11-178.07Zm-65.11,0a3.84,3.84,0,0,1,3.83,3.83,3.83,3.83,0,0,1-3.83,3.83,3.82,3.82,0,0,1-3.83-3.83A3.83,3.83,0,0,1,1676-178.07Zm-24.9,24.9a3.82,3.82,0,0,1,3.83,3.83,3.83,3.83,0,0,1-3.83,3.83,3.84,3.84,0,0,1-3.83-3.83A3.83,3.83,0,0,1,1651.1-153.17ZM1643.44-113a3.83,3.83,0,0,1-3.83-3.83,3.84,3.84,0,0,1,3.83-3.83,3.83,3.83,0,0,1,3.83,3.83A3.82,3.82,0,0,1,1643.44-113Zm7.66,32.56a3.83,3.83,0,0,1-3.83-3.83,3.83,3.83,0,0,1,3.83-3.83,3.82,3.82,0,0,1,3.83,3.83A3.82,3.82,0,0,1,1651.1-80.4ZM1676-55.5a3.83,3.83,0,0,1-3.83-3.83,3.82,3.82,0,0,1,3.83-3.83,3.83,3.83,0,0,1,3.83,3.83A3.84,3.84,0,0,1,1676-55.5Zm32.55,7.66a3.84,3.84,0,0,1-3.83-3.83,3.83,3.83,0,0,1,3.83-3.83,3.82,3.82,0,0,1,3.83,3.83A3.83,3.83,0,0,1,1708.55-47.84Zm32.56-7.66a3.83,3.83,0,0,1-3.83-3.83,3.82,3.82,0,0,1,3.83-3.83,3.83,3.83,0,0,1,3.83,3.83A3.84,3.84,0,0,1,1741.11-55.5Zm-33.52-6.71A54.57,54.57,0,0,1,1653-116.79a54.57,54.57,0,0,1,54.57-54.57,54.57,54.57,0,0,1,54.58,54.57A54.57,54.57,0,0,1,1707.59-62.21ZM1766-80.4a3.83,3.83,0,0,1-3.83-3.83,3.83,3.83,0,0,1,3.83-3.83,3.82,3.82,0,0,1,3.83,3.83A3.82,3.82,0,0,1,1766-80.4Zm0-65.11a3.84,3.84,0,0,1-3.83-3.83,3.83,3.83,0,0,1,3.83-3.83,3.82,3.82,0,0,1,3.83,3.83A3.83,3.83,0,0,1,1766-145.51Zm7.66,32.55a3.83,3.83,0,0,1-3.83-3.83,3.84,3.84,0,0,1,3.83-3.83,3.83,3.83,0,0,1,3.83,3.83A3.82,3.82,0,0,1,1773.66-113Z" style="fill:#31ae98"/></clipPath><linearGradient id="linear-gradient" x1="1408.83" y1="1791.35" x2="2009.14" y2="1791.35" gradientTransform="matrix(1, 0, 0, -1, 287, 1614)" gradientUnits="userSpaceOnUse"><stop offset="0" stop-color="#b3b3b3"/><stop offset="1" stop-color="#fff"/></linearGradient><linearGradient id="linear-gradient-2" x1="1946.85" y1="1974.98" x2="1993.77" y2="1974.98" gradientTransform="matrix(1, 0, 0, -1, 287, 1614)" gradientUnits="userSpaceOnUse"><stop offset="0" stop-color="#fff"/><stop offset="0.42" stop-color="#f8f8f8"/><stop offset="1" stop-color="#e6e6e6"/></linearGradient><linearGradient id="linear-gradient-3" x1="2044.92" y1="1957.42" x2="2045.49" y2="1957.42" gradientTransform="matrix(1, 0, 0, -1, 287, 1614)" gradientUnits="userSpaceOnUse"><stop offset="0" stop-color="#ff8c3d"/><stop offset="0.14" stop-color="#fc8a39"/><stop offset="0.28" stop-color="#f5842c"/><stop offset="0.42" stop-color="#e87a18"/><stop offset="0.51" stop-color="#dd7105"/><stop offset="1" stop-color="#fe8b3b"/></linearGradient><linearGradient id="linear-gradient-4" x1="2044.65" y1="1979.07" x2="2045.22" y2="1979.07" xlink:href="#linear-gradient-3"/><linearGradient id="linear-gradient-5" x1="1899.06" y1="2027.43" x2="1971.2" y2="2027.43" xlink:href="#linear-gradient-2"/><linearGradient id="linear-gradient-6" x1="1899.2" y1="2030.04" x2="1934.58" y2="2030.04" gradientTransform="matrix(1, 0, 0, -1, 287, 1614)" gradientUnits="userSpaceOnUse"><stop offset="0" stop-color="#fff"/><stop offset="0.03" stop-color="#f0eaf8"/><stop offset="0.09" stop-color="#cdbae8"/><stop offset="0.17" stop-color="#ae8fd9"/><stop offset="0.24" stop-color="#9369cd"/><stop offset="0.32" stop-color="#7c4ac2"/><stop offset="0.41" stop-color="#6930ba"/><stop offset="0.51" stop-color="#5b1cb3"/><stop offset="0.62" stop-color="#510faf"/><stop offset="0.76" stop-color="#4b06ac"/><stop offset="1" stop-color="#4904ab"/></linearGradient></defs><title>headerHome</title><g id="headerHome"><g id="planet"><path d="M2437.31-215.76c0,99.63-82.55,180.41-184.39,180.41s-184.37-80.78-184.37-180.41,82.55-180.42,184.38-180.42,184.38,80.78,184.38,180.42Z" transform="translate(-1587.7 481.37)" style="fill:#8937eb;opacity:0.5099999904632568;isolation:isolate"/><path d="M2218.54-282.48a12.29,12.29,0,0,1-1,10.26,12.67,12.67,0,0,1-4.34,1.73c.82-3.67,2.26-6.05-2.1-9.88-1.5-1.31-5.15-2.64-8.22-2.67a19.39,19.39,0,0,1,3.77-4.95c4.64-.58,10.09.69,11.91,5.51Zm120,66.87a8.69,8.69,0,0,0,7.52-.9c-6.32-3.11-9.91-10.89-5.64-15.51a12.78,12.78,0,0,0-6.7,3.9c-.07-.58-2.5,9.56,4.82,12.51Zm-108.22,40.39c4.23-5.75-2.59-8.44-7.48-5.32l-6.22-2.17c-9.37-7.14-11.81,9.5-4.38,12.54C2216.76-168.31,2227.24-171.09,2230.28-175.22Zm28-79.62c13.3-2.86,5.73-14.87-4.25-12.53a15.89,15.89,0,0,1,2.43.85c6.3,10-15.83,14.13-14.41,4.38l-.18.1C2233.85-255.3,2254.22-254,2258.3-254.84Zm-9-37.61a6.88,6.88,0,0,0-2,.76A11.68,11.68,0,0,0,2249.28-292.45Zm39.16,92.38a7.67,7.67,0,0,1-1.07-.16A2.79,2.79,0,0,0,2288.44-200.07ZM2247-291.65a8.33,8.33,0,0,0,3-4.11c-5,2.3-12.69-1.35-15.07-6.11a24.2,24.2,0,0,0-4.62,3.22c.36,6.56,10.27,8.79,16.73,7Zm40,105.57c12.79,2.42,33.22-12,16.23-22.62-11.13-7-23.11,6.74-15.88,8.47-.79-.55,8.57-2.14,8.27-2,10,5.55-3.53,15.19-8.62,16.19Zm75-112.65a38,38,0,0,0-2.7-3.24c-5.7-5.14-10.12,6.29-6.57,11.77,6,9.27,12.27,6.41,16.42-1.13a6.61,6.61,0,0,0-.91-3.79c-2.19,2.9-9.07,4.93-11.5,1.19s2-6.16,5.26-4.8ZM2116.16-151c-1.53-1.85-4.39-5.18-5.14-7.37-.94-2.73.61-6-.48-8.71-2.37-5.85-8.28-7.3-13.7-6.17.15,0,.3,0,.46.08,12.06,2.69,5,15.75,10.65,19.74,3.17,2.23,8.93,9.15,7.84,13.82a9.38,9.38,0,0,0,.37-11.39Zm112.41,43.85c-3.09-.68-9.16.7-11.58,2.63-2.82,2.26-2.74,5.12-3.13,8.24a12.76,12.76,0,0,1,1.61-.56c1.14-6.52,14-5.71,12.09,1a12.34,12.34,0,0,1,2,1.31c4.19-4.12,6.31-11-1-12.61Zm-67.05-163.23a4.25,4.25,0,0,0,2.15.52c2.2-4.32,1.92-10.4-3.45-11.67-7.93-1.88-10.09,7.92-5.09,11.9l1.06.41c.8-2.39-.6-7,3.53-6.94a3.22,3.22,0,0,1,3.08,3.34,3.23,3.23,0,0,1-1.28,2.44ZM2194-65.76c-3.87-.06-7.69-.87-10.54-3.54-3.07-2.86-3.25-5.6-8.4-4.78l-3.56,2.61c3,1.78,4.49,6.42,8.45,7.85,3.75,1.36,10.75-.08,14.05-2.14Zm-84.47-139.61c7.66-2,7.78-11.16,3-15.63-1.05,6.69-1.9,15.16-7,14.62-3.06-.32-5.44-4.92-6.95-9.56-2.24,6,2.87,12.72,11,10.57ZM2145-228.79c-3.7-2.48-5.07-3.42-1.1-5.2,3.82-1.71,6.24-.17,8.72-4.37a9.64,9.64,0,0,0,1.26-5.61c-8.63,7.23-21.17,9.44-26.16-3.5-.9,2.42-1.09,7.63.45,10l3.56,7c-2.55,7.17,11.63,8.87,13.27,1.72Zm149.89-47.47c-2.38-1.05-6.22-3.53-9-2.92-3.12.68-3.45,3.85-4.87,6.09l13.32,1.73c8,.2,9.32,11.62,7.25,17.36,6.6-1.94,14.41-12.52,13.06-19.4-7.94,3.88-12.44.39-19.73-2.85Zm-136.6-52.55a7.54,7.54,0,0,0,2.4,2.56,10.67,10.67,0,0,0,3.79,1.63c-2.81-3-2-9.23,1.3-11.59,1.73-1.21,5.89-1.67,9.51-1.26-1.27-2.4-4.16-4.21-9.3-4.38-11.16.1-8,13.31-7.71,13ZM2107.5-266c3.28-2.91,8.13-5,9.18-3.26,2.82,4.76,1.49,12.12-5.31,11.77a24.32,24.32,0,0,1-2.69-.3c4.41,6.33,16.55.28,16.41-8.37-.2-12.51-15.1-9.2-17.6.16Zm248.55-42.69c7.83,3.93,20.85,3.37,20.56-7.43-1.31,9.78-18.9,7.08-21.88,0l-4.89-10c-4.08,4.66,1.24,14.93,6.21,17.42Zm-229.3-12.1c6.72-3.46,10.5-6.92,11.42-13.5a31.82,31.82,0,0,1-3.82,4.69c-4.83,4.78-12.44,5.37-17.26,10-2.73,2.62-4.3,6.6-6.43,9.87a6,6,0,0,0,.51,1,55.67,55.67,0,0,1,15.58-12ZM2202.69-96c-1.92-3.77-8.58-7.76-12.08-10.33-2.46-1.8-6.65-4.1-9.59-4.24-2.23-.12-4.08,1-6,2.1.57-.06,1.14-.1,1.71-.14,12.45-.85,7.62,9.35,15.37,13.5A17,17,0,0,1,2204-91.82a9.27,9.27,0,0,0-1.27-4.18ZM2316-71c-4.65,1.68-8.38,1.85-13.14,2.57-5.46.82-7.73,4.31-12.11,7l-8,3.92c4.23,2.91,10.39-2.44,14.56-3.82,7.26-2.4,13.45-3.11,18.69-9.65Zm-178.5-93.9c3.38,3.31,2.26,8.11,1,11.7,7.07-.87,7.4-14.59,2.93-18.13-5.18-4.1-15.12,0-9.28,5.13Zm150.06,84c5.54-1.84,17.57-1.27,22.79,1a11,11,0,0,0-4.13-5.9c-5.28,1.23-16-1.52-18.83-1.08-8,1.27-10.7,10.19-20,9.77a16.48,16.48,0,0,1-1.86-.17l-.09.15a23,23,0,0,0,11.87,1c4.09-.75,6.51-3.55,10.25-4.78Zm105.85-72.22c-3.19.27-7.89,2.49-9.37,5.19l-4.88,10.86a52.81,52.81,0,0,0-6.95,7.77C2388.47-128.2,2386.43-144.33,2393.41-153.14Zm-87-208.79c-4.48-2.92-4.75-.36-7.63,2.11-1.36,1.17-2,2-2.65,2.58,3.62-.39,7.28-.87,10.18.7a7.3,7.3,0,0,1,3.24,3C2310.18-356.65,2309.76-359.73,2306.4-361.93Zm14.91,240.16c4.26-7.09,1.23-17.24-5.68-21l1.78,11.3c5.82,12.46-27.17,7-25.26,19.42C2300.63-118.46,2315.47-112,2321.31-121.77Zm28.81-226c2.78,2.25,9.54,3.94,10.79.68,2-5.24-6.37-8.07-9.44-8.12l-3-5.08c-4.62-6.18-7.62-4.4-11.7-2.31,6.54.71,8.12,10.62,13.31,14.83Zm-113.2,269c-7.55.43-6.18-5.93-11.7-8-.71-.27-5.34,1.75-9.58,2.83a68.61,68.61,0,0,0,5.36,4.56c4.79,3.25,15,6.49,19.44,1a12.28,12.28,0,0,1-3.52-.4Zm79.08-83c-4.95,1.41-6.66,12.08,2.48,8.4-.28.78,2.87-7.12-2.48-8.4ZM2328-214l-2.66-10c-5.9-4.18-13.29,5.77-6.87,10.42,2.15,1.55,9,3.78,9.53-.42Zm-131,87a9.84,9.84,0,0,0,4.28.29c8-4.55-12.38-19.35-10.67-5.56A12.15,12.15,0,0,0,2197-127Zm-45.29-217c4.27.6,7.43-2,11.1-3.34,2.72-1,6.32-1.05,8.5-3.15,1.93-1.87,3-5.77,1.74-7.81l-16,8.69a9.12,9.12,0,0,0-5.35,5.61Zm7.94,222.23c-6.5,1.57-6.54-3.76-.82-5.27h-3.34c-15.55,5.66-2,13.42,2.4,10.25a5,5,0,0,0,.91-1.08,3.47,3.47,0,0,0,.23-.61c0,.14-.08.3-.11.44A6.2,6.2,0,0,0,2159.65-121.73Zm66.61-253.5A10.44,10.44,0,0,0,2220-370c5.52-1.48,12.6,5.05,15.45,10.25a10.68,10.68,0,0,0,1.76-5.11c-.7-6.46-11.58-10.74-10.9-10.38Zm155,115.64c9.4,3.67,10.23-14.08,1.44-12.2l-4,4.34C2374.85-266.22,2379-260.48,2381.27-259.59Zm27.1,30.59a6.56,6.56,0,0,0-3.17-8.73,6.69,6.69,0,0,0-2-.57c-2.2.18-4,.25-5.36,3.46-1.21,2.79-1.59,6.25-.25,8.66,1.24-2.07,2.77-4.25,2.8-5.1-.12,5.52,5.82,6.72,7.94,2.28Z" transform="translate(-1587.7 481.37)" style="fill:#31ae98"/><path d="M2305.72-261.75c7.9,10.15,21.13-7.19,24.59-12.31.46,10-5.06,10.46-9.51,17.16-5.17,7.78,11.88,14.58,17,17.2,4.71,2.38,5.8,6.16,5.56,11.26-1.65-2.64-2.59-5.13-6-4.58-5.3.88-3.4,8.27-5.27,11.83-3.39,6.45-3,5.1-.22,12.3,2.5,6.48-1.65,15.72-7.78,18.79,3.46-5,6.68-9.36,1.76-14.55-3.18-3.36-16-6.75-20.44-5.43-2.4.72-3,2.6-5,3.91-12.54,8.36-30.38-6.64-37.67-15.84-3.21-4.05-7.88-11.93-5.46-17.34,3-6.78,12.33-3.26,17.39-1,5.88,2.64,6.43,10.16,14.09,7.18,1.1,7-7.39,6.23-11.5,3.56-2.79-1.82-9.47-12.1-13.13-6.21s7.4,15.23,12.57,16c7.3,1,16.21-3.09,20.43-8.9.72,3.88-3.35,8.52-6.06,11.17-3.1,3-8.55,9,.46,8.49,5.89-.32,8.73-8.31,15-7.46,6.69.9,9.88,4.22,15.57-1.34,5.51-5.38,8-14.07,3-20.55-5.6-7.26-15-10.46-21.38-16.94-7.07-7.2-6.31-20,5.55-22.36-2.8.55-5.44,13.71-3.67,16Zm-72.33,16.18c2-25.51-40.79-13.72-35.59-39.2,2.82-13.86,22.61-17.33,33.87-21-6.22-5.53-10.85-9.25-6.48-18.71-3.32.53-5.6,5.32-6.21,8.33-.4,2,.7,4.51.12,6.46-2.46,8.39-14.67,10.41-20.61,16.18-6.71,6.52-7.09,14.39-2,22.13,6.1,9.33,15.32,8.46,24.6,12.35s4.4,12.73,4,20.25c.1-1.67-11.81-3.09-13.88-3.14-5.66-.16-12.58-2.38-16.22,3.43-1.93,3.08-4.77,8-2.78,11.67,1.53,2.85,4.59,2.49,7.09,4.35,5,3.74,1.71,8,4.47,11.92,4.18,6,12.68-.1,16.76-3,5.57-4,14.16-7.64,18.37-12.76a32.08,32.08,0,0,0,5.9-11.84c.21-.72.3-10-1-8.27-6.19,8.64-5.56,18.56-17.5,23-3.62,1.35-5.26,1-8.36,3.46-2,1.64-2.43,4.47-5.43,5.06-6.57,1.27-6.44-6.85-8.43-10.68-1.29-2.48-7.38-7.43-4.52-10.75,3.48-4,15.53,2.26,18.73,4.52a10.68,10.68,0,0,0,5.84,2.32c6,.14,8.67-8.18,9.28-16ZM2292.07-360c-15.7-.79-27.5,2.76-36.5,15.9s-11.34,32.37,7.8,37c10.47,2.56,33,2.53,23.42,19.93-3.1,5.6-9,5.4-14.27,3.19-5.81-2.44-12.35-.93-5.53,5.69,17.89,17.38,49.76-29.3,3-32.12-18.11-1.08-21.59-15.68-13.52-29.7,7.23-12.51,26.44-19.85,35.56-19.92Zm162.3,161.83c-4.17,15.91,4,33.37-3.94,48.59-4.41,8.49-12.24,11.59-20.35,15.82-8.84,4.6-13.25,11.88-17.49,20.41-8,16-14,33.78-28.51,45.58-3.33,2.72-43.84,26.83-40.78,29.84-1.71-1.68,39.91-26.08,43.24-28.63,15-11.49,18.76-30.29,27.07-46.22,3.42-6.55,7.15-13.07,13.31-17.57,7.47-5.46,19.08-8.06,24.52-16.06,11-16.12.45-36.89,2.94-51.76ZM2349-59.61c-19,.59-28.58,19.6-44.19,27.16-17,8.23-47.11,18.57-65.25,9.88,19.1,9.16,45.8.4,63.84-7.46C2319-36.84,2331.93-59.08,2349-59.61Zm-195.43-.69c11.07,11.06,11.48,20.75,28.91,24.15,19,3.71,34.13-.57,51.83-2.53-17.66,2-31.94,4.55-49.74,1.27-18.67-3.44-20.12-15.43-32.21-27.06-11.24-10.8-24.25-19.56-36.75-28.87-3.48-2.58-35.55-31.94-34.66-32.45-4.35,2.43,26.46,29.89,29.43,32.14,14.49,11,30.3,20.48,43.19,33.35Zm95.38,51.65c-7.88-4-17.11-2-25.46-4.16-10.24-2.68-17.31-10.88-27.84-13.16-12.18-2.61-51.84-1.15-54.21-18.32,2.39,17.28,32,17,45.1,18.63s20.15,7.82,31.5,13.28c5.52,2.67,11.75,3,17.79,3.49.32,0,16.1,1.74,13.12.24ZM2072.38-334.37c-5,4.64-16.76,57.22-16.88,57.22C2060.1-277.23,2066.82-328.64,2072.38-334.37ZM2060-120c3.05-21.27-16.69-37.92-4.75-58.22-10.33,17.6-3,31.77,3.19,49,.57,1.6.76,36.27,9.84,32.54-.71.29-8.73-20.16-8.28-23.31Zm58.81,57.71c-5.53-1-11.2-.66-16.74-1.6-2.39-.4-14.79-8.66-13.81-8.92-3.65.94,5.25,9.62,6.21,10.16,4.93,2.85,10.81,3.15,16.34,3.91s11.34,1.81,16.13,4.87c2,1.26,8.87,10.93,9.84,10.66C2146.29-45.83,2122.24-61.73,2118.81-62.32ZM2095-352.2c13.17-15.54,27.6-22.37,47.9-23.23,5.92-.24,13.21-1.1,17-6.14,9.36-12.3-9.08-8.8-15.8-10.34,1.88-4.64,27.87-20.07,28.57-21.67.36-.83-63.64,23.8-14.41,26.34-2.4,12-21.71,7.25-30.2,8.41C2111-376.48,2103.34-362,2095-352.2Zm-42.34,162.85c-1.07-12.26-11.14-22.6-11-34.9,0-4,14.2-31.88,15-31.42-2.4-1.39-18.36,27.54-18.58,31.56-.38,7.18,2.5,14,5.45,20.4.75,1.61,9.56,18.78,9.18,14.36ZM2106-161.7c6.3,3.48,14.9,3.86,21.78,1.78,5.09-1.54,11.28-7,14.28.48,1.47,3.68,1.82,11.54,9.36,7.63,3.63-1.89,3-8.14,6.35-9.84,4.13-2.1,9.18,3.85,11.33,6.78,6.1,8.33,3.47,19-3.43,26-2.65,2.69-26.34,13.61-24.3,16,4.38,5.07,14.92-6.51,17.37-7.58,2.68-1.18.61-2.81,3.94.07,1.13,1,1.94,3.24,2.45,4.62,1.36,3.58,4,10.83,9.23,7-7.6-8.78-3.91-15.46-.24-24.81,1.16-3,1.19-7.18,3.87-9.23,1.65-1.26,11.5-2.58,13-1.2-3.77-3.5-8.87-2.56-12.77-5-3.75-2.29-4.77-7.68-7.75-11-2.22-2.43-9.26-8.92-13.14-8.19-3.57.67-2.56,3.17-4.38,6-5.39,8.44-5.31-2.17-5.5-6.33-17.77,2.07-37.69,10.45-50.33-7-6.19-8.55-14.36-22.75-5.19-31.86,9-8.94,19.18-14.84,20.52-28.78.91-9.42-3.66-16.78-6-25.51-.85-3.17-1.64-16.38,4.62-14.62,2.77.77,2.24,4.12,6.16,4.2,3.17.08,6.14-2.57,8.54-4.2-3.11-.24-9,1.06-9.68-3.22-.59-3.88,3.72-3.53,6-1.93-1.86-14.16-17.48-3.15-20.64,4.43-2.66,6.37,1.48,13.18,3.66,19.33,2.87,8.07,5.45,16.43,3,25-.72,2.52-2.23,7.22-5.16,7.82-2.59.53-7.15-2.94-7.13-5.62-.1,12-9.34,18.6-11.53,29.33-2.85,14,9.74,32.8,21.68,39.39Zm210.79,74.38c8.69-4.38,13.23.3,22,0s15.5-3.68,23.33,1.65c3.62-9.1-10.7-9.41-16.86-9-1.62.1-5.51,3-7.27,1.44-4.22-3.71,13.91-6,15.46-6,8.22,0,19.29-2,25.66-7.6,4.74-4.15,4.28-10,3.49-15.94-.87-6.58-.56-11.37,2.72-17.62-6.91,5.4-7.54,15.07-8.73,22.85-.59,3.9-.37,5.5-4.18,7.25-1,.45-9.42.51-9.54,1.45.55-4.58,4.31-8.13,4.21-13.92-.12-6.62-.83-10.29,7.55-10.24a15.72,15.72,0,0,0-8,1.47c-4.31,2.12-2.79,1.59-4,5.76-3.44,12.2-2.26,20-17.39,22.06-22.56,3-39.2,22-62.17,23.54-11.65.77-22.83-3.33-34.53-2.07s-22.3,3.69-33.7-.45c-9.22-3.35-6-12.2,1.9-15.77,5.6-2.52,7.8.79,12.76,3,6.44,2.92,7.57,2.28,13.08-1.11,4-2.48,10.34-5.73,12.15,1.08,2-9.85-7.35-7.12-13.14-4.54-1.85.83-4.6,2.81-6.56,3.1-4.14.62-4.64-1.88-7.17-3.28a16.57,16.57,0,0,0-17.61.56c-2.22,1.48-4.73,5.7-7.2,2.19-2.76-3.93,7.86-16.17,9.95-19.42,3.79-5.87,9.1-13,8.35-20.38,1.09,10.65-12.76,21.81-18.11,31-9.46,16.28,7.09,28,22.58,29.44,3.71.35,14.68-3,17.27.51,3.41,4.62-3.82,6.93-7.41,6.8,3.61,1.16,11.42,1.47,14.7-.6,2.63-1.66,5.34-5.13.5-5.5,1.11.09,5.5-3.54,7.6-3.73,2.74-.25,5.3.88,8,1.37,8.36,1.53,17.7,2.2,26.05.36,8.61-1.89,16.47-5.79,24.25-9.7Zm-12-93.82c-23.11,1.66-35.79,27.94-13,40.48,10.33,5.7,21.86,5,32.89,1.94,3.17-.88,34.4-9.1,34.4-8.9-.09-4.29-48,6.27-53.31,5.8-16.52-1.48-31.57-19.31-12.75-30,17.16-9.79,34.75,3.24,52.34-3a57.81,57.81,0,0,0,21.22-13.47c1.54-1.55,12.8-24.07,7.21-22.49.15,0-1.84,11-2.52,12.32-3.44,6.49-9.68,11.37-16.08,14.9-18.28,10.08-31.4,1.08-50.37,2.44Zm-48.26-222.64c17.13-1.26,30.37,9.1,44.12,17.22,18,10.66,41.8,8.5,58,22.44,13.89,11.95,28.47,36.36,33.16,53.71,1.89,7,2.91,14.2,5.64,20.92.83,2,14.27,20.39,16.63,14.1.52-1.39-10.85-14.61-12-17.87-2.78-7.75-3.75-16-6.4-23.77-5.8-17-19.85-36.27-33.41-48.36-14.79-13.18-33.69-12.11-51.49-18.55-18.21-6.58-33.12-24.29-54.23-19.84Zm153.78,189.5c-2.68-5.4-5.49-12.88-.72-18.13,4.13-4.53,8.6-2.42,9.36,3.5.84,6.7,2.42,12.4,2.83,19.25,4.93-4,4.62-9.06,2.66-14.12-3.63-9.33-7.81-19.48,2.14-25.36,7.16-4.22,16.19-9.19,18.44-17.74,2-7.54-16.7-25.15-18.17-22.56-3.43,6,28.19,14.88,7.42,29.22-11.67,8.05-32.72,14.53-35.24,30.48-1.3,8.29,2.68,15.84,7.48,22.37,4.2,5.72,10.21,11.66,2.68,17.36-3.05,2.31-15.28,10.16-5.65,13.34,2,.65,11.1-14.77,19-11.52,5.93,2.44,10.17,16.17,10.45,21.81a13.34,13.34,0,0,1-5.39,11.41c-7.32,5.68-8.37,9.34,2.38,4.18,11.47-5.5,10.57-16.64,5.85-26.54-6.46-13.55-18.85-23.51-25.55-37Zm.73-130.67c11.35,3.89,6.26,14.05,9,22.72,1.27,4,23.59,33.1,26.14,31,2.06-1.67-21.65-26-23.37-29.55-4.87-10.14.32-20-11.77-24.21Zm54.32,118.6c-7.07-11.15.11-22.8-4.45-34.24,3.4,8.6-3.45,20.83-.49,30.56.49,1.63,8.06,26.48,5.07,25.25,7.21,3,.85-20-.13-21.57ZM2192.69-418.62c15.92-4.47,45.92-12.12,57.93,1.71,4.32,5,65,11,64.65,12.2,2.7-9.08-54.75-9.67-60.95-13.5-2.25-1.39-3.16-6.24-5.34-6.73a91.81,91.81,0,0,0-25.5-2c-10.69.62-24.53,6.55-30.79,8.31ZM2332-411c6.77,3.56,57.09,44.16,59.89,42.16,4.65-3.33-57.39-40.85-59.89-42.16Zm-204.69,80.44c1.9,8,12,9.87,19.14,8.94,1.84-.25,5.87-2.44,7.63-2.09,10.42,2.12.48,27.88-2,33.78-1.23,3-2.41,6.23-4.62,8.51-2,2.05-7.42,2.82-6.64,6.73,1,5.15,8.67,3.95,12.11,5.41-2.62-8.4,1.64-14,5-22.09,1.74-4.26,4.59-26.09,13.17-17.82,2.44,2.35.33,6.41,3.39,8,6.2-9,.92-18.19-10.29-14.27-.28-15.51-13-9.51-23.65-12-5.74-1.37-8.89-6.38-4.7-10.93,5.51-6,14.16-11.18,20.74-16.15,2.32-1.75,30-23.06,32.28-19.38-2.58-4.38-35.32,16.87-38.64,18.85-8.55,5.14-25.75,12.48-22.9,24.52Zm154.54-41.67c-21.46-.68-38.67-14.78-60-14.71,10.06,0,21.4,4.65,30.41,9.5a60.56,60.56,0,0,0,17.2,6.25C2272.06-370.7,2285.15-372.15,2281.85-372.25ZM2343.19-293c-2.1-11.31,5.25-22.59,11.37-31.54-6.46,9.44-17.38,20.61-16.55,32.86.33,5,2.78,11,8.18,12.55s10.24-2.77,15.51-1.95c6.5,1,9.47,8.63,10.86,14.11,1.32,5.21-1.25,9-1.15,14,.15,7.37,5.11.59,7.22,4.49s-6.63,13.57.34,15.74c10.12,3.15,6.67-20.44-1.76-23.05,1.71-5.51-1.83-10.55-3-15.65-1-4.4.16-9-3.89-12.29-5.92-4.77-12.93-1.08-18.45-.58-4,.36-7.29-1-8.72-8.65ZM2161-250c-3.9,3.34-15,8.06-20,15.9-8.35,13-6.62,26.94,4.25,37.92,3.07,3.11,12.51,4,7.87-.24-5.29-4.8-9.9-10.72-11.32-17.78-3-15.13,8.64-26.72,19.22-35.8Zm85.27,65c-8-3.35-16.92-3.93-25.44-4.71-9.8-.9-18-1.85-25.3-8.9-5.26-5.06-6.25-9.68-9-16.41-.36,6.6-1,14.85,2.9,20.66,3,4.5,9,10.67,5.68,17,1.22-2.31,1-5.08,3.75-6.7,3.26-1.94,7.71,0,10.65,1.65,2.22,1.29,3,3,5.81,2.76,3.06-.24,4.78-3,7.55-3.8s6.58-.08,9.34.49c6.75,1.41,12.94,4.37,17.54,9.5,4.12,4.59,5.52,9.56,2.23,14.73-2.72,4.27-6.62,7.42-4.82,13,1.9,5.85,4.29,8.74,1.28,15-3.54,7.36-10.34,19.07,1.71,22.77,8.29,2.55,17.54,3.68,23.62-3.57a16,16,0,0,0,3.58-9.9,10.79,10.79,0,0,0-1-4.81c-.35-.67-2.74-2.78-2.77-3.14.43,6.44-1.93,12.62-7.74,15.9-5.37,3-12.34,3.75-15-3-3-7.61,17.88-14.7,9.1-19.57-5.05-2.79-8-5.44-7.08-12,1.41-10,14.31-12.31,22.71-13-.89-5.62-6.29-7.17-10.9-9.11a22.23,22.23,0,0,1-7.89-6c-3-3.23-5.64-6.71-10.56-8.78Zm-41.2,132c24.2,9.68,49.16-12.93,73.45-8.19,6.67,1.3,2.06,12.42,12,13.39,2.5.25,22.14-2.77,20.47-6.67-1.81-4.27-26.76,11.78-25.31-3.07,1.23-12.39-20.23-8.56-27.51-6.79-15.18,3.69-30.21,9.55-46.15,8.74-7.47-.39-23.35-21.76-21-22.43-6.27,1.79,10.28,23.51,14.06,25Z" transform="translate(-1587.7 481.37)" style="fill:url(#radial-gradient)"/></g><g id="greenBalls"><path d="M2406.2-425.43l6.56-.4-6.56-.4a2.07,2.07,0,0,0-1.64-1.64l-.4-6.52-.4,6.52a2.08,2.08,0,0,0-1.64,1.64l-6.55.4,6.55.4a2.07,2.07,0,0,0,1.64,1.63l.4,6.53.4-6.53A2.06,2.06,0,0,0,2406.2-425.43Zm157.85,69.9a6.51,6.51,0,0,1-6.57,6.53,6.58,6.58,0,0,1-6.43-6.38,6.5,6.5,0,0,1,6.47-6.62h0A6.49,6.49,0,0,1,2564.05-355.53Z" transform="translate(-1587.7 481.37)" style="fill:#82c142"/><path d="M2560.64-355.24l9.91-.6-9.91-.61a3.15,3.15,0,0,0-2.48-2.47l-.61-9.86-.61,9.86a3.14,3.14,0,0,0-2.48,2.47l-9.91.61,9.91.6a3.14,3.14,0,0,0,2.48,2.47l.61,9.86.61-9.86a3.14,3.14,0,0,0,2.48-2.47Zm-23.08,223.09a10.91,10.91,0,0,1-12.09,10.89,11,11,0,0,1-9.63-9.55A10.9,10.9,0,0,1,2526.61-143h0A10.87,10.87,0,0,1,2537.56-132.15Z" transform="translate(-1587.7 481.37)" style="fill:#82c142"/><path d="M2304.65,148.37l7.39-.45-7.39-.46a2.35,2.35,0,0,0-1.85-1.84l-.46-7.36-.46,7.36a2.35,2.35,0,0,0-1.85,1.84l-7.4.46,7.4.45a2.35,2.35,0,0,0,1.85,1.84l.46,7.36.46-7.36A2.35,2.35,0,0,0,2304.65,148.37Zm207.73-18.47a4.92,4.92,0,1,1-4.94-4.9h0A4.91,4.91,0,0,1,2512.38,129.9Z" transform="translate(-1587.7 481.37)" style="fill:#82c142"/><path d="M2509.31,130.08l5.93-.36-5.93-.36a1.88,1.88,0,0,0-1.49-1.48l-.36-5.9-.36,5.9a1.88,1.88,0,0,0-1.49,1.48l-5.93.36,5.93.36a1.89,1.89,0,0,0,1.49,1.48l.36,5.9.36-5.9A1.88,1.88,0,0,0,2509.31,130.08ZM2145-472.44a4.58,4.58,0,0,1-5.56,4.49,4.53,4.53,0,0,1-3.48-3.46,4.57,4.57,0,0,1,4.44-5.59h0a4.57,4.57,0,0,1,4.57,4.56Z" transform="translate(-1587.7 481.37)" style="fill:#82c142"/><path d="M2142.35-471.84l7-.42-7-.43a2.22,2.22,0,0,0-1.75-1.74l-.43-6.94-.43,6.94a2.22,2.22,0,0,0-1.75,1.74l-7,.43,7,.42a2.22,2.22,0,0,0,1.75,1.74l.43,6.94.43-6.94A2.22,2.22,0,0,0,2142.35-471.84Z" transform="translate(-1587.7 481.37)" style="fill:#82c142"/><circle cx="350.07" cy="542" r="49" style="fill:#82c142"/><circle cx="206.07" cy="618" r="22" style="fill:#82c142"/><circle cx="425.57" cy="626.5" r="13.5" style="fill:#82c142"/><path d="M2307.19,147.83a4.86,4.86,0,1,1-4.87-4.83h0A4.84,4.84,0,0,1,2307.19,147.83Z" transform="translate(-1587.7 481.37)" style="fill:#82c142"/><path d="M2408.18-427.29a4.32,4.32,0,0,1-4.81,5.82,4.31,4.31,0,0,1-3.47-3.67,4.3,4.3,0,0,1,4.24-4.86h0A4.24,4.24,0,0,1,2408.18-427.29Z" transform="translate(-1587.7 481.37)" style="fill:#82c142"/><path d="M2531.85-131l16.6-1-16.6-1a5.29,5.29,0,0,0-4.16-4.14l-1-16.53-1,16.53a5.28,5.28,0,0,0-4.16,4.14l-16.61,1,16.61,1a5.28,5.28,0,0,0,4.16,4.14l1,16.53,1-16.53A5.29,5.29,0,0,0,2531.85-131Z" transform="translate(-1587.7 481.37)" style="fill:#82c142"/></g><g id="rocket"><g id="fire"><path d="M1763.13,29.72S1767,56.53,1788,62.27s19.15,21.07,19.15,21.07-1.91,15.32,17.24,15.32,30.64-5.75,36.38,5.74,1.92,21.07,28.73,23c0,0,11.49,7.66,17.23,13.4s-11.49-24.89-13.4-32.55-1.91-21.07-1.91-24.9-7.66-23-15.32-26.81-15.32-17.24-3.83-36.39-28.73-44-44-47.88-65.12,57.47-65.12,57.47Z" transform="translate(-1587.7 481.37)" style="fill:#fb6a00"/><path d="M1779,28.94s2.59,18.1,16.81,22,12.93,14.22,12.93,14.22-1.29,10.34,11.63,10.34,20.69-3.88,24.57,3.88,1.29,14.22,19.39,15.51c0,0,7.75,5.17,11.63,9s-7.75-16.81-9-22-1.29-14.22-1.29-16.8-5.17-15.52-10.34-18.1-10.34-11.64-2.59-24.57S1833.29-7.26,1823-9.84s-44,38.78-44,38.78Z" transform="translate(-1587.7 481.37)" style="fill:#ffa300"/><path d="M1790.44,23.88s1.67,11.73,10.9,14.25,8.38,9.22,8.38,9.22-.84,6.7,7.54,6.7,13.41-2.51,15.93,2.52.83,9.22,12.57,10.05a64,64,0,0,1,7.54,5.87c2.52,2.52-5-10.9-5.87-14.25s-.83-9.22-.83-10.9-3.36-10.06-6.71-11.73-6.7-7.55-1.68-15.93S1825.64.41,1818.94-1.27s-28.5,25.15-28.5,25.15Z" transform="translate(-1587.7 481.37)" style="fill:#fc0"/></g><path d="M1810.48-157.56c-31-29.09-66.6-50.48-100-66-8.54-4-16.93-7.58-25.06-10.82l-1.14-.45a2.44,2.44,0,0,1,.28.26c20.55,22.79-13.63,50.14-38.3,61.28-27.65,12.49-47.53,7.38-47.53,7.38-7.23-17.29-6.12-93.46-6.09-95.43l-.3,0c-4.39,99.37,24.77,180,58.24,234.08l.14.22.16-.23a398.72,398.72,0,0,0,48.37,63.18c0,.06-.09.12-.14.17,13.39,14.15,22.5,21.44,22.5,21.44s21.08-6.46,47.14-17.58c4.64-2,9.43-4.1,14.29-6.38,3.78-1.74,7.59-3.58,11.4-5.52,6.11-3.06,12.22-6.33,18.13-9.78,4.93-2.88,10.73-8.1,16.79-14.54,2.23-2.36,4.49-4.88,6.76-7.51,4-4.67,8.12-9.71,12-14.76,15.9-20.42,29.4-41.18,29.4-41.18A251.13,251.13,0,0,0,1862.9-91,272.42,272.42,0,0,0,1810.48-157.56Zm-69.37-20.51a3.84,3.84,0,0,1,3.83,3.83,3.83,3.83,0,0,1-3.83,3.83,3.82,3.82,0,0,1-3.83-3.83A3.83,3.83,0,0,1,1741.11-178.07Zm-65.11,0a3.84,3.84,0,0,1,3.83,3.83,3.83,3.83,0,0,1-3.83,3.83,3.82,3.82,0,0,1-3.83-3.83A3.83,3.83,0,0,1,1676-178.07Zm-24.9,24.9a3.82,3.82,0,0,1,3.83,3.83,3.83,3.83,0,0,1-3.83,3.83,3.84,3.84,0,0,1-3.83-3.83A3.83,3.83,0,0,1,1651.1-153.17ZM1643.44-113a3.83,3.83,0,0,1-3.83-3.83,3.84,3.84,0,0,1,3.83-3.83,3.83,3.83,0,0,1,3.83,3.83A3.82,3.82,0,0,1,1643.44-113Zm7.66,32.56a3.83,3.83,0,0,1-3.83-3.83,3.83,3.83,0,0,1,3.83-3.83,3.82,3.82,0,0,1,3.83,3.83A3.82,3.82,0,0,1,1651.1-80.4ZM1676-55.5a3.83,3.83,0,0,1-3.83-3.83,3.82,3.82,0,0,1,3.83-3.83,3.83,3.83,0,0,1,3.83,3.83A3.84,3.84,0,0,1,1676-55.5Zm32.55,7.66a3.84,3.84,0,0,1-3.83-3.83,3.83,3.83,0,0,1,3.83-3.83,3.82,3.82,0,0,1,3.83,3.83A3.83,3.83,0,0,1,1708.55-47.84Zm32.56-7.66a3.83,3.83,0,0,1-3.83-3.83,3.82,3.82,0,0,1,3.83-3.83,3.83,3.83,0,0,1,3.83,3.83A3.84,3.84,0,0,1,1741.11-55.5Zm-33.52-6.71A54.57,54.57,0,0,1,1653-116.79a54.57,54.57,0,0,1,54.57-54.57,54.57,54.57,0,0,1,54.58,54.57A54.57,54.57,0,0,1,1707.59-62.21ZM1766-80.4a3.83,3.83,0,0,1-3.83-3.83,3.83,3.83,0,0,1,3.83-3.83,3.82,3.82,0,0,1,3.83,3.83A3.82,3.82,0,0,1,1766-80.4Zm0-65.11a3.84,3.84,0,0,1-3.83-3.83,3.83,3.83,0,0,1,3.83-3.83,3.82,3.82,0,0,1,3.83,3.83A3.83,3.83,0,0,1,1766-145.51Zm7.66,32.55a3.83,3.83,0,0,1-3.83-3.83,3.84,3.84,0,0,1,3.83-3.83,3.83,3.83,0,0,1,3.83,3.83A3.82,3.82,0,0,1,1773.66-113Z" transform="translate(-1587.7 481.37)" style="fill:#31ae98"/><g style="clip-path:url(#clip-path)"><path d="M1593.66-213.7c.21-7.91-.44-15.83.09-23.72.22-3.29.65-6.57,1.07-9.84" transform="translate(-1587.7 481.37)" style="fill:#4904ab"/><path d="M1595.16-213.7c.21-11.29-.29-22.32,1.16-33.56.25-1.91-2.76-1.89-3,0-1.45,11.23-1,22.28-1.16,33.56,0,1.93,3,1.93,3,0Z" transform="translate(-1587.7 481.37)" style="fill:#4904ab"/><path d="M1594.64-222.36c.15,6.68.29,13.42-1,20a2.78,2.78,0,0,1-1.06-2.37c-.81-10.62,3.46-21,3.7-31.64" transform="translate(-1587.7 481.37)" style="fill:#4904ab"/><path d="M1593.14-222.36c.14,6.57.2,13.09-1,19.58l2.5-.66c-1.72-2.15-.62-7.44-.32-9.92.35-2.87.9-5.71,1.44-8.56a100.84,100.84,0,0,0,2-14.47c.09-1.93-2.91-1.93-3,0-.31,7.31-2.24,14.34-3.22,21.56-.58,4.21-1.82,10,1,13.51a1.51,1.51,0,0,0,2.51-.66c1.2-6.76,1.21-13.53,1.06-20.38,0-1.93-3-1.94-3,0Z" transform="translate(-1587.7 481.37)" style="fill:#4904ab"/><path d="M1593.6-197.26q-.57-35.12,1.38-70.2a66.46,66.46,0,0,0-2.17,27.9" transform="translate(-1587.7 481.37)" style="fill:#4904ab"/><path d="M1595.1-197.26q-.52-35.12,1.38-70.2c.09-1.72-2.49-2-3-.4a71.53,71.53,0,0,0-2.22,28.3c.22,1.89,3.23,1.92,3,0a69.27,69.27,0,0,1,2.12-27.51l-3-.39q-1.9,35.07-1.38,70.2c0,1.93,3,1.94,3,0Z" transform="translate(-1587.7 481.37)" style="fill:#4904ab"/><path d="M1594.1-260.54c5.14-.69,10.32.51,15.33,1.79a330.09,330.09,0,0,1,35.9,11.2c4.26,1.62,8.54,3.37,13.06,3.9a41.62,41.62,0,0,1-11.22-2.56c-7.81-2.59-15.59-5.37-23.63-7.14a91.91,91.91,0,0,1-10.51-2.54c-2.16-.74-4.23-1.72-6.37-2.5a34.43,34.43,0,0,0-9.5-2c-2.69-.18-5.45,0-8-.89" transform="translate(-1587.7 481.37)" style="fill:#4904ab"/><path d="M1594.1-259c10.91-1,22.75,3.63,33.05,6.82s20.31,8.44,30.84,10l.4-2.94c-6.24-.49-12.14-3-18-4.92a173.34,173.34,0,0,0-18.19-5.1c-5.56-1.19-10.53-3.13-15.88-4.93-5.54-1.86-11.19-1.2-16.73-2.64a1.5,1.5,0,0,0-.8,2.89c5.53,1.43,11.23.8,16.73,2.65a170.67,170.67,0,0,0,17.65,5.3c11.78,2.62,23.2,8.8,35.25,9.75,1.67.13,2.08-2.7.4-2.95-11.13-1.66-21.89-7.29-32.65-10.56-10.08-3.06-21.35-7.39-32-6.38-1.9.18-1.92,3.18,0,3Z" transform="translate(-1587.7 481.37)" style="fill:#4904ab"/><path d="M1650.47-245.82a163.55,163.55,0,0,0-27.07-6.55c-5.23-.8-10.56-1.36-15.52-3.22" transform="translate(-1587.7 481.37)" style="fill:#4904ab"/><path d="M1650.87-247.27a170.86,170.86,0,0,0-21.57-5.61c-7-1.33-14.22-1.81-21-4.16-1.83-.63-2.61,2.27-.79,2.89,6.79,2.35,14,2.84,21,4.16a168.78,168.78,0,0,1,21.57,5.62c1.84.6,2.62-2.3.8-2.9Z" transform="translate(-1587.7 481.37)" style="fill:#4904ab"/><path d="M1641.41-249.37c-4.86-.43-9.2-3.06-13.76-4.82-11.8-4.58-25.46-3.44-36.67-9.33" transform="translate(-1587.7 481.37)" style="fill:#4904ab"/><path d="M1641.81-250.82c-4.4-.6-8.18-2.51-12.25-4.2a58.91,58.91,0,0,0-11.86-3.41c-8.81-1.68-17.81-2.35-26-6.39-1.72-.85-3.25,1.73-1.51,2.59,7.89,3.91,16.46,4.87,25,6.39a63.17,63.17,0,0,1,13.32,3.65c4.12,1.71,8,3.65,12.44,4.26,1.88.26,2.7-2.63.79-2.89Z" transform="translate(-1587.7 481.37)" style="fill:#4904ab"/><path d="M1594-244a103.74,103.74,0,0,1-2.4,16.82" transform="translate(-1587.7 481.37)" style="fill:#4904ab"/><path d="M1592.54-244a109.81,109.81,0,0,1-2.34,16.43c-.42,1.88,2.47,2.68,2.89.79a113.53,113.53,0,0,0,2.45-17.22c.13-1.93-2.87-1.92-3,0Z" transform="translate(-1587.7 481.37)" style="fill:#4904ab"/><path d="M1592.81-227.5a136.19,136.19,0,0,1,.74-23.37" transform="translate(-1587.7 481.37)" style="fill:#4904ab"/><path d="M1594.31-227.5a147.12,147.12,0,0,1,.74-23.37c.21-1.92-2.79-1.9-3,0a147.12,147.12,0,0,0-.74,23.37c.09,1.92,3.09,1.93,3,0Z" transform="translate(-1587.7 481.37)" style="fill:#4904ab"/></g><path d="M1593.27-261.23c5.25,1.29,45.44,11.21,70.8,18.88C1626.75-255.33,1598.48-260.36,1593.27-261.23Z" transform="translate(-1587.7 481.37)" style="fill:#31ae98"/><path d="M1707.59-171.36A54.57,54.57,0,0,0,1653-116.79a54.57,54.57,0,0,0,54.57,54.58,54.57,54.57,0,0,0,54.58-54.58A54.57,54.57,0,0,0,1707.59-171.36Zm0,99.58a45,45,0,0,1-45-45,45,45,0,0,1,45-45,45,45,0,0,1,45,45A45,45,0,0,1,1707.59-71.78Z" transform="translate(-1587.7 481.37)" style="fill:#8937eb"/><circle cx="1707.59" cy="-116.79" r="45" transform="translate(-1004.97 1654.62) rotate(-45)" style="fill:#4904ab"/><path d="M1708.55-55.5a3.83,3.83,0,0,0-3.83,3.83,3.84,3.84,0,0,0,3.83,3.83,3.83,3.83,0,0,0,3.83-3.83A3.82,3.82,0,0,0,1708.55-55.5Z" transform="translate(-1587.7 481.37)"/><path d="M1741.11-63.16a3.82,3.82,0,0,0-3.83,3.83,3.83,3.83,0,0,0,3.83,3.83,3.84,3.84,0,0,0,3.83-3.83A3.83,3.83,0,0,0,1741.11-63.16Z" transform="translate(-1587.7 481.37)"/><path d="M1766-88.06a3.83,3.83,0,0,0-3.83,3.83A3.83,3.83,0,0,0,1766-80.4a3.82,3.82,0,0,0,3.83-3.83A3.82,3.82,0,0,0,1766-88.06Z" transform="translate(-1587.7 481.37)"/><path d="M1773.66-120.62a3.84,3.84,0,0,0-3.83,3.83,3.83,3.83,0,0,0,3.83,3.83,3.82,3.82,0,0,0,3.83-3.83A3.83,3.83,0,0,0,1773.66-120.62Z" transform="translate(-1587.7 481.37)"/><path d="M1766-153.17a3.83,3.83,0,0,0-3.83,3.83,3.84,3.84,0,0,0,3.83,3.83,3.83,3.83,0,0,0,3.83-3.83A3.82,3.82,0,0,0,1766-153.17Z" transform="translate(-1587.7 481.37)"/><path d="M1741.11-170.41a3.83,3.83,0,0,0,3.83-3.83,3.84,3.84,0,0,0-3.83-3.83,3.83,3.83,0,0,0-3.83,3.83A3.82,3.82,0,0,0,1741.11-170.41Z" transform="translate(-1587.7 481.37)"/><path d="M1676-170.41a3.83,3.83,0,0,0,3.83-3.83,3.84,3.84,0,0,0-3.83-3.83,3.83,3.83,0,0,0-3.83,3.83A3.82,3.82,0,0,0,1676-170.41Z" transform="translate(-1587.7 481.37)"/><path d="M1651.1-145.51a3.83,3.83,0,0,0,3.83-3.83,3.82,3.82,0,0,0-3.83-3.83,3.83,3.83,0,0,0-3.83,3.83A3.84,3.84,0,0,0,1651.1-145.51Z" transform="translate(-1587.7 481.37)"/><path d="M1643.44-120.62a3.84,3.84,0,0,0-3.83,3.83,3.83,3.83,0,0,0,3.83,3.83,3.82,3.82,0,0,0,3.83-3.83A3.83,3.83,0,0,0,1643.44-120.62Z" transform="translate(-1587.7 481.37)"/><path d="M1651.1-88.06a3.83,3.83,0,0,0-3.83,3.83,3.83,3.83,0,0,0,3.83,3.83,3.82,3.82,0,0,0,3.83-3.83A3.82,3.82,0,0,0,1651.1-88.06Z" transform="translate(-1587.7 481.37)"/><path d="M1676-63.16a3.82,3.82,0,0,0-3.83,3.83A3.83,3.83,0,0,0,1676-55.5a3.84,3.84,0,0,0,3.83-3.83A3.83,3.83,0,0,0,1676-63.16Z" transform="translate(-1587.7 481.37)"/><path d="M1650.93-27.3l-.16.23c-2.58,3.8-35.87,56.72,43.42,154.45h0s-10.77-73.35,5-91.33c0,0,.09-.11.14-.17A398.72,398.72,0,0,1,1650.93-27.3Z" transform="translate(-1587.7 481.37)" style="fill:#4904ab"/><path d="M1810.78-157.56A272.57,272.57,0,0,1,1863.19-91c13.89-11.61,87.61,9.69,87.61,9.69C1895.27-161.79,1810.78-157.56,1810.78-157.56Z" transform="translate(-1587.7 481.37)" style="fill:#4904ab"/><path d="M1598.78-165.9s19.88,5.11,47.53-7.38c24.67-11.14,58.85-38.49,38.3-61.28a2.44,2.44,0,0,0-.28-.26c-2-1.64-12-6.05-22.33-9.18-25.36-7.67-61-17-68.73-17.23a1.14,1.14,0,0,1-.58-.14v0C1592.66-259.36,1591.55-183.19,1598.78-165.9Z" transform="translate(-1587.7 481.37)" style="fill:#4904ab"/><path id="blob" d="M1697-1c0,20.43,39.21,28,55.5,28S1782,10.43,1782-10s-38.71-48-55-48S1697-21.43,1697-1Z" transform="translate(-1587.7 481.37)" style="fill:#31ae98"/><g id="astro"><path d="M2271.21-346.71c7.55,8.14,15.22,16.47,19.88,26.55s5.91,22.38.5,32.08c-3.29,5.91-8.69,10.33-14.17,14.3a192.53,192.53,0,0,1-30,17.85c-10.65,5.08-26.27,11-32,22.13-6.55,12.77-.6,30.86,5.83,42.37,7.7,13.77,18.83,25.31,27.42,38.55s14.67,29.48,10.52,44.71c-3,10.84-10.9,19.9-20.53,25.69s-20.84,8.53-32,9.57c-15.45,1.44-31.57-.39-45.21-7.78a65.16,65.16,0,0,1-28.45-32c-7.56-18-7.3-38.16-10.9-57.34-18-95.67-137.87-153.22-222.9-103.38-15.84,9.28-29.44,23-36.46,40-5.33,12.9-6.77,27.26-13.13,39.68-6.45,12.62-17.54,22.3-29.48,29.91a146.8,146.8,0,0,1-49.41,19.91c-19,3.88-36.7.79-55.58,2-6.6.41-13.65,3.13-16.65,9-2.48,4.86-1.67,10.71-.36,16,4.17,16.81,43.08,96.3,54.92,108.94" transform="translate(-1587.7 481.37)" style="fill:none;stroke-miterlimit:10;stroke-width:2px;stroke:url(#linear-gradient)"/><path d="M2269.65-335.88c-4.58,2.29-10.3-2.29-10.3-2.29s-.36-.9-1-2.46c2.91-2.88,1.5-9.59-3.28-15.21l-.39.33-10.75-15.81c-3.79-7-7.49-12.61-10.05-13.78a35.19,35.19,0,0,0,9.47-1.14c15.87-4.87,32.33,28.58,36.63,35.48S2269.65-335.88,2269.65-335.88Z" transform="translate(-1587.7 481.37)" style="stroke:#000;stroke-miterlimit:10;stroke-width:1.3109999895095825px;fill:url(#linear-gradient-2)"/><path d="M2169.65-386.82c-5.46-5.27-7.49-12-4.54-15.09s9.78-1.26,15.24,4Z" transform="translate(-1587.7 481.37)" style="fill:#dd7105;stroke:#000;stroke-miterlimit:10;stroke-width:1.4730000495910645px"/><path d="M2274.5-313.39v24c-11.45,3.44-14.88-9.15-14.88-9.15-2.72-.77-5.32-1.62-7.78-2.55-18.33-6.9-29.74-18.12-37.06-29.48-12.4-19.25-13.1-38.94-15.83-38.94-4.58,0-28.62-17.18-28.62-17.18l10.3-11.44,10.3,6.87s26.15,5.94,43.17,5.72h0c2.56,1.17,6.26,6.8,10.05,13.78l10.75,15.81.39-.33c4.78,5.62,6.19,12.33,3.28,15.21.67,1.56,1,2.46,1,2.46a9.09,9.09,0,0,1-9.16,1.15c.48,9.6,4.79,15.38,9.64,18.85a30.1,30.1,0,0,0,14.4,5.19Z" transform="translate(-1587.7 481.37)" style="stroke:#000;stroke-miterlimit:10;stroke-width:1.3109999895095825px;fill:url(#linear-gradient-3)"/><path d="M2235.31-383.95l8.59,12.63,10.74,15.81.13.17-2.16,1.73-3.47,2.77-5.82,4.66-2.89-3.56-12-14.76" transform="translate(-1587.7 481.37)" style="stroke:#000;stroke-miterlimit:10;stroke-width:1.3109999895095825px;fill:url(#linear-gradient-4)"/><path d="M2258.32-340.63a1.88,1.88,0,0,1-.25.24c-3.24,2.76-9.85.3-14.77-5.48l5.84-5,3.42-2.9,2.08-1.77.39-.34c4.79,5.63,6.2,12.34,3.29,15.22Z" transform="translate(-1587.7 481.37)" style="fill:#dd7105;stroke:#000;stroke-miterlimit:10;stroke-width:1.3109999895095825px"/><path d="M2258.2-413.44a36.06,36.06,0,0,1-38.61,36,36.19,36.19,0,0,1-33.44-33.41,36.08,36.08,0,0,1,36-38.64h0A36.05,36.05,0,0,1,2258.2-413.44Z" transform="translate(-1587.7 481.37)" style="stroke:#000;stroke-miterlimit:10;stroke-width:1.3109999895095825px;fill:url(#linear-gradient-5)"/><path d="M2204.68-444.69l16.9,31-24,26.33S2167.78-416,2204.68-444.69Z" transform="translate(-1587.7 481.37)" style="stroke:#000;stroke-miterlimit:10;stroke-width:1.1449999809265137px;fill:url(#linear-gradient-6)"/><path d="M2250.19-337s-22-12.48-40.75-2.24" transform="translate(-1587.7 481.37)" style="fill:none;stroke:#000;stroke-miterlimit:10;stroke-width:1.1449999809265137px"/></g><rect x="1727.11" y="-73.68" width="17.89" height="74.52" rx="5.5" transform="translate(-1376.53 1275.58) rotate(-27.38)" style="fill:#4904ab"/><rect x="1727.11" y="-73.68" width="17.89" height="74.52" rx="5.5" transform="translate(-1376.53 1275.58) rotate(-27.38)" style="fill:none;stroke:#4904ab;stroke-miterlimit:10;stroke-width:1.421105000534629px"/></g></g></svg>