<svg xmlns="http://www.w3.org/2000/svg" xmlns:xlink="http://www.w3.org/1999/xlink" viewBox="0 0 1920 1080"><defs><clipPath id="clip-path"><path d="M113.81,188.83c-2,2.27-4.06,4.48-6,6.82-5.57,6.8-9.89,14.42-14.23,22q-4.93,8.63-10,17.18c-1.61,2.72-.68,5.41,2.43,6.08,4,.86,7.8-.18,11.38-2,.64-.32,1-1.28,1.41-2,6.33-11.07,13.48-21.53,22.9-30.24,8.54-7.9,18.23-13.62,30-15.15a7.06,7.06,0,0,1,4.61.77c5.3,2.89,10.83,5.39,16,8.47a48.71,48.71,0,0,1,9.1,7.09c2.94,2.88,2.69,6.89,2.69,10.73,0,10.36.07,20.72.14,31.08q.12,17,.27,34c.07,8.05.32,16.1.17,24.15-.14,7.07-.66,14.14-1.11,21.21-.54,8.48-1.11,17-1.82,25.43-1,12.19-2.13,24.38-3.25,36.57-7,75.82-13.74,150-7.87,226.35,1.75,22.83,4.3,45.89.83,68.52-1.65,10.75-4.17,23.27,3.21,31.26,3.06,3.32,7.36,5.18,11.65,6.58a79.41,79.41,0,0,0,50.14-.44c6.61-2.29,14.13-8.74,10.74-14.86-1-1.85-2.85-3.07-4.51-4.38-23.41-18.35-17.4-53.47-17.25-79.38.08-13.2.27-26.41.47-39.62q.36-22.41.85-44.81c.16-7.73.66-15.46.58-23.18-.13-12.43-.63-24.86-1-37.29-.38-13.91-.74-27.82-1.16-41.72-.58-19.19-1.28-38.38-1.78-57.57-.29-11.14-.28-22.28-.44-33.42-.13-9.27-.34-18.53-.45-27.8-.14-12.3-.18-24.59-.31-36.89-.12-11.4-.31-22.79-.46-34.19-.06-4,0-8-.16-12-.12-3.21,1.41-5.91,2.78-8.51a133.69,133.69,0,0,1,7.67-12.22,5.3,5.3,0,0,1,2.64-1.75c5.3-1.77,10.69-3.28,16-5.15,7.65-2.7,15.32-2.45,23-.48,8.47,2.17,16.85,4.72,25.35,6.74a49.71,49.71,0,0,0,12.2,1.39c6-.11,10.16-4.75,10.38-10.68.46-12.56.89-25.11,1.41-37.67.15-3.59.6-7.17.83-10.76a4.63,4.63,0,0,0-2.57-4.61,10.4,10.4,0,0,1-1.84-1.42c-4-3.57-8.71-2.83-13.4-2.16-10.33,1.47-20.65,2.93-31,4.44-6.2.9-12.11-.63-18.11-1.88-10.58-2.19-21.2-4.24-31.86-6-8.46-1.37-17-.44-25.43.49a152.08,152.08,0,0,0-29.28,6,119.92,119.92,0,0,0-34.36,16.8c-3.59,2.59-7,5.46-10.47,8.21Z" style="fill:#ccc"/></clipPath></defs><title>laborDayWeb</title><g id="Layer_2" data-name="Layer 2"><g id="Layer_11" data-name="Layer 11"><path d="M1920,1080H0V0H1920Z" style="fill:#333"/><path d="M113.81,188.83c-2,2.27-4.06,4.48-6,6.82-5.57,6.8-9.89,14.42-14.23,22q-4.93,8.63-10,17.18c-1.61,2.72-.68,5.41,2.43,6.08,4,.86,7.8-.18,11.38-2,.64-.32,1-1.28,1.41-2,6.33-11.07,13.48-21.53,22.9-30.24,8.54-7.9,18.23-13.62,30-15.15a7.06,7.06,0,0,1,4.61.77c5.3,2.89,10.83,5.39,16,8.47a48.71,48.71,0,0,1,9.1,7.09c2.94,2.88,2.69,6.89,2.69,10.73,0,10.36.07,20.72.14,31.08q.12,17,.27,34c.07,8.05.32,16.1.17,24.15-.14,7.07-.66,14.14-1.11,21.21-.54,8.48-1.11,17-1.82,25.43-1,12.19-2.13,24.38-3.25,36.57-7,75.82-13.74,150-7.87,226.35,1.75,22.83,4.3,45.89.83,68.52-1.65,10.75-4.17,23.27,3.21,31.26,3.06,3.32,7.36,5.18,11.65,6.58a79.41,79.41,0,0,0,50.14-.44c6.61-2.29,14.13-8.74,10.74-14.86-1-1.85-2.85-3.07-4.51-4.38-23.41-18.35-17.4-53.47-17.25-79.38.08-13.2.27-26.41.47-39.62q.36-22.41.85-44.81c.16-7.73.66-15.46.58-23.18-.13-12.43-.63-24.86-1-37.29-.38-13.91-.74-27.82-1.16-41.72-.58-19.19-1.28-38.38-1.78-57.57-.29-11.14-.28-22.28-.44-33.42-.13-9.27-.34-18.53-.45-27.8-.14-12.3-.18-24.59-.31-36.89-.12-11.4-.31-22.79-.46-34.19-.06-4,0-8-.16-12-.12-3.21,1.41-5.91,2.78-8.51a133.69,133.69,0,0,1,7.67-12.22,5.3,5.3,0,0,1,2.64-1.75c5.3-1.77,10.69-3.28,16-5.15,7.65-2.7,15.32-2.45,23-.48,8.47,2.17,16.85,4.72,25.35,6.74a49.71,49.71,0,0,0,12.2,1.39c6-.11,10.16-4.75,10.38-10.68.46-12.56.89-25.11,1.41-37.67.15-3.59.6-7.17.83-10.76a4.63,4.63,0,0,0-2.57-4.61,10.4,10.4,0,0,1-1.84-1.42c-4-3.57-8.71-2.83-13.4-2.16-10.33,1.47-20.65,2.93-31,4.44-6.2.9-12.11-.63-18.11-1.88-10.58-2.19-21.2-4.24-31.86-6-8.46-1.37-17-.44-25.43.49a152.08,152.08,0,0,0-29.28,6,119.92,119.92,0,0,0-34.36,16.8c-3.59,2.59-7,5.46-10.47,8.21Z" style="fill:#ccc"/><g style="clip-path:url(#clip-path)"><path d="M308.27,453.47l-6.95,188.26c-1.34,36.18-2.89,73.32-17.25,106.55s-44.65,62.15-80.81,64c-33.17,1.65-64.25-20-81.87-48.19S97.52,702.15,94.28,669.1a619.36,619.36,0,0,1-.68-112.7c2.32-27.1,1.66-84.32,20.63-106,20-22.89,53.54.55,79.34,5.28A285.34,285.34,0,0,0,308.27,453.47Z" style="fill:#ffb100"/></g><path d="M1801.72,477.77c-5.46.85-10.88,2-16.36,2.48-42.63,3.83-82.26-28.1-87.95-70.62a83.16,83.16,0,0,1,6.62-46.06c.65-1.46.59-2.31-.63-3.47q-83.64-79-162.58-162.72c-1.44-1.54-2.45-1.07-3.89-.43-41.12,18.12-88.48,1-108.09-39.18-9.06-18.57-10.62-38-5.44-57.94.06-.22.17-.41.39-1,.68.63,1.26,1.15,1.81,1.69q17.89,17.91,35.78,35.81c9.61,9.61,22.37,9.65,31.94.09q12.4-12.42,24.82-24.84c9.23-9.27,9.24-22.23,0-31.47L1482.05,44c-.53-.53-1-1.09-2-2.07,4.55-.85,8.68-1.86,12.86-2.38a82.48,82.48,0,0,1,90.73,63.87,80.91,80.91,0,0,1-5.14,51.7c-.91,2-.78,3.17.92,4.78q83,78.39,161.3,161.42c1.69,1.79,2.89,2,5.14,1a82.46,82.46,0,0,1,114.17,58.82,81.17,81.17,0,0,1-1.18,38.38c-.07.27-.21.53-.41,1-.72-.68-1.32-1.21-1.89-1.77L1821,383.17c-9.7-9.72-22.39-9.77-32.1-.08q-12.25,12.24-24.49,24.51c-9.59,9.63-9.57,22.39,0,31.95q18.15,18.12,36.27,36.28a14.86,14.86,0,0,0,1.22,1Z" style="fill:#ccc"/><path d="M756.52,223.41V179.93H712.57v43.48H688.74V115.09h23.83V158h43.95V115.09h23.83V223.41Z" style="fill:#fff"/><path d="M887,223.41l-9.9-24.3h-45.8l-9.91,24.3H797.06l46.42-109.09h22l46.43,109.09Zm-32.8-80.47-14.39,35.13h28.78Z" style="fill:#fff"/><path d="M1010.91,169.4a33.8,33.8,0,0,1-9.36,11.92,40.51,40.51,0,0,1-13.93,7.19,59,59,0,0,1-17.1,2.4h-18.1v32.5H928.59V115.09h44.25a52,52,0,0,1,17.41,2.71,36.86,36.86,0,0,1,13,7.66,33.46,33.46,0,0,1,8.2,11.84,39.3,39.3,0,0,1,2.86,15.24v.31A37.92,37.92,0,0,1,1010.91,169.4ZM990.17,153q0-8-5.18-12.22t-14.16-4.18H952.42v33.11h18.87q9,0,13.93-4.72a15.48,15.48,0,0,0,4.95-11.68Z" style="fill:#fff"/><path d="M1114.27,169.4a33.8,33.8,0,0,1-9.36,11.92,40.37,40.37,0,0,1-13.92,7.19,59.09,59.09,0,0,1-17.1,2.4h-18.11v32.5H1032V115.09h44.26a52,52,0,0,1,17.41,2.71,37,37,0,0,1,13,7.66,33.59,33.59,0,0,1,8.2,11.84,39.48,39.48,0,0,1,2.86,15.24v.31A37.92,37.92,0,0,1,1114.27,169.4ZM1093.54,153q0-8-5.18-12.22t-14.16-4.18h-18.42v33.11h18.88q9,0,13.93-4.72a15.48,15.48,0,0,0,5-11.68Z" style="fill:#fff"/><path d="M1189.63,180.24v43.17H1165.8V180.7l-41.62-65.61H1152l25.84,43.48,26.31-43.48h27.08Z" style="fill:#fff"/><path d="M619.73,411.38V278.53H649V385h66.23v26.38Z" style="fill:#6dbb4c"/><path d="M809.7,277.58h-27l-56.93,133.8h29.79l12.15-29.8h24.29c0-1.3.08-2.6.11-3.9.06-2.24.06-4.49.09-6.74,0-1.86.07-3.73.09-5.6,0-2.48,0-5,.07-7.44,0-2.3.06-4.6.09-6.9,0-.8,0-1.61,0-2.41a3.32,3.32,0,0,0-.56-1.72,26.08,26.08,0,0,0-1.55-2.46,1.05,1.05,0,0,0-.53-.36c-1.07-.35-2.16-.66-3.22-1a7.74,7.74,0,0,0-4.64-.1c-1.7.44-3.39.95-5.11,1.36a10.2,10.2,0,0,1-2.46.28,2.13,2.13,0,0,1-2.09-2.16c-.09-2.53-.18-5.06-.29-7.59,0-.73-.12-1.45-.16-2.17a.92.92,0,0,1,.52-.93,2.48,2.48,0,0,0,.37-.29,3,3,0,0,1,2.7-.43l6.25.89a10.48,10.48,0,0,0,3.65-.38c2.13-.44,4.27-.85,6.42-1.2a18.76,18.76,0,0,1,5.13.1,30.54,30.54,0,0,1,5.91,1.21A24.13,24.13,0,0,1,809.8,335c.72.52,1.4,1.1,2.11,1.65l2.37,2.38c.4.45.82.9,1.21,1.37a32.36,32.36,0,0,1,2.87,4.44c.66,1.16,1.33,2.31,2,3.46a.76.76,0,0,1-.49,1.23,3.36,3.36,0,0,1-2.3-.4c-.13-.06-.2-.25-.29-.4a24.7,24.7,0,0,0-4.61-6.09,10.91,10.91,0,0,0-6.06-3.06,1.51,1.51,0,0,0-.93.15c-1.07.59-2.18,1.09-3.23,1.71a9.71,9.71,0,0,0-1.83,1.43,2.72,2.72,0,0,0-.54,2.17c0,2.09,0,4.18,0,6.26l-.06,6.86c0,1.62-.06,3.25,0,4.87,0,1.42.13,2.85.22,4.28.11,1.71.23,3.42.37,5.12.2,2.46.43,4.92.65,7.38.06.59.11,1.18.17,1.77h22.54l12.15,29.8h30.55Z" style="fill:#6dbb4c"/><path d="M985.87,464h-54L817.74,846.81h59.72l24.34-85.24h45.61c.7-14,2-28.06,3.28-42.23.43-4.62.85-9.23,1.23-13.85.27-3.21.49-6.42.69-9.64.17-2.67.37-5.35.42-8,.06-3.05,0-6.1-.06-9.15q-.06-6.43-.1-12.87c0-3.92-.07-7.85-.06-11.77,0-1.46.1-3-1-4.07a18.18,18.18,0,0,0-3.44-2.68c-2-1.17-4.06-2.12-6.07-3.21a2.69,2.69,0,0,0-1.75-.29,20.46,20.46,0,0,0-11.37,5.74A47,47,0,0,0,920.49,661c-.16.27-.29.63-.54.75a6.42,6.42,0,0,1-4.31.75,1.42,1.42,0,0,1-.92-2.3c1.28-2.16,2.55-4.33,3.79-6.51a60,60,0,0,1,5.39-8.34c.73-.88,1.51-1.72,2.27-2.58l4.46-4.46c1.32-1,2.6-2.12,4-3.11a45.52,45.52,0,0,1,13-6.36,58.08,58.08,0,0,1,11.09-2.28,35.71,35.71,0,0,1,9.63-.18c4,.65,8.06,1.43,12.07,2.26,2.27.47,4.51,1,6.86.71L999,627.64c1.78-.26,3.56-.53,5.08.82a4.37,4.37,0,0,0,.69.53,1.75,1.75,0,0,1,1,1.75c-.09,1.36-.26,2.72-.32,4.08q-.28,7.13-.53,14.26a4,4,0,0,1-3.93,4,18.46,18.46,0,0,1-4.62-.53c-3.22-.76-6.4-1.73-9.61-2.55a14.63,14.63,0,0,0-8.71.18c-2,.71-4,1.28-6,1.95a2.12,2.12,0,0,0-1,.66,52,52,0,0,0-2.91,4.63A6.39,6.39,0,0,0,967,660.7c.06,1.51,0,3,.06,4.53.06,4.32.13,8.64.17,12.95,0,4.66.07,9.32.12,14,0,3.51.12,7,.17,10.53.06,4.22.06,8.44.17,12.66.19,7.26.45,14.53.67,21.8q.24,7.9.44,15.8c.08,2.87.17,5.74.25,8.62h45.33l24.34,85.24H1100Z" style="fill:#6dbb4c"/><path d="M993.24,353.78q-6.62-7.5-18.13-11.86a36.61,36.61,0,0,0,6.69-4.56,30.21,30.21,0,0,0,5.47-6.16,31.38,31.38,0,0,0,3.77-7.88,32.72,32.72,0,0,0,1.41-10.06v-.38q0-15.75-11.65-25.05t-32.11-9.3H887.13v22.2l1.27.12,7.38.66c1.71.14,3.42.25,5.13.36,1.42.09,2.85.2,4.27.22,1.63,0,3.25,0,4.87,0l6.86-.05c2.09,0,4.18,0,6.27,0a2.79,2.79,0,0,0,2.16-.54,10.1,10.1,0,0,0,1.43-1.84c.62-1.05,1.12-2.16,1.71-3.23a1.38,1.38,0,0,0,.15-.93,10.83,10.83,0,0,0-3-6.05,25.23,25.23,0,0,0-6.1-4.62c-.14-.08-.34-.16-.4-.29a3.45,3.45,0,0,1-.4-2.29.76.76,0,0,1,1.23-.49l3.46,2a30.58,30.58,0,0,1,4.44,2.87c.47.38.92.8,1.38,1.2l2.37,2.38c.55.7,1.13,1.38,1.65,2.11a23.88,23.88,0,0,1,3.39,6.93,30.45,30.45,0,0,1,1.21,5.9,18.76,18.76,0,0,1,.1,5.13c-.35,2.15-.76,4.29-1.2,6.42a10.56,10.56,0,0,0-.38,3.66l.9,6.25a3.06,3.06,0,0,1-.44,2.7,2.16,2.16,0,0,0-.29.37.94.94,0,0,1-.93.52c-.72-.05-1.44-.14-2.17-.17-2.53-.11-5.06-.19-7.59-.29a2.13,2.13,0,0,1-2.16-2.09,10.21,10.21,0,0,1,.29-2.46c.4-1.71.92-3.4,1.35-5.11a7.81,7.81,0,0,0-.09-4.64c-.38-1.06-.69-2.15-1-3.22a1.15,1.15,0,0,0-.35-.53,27.59,27.59,0,0,0-2.47-1.55,3.51,3.51,0,0,0-1.72-.56c-.8,0-1.61,0-2.41,0l-6.9.1c-2.48,0-5,0-7.44.06l-5.6.09c-2.25,0-4.5,0-6.74.09l-3.4.1v62.23c6.51,0,13,.13,19.55.33a.83.83,0,0,0,.94-.64,17.91,17.91,0,0,1,26.56-8.5,17.66,17.66,0,0,1,5.71,6.07c0,.06.05.12.09.22l-.56,0H928.48a4.63,4.63,0,0,0-4.94,4.92q0,3.75,0,7.52a4.62,4.62,0,0,0,4.9,4.9h11.14l.34,0,.12.17c-.71,1-1.36,2-2.13,2.89a18,18,0,0,1-24.34,2.66,18.13,18.13,0,0,1-6.06-8.09.53.53,0,0,0-.62-.43c-6.59.18-13.18.27-19.77.31v26.82h63.09a84.58,84.58,0,0,0,20.36-2.28,47.2,47.2,0,0,0,15.73-6.83,31,31,0,0,0,10-11.39,34.42,34.42,0,0,0,3.5-15.94v-.38Q999.85,361.29,993.24,353.78Z" style="fill:#6dbb4c"/><path d="M1267.82,363.93A45.69,45.69,0,0,0,1288.41,349q7.88-10.16,7.87-26.29v-.38q0-20.69-13.19-32.26t-36.91-11.58h-60.73v27.79q12.39,0,24.77.37a.82.82,0,0,0,.94-.64,17.9,17.9,0,0,1,26.55-8.5,17.6,17.6,0,0,1,5.71,6.08c0,.05,0,.11.1.22l-.56,0H1232a4.63,4.63,0,0,0-4.94,4.92v7.52a4.65,4.65,0,0,0,4.91,4.91h11.13c.12,0,.23,0,.35,0l.12.16c-.71,1-1.36,2-2.13,2.89a17.94,17.94,0,0,1-30.4-5.43.55.55,0,0,0-.63-.43q-12.48.36-25,.35v92.66h29.23V368.87h23l28.47,42.51h34.16Z" style="fill:#6dbb4c"/><path d="M1127.19,400.18Q1109,383,1091.9,364.86c-.32-.34-.54-.23-.85-.1a17.93,17.93,0,0,1-24.65-21.08l.09-.21.39.37,7.77,7.77a4.62,4.62,0,0,0,6.93,0q2.7-2.69,5.39-5.39a4.62,4.62,0,0,0,0-6.83l-7.83-7.84-.43-.45c1-.19,1.88-.41,2.79-.52a17.92,17.92,0,0,1,19.7,13.87,17.61,17.61,0,0,1-1.12,11.22.76.76,0,0,0,.2,1q18,17,35,35a.81.81,0,0,0,1.11.22,18.14,18.14,0,0,1,5.77-1.48,69.06,69.06,0,0,0,12-18.89,67.18,67.18,0,0,0,5.31-26.66v-.38a68.37,68.37,0,0,0-5.21-26.67,65.69,65.69,0,0,0-14.62-21.63,70.24,70.24,0,0,0-22.3-14.62,72.51,72.51,0,0,0-28.27-5.4,73.28,73.28,0,0,0-28.38,5.4,68,68,0,0,0-37.1,36.63,67.19,67.19,0,0,0-5.31,26.67v.37a68.2,68.2,0,0,0,5.22,26.67,65.31,65.31,0,0,0,14.61,21.63,70.24,70.24,0,0,0,22.3,14.62,77,77,0,0,0,56.65,0,73.35,73.35,0,0,0,9.34-4.68,18.4,18.4,0,0,1,.95-2.63A.56.56,0,0,0,1127.19,400.18Z" style="fill:#6dbb4c"/><path d="M1310.33,466.73l-64.66,152.58-63.53-152.58h-68.47L1216,697V846.81h58.58V695.32L1376.9,466.73ZM1256.5,842.62l-.24.23a8.16,8.16,0,0,0-1.09-.15l-29,.19a10.8,10.8,0,0,0-1.1.16l-.23-.23c0-.32.07-.65.07-1q0-71,0-141.9a7.38,7.38,0,0,0-.07-.81l.24-.23a8.16,8.16,0,0,0,1.09.15q14.49-.07,29-.19a7,7,0,0,0,1.1-.16l.23.23c0,1.3-.08,2.61-.13,4-.63,0-1.21.06-1.8.07l-18.73.12c-.44,0-1-.14-1.29.08-.54.42-1.21,1-1.28,1.6,0,.42.73,1,1.27,1.37.36.22,1,.08,1.45.08l18.9-.11c.48,0,1,0,1.26,0,0,2.26,0,4.44,0,6.65-4.23,0-8.55.08-12.88.1-1.19,0-2.35.11-2.31,1.63s1.17,1.49,2.28,1.48l13.14-.07c0,1.83-.07,3.57-.12,6a26.94,26.94,0,0,0-3.26-.39c-3.35,0-6.69,0-10,.06-1.09,0-2,.23-2,1.59s1,1.5,2.07,1.49c3.89-.06,7.78-.06,11.67-.07.54,0,1.08,0,1.59,0,0,1.78,0,3.45,0,5.47-4.19,0-8.34-.07-12.49,0-1.18,0-2.85-.43-2.86,1.52s1.6,1.55,2.82,1.53c4.16-.05,8.32-.13,12.46-.2,0,2.19,0,4.13,0,6.3-2.93,0-5.82,0-8.72,0-4,0-8.11.06-12.16.07-1.13,0-2.22.13-2.23,1.55s1.08,1.58,2.21,1.56c6.3-.06,12.6-.1,18.9-.17.65,0,1.3-.11,1.86-.17.06,1.62.12,2.95.18,4.47-4.64,0-9.24,0-13.84,0a2.75,2.75,0,0,0-1.69.39,1.71,1.71,0,0,0-.47,1.56,2.26,2.26,0,0,0,1.55,1.09c2.3.1,4.6,0,6.9,0l7.54,0c-.13,1.78-.26,3.55-.4,5.53l-3.77.07c-3.34,0-6.68,0-10,.13a2.7,2.7,0,0,0-1.73.92,1.51,1.51,0,0,0,.18,1.48,2.72,2.72,0,0,0,1.72.6c4.65,0,9.31-.12,14-.2,0,2,0,3.7,0,5.46-4.63,0-9.23.06-13.82.15a3.39,3.39,0,0,0-1.91.64,1.47,1.47,0,0,0-.17,1.45,3.08,3.08,0,0,0,1.86,1c4.11.06,8.22,0,12.33,0a16.25,16.25,0,0,0,1.72-.18c-.09,2.18-.18,4.12-.27,6.21-.31,0-.89.06-1.48.06l-18.73.12c-.5,0-1.12-.13-1.45.12a2.67,2.67,0,0,0-1.11,1.58c0,.42.64,1.05,1.14,1.32a3.54,3.54,0,0,0,1.61.11l20.16-.15c-.05,2.3-.09,4.51-.14,6.73l-12.92.11c-1.08,0-2.08.19-2.15,1.47s.72,1.67,1.92,1.65c4.43-.09,8.87-.13,13.43-.19-.11,1.93-.21,3.7-.33,5.94-.89-.06-2.13-.21-3.37-.21-3.23,0-6.46,0-9.7,0-1.13,0-2,.37-2,1.65s.93,1.47,2,1.46c3.83,0,7.67,0,11.5-.12a11.3,11.3,0,0,0,2-.44c0,2.24,0,3.88-.06,5.72-.54,0-1.11.08-1.68.09l-11.51.1c-1.11,0-2.22.12-2.18,1.58s1.08,1.53,2.23,1.51c4.38-.09,8.75-.14,13.18-.2,0,2.14,0,4.05-.05,6.13-.56,0-1.14.05-1.72.06l-19.23.11c-1.08,0-2.11.17-2.17,1.45-.06,1.5,1.07,1.68,2.27,1.67l19.39-.13,1.32,0c0,1.38-.08,2.72-.12,4.11l-12.88.11c-.44,0-.88,0-1.32,0-1,0-1.81.64-1.57,1.63a2.24,2.24,0,0,0,1.59,1.4c2.4.15,4.82,0,7.23,0l7.26-.14c0,1.94-.05,3.68-.08,5.6-.52,0-1.1.06-1.68.07q-6.16.06-12.33.1c-1.12,0-2,.3-2.06,1.58s1,1.56,2,1.56l14,0c0,1.7-.11,3.42-.18,5.38h-12.86c-.49,0-1,0-1.48,0-1,.07-1.56.57-1.49,1.58a1.41,1.41,0,0,0,1.6,1.47c2.9,0,5.8,0,8.71-.06,1.91,0,3.82-.12,6.44-.21Z" style="fill:#6dbb4c"/><path d="M778.18,581q-10.27-34.49-29.1-60t-44.89-39.91A116.46,116.46,0,0,0,647,466.73H543.1V621.8l10.41,9.09c3.3,2.87,6.62,5.72,9.93,8.59l4.95,4.29.12-.14c-.91-1.63-1.9-3.22-2.71-4.9a1.78,1.78,0,0,0-2.14-1.24,2.85,2.85,0,0,1-.52-5.68c.54-.08,1.09-.06,1.64-.12,3.08-.37,6.22-.07,9.19-1.55,4.55-2.27,9.26-4.24,13.9-6.34,5.4-2.45,10.78-4.92,16.19-7.34a2.63,2.63,0,0,1,1.64-.1c3.32.94,6.62,1.94,9.92,2.95a1.86,1.86,0,0,0,1.54-.16c2.55-1.39,5.14-2.72,7.73-4a2,2,0,0,1,1.24-.14c3.39.68,6.77,1.36,10.14,2.14,2.09.48,4.09.75,6.06-.46a2.59,2.59,0,0,1,1.66-.13c4.78.91,9.55,1.88,14.32,2.82,6.81,1.32,13.64,2.58,20.43,4a19.75,19.75,0,0,0,7.34.46,2.75,2.75,0,0,1,2.79,1.65,2.84,2.84,0,0,1-.61,3.25,3.3,3.3,0,0,1-2.46.87,2.42,2.42,0,0,0-1.68.69c-1.85,1.65-3.74,3.26-5.61,4.87q-10.86,9.32-21.72,18.62l-12.16,10.47-3.82,3.3,7.79,7c.49-.36.91-.67,1.33-1s.84-.61,1.28-.88a23.2,23.2,0,0,1,18.2-2.71,23.42,23.42,0,1,1-25.8,10.31.83.83,0,0,0,0-.77c-2.67-2.41-5.36-4.79-8.06-7.17a.92.92,0,0,0-1.43.07c-3.26,3.21-6.55,6.4-9.82,9.61-4,4-8,7.93-12,11.88s-8.11,8-12.23,12a3.85,3.85,0,0,1-2.27,1c-3.48.11-7,.07-10.46,0a2.88,2.88,0,0,1-3-2.59c-.15-1.44-.26-2.87-.37-4.31-.32-4.08-.62-8.17-.94-12.25-.55-6.89-1.12-13.79-1.66-20.68a4.45,4.45,0,0,0-1.46-2.54A17.32,17.32,0,0,0,578,663q-6.64-5.91-13.28-11.85-8.52-7.59-17-15.17l-4.58-4.1v214.9H647a114.66,114.66,0,0,0,57.24-14.66A142.1,142.1,0,0,0,749.08,792q18.82-25.51,29.1-60.27t10.27-74.93v-1.09Q788.45,615.51,778.18,581Z" style="fill:#6dbb4c"/><path d="M564.72,651.18Q571.37,657.11,578,663a17.32,17.32,0,0,1,1.86,1.52,4.45,4.45,0,0,1,1.46,2.54c.54,6.89,1.11,13.79,1.66,20.68.32,4.08.62,8.17.94,12.25.11,1.44.22,2.87.37,4.31a2.88,2.88,0,0,0,3,2.59c3.49,0,7,.08,10.46,0a3.85,3.85,0,0,0,2.27-1c4.12-3.94,8.17-8,12.23-12s8-7.92,12-11.88c3.27-3.21,6.56-6.4,9.82-9.61a.92.92,0,0,1,1.43-.07c2.7,2.38,5.39,4.76,8.06,7.17a.83.83,0,0,1,0,.77A23.45,23.45,0,1,0,669.41,670a23.2,23.2,0,0,0-18.2,2.71c-.44.27-.86.58-1.28.88s-.84.6-1.33,1l-7.79-7,3.82-3.3,12.16-10.47q10.85-9.32,21.72-18.62c1.87-1.61,3.76-3.22,5.61-4.87a2.42,2.42,0,0,1,1.68-.69,3.3,3.3,0,0,0,2.46-.87,2.84,2.84,0,0,0,.61-3.25,2.75,2.75,0,0,0-2.79-1.65,19.75,19.75,0,0,1-7.34-.46c-6.79-1.4-13.62-2.66-20.43-4-4.77-.94-9.54-1.91-14.32-2.82a2.59,2.59,0,0,0-1.66.13c-2,1.21-4,.94-6.06.46-3.37-.78-6.75-1.46-10.14-2.14a2,2,0,0,0-1.24.14c-2.59,1.31-5.18,2.64-7.73,4a1.86,1.86,0,0,1-1.54.16c-3.3-1-6.6-2-9.92-2.95a2.63,2.63,0,0,0-1.64.1c-5.41,2.42-10.79,4.89-16.19,7.34-4.64,2.1-9.35,4.07-13.9,6.34-3,1.48-6.11,1.18-9.19,1.55-.55.06-1.1,0-1.64.12a2.85,2.85,0,0,0,.52,5.68,1.78,1.78,0,0,1,2.14,1.24c.81,1.68,1.8,3.27,2.71,4.9l-.12.14-4.95-4.29c-3.31-2.87-6.63-5.72-9.93-8.59L543.1,621.8v2.48l1.83,1.6c4,3.46,7.93,6.94,11.91,10.39,4.61,4,9.23,8,13.83,12a6.19,6.19,0,0,1,1.15,1.48c.72,1.21,1.38,2.46,2.07,3.69l3.41,6.21c-2.75-2.27-5.38-4.64-8-7L551,636.37l-7.85-7v2.56l4.58,4.1Q556.19,643.6,564.72,651.18Zm66.88,21L620.76,682.8q-4.62,4.53-9.22,9.08-6.43,6.33-12.89,12.63a2,2,0,0,1-1.21.51c-3.32,0-6.63,0-10,0-.93,0-1.29-.35-1.37-1.29L585,689.27q-.66-8.28-1.31-16.55c-.16-2-.31-4.06-.46-6.17.46,0,.74.08,1,.07.75,0,1.11.25,1.07,1a11.2,11.2,0,0,0,.11,1.64l1.29,15.94c.45,5.54.91,11.09,1.34,16.63a1,1,0,0,0,1.22,1.11c2.51,0,5,0,7.52,0a1.66,1.66,0,0,0,1-.36c.84-.75,1.61-1.56,2.41-2.35,3.56-3.52,7.11-7.06,10.68-10.56,3.23-3.17,6.49-6.3,9.72-9.46,2.7-2.63,5.38-5.29,8.08-7.92a2.56,2.56,0,0,1,3.16-.41C631.74,672,631.68,672.08,631.6,672.16Zm-44.52-5.24,39.83,4.26c-2,2-3.82,3.91-5.71,5.79-3.53,3.47-7.09,6.91-10.63,10.37q-6.75,6.63-13.49,13.26a1.32,1.32,0,0,1-.7.45c-2.15,0-4.3,0-6.52,0C588.93,689.65,588,678.33,587.08,666.92Zm76.69,4.15A21.53,21.53,0,1,1,642,692.29,21.55,21.55,0,0,1,663.77,671.07Zm-21.25.53,4.61,4.17L645,678.19c-2.7-2.39-5.36-4.76-8.12-7.22.71-.63,1.36-1.16,1.94-1.75.44-.43.74-.34,1.14,0C640.8,670.06,641.66,670.83,642.52,671.6Zm0-53a2.33,2.33,0,0,1,1.24-.19c2.77.51,5.54,1.07,8.31,1.61l16.44,3.2,5.37,1.08a1.62,1.62,0,0,0,0,.22L620,628v-.13l.3-.17q4.63-1.87,9.25-3.77C633.88,622.19,638.21,620.38,642.55,618.61Zm-19.28-.53a5.65,5.65,0,0,1,4.92-.79c2.6.7,5.28,1.14,8.1,1.73-.21.14-.28.21-.35.24-2.69,1.11-5.37,2.23-8.07,3.31a1.69,1.69,0,0,1-1,0c-1.19-.32-2.37-.68-3.55-1l-4.21-1.25C620.63,619.46,622,618.88,623.27,618.08Zm-44.75,12,11.71-5.3c4.75-2.15,9.49-4.31,14.24-6.44a1.7,1.7,0,0,1,1.07-.07q3,.8,6,1.66c3.74,1.1,7.48,2.22,11.22,3.33l1.62.51c0,.07,0,.15,0,.22-3.27,1.34-6.54,2.7-9.83,4a8.47,8.47,0,0,1-2.49.54c-6.65.47-13.29.89-19.94,1.33l-13.8.92c-.31,0-.63,0-.95,0A4.32,4.32,0,0,1,578.52,630.11Zm-14.77,5.51a1,1,0,0,1-1.26-.89c-.09-.66.41-1,1-1.08.31,0,.63,0,1-.07l9.75-.62q8.5-.54,17-1.11l17-1.09c5-.33,10-.69,15-1l14.24-.91,17.26-1.13,14.42-.94c5.49-.36,11-.74,16.46-1.11v0h.52a1,1,0,0,1,1.11,1c0,.68-.39,1-1,1l-.87.07c-3.59.2-7.18.38-10.77.61-5.9.37-11.8.77-17.7,1.15-4.66.3-9.32.59-14,.9-6.18.42-12.36.87-18.54,1.28-4.4.29-8.81.52-13.21.81-7.19.47-14.38,1-21.57,1.47-6.81.46-13.63.89-20.45,1.34C567.32,635.36,565.53,635.48,563.75,635.62Zm3.63,1.65,114.24-7.46a4.62,4.62,0,0,1-.56.64c-.75.54-1.49,1.46-2.3,1.52-5.6.47-11.21.76-16.82,1.1l-18.65,1.12-18.63,1.13-18.47,1.11-18.56,1.14L569,638.7C567.84,638.77,567.57,638.55,567.38,637.27Zm5.35,10.09L569,640.58l107.52-6.51c-5.21,4.71-10.44,9.21-15.67,13.71l-10.21,8.79c-5,4.33-10.11,8.64-15.13,13a1.93,1.93,0,0,1-1.63.49c-5-.56-10-1.13-15-1.66-7.27-.77-14.55-1.51-21.83-2.28-4.78-.5-9.57-1-14.34-1.57A1.27,1.27,0,0,1,582,664c-.65-1.08-1.25-2.18-1.86-3.29Z" style="fill:#6dbb4c"/><path d="M663.4,706.75a14.18,14.18,0,1,0-14-14.16A14.15,14.15,0,0,0,663.4,706.75Zm.13-26.46a12.3,12.3,0,1,1-12.29,12.26A12.3,12.3,0,0,1,663.53,680.29Z" style="fill:#6dbb4c"/><path d="M663.53,699.08a6.51,6.51,0,1,0,0-13,6.51,6.51,0,0,0,0,13Zm.05-11.11a4.6,4.6,0,1,1-.07,9.2,4.6,4.6,0,0,1,.07-9.2Z" style="fill:#6dbb4c"/><path d="M1585.16,965.62c.38-1.68,1-3.19,1-4.68-.64-40.07,7.17-78.55,22-115.62,8.49-21.13,19.51-40.84,35.32-57.51,12.56-13.25,27.19-23.09,45.46-26.54a63.64,63.64,0,0,1,31.67,1.81c22.47,7.17,42.41,18.5,58.94,35.48a148.34,148.34,0,0,1,30.24,45A208.67,208.67,0,0,1,1826.7,922a54.65,54.65,0,0,0,.42,6.53c1.19,8.31-2.88,13.9-9.26,18.36-11.26,7.87-24.07,12.08-37.16,15.54-20.86,5.53-42.15,8.36-63.62,10.09-25.65,2.06-51.34,2.53-77,.36-17.67-1.49-35.23-4.39-52.83-6.69A12.74,12.74,0,0,1,1585.16,965.62Z" style="fill:#ffb100"/><path d="M1558.83,980.1,1516.91,966c1.48-4,3-7.82,4.29-11.7a17.4,17.4,0,0,0,1.18-5.11c.68-32.46,10.17-62.57,24.78-91.19,13.79-27,31.72-51,55.2-70.43,18.19-15.09,38.46-26.08,61.86-30.66a105.4,105.4,0,0,1,13-1.55,95.49,95.49,0,0,0-33.74,15.57c-15.2,11-27,25.15-36.88,41-16.83,26.95-27.52,56.37-34.6,87.21a354.17,354.17,0,0,0-8.31,65.53C1563.44,969.73,1560.56,974.76,1558.83,980.1Z" style="fill:#ffb100"/><path d="M1828.54,939.19c2.82,6.75,7.76,12.16,13.76,16.63a3.19,3.19,0,0,1,.85,4.65c-2.36,3.47-4.68,7.21-7.85,9.84-8.77,7.29-19.38,11.19-30.1,14.59-22.48,7.14-45.63,10.84-69,13.23a582.9,582.9,0,0,1-96.9,1.75c-30.45-2-60.63-5.72-89.88-14.92-10.62-3.34-21-7.37-30-14.22a5.87,5.87,0,0,1-2-2.43c2.33.76,4.67,1.5,7,2.29,10.33,3.48,20.67,7,31,10.51a19.63,19.63,0,0,1,3.34,2c6.63-4.63,13.74-9.67,21-14.53a6.55,6.55,0,0,1,4.26-.92c11.45,1.68,22.85,3.73,34.3,5.32,23.85,3.31,47.86,3.67,71.85,3,14.41-.39,28.8-1.7,43.15-3,21.57-2,42.78-6,63.3-13.13,8.73-3,17.19-6.78,24.39-12.71C1823.7,944.89,1825.93,942,1828.54,939.19Z" style="fill:#ffb100"/><path d="M1722.29,1002.44c-14.25,6.22-28.44,12.6-42.78,18.61-9.08,3.81-18.46,6.93-27.61,10.59-12.64,5-25.73,5.45-39,4.12-26.39-2.66-51.63-10.49-77.05-17.45-16.14-4.41-32.16-9.17-47.2-16.63a54.22,54.22,0,0,1-10.61-7c-4.33-3.61-4.31-7-.09-10.69,9.88-8.56,19.92-16.93,30.23-25.66,3.74,11.79,13,17,22.61,21.55,16,7.71,33.2,11.84,50.59,15.06,39.12,7.24,78.61,9.13,118.3,7.68,7.46-.27,14.92-.69,22.38-1Z" style="fill:#ffb100"/><path d="M1562.23,978.14c-.12-.48-.27-.73-.19-.87,5-9.39,4-19.75,4.82-29.82,4-47.89,16.33-93.21,41.58-134.47,10.36-16.91,23.13-31.76,39.87-42.8,17.15-11.3,35.91-15.9,56.36-13.08a1.68,1.68,0,0,1,1.08.48c-4.91.41-9.85.63-14.73,1.29-13.08,1.74-24.64,7.22-35.1,15.07-18.15,13.59-30.77,31.66-40.93,51.57-15.45,30.3-24.7,62.54-28.65,96.23-1.5,12.77-1.61,25.7-2.42,38.55-.07,1.14-.28,2.73-1,3.28C1576.11,968.51,1569.19,973.27,1562.23,978.14Z" style="fill:#ffb100"/><path d="M1641.13,760.74c-8.44,4.71-17.13,9-25.18,14.18-22.41,14.52-40.18,33.8-55.11,55.75a244.2,244.2,0,0,0-31.37,64.71,3.55,3.55,0,0,1-1.47,2.09c.86-4.86,1.61-9.74,2.61-14.56,4.4-21.11,11.55-41.13,23.14-59.47,19.07-30.17,45.54-50.52,79.78-60.68C1636.09,762,1638.69,761.38,1641.13,760.74Z" style="fill:#ffb100"/><path d="M1520.74,948.91l-5.91,16.68-1.1.21c-1-2.37-2.07-4.71-3-7.12a2.25,2.25,0,0,1,.39-2c2.85-2.78,5.8-5.46,8.73-8.17Z" style="fill:#ffb100"/><path d="M1033.29,944.15c0,12.92,0,25.61-.08,38.33-24.88,3-50,6.12-75.14,9.07a17.79,17.79,0,0,1-6.14-.77c-11.91-2.94-23.74-6.28-35.73-8.84-5.06-1.08-10.46-.78-15.7-.79q-60.39-.07-120.79,0c-21.94,0-43.89.07-65.83.06-22.26,0-44.52-.14-66.78-.13q-51.69,0-103.36.13-23.85,0-47.68,0c.06-11.87.12-23.57.19-36,6.66.11,13.65.32,20.64.34q41.48.08,83,.05,62.38,0,124.77,0,63.54,0,127.07,0c19.53,0,39.08.39,58.59-.23,7.31-.24,14.57-2.74,21.81-4.4s14.63-3.93,22-5.37c3.22-.62,6.74,0,10.09.35C987.19,938.61,1010.16,941.39,1033.29,944.15Z" style="fill:#ccc"/><path d="M497.3,896.12c0,45.2,0,90,0,135.92-4.83-.2-9.72-.52-14.6-.56-11.18-.09-22.37,0-33.55-.13a4.87,4.87,0,0,1-3.48-2c-14.24-23.48-46.57-23.24-60.44.47a3.74,3.74,0,0,1-2.68,1.55c-19.74.11-39.48.12-59.21.14q-32.56,0-65.13,0c-18.86,0-37.72-.07-56.58-.07-21.25,0-42.5.06-63.75,0-14.37,0-28.74.19-43.1-.24-24.07-.73-47.13-21.45-50-45.44-1.25-10.51-.6-21.23-1-31.85-.28-8.68.8-17.17,4.53-25,10.46-22,28.19-32.85,52.43-33,21.93-.14,43.87-.06,65.8-.05q47.06,0,94.09.1c25.12,0,50.23-.1,75.35-.11q23.19,0,46.37.17a4.13,4.13,0,0,1,3,1.67c13.47,23.42,46,23.85,59.94.67,1.05-1.74,2.06-2.46,4.07-2.45,15.14,0,30.27,0,45.41,0C495.6,895.92,496.36,896,497.3,896.12Zm-411,106.61c4.85,5.1,9.1,6.66,14.09,6.66q65.18,0,130.34,0,40.67,0,81.33.12,29.13,0,58.26,0a16.85,16.85,0,0,0,15.78-11.33c3.77-11.89-4.4-22.43-17.38-22.41-19.86.05-39.71.14-59.57.15q-87.74,0-175.49,0c-11.19,0-22.39-.17-33.58,0-7.27.11-13,3.27-15.79,10.29C81.6,992.85,82.8,998.92,86.26,1002.73Zm1.38-56.34a16,16,0,0,0,12.08,5q44.43,0,88.86.07l180.72,0c10.36,0,17.75-7.13,17.73-17.09,0-9.19-7.56-16.3-17.47-16.33-18.11-.06-36.21,0-54.31,0l-156,0c-19.86,0-39.71,0-59.57,0-7.49,0-12.63,3.88-15.6,10.61C81.55,934.38,83.14,941.78,87.64,946.39ZM482.13,918c-6.88,0-13.44-.08-20,.08a16.47,16.47,0,0,0-16,15.7c-.45,8.92,5.56,16.74,14.35,17.36,7.14.51,14.37-.2,21.57-.37Q482.11,935,482.13,918Zm0,58.38c-7.27-.1-14.31-.65-21.28-.2A16,16,0,0,0,446.07,992c-.26,8,5.4,16,13.16,16.91,7.54.89,15.23.5,22.84.67C482.1,998.12,482.14,987.28,482.17,976.4Z" style="fill:#ffb100"/></g></g></svg>