<svg xmlns="http://www.w3.org/2000/svg" xmlns:xlink="http://www.w3.org/1999/xlink" viewBox="0 0 129.24 69"><defs><style>.cls-1{fill:url(#linear-gradient);}.cls-2{fill:url(#linear-gradient-2);}</style><linearGradient id="linear-gradient" x1="46.81" y1="29.31" x2="82.43" y2="29.31" gradientUnits="userSpaceOnUse"><stop offset="0.01" stop-color="#f97d02"/><stop offset="0.08" stop-color="#fa7404"/><stop offset="0.19" stop-color="#fd5b09"/><stop offset="0.21" stop-color="#fd570a"/><stop offset="0.46" stop-color="#bb3945"/><stop offset="0.71" stop-color="#7e1c7c"/><stop offset="0.9" stop-color="#580b9e"/><stop offset="1" stop-color="#4904ab"/></linearGradient><linearGradient id="linear-gradient-2" x1="0" y1="34.5" x2="129.24" y2="34.5" xlink:href="#linear-gradient"/></defs><title>logoNew</title><g id="Layer_2" data-name="Layer 2"><g id="Layer_2-2" data-name="Layer 2"><path class="cls-1" d="M47.4,34.4a2.4,2.4,0,0,0,3.61,0,18,18,0,0,1,27.22,0,2.4,2.4,0,0,0,3.61,0h0a2.38,2.38,0,0,0,0-3.12,22.8,22.8,0,0,0-34.48,0,2.37,2.37,0,0,0,0,3.12Z"/><path class="cls-2" d="M129.14,43.47V2.59a2.59,2.59,0,1,0-5.18,0V24.9l-.1,5.78A23.4,23.4,0,0,0,82.44,45.6a22.63,22.63,0,0,0,.12,2.34h0A18,18,0,0,1,72.07,62.61,17.55,17.55,0,0,1,67.69,64a18.25,18.25,0,0,1-6.14,0,17.55,17.55,0,0,1-4.38-1.35A18,18,0,0,1,46.68,47.94a22.63,22.63,0,0,0,.12-2.34,23.4,23.4,0,1,0-2.61,10.74,22.88,22.88,0,0,0,8.5,9.29h0A22.82,22.82,0,0,0,71.24,68a22.18,22.18,0,0,0,4.08-1.69,22.77,22.77,0,0,0,9.72-10,23.41,23.41,0,0,0,44.2-10.74C129.24,44.88,129.2,44.17,129.14,43.47ZM40.55,51.75a17.75,17.75,0,0,1-1.95,4.13,18,18,0,1,1-22.76-26,17.8,17.8,0,0,1,4.35-1.38A18,18,0,0,1,40.55,51.75Zm65.39,12.47a17.93,17.93,0,0,1-12.5-4.95A17.59,17.59,0,0,1,90.73,56a17.89,17.89,0,0,1-2.91-9.81,18,18,0,1,1,18.12,18Z"/></g></g></svg>