<svg xmlns="http://www.w3.org/2000/svg" xmlns:xlink="http://www.w3.org/1999/xlink" viewBox="0 0 321.519 199.364"><defs><style>.cls-1{fill:url(#linear-gradient);}.cls-2{fill:url(#linear-gradient-2);}</style><linearGradient id="linear-gradient" y1="99.682" x2="321.519" y2="99.682" gradientUnits="userSpaceOnUse"><stop offset="0" stop-color="#ff8c3d"/><stop offset="1" stop-color="#4904ab"/></linearGradient><linearGradient id="linear-gradient-2" x1="115.406" y1="101.023" x2="205.814" y2="101.023" xlink:href="#linear-gradient"/></defs><title>logoGradient</title><g id="Layer_2" data-name="Layer 2"><g id="Layer_1-2" data-name="Layer 1"><g id="Layer_1-2-2" data-name="Layer 1-2"><path class="cls-1" d="M320.879,1.478l.038.048.589,120.941c.068,14.011.067,28.415-5.034,41.466a55.686,55.686,0,0,1-92.493,17.814c-2.123-2.264-4.137-4.9-4.445-7.985s1.789-6.586,4.889-6.722c11.271,16.983,34.416,25.054,53.76,18.633s33.089-26.84,31.622-47.169-18.1-38.61-38.226-41.847-41.722,9-49.169,27.968c-3.977,10.132-2.129,20.658-4.819,30.77-1.7,6.372-7.062,13.943-10.9,19.537-8.952,13.047-22.293,21.494-38.093,23.278-23.927,2.7-43.768-4.872-57.69-28.191-2.385-3.994-4.578-8.118-7.179-11.965-3.414-5.05-1.34-10.318-1.413-15.9C101.943,113.7,73.962,91.136,46.055,97.6c-19.33,4.477-34.517,22.9-35.225,42.726s13.123,39.287,32.084,45.133,41.348-2.444,51.929-19.229a29,29,0,0,1,8.672,26.644,6.694,6.694,0,0,1-1.645,3.619c-2.348,2.238-6.6.36-7.829-2.641s-.417-6.405.411-9.54c-18.414,16.54-48.114,18.848-68.861,5.35S-5.083,148.078,2.577,124.541s32.214-40.4,56.932-39.1,47.371,20.643,52.524,44.852c1.734,8.148,1.666,16.629,3.809,24.679,5.078,19.073,23.592,33.717,43.322,34.265s39.029-13.044,45.159-31.806c3.415-10.455,3.009-21.813,5.949-32.412,5.587-20.139,23.92-35.91,44.561-39.194s42.586,5.689,55.645,22.007l-.065-95.613c0-3.321.069-6.885,2-9.587S318.831-1.089,320.879,1.478Z"/><path class="cls-2" d="M205.814,108.051l-6.088,8.207c-10.077-13.564-22.963-21.251-39.849-21.135-16.813.115-29.5,7.963-39.46,21.615a72.081,72.081,0,0,1-4.891-6.92c-.39-.7.24-2.346.884-3.191A51.664,51.664,0,0,1,148.833,86.5c21.918-4.075,40.5,2.291,55.234,19.252C204.682,106.463,205.207,107.249,205.814,108.051Z"/></g></g></g></svg>