<svg xmlns="http://www.w3.org/2000/svg" viewBox="0 0 1179.516 1093.072"><defs><style>.cls-1,.cls-13{fill:#fff;}.cls-10,.cls-2,.cls-6,.cls-8{fill:none;}.cls-3,.cls-4,.cls-7{fill:#6741d0;}.cls-3,.cls-6{stroke:#6741d0;stroke-width:14.356px;}.cls-10,.cls-12,.cls-13,.cls-3,.cls-5,.cls-6,.cls-7,.cls-8,.cls-9{stroke-miterlimit:10;}.cls-11,.cls-5,.cls-9{fill:#4a349b;}.cls-10,.cls-12,.cls-13,.cls-5,.cls-7,.cls-8,.cls-9{stroke:#000;}.cls-5{stroke-width:1.595px;}.cls-8{stroke-width:6px;}</style></defs><title>nom1</title><g id="Layer_2" data-name="Layer 2"><g id="Layer_6" data-name="Layer 6"><path class="cls-1" d="M1014.561,594.638H33.542V72.141a37.4,37.4,0,0,1,37.4-37.4H968.256a46.3,46.3,0,0,1,46.305,46.305l12.761,87.687,4.786,22.333v4.785l-19.142,30.308,19.142,30.308-1.6,20.737,1.6,28.713-19.142,31.9,22.332,31.9-7.976,47.854Z"/><polygon class="cls-2" points="1066.404 201.433 1059.979 196.955 1059.979 205.132 1066.404 201.433"/><polygon class="cls-2" points="1066.404 258.859 1059.979 255.549 1059.979 261.584 1066.404 258.859"/><path class="cls-3" d="M1020.25,583.472H46.642V115.862A83.107,83.107,0,0,1,129.505,33H937.387a83.107,83.107,0,0,1,82.863,82.863v46.917l39.729-12.039v-60.7A83.107,83.107,0,0,0,977.116,7.178H90.041A83.107,83.107,0,0,0,7.178,90.041V610.853a83.107,83.107,0,0,0,82.863,82.863H977.116a83.106,83.106,0,0,0,82.863-82.863V431.173l-39.729-9.631ZM533.579,675.991a34.3,34.3,0,1,1,34.3-34.3A34.3,34.3,0,0,1,533.579,675.991Z"/><circle class="cls-1" cx="533.579" cy="641.695" r="34.296"/><rect class="cls-4" x="401.934" y="699.918" width="263.2" height="133.993"/><path class="cls-4" d="M850.172,826.742H216.9a19.2,19.2,0,0,0-19.142,19.142v17.547A19.2,19.2,0,0,0,216.9,882.572H850.172a19.2,19.2,0,0,0,19.142-19.141V845.884A19.2,19.2,0,0,0,850.172,826.742Z"/><rect class="cls-4" x="74.219" y="86.582" width="907.642" height="90.924"/><rect class="cls-4" x="75.016" y="447.884" width="907.642" height="90.924"/><rect class="cls-5" x="75.016" y="218.182" width="403.574" height="159.515"/><polygon class="cls-5" points="579.085 377.697 982.658 377.697 932.582 345.021 982.708 303.987 949.309 258.992 982.765 218.368 579.085 218.182 579.085 377.697"/><polyline class="cls-6" points="1018.549 167.935 1040.881 196.648 1002.598 226.956 1040.881 255.668 1018.549 279.596"/><polyline class="cls-6" points="1020.144 271.62 1040.881 308.308 1002.598 338.616 1042.476 368.924 1020.144 416.779"/><path class="cls-4" d="M812.373,648.155a15.272,15.272,0,0,0-5.328,3.774,1.5,1.5,0,0,0,2.121,2.121q3.648-3.477,7.027-7.2a1.507,1.507,0,0,0-1.818-2.356c-4.3,2.073-8.171,5.52-12.037,8.311-1.546,1.116-.075,3.71,1.514,2.59l13.071-9.207-1.818-2.355-5.545,5.3,2.121,2.122,9-9.158c1.362-1.388-.692-3.406-2.122-2.122q-4.23,3.8-8.675,7.335L812,649.436l8.358-7.231L818,640.387a21.829,21.829,0,0,1-2.836,3.521,1.5,1.5,0,0,0,2.121,2.121,54.143,54.143,0,0,1,6.019-5.271c1.527-1.144.034-3.749-1.514-2.59a59.393,59.393,0,0,0-6.626,5.74l2.121,2.121a25.306,25.306,0,0,0,3.3-4.128c.971-1.5-1.126-2.881-2.356-1.817l-8.358,7.231c-1.482,1.282.641,3.3,2.121,2.121q4.449-3.54,8.676-7.334l-2.122-2.122-8.994,9.158a1.5,1.5,0,0,0,2.121,2.122l5.546-5.3c1.2-1.15-.4-3.355-1.818-2.356l-13.071,9.207,1.514,2.59c3.866-2.791,7.733-6.238,12.037-8.311l-1.818-2.356q-3.389,3.729-7.026,7.2l2.121,2.121a13.463,13.463,0,0,1,4.721-3.3c1.768-.764.242-3.349-1.514-2.59Z"/><path class="cls-4" d="M817.076,650.474c1.785-3.387,4.113-11.071,8.406-11.8l-1.694-2.2c-3.382,6.464-11.831,7.709-15.443,14.146-.5.888.11,2.409,1.3,2.257a40.664,40.664,0,0,0,8.426-1.955,1.507,1.507,0,0,0-.4-2.946,84.53,84.53,0,0,0-8.862.209c-1.594.12-2.147,2.546-.4,2.946a13.554,13.554,0,0,1,4.472,1.881l.757-2.795a44.9,44.9,0,0,0-10.84,1.594,1.512,1.512,0,0,0,0,2.893l5.832,1.717.8-2.893a41.871,41.871,0,0,0-7.985-.822c-1.958-.012-1.9,2.837,0,3,3.76.323,7.5.734,11.237,1.254,1.853.258,2.715-2.348.8-2.893L806.215,652l-.4,2.947,6.972.767v-3a53.58,53.58,0,0,0-14.486.432c-1.621.263-1.212,2.425,0,2.893a80.721,80.721,0,0,0,8.3,2.706l.8-2.893q-3.38-.592-6.774-1.061c-1.882-.259-2.71,2.614-.8,2.893L812,659.463l.4-2.946L799.32,657a1.508,1.508,0,0,0-.4,2.946,41.653,41.653,0,0,0,6.467,2.073l.8-2.892a46.721,46.721,0,0,0-7.7-.946,1.507,1.507,0,0,0-.4,2.946l6.153,1.477.4-2.946a60.4,60.4,0,0,0-6.129-.463,1.507,1.507,0,0,0-.4,2.946l5.12,1.553.4-2.947c-2.615-.157-5.208-.208-7.828-.155a1.507,1.507,0,0,0-.4,2.947l5.08,1.632.4-2.947-6.225.02a1.507,1.507,0,0,0-.4,2.946,42.781,42.781,0,0,0,6.715,1.773c1.874.337,2.7-2.479.8-2.893l-6.415-1.392-.8,2.893,6.7,1.194a1.5,1.5,0,0,0,.8-2.893,60.991,60.991,0,0,0-8.39-2.216l-.4,2.947c4.246.224,8.463.6,12.682,1.119,1.687.208,2.02-2.559.4-2.947-2.518-.6-5.01-1.265-7.493-2-1.594-.469-2.718,2-1.156,2.741a13.791,13.791,0,0,0,2.393.935,1.507,1.507,0,0,0,1.156-2.742l-6.021-3.236-.757,2.8,13.565-.348a1.5,1.5,0,0,0,0-3l-11.07-.585.758,2.8c5.46-2.639,10.736-5.379,15.345-9.368,1.25-1.082-.135-2.724-1.46-2.507a42.912,42.912,0,0,0-6.575,1.611l1.155,2.742a30.388,30.388,0,0,1,5.646-3.424l-1.515-2.59a27.9,27.9,0,0,1-5.453,3.015l1.156,2.742,13.95-10.142a1.514,1.514,0,0,0-.757-2.795l-1.067-.06c-1.929-.107-1.923,2.894,0,3l1.067.06-.757-2.8-13.95,10.142c-1.247.907-.545,3.446,1.156,2.742a32.292,32.292,0,0,0,6.17-3.318,1.5,1.5,0,0,0-1.515-2.59,30.408,30.408,0,0,0-5.645,3.423c-1.234.941-.609,3.324,1.156,2.742a42.956,42.956,0,0,1,6.576-1.612l-1.46-2.507c-4.408,3.816-9.524,6.38-14.738,8.9-1.428.691-.614,2.723.757,2.8l11.07.585v-3l-13.565.348a1.511,1.511,0,0,0-.757,2.8l6.021,3.236,1.156-2.742-1.677-.632-1.156,2.741c2.484.731,4.975,1.394,7.494,2l.4-2.946c-4.219-.522-8.436-.9-12.682-1.119-1.666-.089-2.072,2.628-.4,2.946a61.164,61.164,0,0,1,8.39,2.216l.8-2.893-6.705-1.194c-1.873-.334-2.7,2.479-.8,2.893l6.414,1.392.8-2.893a42.535,42.535,0,0,1-6.715-1.773l-.4,2.947,6.225-.02a1.507,1.507,0,0,0,.4-2.946l-5.081-1.632-.4,2.946c2.62-.053,5.213,0,7.828.155,1.733.1,1.975-2.468.4-2.946l-5.12-1.553-.4,2.947a60.4,60.4,0,0,1,6.129.463c1.687.213,2.019-2.558.4-2.947l-6.154-1.477-.4,2.947a42.375,42.375,0,0,1,6.9.838c1.877.387,2.689-2.45.8-2.892a41.752,41.752,0,0,1-6.466-2.074l-.4,2.947,13.081-.485c1.6-.059,2.147-2.692.4-2.947l-12.17-1.775-.8,2.893q3.4.47,6.774,1.061c1.868.328,2.7-2.385.8-2.893a80.641,80.641,0,0,1-8.3-2.706v2.893a50.385,50.385,0,0,1,13.689-.325c1.919.207,1.9-2.79,0-3l-6.972-.767c-1.718-.19-1.978,2.5-.4,2.946l7.262,2.062.8-2.893q-6-.836-12.035-1.361v3a36.312,36.312,0,0,1,7.187.715,1.5,1.5,0,0,0,.8-2.893l-5.833-1.717V654.7a41.891,41.891,0,0,1,10.043-1.487,1.513,1.513,0,0,0,.757-2.795,15.489,15.489,0,0,0-5.189-2.184l-.4,2.947a84.543,84.543,0,0,1,8.862-.209l-.4-2.947a36.76,36.76,0,0,1-7.628,1.848l1.3,2.257c3.567-6.358,11.99-7.547,15.442-14.145a1.521,1.521,0,0,0-1.694-2.2c-5.665.959-7.909,8.83-10.2,13.176-.9,1.706,1.689,3.224,2.59,1.514Z"/><path class="cls-4" d="M731.624,751.178l1.28-44c7.555,1.49,21.488,3.118,28.415,2.529a83.273,83.273,0,0,0,14.585-2.529Z"/><path class="cls-4" d="M768.454,702.468l-8.66,10.06c-4.06-3.33-14.39-7.85-14.39-7.85C754.364,705.878,762.974,704.568,768.454,702.468Z"/><path class="cls-4" d="M779.484,689.658l-5.66,6.58c-3.19-4.55-18.42-12.56-18.42-12.56s15,5,22,6A6.253,6.253,0,0,0,779.484,689.658Z"/><path class="cls-7" d="M756.4,670.678c12.383-58.946,51.3-109.064,105.408-136.686"/><path class="cls-7" d="M731.4,746.678c-4.322,65.235-4.35,143.084,29.67,200.951,1.424,2.423,2.95,4.962,3.007,7.773a15.85,15.85,0,0,1-1.437,5.9c-2.648,6.872-5.409,13.928-10.439,19.307-14.488,15.5-25.338-3.087-40.812,2.071-19.575,6.53-14.274,21.885-3.973,35.153,11.712,15.086,31.2,24.464,50.381,22.686,26.395-2.445,49.3-25.712,51.337-52.142a166.239,166.239,0,0,0,114.649,46.279,25.5,25.5,0,0,1-14.78,24.14c-7.685,3.387-17.889,3.526-22.1,10.79-3.973,6.849.736,16.1,7.737,19.794s15.355,3.376,23.259,2.923q40.419-2.315,80.746-5.96c11.058-1,22.2-2.092,32.795-5.418,23.218-7.291,13.3-38.18,14.156-57.3,1.541-34.258,8.863-63.4,30.425-90.86,16.322-20.783,36.223-38.533,52.676-59.213a233.808,233.808,0,0,0,50.066-155.075c-2.586-54.443-25.761-118.542-70.314-152-50.7-38.072-109.414-53.347-172.547-50.3q-3.825.18-7.51.48"/><path class="cls-8" d="M1020.4,604.678s39-50,44,6"/><path class="cls-9" d="M928.394,516.658c-27.04,2.13-48.92,8.46-66.62,17.26C861.774,533.918,902.374,434.628,928.394,516.658Z"/><path class="cls-7" d="M1059.4,537.678s88.357-100.363,51.179,30.819"/><path class="cls-4" d="M928.394,516.658l-49.49,90.52c-28.49,19.4-95.93,70.9-97.37,73.29a19.063,19.063,0,0,0-5.13-5.79c-3.41-2.65-11.13-4.3-19.9-4.13l63.4-102.37,41.87-34.26C879.474,525.118,901.354,518.788,928.394,516.658Z"/><path class="cls-7" d="M935.4,757.678c-7.1-.79-12.48-1.42-16.1-2.57C926.494,754.708,935.4,757.678,935.4,757.678Z"/><path class="cls-7" d="M927.4,794.678a.3.3,0,0,0-.03.04c-.03-.05-.07-.09-.1-.14Z"/><path class="cls-7" d="M945.374,743.668a101.727,101.727,0,0,1-10.9-3.63A73.487,73.487,0,0,1,945.374,743.668Z"/><path class="cls-4" d="M784.874,683.388l-1.99,2.32a9.255,9.255,0,0,0-1.07-4.71Z"/><path class="cls-8" d="M822.46,568.1S844.4,552.678,855.4,592.678"/><path class="cls-10" d="M927.2,794.765c3.98,10.045,8.3,20.026,14.229,29.061s13.562,17.144,23.024,22.362c10.619,5.857,23,7.8,35.132,7.866,12.236.068,25.1-1.936,34.748-9.468"/><ellipse class="cls-11" cx="1127.404" cy="780.678" rx="23.5" ry="7.5" transform="translate(61.524 1643.463) rotate(-73.69)"/><ellipse class="cls-11" cx="888.255" cy="916.652" rx="5.757" ry="14.682" transform="translate(-172.772 207.096) rotate(-12.129)"/><ellipse class="cls-11" cx="927.161" cy="934.343" rx="3.282" ry="8.37" transform="translate(-175.62 215.665) rotate(-12.129)"/><ellipse class="cls-11" cx="937.755" cy="892.708" rx="4.627" ry="11.799" transform="translate(-166.636 216.962) rotate(-12.129)"/><ellipse class="cls-11" cx="1114.632" cy="637.386" rx="3.715" ry="11.641" transform="translate(-23.169 42.345) rotate(-2.154)"/><ellipse class="cls-11" cx="1145.414" cy="663.978" rx="5.738" ry="17.978" transform="translate(-24.147 43.521) rotate(-2.154)"/><ellipse class="cls-11" cx="1072.755" cy="861.652" rx="15.103" ry="7.197" transform="translate(-55.492 1649.247) rotate(-73.69)"/><ellipse class="cls-11" cx="1116.255" cy="839.652" rx="4.282" ry="9.04"/><path class="cls-11" d="M1067.478,562.456c4.783.812,9.025,5.036,12.345,8.407a57.157,57.157,0,0,1,8.346,10.954,1,1,0,0,0,1.727-1.009,59.124,59.124,0,0,0-9.659-12.349c-3.357-3.248-7.483-7.126-12.227-7.932-1.259-.214-1.8,1.713-.532,1.929Z"/><path class="cls-11" d="M1088.262,746.882a89.669,89.669,0,0,1-19.912,61.165c-.8.99.6,2.414,1.414,1.414a91.727,91.727,0,0,0,20.5-62.579c-.066-1.281-2.066-1.289-2,0Z"/><path class="cls-9" d="M940.4,824.678s-1,90-101,56,88-86,88-86Z"/><path class="cls-12" d="M1008.394,631.7c-14.37-12.23-36.4-21.58-69.99-24.02a196.1,196.1,0,0,0-40,1.05c-5.93.78-11.61,1.83-17.06,3.11a167.022,167.022,0,0,0-87.109,51.9L977.9,705.178,967.145,725.6c20.436,11.154,25.259,44.081,25.259,44.081s0,3,9-23,31-19,32-34C1034.094,702.258,1041.064,659.518,1008.394,631.7Z"/><path class="cls-13" d="M781.4,680.678l-110,164,177,71,78.87-121.1c-10.58-15.02-17.24-28.44-16.87-32.9.39-4.68,4.29-6.32,8.9-6.57-5.55-1.77-6.93-4.77-3.9-11.43,2.77-6.09,11.68-5.44,19.07-3.64-4.43-1.81-8.61-4.08-9.07-6.36-1-5,7-17,34-11a29.409,29.409,0,0,1,7.741,2.919L977.9,705.178,794.235,663.735a122.6,122.6,0,0,0-12.7,16.733c-.09.14-.13.21-.13.21l.41.32"/><path class="cls-7" d="M782.884,685.708v.01a4.074,4.074,0,0,1-3.4,3.94,6.253,6.253,0,0,1-2.08.02c-7-1-22-6-22-6s15.23,8.01,18.42,12.56a2.711,2.711,0,0,1,.58,1.44c0,1.61-2.26,3.38-5.94,4.79h-.01c-5.48,2.1-14.09,3.41-23.05,2.21,0,0,10.33,4.52,14.39,7.85.99.82,1.61,1.56,1.61,2.15,0,1.48-3.16,3.69-7.91,5.18h-.01a35.783,35.783,0,0,1-7.2,1.46,33.761,33.761,0,0,1-10.88-.64l-3.78,24.58v.01l-.22,1.41s-.14-.24-.4-.69c-2.86-4.99-19.86-36.12-11.6-56.31,5.58-13.64,22.68-18.82,37.02-19.13h.08c8.77-.17,16.49,1.48,19.9,4.13a19.063,19.063,0,0,1,5.13,5.79c.1.18.19.35.28.53A9.255,9.255,0,0,1,782.884,685.708Z"/><path class="cls-13" d="M883.4,611.678c-22.146,60.772-35,12-35,12l17-7Z"/><path class="cls-13" d="M932.4,607.678c-29.367,65.6-34,1-34,1Z"/><path class="cls-13" d="M981.4,616.678c-35.541,61.8-28-7-28-7l14,3Z"/><path class="cls-13" d="M1024.4,651.678c-50.366,44.873-16-19-16-19l9,9Z"/><polygon class="cls-9" points="680.404 831.678 858.404 899.678 848.404 915.678 671.404 844.678 680.404 831.678"/><polygon class="cls-7" points="694.404 824.678 714.404 794.678 780.404 817.678 758.404 848.678 694.404 824.678"/><polygon class="cls-7" points="779.404 856.678 799.404 826.678 865.404 849.678 843.404 880.678 779.404 856.678"/><polygon class="cls-7" points="727.404 780.678 758.404 735.678 907.404 782.678 875.404 831.678 727.404 780.678"/><polygon class="cls-7" points="764.404 727.678 796.404 684.678 927.404 720.678 897.404 768.678 764.404 727.678"/><path d="M748.018,768.643l13.083-.832c2.842-.181,6.707-1.281,8.554,1.956.559.981.518,2.485.778,3.551a9.824,9.824,0,0,0,8.617,7.923c6.511,1.066,12.088-2.453,18.427-2.892,9.563-.661,9.656,7.827,14.687,13.238,3.2,3.443,7.523,4.112,12.02,3.593,5.453-.63,12.669-4,17.815-.841,3.118,1.914,4.147,5.822,6.394,8.531a14.769,14.769,0,0,0,6.349,4.459,15.111,15.111,0,0,0,7.764.69c3.983-.719,8.659-4.67,12.793-2.369,1.689.94,3.2-1.65,1.514-2.59-6.1-3.4-11.29,2.5-17.524,2.181-9.266-.473-9.288-9.545-15.776-13.492-4.169-2.537-9.255-1.533-13.744-.632-3.042.611-6.219,1.513-9.35,1.24-4.708-.41-6.8-3.477-8.9-7.284-2.571-4.678-5.013-8.85-10.766-9.662-6.842-.966-13.02,3.46-19.809,3.017-5.323-.346-6.755-3.048-7.973-7.72-.528-2.023-1.02-3.962-2.869-5.188-2.336-1.549-5.462-.935-8.069-.769l-14.018.892c-1.917.122-1.931,3.123,0,3Z"/><path d="M903.261,742.7c-7.857,2.6-11.239-7.8-14.947-12.553a13.065,13.065,0,0,0-9.929-5.466c-5.219-.229-10.068,2.313-15.089,3.28-7.484,1.44-13.652-1.639-18.329-7.358-6.011-7.351-11.345-12.918-21.319-8.744-5.47,2.289-10.189,5.424-16.365,5.264a22.293,22.293,0,0,1-16.2-7.773c-1.277-1.452-3.392.676-2.121,2.121a25.057,25.057,0,0,0,27,7.253c5.989-2.143,12.457-7.943,18.973-4.332,4.978,2.758,7.406,8.715,11.7,12.3a20.26,20.26,0,0,0,13.17,4.691c6.372-.083,12.221-4.044,18.582-3.7,11.408.607,12.112,22.4,25.674,17.912,1.824-.6,1.042-3.5-.8-2.893Z"/><path class="cls-10" d="M885.457,1075.193s13.447-.015,22.447-2.015"/><path class="cls-10" d="M887.6,1082.534s19.8,1.144,23.8-1.856"/><path class="cls-10" d="M698.2,994.6s13.206,16.081,20.206,14.081"/><path class="cls-10" d="M705.517,985.32S719.4,996.678,724.4,996.678"/></g></g></svg>