<svg xmlns="http://www.w3.org/2000/svg" xmlns:xlink="http://www.w3.org/1999/xlink" width="855.41" height="653.565" viewBox="0 0 855.41 653.565">
  <defs>
    <linearGradient id="linear-gradient" x1="0.5" x2="0.5" y2="1" gradientUnits="objectBoundingBox">
      <stop offset="0" stop-color="#f99603"/>
      <stop offset="1" stop-color="#e65e3e"/>
    </linearGradient>
  </defs>
  <g id="print" transform="translate(-1026 -2005)">
    <g id="Group_1433" data-name="Group 1433" transform="translate(1026 2005.003)">
      <path id="Path_5716" data-name="Path 5716" d="M408.609,56.253c27.48-20.375,70.615-24.552,109.884-22.93,123.328,5.11,234.651,54.7,330.95,110.8,34.866,20.3,69.185,42.193,91.811,70.162,46.1,56.933,32.4,135.8-31.648,182.7-21.8,15.955-48.215,28.212-75.338,39.034-48.225,19.278-100.26,34.756-154.995,39.183-39.024,3.135-78.537.588-117.344-3.793-108.407-12.272-214.8-39.356-304.015-85.686-39.118-20.32-75.987-45.586-92.113-78.445s-5.8-74.55,34.141-94.04c16.52-8.048,36.277-11.684,55.61-15.1,28.468-5.023,57.388-9.976,83.072-20.187,26.54-10.548,57.953-30.947,52.684-54.3C385.7,98.634,381.166,76.628,408.609,56.253Z" transform="translate(-113.066 -33.01)" fill="url(#linear-gradient)"/>
      <path id="Path_5717" data-name="Path 5717" d="M785.47,678.709s19.639-34.787,49.206-44.81a60.53,60.53,0,0,0,30.657-22.93,101.5,101.5,0,0,0,9.043-16.269" transform="translate(-248.697 -154.523)" fill="none" stroke="#535461" stroke-miterlimit="10" stroke-width="2"/>
      <path id="Path_5718" data-name="Path 5718" d="M917.4,582.458c-3.37,3.276-19.067,6.653-19.067,6.653s3.848-15.587,7.218-18.855a8.5,8.5,0,0,1,11.849,12.2Z" transform="translate(-273.113 -148.715)" fill="#6c63ff"/>
      <path id="Path_5719" data-name="Path 5719" d="M905.922,617.829c-4.608.917-19.592-4.773-19.592-4.773s11.708-10.971,16.308-11.912a8.505,8.505,0,1,1,3.315,16.684Z" transform="translate(-270.517 -155.881)" fill="#6c63ff"/>
      <path id="Path_5720" data-name="Path 5720" d="M866.069,656.879c-4.443-1.567-14.529-14.028-14.529-14.028s15.673-3.574,20.093-2.038a8.5,8.5,0,1,1-5.564,16.065Z" transform="translate(-262.99 -164.416)" fill="#6c63ff"/>
      <path id="Path_5721" data-name="Path 5721" d="M827.624,679.21c-4.631-.784-16.684-11.371-16.684-11.371s14.819-6.175,19.451-5.407a8.5,8.5,0,1,1-2.766,16.779Z" transform="translate(-254.207 -169.161)" fill="#6c63ff"/>
      <path id="Path_5722" data-name="Path 5722" d="M869.59,598.5c0,4.7,8.495,18.314,8.495,18.314s8.511-13.612,8.511-18.306a8.5,8.5,0,0,0-17.006,0Z" transform="translate(-266.895 -153.508)" fill="#6c63ff"/>
      <path id="Path_5723" data-name="Path 5723" d="M825.552,624.6c1.411,4.483,13.589,14.937,13.589,14.937s4.044-15.54,2.641-20.023a8.5,8.5,0,0,0-16.23,5.086Z" transform="translate(-257.284 -158.601)" fill="#6c63ff"/>
      <path id="Path_5724" data-name="Path 5724" d="M786.519,656.89c.627,4.655,10.87,17.021,10.87,17.021s6.614-14.631,5.987-19.286a8.5,8.5,0,0,0-16.857,2.265Z" transform="translate(-248.908 -165.892)" fill="#6c63ff"/>
      <path id="Path_5725" data-name="Path 5725" d="M917.4,582.458c-3.37,3.276-19.067,6.653-19.067,6.653s3.848-15.587,7.218-18.855a8.5,8.5,0,0,1,11.849,12.2Z" transform="translate(-273.113 -148.715)" fill="#5d00ad"/>
      <path id="Path_5726" data-name="Path 5726" d="M905.922,617.829c-4.608.917-19.592-4.773-19.592-4.773s11.708-10.971,16.308-11.912a8.505,8.505,0,1,1,3.315,16.684Z" transform="translate(-270.517 -155.881)" fill="#5d00ad"/>
      <path id="Path_5727" data-name="Path 5727" d="M866.069,656.879c-4.443-1.567-14.529-14.028-14.529-14.028s15.673-3.574,20.093-2.038a8.5,8.5,0,1,1-5.564,16.065Z" transform="translate(-262.99 -164.416)" fill="#5d00ad"/>
      <path id="Path_5728" data-name="Path 5728" d="M827.624,679.21c-4.631-.784-16.684-11.371-16.684-11.371s14.819-6.175,19.451-5.407a8.5,8.5,0,1,1-2.766,16.779Z" transform="translate(-254.207 -169.161)" fill="#5d00ad"/>
      <path id="Path_5729" data-name="Path 5729" d="M869.59,598.5c0,4.7,8.495,18.314,8.495,18.314s8.511-13.612,8.511-18.306a8.5,8.5,0,0,0-17.006,0Z" transform="translate(-266.895 -153.508)" fill="#5d00ad"/>
      <path id="Path_5730" data-name="Path 5730" d="M825.552,624.6c1.411,4.483,13.589,14.937,13.589,14.937s4.044-15.54,2.641-20.023a8.5,8.5,0,0,0-16.23,5.086Z" transform="translate(-257.284 -158.601)" fill="#6e16c7" opacity="0.997"/>
      <path id="Path_5731" data-name="Path 5731" d="M786.519,656.89c.627,4.655,10.87,17.021,10.87,17.021s6.614-14.631,5.987-19.286a8.5,8.5,0,0,0-16.857,2.265Z" transform="translate(-248.908 -165.892)" fill="#6e16c7"/>
      <path id="Path_5732" data-name="Path 5732" d="M786.91,669.848s3.856-39.763,26.833-60.907a60.531,60.531,0,0,0,18.73-33.392A101.2,101.2,0,0,0,834.149,557" transform="translate(-249.009 -146.367)" fill="none" stroke="#535461" stroke-miterlimit="10" stroke-width="2"/>
      <path id="Path_5733" data-name="Path 5733" d="M861.047,536.64c-1.755,4.357-14.733,13.808-14.733,13.808s-2.79-15.814-1.034-20.164a8.5,8.5,0,1,1,15.767,6.356Z" transform="translate(-261.511 -139.392)" fill="#6e16c7"/>
      <path id="Path_5734" data-name="Path 5734" d="M864.3,573.142c-3.84,2.7-19.874,3.581-19.874,3.581s6.269-14.788,10.086-17.491a8.5,8.5,0,0,1,9.788,13.91Z" transform="translate(-261.452 -146.515)" fill="#5d00ad"/>
      <path id="Path_5735" data-name="Path 5735" d="M842.625,625.042c-4.7.392-18.965-6.943-18.965-6.943s12.86-9.608,17.507-10.007a8.505,8.505,0,1,1,1.426,16.951Z" transform="translate(-256.959 -157.413)" fill="#5d00ad"/>
      <path id="Path_5736" data-name="Path 5736" d="M816.868,660.959c-4.545,1.176-19.858-3.636-19.858-3.636s11.042-11.653,15.587-12.829a8.5,8.5,0,1,1,4.271,16.459Z" transform="translate(-251.194 -165.235)" fill="#6e16c7"/>
      <path id="Path_5737" data-name="Path 5737" d="M822.668,571.247c1.9,4.294,15.188,13.322,15.188,13.322s2.265-15.893.36-20.187a8.5,8.5,0,1,0-15.549,6.881Z" transform="translate(-256.586 -146.868)" fill="#6e16c7"/>
      <path id="Path_5738" data-name="Path 5738" d="M792.986,612.954c3.1,3.527,18.471,8.15,18.471,8.15s-2.594-15.846-5.7-19.372a8.5,8.5,0,1,0-12.775,11.223Z" transform="translate(-249.865 -155.418)" fill="#6e16c7"/>
      <path id="Path_5739" data-name="Path 5739" d="M770.38,658.294c2.461,4,16.833,11.152,16.833,11.152s.118-16.049-2.351-20.054a8.5,8.5,0,1,0-14.49,8.9Z" transform="translate(-245.159 -165.478)" fill="#6e16c7"/>
      <ellipse id="Ellipse_14" data-name="Ellipse 14" cx="93.162" cy="15.618" rx="93.162" ry="15.618" transform="translate(200.062 622.325)" fill="#f5f5f5"/>
      <ellipse id="Ellipse_15" data-name="Ellipse 15" cx="93.162" cy="15.618" rx="93.162" ry="15.618" transform="translate(383.433 502.432)" fill="#f5f5f5"/>
      <path id="Path_5740" data-name="Path 5740" d="M612.106,397.9l-.086,3.048-5.3,186.92h-8.9l4.365-186.92.086-3.519Z" transform="translate(-129.328 -85.978)" fill="#d8d8d8"/>
      <path id="Path_5741" data-name="Path 5741" d="M651.168,597.632l-6.669-.016-99.087-.212-5.282-.008,2.813-8.667H650.462Z" transform="translate(-116.848 -127.363)" fill="#d8d8d8"/>
      <path id="Path_5742" data-name="Path 5742" d="M613.311,397.9l-.086,3.048H603.39l.086-3.519Z" transform="translate(-130.533 -85.978)" opacity="0.1"/>
      <rect id="Rectangle_36" data-name="Rectangle 36" width="16.512" height="6.214" transform="translate(470.02 307.353)" fill="#d8d8d8"/>
      <path id="Path_5743" data-name="Path 5743" d="M546.29,588.73l-.878,8.675-5.282-.008,2.813-8.667Z" transform="translate(-116.848 -127.363)" opacity="0.1"/>
      <path id="Path_5744" data-name="Path 5744" d="M557.216,392.05l-.274,2.7L534.96,611.539l-10.07-.478,23.165-216.316.259-2.461Z" transform="translate(-113.551 -84.814)" fill="#d8d8d8"/>
      <path id="Path_5745" data-name="Path 5745" d="M679.73,597.632l-6.669-.016-.9-8.887h6.865Z" transform="translate(-145.41 -127.363)" opacity="0.1"/>
      <path id="Path_5746" data-name="Path 5746" d="M686.346,611.061l-10.078.478L654.294,394.746l-.274-2.7,8.895.235.259,2.461Z" transform="translate(-141.486 -84.814)" fill="#d8d8d8"/>
      <rect id="Rectangle_37" data-name="Rectangle 37" width="222.06" height="212.922" transform="translate(365.659 93.491)" fill="#fff"/>
      <g id="Group_1435" data-name="Group 1435" transform="translate(383.464 133.334)">
        <path id="Path_5800" data-name="Path 5800" d="M1046.8,309.078h0c-3.5,0-6.34,3.15-6.34,7.036v4.937h1.518l.879-1.829-.22,1.829h9.76l.8-1.663-.2,1.663h1.1v-3.876C1054.1,312.7,1050.831,309.078,1046.8,309.078Z" transform="translate(-878.879 -264.526)" fill="none" stroke="#707070" stroke-width="1"/>
        <path id="Path_5801" data-name="Path 5801" d="M1037.313,449.349l-1.053,4.037,9.828-.351-.176-3.335S1038.542,447.769,1037.313,449.349Z" transform="translate(-875.345 -381.971)" fill="none" stroke="#707070" stroke-width="1"/>
        <path id="Path_5802" data-name="Path 5802" d="M959.06,516.951l3.159,7.02,2.984-3.685-2.457-4.914Z" transform="translate(-806.569 -433.427)" fill="none" stroke="#707070" stroke-width="1"/>
        <path id="Path_5803" data-name="Path 5803" d="M1008.731,687.562l.351,8.073h3.861l-.527-8.073Z" transform="translate(-848.342 -578.239)" fill="none" stroke="#707070" stroke-width="1"/>
        <path id="Path_5804" data-name="Path 5804" d="M1004.25,495.757l1.755,5.792,2.633,28.081a6.807,6.807,0,0,0,4.212-.176l.351-3.861.7-22.113s3.335-1.755,2.984-4.212-1.229-5.792-1.229-5.792Z" transform="translate(-848.425 -419.604)" fill="none" stroke="#707070" stroke-width="1"/>
        <path id="Path_5805" data-name="Path 5805" d="M991.49,754.011h-1.053s-2.984,3.159-4.037,3.51-6.494,3.335-2.106,3.861a10.129,10.129,0,0,0,7.2-1.755,4.009,4.009,0,0,0,3.335.175c1.931-.7.878-2.808.878-2.808s-.98-3.21-1.017-3.184S993.6,755.415,991.49,754.011Z" transform="translate(-830.224 -638.545)" fill="none" stroke="#707070" stroke-width="1"/>
        <circle id="Ellipse_30" data-name="Ellipse 30" cx="4.037" cy="4.037" r="4.037" transform="translate(162.67 47.37)" fill="none" stroke="#707070" stroke-width="1"/>
        <path id="Path_5806" data-name="Path 5806" d="M1061.944,364.881l-1.857,1.548-.249.207-.176,2.106h-6.845s.934-.809,1.8-1.646c.018-.019.037-.04.058-.06.118-.114.223-.219.318-.314l.144-.147c.072-.076.142-.147.212-.219a.006.006,0,0,0,0,0,6.841,6.841,0,0,0,.505-.593l0,0a2.036,2.036,0,0,0,.118-.174c.526-.878-.7-2.633-.7-2.633l3.861-1.931a5.188,5.188,0,0,0,2.464,3.651C1061.81,364.809,1061.944,364.881,1061.944,364.881Z" transform="translate(-889.27 -308.209)" fill="none" stroke="#707070" stroke-width="1"/>
        <path id="Path_5807" data-name="Path 5807" d="M1101.126,414.629c-2.633.7-2.808-4.563-2.808-4.563l-3.593-7.186a16.612,16.612,0,0,1-1.548-4.821l-.826-5.192-.251.3v0l-.451.225-2.741-4.388-.769-1.229v-1.4l2.633-1.229h1.053l.063-.007c.484-.051,3.636-.261,3.8,2.815.064,1.207.058,2.208.025,2.993a23.177,23.177,0,0,0,.612,6.46,7.939,7.939,0,0,0,.591,1.779c.7,1.229,3.159,10.881,3.159,10.881S1103.759,413.927,1101.126,414.629Z" transform="translate(-918.975 -328.473)" fill="none" stroke="#707070" stroke-width="1"/>
        <path id="Path_5808" data-name="Path 5808" d="M1002.321,357.32l-.665,1.213-.393.718-1.925,3.51s-.546.446-1.43,1.021a14.934,14.934,0,0,1-6.292,2.489c-3.861.351-.176-12.11-.176-12.11s1.229-4.914,2.984-4.388.351,2.282-.878,5.616a12.782,12.782,0,0,0-.175,7.02,49.283,49.283,0,0,0,5.616-4.037,3.968,3.968,0,0,1,2.464-1.188h0a2.237,2.237,0,0,1,.588.046A1.331,1.331,0,0,1,1002.321,357.32Z" transform="translate(-836.316 -298.718)" fill="none" stroke="#707070" stroke-width="1"/>
        <path id="Path_5809" data-name="Path 5809" d="M1068.129,390.822a4.445,4.445,0,0,1-.72.816A8.478,8.478,0,0,0,1068.129,390.822Z" transform="translate(-901.542 -333.273)" fill="none" stroke="#707070" stroke-width="1"/>
        <path id="Path_5810" data-name="Path 5810" d="M1050.5,392l-.163.214-2.557,4.437a35.392,35.392,0,0,0-5.792-1.58,3.442,3.442,0,0,0-3.508,1.574l.7-2.8-.377-1.26c-.044-.147-.095-.311-.149-.495-.526-1.755,1.4-3.686,1.4-3.686l2.289-2.417h0a2.234,2.234,0,0,1,.588.046c-.095.095-.2.2-.318.314-.021.019-.04.04-.058.06-.672.686-.323.878-.009.928a1.546,1.546,0,0,0,.314.016,9.222,9.222,0,0,0,3.51-1.074c.8-.365,1.4-.681,1.4-.681l1.532-1.4.23-.211c.211.139.344.211.344.211h.176l.063-.007-.8.593a2.971,2.971,0,0,0-1.195,2.573h0Z" transform="translate(-877.211 -327.518)" fill="none" stroke="#707070" stroke-width="1"/>
        <path id="Path_5811" data-name="Path 5811" d="M953.907,456.781l-2.566,1s-13.932-5.39-16.038-1,7.371,14.918,7.371,14.918l4.212-1.931-1.755-5.265s10.179,8.6,14.391,3.861,1.4-11.439,1.4-11.439S958.295,454.85,953.907,456.781Z" transform="translate(-790.184 -387.297)" fill="none" stroke="#707070" stroke-width="1"/>
        <path id="Path_5812" data-name="Path 5812" d="M999.207,570.72l-1.58,1.229s1.4,5.616.878,6.494-1.58,3.335.351,3.159,4.036-3.159,4.212-4.212a38.247,38.247,0,0,1,1.4-4.212s2.106-4.914.526-5.09-4.1-.293-4.1-.293Z" transform="translate(-842.855 -482.106)" fill="none" stroke="#707070" stroke-width="1"/>
        <path id="Path_5813" data-name="Path 5813" d="M1054.152,314.187a3.325,3.325,0,0,0-2.623-1.339h-.125a4.619,4.619,0,0,0-4.345,4.85h.8l.13-.989.19.989h4.769l.4-.836-.1.836h.938a7.854,7.854,0,0,1-1.887,6.523h1.6l.8-1.673-.2,1.673h3.047l.6-3.847A6.5,6.5,0,0,0,1054.152,314.187Z" transform="translate(-884.426 -267.697)" fill="none" stroke="#707070" stroke-width="1"/>
        <circle id="Ellipse_31" data-name="Ellipse 31" cx="14.469" cy="14.469" r="14.469" transform="translate(139.926 3.592)" fill="none" stroke="#707070" stroke-width="1"/>
        <path id="Path_5814" data-name="Path 5814" d="M767.773,567.032c-.267,2.129-.486,4.179-.666,6.133h5.813q.317-3.081.8-6.133Z" transform="translate(-648.987 -481.465)" fill="none" stroke="#707070" stroke-width="1"/>
        <path id="Path_5815" data-name="Path 5815" d="M768.487,670.773q-.187-3.051-.151-6.133h-5.893c-.1,2.35-.133,4.412-.14,6.133Z" transform="translate(-644.947 -563.554)" fill="none" stroke="#707070" stroke-width="1"/>
        <path id="Path_5816" data-name="Path 5816" d="M825.662,231.83a185.168,185.168,0,0,1,9.593-21.59l-4.944-2.941a110.515,110.515,0,0,0-11.976,24.531Z" transform="translate(-692.071 -178.93)" fill="none" stroke="#707070" stroke-width="1"/>
        <path id="Path_5817" data-name="Path 5817" d="M764.055,615.836c-.182,2.186-.314,4.24-.408,6.133h5.85q.085-3.066.358-6.133Z" transform="translate(-646.078 -522.51)" fill="none" stroke="#707070" stroke-width="1"/>
        <path id="Path_5818" data-name="Path 5818" d="M773.561,518.228c-.357,2.1-.667,4.147-.934,6.133h6q.522-3.1,1.178-6.133Z" transform="translate(-653.629 -440.421)" fill="none" stroke="#707070" stroke-width="1"/>
        <path id="Path_5819" data-name="Path 5819" d="M804.748,371.816q-1.034,3.076-1.905,6.133H809.9c.7-2.123,1.412-4.172,2.129-6.133Z" transform="translate(-679.041 -317.289)" fill="none" stroke="#707070" stroke-width="1"/>
        <path id="Path_5820" data-name="Path 5820" d="M781.516,469.424q-.683,3.118-1.222,6.133h6.314q.707-3.118,1.521-6.133Z" transform="translate(-660.078 -399.377)" fill="none" stroke="#707070" stroke-width="1"/>
        <path id="Path_5821" data-name="Path 5821" d="M762.318,713.444c.019,2.643.107,4.13.107,4.13l-.062,1.189h6.884q-.413-2.637-.63-5.319Z" transform="translate(-644.96 -604.598)" fill="none" stroke="#707070" stroke-width="1"/>
        <path id="Path_5822" data-name="Path 5822" d="M791.822,420.62q-.847,3.095-1.542,6.133h6.694q.879-3.145,1.835-6.133Z" transform="translate(-668.476 -358.333)" fill="none" stroke="#707070" stroke-width="1"/>
        <path id="Path_5823" data-name="Path 5823" d="M767.124,65.813a53.843,53.843,0,0,0-7.317-11.757l-1.255,1.928.107-3.2a25.157,25.157,0,0,0-2.649-2.429L754.3,52.986l.125-3.767a15.764,15.764,0,0,0-3.257-1.608L749.9,49.56l.077-2.307a12.982,12.982,0,0,0-10.052,1.69l-1.251-.187,2.145-.9a15.763,15.763,0,0,0-.994-3.493l-3.728-.556,2.9-1.211a25.155,25.155,0,0,0-1.912-3.044l-3.169-.473,2.122-.886a53.849,53.849,0,0,0-10.244-9.318s-.34,2.97-.529,7.11l3.112,3.184-3.2-.827c-.033,1.272-.048,2.61-.032,3.976l2.3,2.348-2.258-.584c.033,1.044.086,2.094.164,3.132a12.362,12.362,0,0,0-5.944.034l.077,2.307-1.268-1.948a15.763,15.763,0,0,0-3.257,1.608l.125,3.767-1.715-2.634a25.162,25.162,0,0,0-2.649,2.429l.107,3.2-1.255-1.928a53.85,53.85,0,0,0-7.317,11.757s2.982-.2,7.089-.762l2.57-3.636-.237,3.294c1.257-.2,2.576-.424,3.917-.686l1.9-2.681-.167,2.326c1.87-.4,3.745-.878,5.517-1.429l1.272,1.183-2.276-.475a15.767,15.767,0,0,0-1.156,3.443l2.76,2.567-3.077-.642a25.153,25.153,0,0,0-.145,3.591l2.346,2.182-2.251-.47A53.851,53.851,0,0,0,723.487,87.1s1.96-2.257,4.458-5.564l-.766-4.386,2.169,2.491c.747-1.03,1.516-2.126,2.275-3.261l-.565-3.235L732.59,74.9a55.776,55.776,0,0,0,4.036-7.32,61.218,61.218,0,0,0,4.4,5.123l1.173-2.015.054,3.283c.96.972,1.921,1.9,2.848,2.775l1.662-2.854.073,4.452c3.076,2.778,5.425,4.626,5.425,4.626a53.85,53.85,0,0,0,.584-13.836l-2.123.885,1.893-2.584a25.149,25.149,0,0,0-.818-3.5l-2.9,1.209,1.38-1.883q.889.214,1.783.407l-.167-2.326,1.9,2.681c1.341.262,2.66.489,3.917.686l-.237-3.294,2.57,3.636C764.142,65.611,767.124,65.813,767.124,65.813Z" transform="translate(-594.444 -28.879)" fill="none" stroke="#707070" stroke-width="1"/>
        <path id="Path_5824" data-name="Path 5824" d="M684.327,543.343c.189,1.5.343,2.95.47,4.329h-4.1q-.224-2.175-.562-4.329Z" transform="translate(-575.842 -461.543)" fill="none" stroke="#707070" stroke-width="1"/>
        <path id="Path_5825" data-name="Path 5825" d="M685.409,616.572q.132-2.154.107-4.329h4.16c.068,1.659.094,3.115.1,4.329Z" transform="translate(-580.279 -519.488)" fill="none" stroke="#707070" stroke-width="1"/>
        <path id="Path_5826" data-name="Path 5826" d="M604.966,306.729a130.707,130.707,0,0,0-6.772-15.24l3.49-2.076a78.009,78.009,0,0,1,8.454,17.316Z" transform="translate(-506.932 -247.988)" fill="none" stroke="#707070" stroke-width="1"/>
        <path id="Path_5827" data-name="Path 5827" d="M688.448,577.793c.128,1.543.221,2.993.288,4.329h-4.129q-.06-2.164-.253-4.329Z" transform="translate(-579.392 -490.515)" fill="none" stroke="#707070" stroke-width="1"/>
        <path id="Path_5828" data-name="Path 5828" d="M678.133,508.893c.252,1.481.471,2.927.659,4.329h-4.232q-.369-2.187-.832-4.329Z" transform="translate(-570.457 -432.571)" fill="none" stroke="#707070" stroke-width="1"/>
        <path id="Path_5829" data-name="Path 5829" d="M648.6,405.543q.73,2.171,1.345,4.329h-4.982c-.493-1.5-1-2.945-1.5-4.329Z" transform="translate(-545 -345.653)" fill="none" stroke="#707070" stroke-width="1"/>
        <path id="Path_5830" data-name="Path 5830" d="M670.047,474.443q.482,2.2.863,4.329h-4.457q-.5-2.2-1.074-4.329Z" transform="translate(-563.434 -403.598)" fill="none" stroke="#707070" stroke-width="1"/>
        <path id="Path_5831" data-name="Path 5831" d="M686.987,646.693c-.013,1.865-.075,2.915-.075,2.915l.044.839H682.1q.292-1.861.445-3.755Z" transform="translate(-577.494 -548.46)" fill="none" stroke="#707070" stroke-width="1"/>
        <path id="Path_5832" data-name="Path 5832" d="M660.182,439.993q.6,2.185,1.089,4.329h-4.725q-.621-2.22-1.3-4.329Z" transform="translate(-554.916 -374.626)" fill="none" stroke="#707070" stroke-width="1"/>
        <path id="Path_5833" data-name="Path 5833" d="M467.252,189.541a38.009,38.009,0,0,1,5.165-8.3l.886,1.361-.075-2.26a17.754,17.754,0,0,1,1.87-1.715l1.21,1.859-.089-2.659a11.13,11.13,0,0,1,2.3-1.135l.9,1.375-.054-1.628a9.164,9.164,0,0,1,7.1,1.193l.883-.132-1.514-.632a11.13,11.13,0,0,1,.7-2.466l2.631-.393-2.047-.855a17.757,17.757,0,0,1,1.349-2.148l2.237-.334-1.5-.626a38.012,38.012,0,0,1,7.231-6.578s.24,2.1.374,5.019l-2.2,2.248,2.257-.584c.024.9.034,1.843.023,2.807l-1.62,1.658,1.594-.412c-.023.737-.061,1.478-.115,2.211a8.726,8.726,0,0,1,4.2.024l-.054,1.628.9-1.375a11.129,11.129,0,0,1,2.3,1.135l-.089,2.659,1.21-1.859a17.755,17.755,0,0,1,1.87,1.715l-.075,2.26.886-1.361a38.01,38.01,0,0,1,5.165,8.3s-2.105-.142-5-.538l-1.814-2.566.167,2.325c-.887-.139-1.818-.3-2.765-.484l-1.338-1.893.118,1.642c-1.32-.285-2.644-.62-3.894-1.009l-.9.835,1.606-.335a11.129,11.129,0,0,1,.816,2.43l-1.948,1.812,2.172-.453a17.757,17.757,0,0,1,.1,2.535l-1.656,1.54,1.589-.331a38.009,38.009,0,0,1-2.243,9.514s-1.384-1.593-3.147-3.928l.541-3.1-1.531,1.758c-.527-.727-1.07-1.5-1.606-2.3l.4-2.283-1.081,1.241a39.367,39.367,0,0,1-2.849-5.167,43.222,43.222,0,0,1-3.1,3.616l-.828-1.423-.038,2.318c-.677.686-1.356,1.344-2.011,1.959l-1.173-2.015-.052,3.143c-2.171,1.961-3.83,3.265-3.83,3.265a38.01,38.01,0,0,1-.413-9.766l1.5.625-1.336-1.824a17.753,17.753,0,0,1,.577-2.47l2.048.854-.974-1.329q-.628.151-1.259.287l.118-1.642-1.338,1.893c-.946.185-1.878.345-2.765.484l.167-2.325L472.256,189C469.357,189.4,467.252,189.541,467.252,189.541Z" transform="translate(-396.809 -142.07)" fill="none" stroke="#707070" stroke-width="1"/>
        <ellipse id="Ellipse_32" data-name="Ellipse 32" cx="23.453" cy="2.226" rx="23.453" ry="2.226" transform="translate(36.893 112.348)" fill="none" stroke="#707070" stroke-width="1"/>
        <ellipse id="Ellipse_33" data-name="Ellipse 33" cx="23.453" cy="2.226" rx="23.453" ry="2.226" transform="translate(93.339 112.348)" fill="none" stroke="#707070" stroke-width="1"/>
        <path id="Path_5834" data-name="Path 5834" d="M656.456,528.34s1.693,11.758-6.436,18.71a17.1,17.1,0,0,1-18.919,2.069,23.574,23.574,0,0,1-7.055-5.656,30.37,30.37,0,0,1-2.426-3.228,38.548,38.548,0,0,1-2.819-5.147q-.763-1.667-1.458-3.568c-.089-.243-.172-.482-.251-.719-4.221-12.547,3.989-16.207,11.526-17.085a38.706,38.706,0,0,1,4.764-.24,42.719,42.719,0,0,1,5.586.394s.154,0,.432.013a33.549,33.549,0,0,1,4.282.475C649.5,515.381,658.415,518.549,656.456,528.34Z" transform="translate(-521.857 -436.423)" fill="none" stroke="#707070" stroke-width="1"/>
        <path id="Path_5835" data-name="Path 5835" d="M336.407,531.531c-3.711,10.187-9.055,15.18-13.758,17.6a17.1,17.1,0,0,1-18.919-2.069,16.63,16.63,0,0,1-1.431-1.379,17.312,17.312,0,0,1-2.387-3.285,20.457,20.457,0,0,1-1.922-4.784,25.688,25.688,0,0,1-.822-5.6,22.412,22.412,0,0,1,.126-3.66c-1.833-9.166,5.859-12.526,11.626-13.757a34.249,34.249,0,0,1,5.061-.682c.51-.029.8-.03.8-.03a43.9,43.9,0,0,1,9.154-.272C331.9,514.253,341.44,517.719,336.407,531.531Z" transform="translate(-253.642 -436.435)" fill="none" stroke="#707070" stroke-width="1"/>
        <path id="Path_5836" data-name="Path 5836" d="M314.775,516.16l-15.991,23.7a25.683,25.683,0,0,1-.822-5.6l11.752-17.417A34.224,34.224,0,0,1,314.775,516.16Z" transform="translate(-254.437 -438.682)" fill="none" stroke="#707070" stroke-width="1" opacity="0.2"/>
        <path id="Path_5837" data-name="Path 5837" d="M339.247,513.6l-21.638,32.072a17.313,17.313,0,0,1-2.387-3.285l19.493-28.892a41.748,41.748,0,0,1,4.532.1Z" transform="translate(-268.952 -436.422)" fill="none" stroke="#707070" stroke-width="1" opacity="0.2"/>
        <path id="Path_5838" data-name="Path 5838" d="M639.462,513.477l-14.58,21.611q-.763-1.667-1.458-3.568c-.089-.243-.172-.482-.251-.719L634.7,513.717A38.718,38.718,0,0,1,639.462,513.477Z" transform="translate(-527.938 -436.423)" fill="none" stroke="#707070" stroke-width="1" opacity="0.2"/>
        <path id="Path_5839" data-name="Path 5839" d="M673.713,516.525l-19.635,29.1a30.4,30.4,0,0,1-2.426-3.228l17.779-26.351A33.539,33.539,0,0,1,673.713,516.525Z" transform="translate(-551.89 -438.589)" fill="none" stroke="#707070" stroke-width="1" opacity="0.2"/>
        <path id="Path_5840" data-name="Path 5840" d="M374.173,527.242h-3.639c1.611-13.2-17.667-13.356-17.667-13.356a43.961,43.961,0,0,0-9.222-.266v-.052H305.962v.04a44.009,44.009,0,0,0-9.063.278s-19.277.153-17.667,13.356h-3.48v3.5h3.512c-.035,3.8.719,11.312,6.582,16.325a17.1,17.1,0,0,0,18.919,2.069c4.7-2.418,10.047-7.411,13.758-17.6a17.971,17.971,0,0,0,1.284-8.61,101.025,101.025,0,0,1,10.153,0,17.97,17.97,0,0,0,1.284,8.61c3.711,10.187,9.055,15.18,13.758,17.6a17.1,17.1,0,0,0,18.919-2.069c5.862-5.013,6.617-12.524,6.582-16.325h3.671ZM316.847,531.6c-3.531,9.694-8.683,14.229-13.1,16.321a15.511,15.511,0,0,1-16.4-1.913c-5.578-4.535-6.32-11.5-6.3-15.056.01-1.412-.054-2.821-.11-4.231-.44-11.084,16.191-11.214,16.191-11.214s27.111-4.2,19.716,16.092Zm13.259-9.471a67.5,67.5,0,0,0-10.446,0c-.872-3.893-3.812-6.088-7.3-7.289H337.41C333.919,516.041,330.979,518.236,330.106,522.129ZM369,526.671c-.057,1.423-.121,2.846-.111,4.269.022,3.585-.728,10.62-6.357,15.194a15.648,15.648,0,0,1-16.541,1.935c-4.462-2.11-9.664-6.686-13.23-16.476-7.462-20.484,19.9-16.24,19.9-16.24S369.441,515.484,369,526.671Z" transform="translate(-235.758 -436.438)" fill="none" stroke="#707070" stroke-width="1"/>
        <path id="Path_5841" data-name="Path 5841" d="M424.772,635.873a5.584,5.584,0,0,1-.59-2.21,15.326,15.326,0,0,1,1.132-6.8,13.718,13.718,0,0,0-.544-10.918l.136-.079a12.049,12.049,0,0,1,1.137,3.221,14.05,14.05,0,0,1-.582,7.831c-2.233,6.006-.573,8.849-.556,8.877Z" transform="translate(-360.548 -522.532)" fill="none" stroke="#707070" stroke-width="1"/>
        <circle id="Ellipse_34" data-name="Ellipse 34" cx="1.02" cy="1.02" r="1.02" transform="translate(62.33 91.016)" fill="none" stroke="#707070" stroke-width="1"/>
        <circle id="Ellipse_35" data-name="Ellipse 35" cx="1.02" cy="1.02" r="1.02" transform="translate(65.547 94.782)" fill="none" stroke="#707070" stroke-width="1"/>
        <circle id="Ellipse_36" data-name="Ellipse 36" cx="1.02" cy="1.02" r="1.02" transform="translate(63.35 97.293)" fill="none" stroke="#707070" stroke-width="1"/>
        <circle id="Ellipse_37" data-name="Ellipse 37" cx="1.02" cy="1.02" r="1.02" transform="translate(66.018 99.412)" fill="none" stroke="#707070" stroke-width="1"/>
        <circle id="Ellipse_38" data-name="Ellipse 38" cx="1.02" cy="1.02" r="1.02" transform="translate(62.565 102.707)" fill="none" stroke="#707070" stroke-width="1"/>
        <path id="Path_5842" data-name="Path 5842" d="M431.156,718.708s-1.02-2.511,2.04-4.394Z" transform="translate(-366.315 -605.329)" fill="none" stroke="#707070" stroke-width="1"/>
        <path id="Path_5843" data-name="Path 5843" d="M402.669,727.66s-.464-2.67-4.057-2.647Z" transform="translate(-339.083 -614.327)" fill="none" stroke="#707070" stroke-width="1"/>
        <path id="Path_5844" data-name="Path 5844" d="M270.671,353.44a1.01,1.01,0,0,1-.45.828l-.038.024H253.2l.068-.208c.011-.037,1.255-3.644,6.758-2.948.518-.178,5.584-1.832,8.616.027C269.989,351.986,270.671,352.753,270.671,353.44Z" transform="translate(-216.793 -299.184)" fill="none" stroke="#707070" stroke-width="1"/>
        <path id="Path_5845" data-name="Path 5845" d="M468.671,430.44a1.01,1.01,0,0,1-.45.828l-.038.024H451.2l.068-.208c.011-.037,1.255-3.644,6.758-2.948.518-.178,5.584-1.832,8.616.027C467.989,428.986,468.671,429.753,468.671,430.44Z" transform="translate(-383.311 -363.941)" fill="none" stroke="#707070" stroke-width="1"/>
        <path id="Path_5846" data-name="Path 5846" d="M513.671,120.44a1.011,1.011,0,0,1-.45.828l-.038.024H496.2l.068-.208c.011-.037,1.255-3.644,6.758-2.948.518-.178,5.584-1.832,8.616.027C512.989,118.986,513.671,119.753,513.671,120.44Z" transform="translate(-421.156 -103.231)" fill="none" stroke="#707070" stroke-width="1"/>
        <path id="Path_5847" data-name="Path 5847" d="M28.823,652.883l1.453,4.5a23.277,23.277,0,0,0-.692,8.924c.623,4.7.277,4.843.277,4.843s-6.221-.358-5.6,1.51,6.705.773,6.705.773,1.168-.315,1.722-3.635,1.945-9.717,1.945-9.717l-1.308-6.038Z" transform="translate(-24.218 -553.667)" fill="none" stroke="#707070" stroke-width="1"/>
        <path id="Path_5848" data-name="Path 5848" d="M42.318,595.015a4.091,4.091,0,0,0-2.629,3.6c0,2.629.969,6.226,1.591,6.434s4.774,3.044,5.535,1.038S42.318,595.015,42.318,595.015Z" transform="translate(-37.229 -504.999)" fill="none" stroke="#707070" stroke-width="1"/>
        <path id="Path_5849" data-name="Path 5849" d="M161.219,757.54l5.534-.208,4.22-.623-1.245,4.151-10.239.277Z" transform="translate(-134.131 -636.393)" fill="none" stroke="#707070" stroke-width="1"/>
        <path id="Path_5850" data-name="Path 5850" d="M239.318,778.557s-.069-1.522-.692-1.453-.208-.554.346-.692,2.145-.83,2.145-.83l6.3.415s4.082,3.6,2.421,5.534-5.95.208-5.95.208l-4.635.069S237.727,779.318,239.318,778.557Z" transform="translate(-204.274 -656.856)" fill="none" stroke="#707070" stroke-width="1"/>
        <path id="Path_5851" data-name="Path 5851" d="M236.068,708.125l2.006,9.409,4.151-.83-2.352-11.761-2.491-1.314Z" transform="translate(-198.533 -591.751)" fill="none" stroke="#707070" stroke-width="1"/>
        <path id="Path_5852" data-name="Path 5852" d="M68.279,652.1s-11.622,5.258-6.711,10.585c0,0,0,2.491,5.189,2.006s15.22-1.384,15.7-1.107,2.006-5.465.692-5.742-2.906-.623-2.906-.623,1.384-.208,1.384-1.384c0,0,3.943-.277,5.119-2.767s2.283-4.358,2.283-4.358l2.7,6.918s3.113-5.742,5.465-3.182c0,0-2.629-16.534-4.635-18.056s-3.39-2.006-5.258-.623-3.6,4.912-3.6,4.912Z" transform="translate(-54.611 -536.903)" fill="none" stroke="#707070" stroke-width="1"/>
        <path id="Path_5853" data-name="Path 5853" d="M260.92,801.736a15.592,15.592,0,0,0-1.384,1.176c-.553.553-1.314.277-1.384,0s-1.314.208-1.453,2.214-.969,3.8,1.245,4.428a2.577,2.577,0,0,1,2.145,2.421,7.463,7.463,0,0,0,5.6.346c3.113-1.038,2.006-2.145,2.006-2.145l-4.151-6.849S262.442,801.252,260.92,801.736Z" transform="translate(-219.511 -678.79)" fill="none" stroke="#707070" stroke-width="1"/>
        <path id="Path_5854" data-name="Path 5854" d="M199.617,586.313s6.641,2.283,7.333,2.767,3.8,2.767,2.283,3.943-2.767,1.937-5.742,1.038a22.356,22.356,0,0,1-6.3-3.667Z" transform="translate(-169.693 -497.681)" fill="none" stroke="#707070" stroke-width="1"/>
        <path id="Path_5855" data-name="Path 5855" d="M170.655,566.572a7.8,7.8,0,0,1,4.5.553,13.507,13.507,0,0,1,3.459,3.113s-1.73,3.667-2.975,4.22-3.528-2.214-3.528-2.214Z" transform="translate(-147.371 -480.983)" fill="none" stroke="#707070" stroke-width="1"/>
        <path id="Path_5856" data-name="Path 5856" d="M93.335,552.8s.069,2.7-.208,2.975,3.321,8.44,7.264,4.843.9-5.05.9-5.05a19.978,19.978,0,0,1-1.384-2.975c.069-.277-6.434,0-6.434,0Z" transform="translate(-82.158 -469.22)" fill="none" stroke="#707070" stroke-width="1"/>
        <path id="Path_5857" data-name="Path 5857" d="M93.335,552.8s.069,2.7-.208,2.975,3.321,8.44,7.264,4.843.9-5.05.9-5.05a19.978,19.978,0,0,1-1.384-2.975c.069-.277-6.434,0-6.434,0Z" transform="translate(-82.158 -469.22)" fill="none" stroke="#707070" stroke-width="1" opacity="0.1"/>
        <path id="Path_5858" data-name="Path 5858" d="M96.351,582.055s2.629,1.8,3.736,1.384a9.173,9.173,0,0,0,2.629-2.352c.138-.138,7.195,14.044,7.195,14.044s-1.038,5.189-3.8,6.711-2.733,2.733-3.079,3.77-4.808-3.286-4.808-3.286l-2.836-12.038v-7.333Z" transform="translate(-84.067 -493.284)" fill="none" stroke="#707070" stroke-width="1"/>
        <path id="Path_5859" data-name="Path 5859" d="M58.944,566.862a2.241,2.241,0,0,0-1.764.588c-.9.761-5.119,3.6-4.912,3.874a39.857,39.857,0,0,1,2.491,5.811c.415,1.591,1.038,1.8,1.038,1.8s1.453,1.038,1.245,1.8-1.107,11.138.138,13.421,1.038,4.289.692,4.843,3.321-1.591,3.321-1.591,5.465-4.428,5.88-5.742a15.465,15.465,0,0,0,.553-2.767S64.1,574.921,62.991,574.16,58.944,566.862,58.944,566.862Z" transform="translate(-47.802 -481.308)" fill="none" stroke="#707070" stroke-width="1"/>
        <path id="Path_5860" data-name="Path 5860" d="M135.875,562.919s1.7-1.058,2.051-.781,3.6.277,3.667.553.208,6.918,2.56,8.648.83,5.189.83,5.189l1.73,2.767s-9.409,9.062-8.786,5.95c.035-.173,0-.208,0-.208s-3.667-15.7-3.182-16.534S136.108,563.908,135.875,562.919Z" transform="translate(-117.133 -477.311)" fill="none" stroke="#707070" stroke-width="1"/>
        <path id="Path_5861" data-name="Path 5861" d="M141.018,607.2l-9.409,3.252s-9.339,2.214-7.887,4.773,7.61-1.8,7.61-1.8l12.529-1.4S148.835,607.821,141.018,607.2Z" transform="translate(-107.772 -515.245)" fill="none" stroke="#707070" stroke-width="1"/>
        <circle id="Ellipse_39" data-name="Ellipse 39" cx="5.119" cy="5.119" r="5.119" transform="translate(9.793 75.903)" fill="none" stroke="#707070" stroke-width="1"/>
        <path id="Path_5862" data-name="Path 5862" d="M82.659,490.29l-.947-.344a6.734,6.734,0,0,1,4.735-1.808l-.775-.775a3.514,3.514,0,0,1,3.616,1.119,15.381,15.381,0,0,1,2.605,3.326h1.014l-.423.847,1.481.847-1.521-.152a4.272,4.272,0,0,1-.144,2.192l-.344.947a27.306,27.306,0,0,1-1.377-3.1v.861s-.947-.775-.947-1.291l-.517.6-.258-.947-3.185.947.517-.775-1.98.258.775-.947s-2.238,1.119-2.324,2.066a4.952,4.952,0,0,1-1.205,2.152l-.517-.861S80.162,491.581,82.659,490.29Z" transform="translate(-71.823 -414.356)" fill="none" stroke="#707070" stroke-width="1"/>
        <path id="Path_5863" data-name="Path 5863" d="M125.326,532.387a2.225,2.225,0,0,1-.639,1.859,1.7,1.7,0,0,1-1.88.205,2.342,2.342,0,0,1-.7-.562,3.032,3.032,0,0,1-.241-.321,3.838,3.838,0,0,1-.28-.511q-.076-.166-.145-.354c-.009-.024-.017-.048-.025-.071-.419-1.246.4-1.61,1.145-1.7a3.855,3.855,0,0,1,.473-.024,4.251,4.251,0,0,1,.555.039h.043a3.329,3.329,0,0,1,.425.047C124.635,531.1,125.521,531.414,125.326,532.387Z" transform="translate(-105.865 -451.087)" fill="none" stroke="#707070" stroke-width="1"/>
        <path id="Path_5864" data-name="Path 5864" d="M93.53,532.7a2.977,2.977,0,0,1-1.367,1.748,1.7,1.7,0,0,1-1.88-.206,1.659,1.659,0,0,1-.142-.137,1.722,1.722,0,0,1-.237-.326,2.031,2.031,0,0,1-.191-.475,2.551,2.551,0,0,1-.082-.557,2.225,2.225,0,0,1,.012-.364c-.182-.911.582-1.244,1.155-1.367a3.4,3.4,0,0,1,.5-.068l.08,0a4.361,4.361,0,0,1,.909-.027C93.082,530.987,94.03,531.332,93.53,532.7Z" transform="translate(-79.218 -451.088)" fill="none" stroke="#707070" stroke-width="1"/>
        <path id="Path_5865" data-name="Path 5865" d="M91.381,531.177l-1.589,2.355a2.553,2.553,0,0,1-.082-.557l1.168-1.73A3.41,3.41,0,0,1,91.381,531.177Z" transform="translate(-79.297 -451.311)" fill="none" stroke="#707070" stroke-width="1" opacity="0.2"/>
        <path id="Path_5866" data-name="Path 5866" d="M93.812,530.922l-2.15,3.186a1.72,1.72,0,0,1-.237-.326l1.937-2.87A4.134,4.134,0,0,1,93.812,530.922Z" transform="translate(-80.739 -451.087)" fill="none" stroke="#707070" stroke-width="1" opacity="0.2"/>
        <path id="Path_5867" data-name="Path 5867" d="M123.638,530.91l-1.449,2.147q-.076-.166-.145-.354c-.009-.024-.017-.048-.025-.071l1.145-1.7a3.843,3.843,0,0,1,.473-.024Z" transform="translate(-106.469 -451.087)" fill="none" stroke="#707070" stroke-width="1" opacity="0.2"/>
        <path id="Path_5868" data-name="Path 5868" d="M127.04,531.213,125.09,534.1a3.02,3.02,0,0,1-.241-.321l1.766-2.618A3.329,3.329,0,0,1,127.04,531.213Z" transform="translate(-108.848 -451.302)" fill="none" stroke="#707070" stroke-width="1" opacity="0.2"/>
        <path id="Path_5869" data-name="Path 5869" d="M97.282,532.278H96.92c.16-1.312-1.755-1.327-1.755-1.327a4.367,4.367,0,0,0-.916-.026v-.005H90.505v0a4.376,4.376,0,0,0-.9.028s-1.915.015-1.755,1.327H87.5v.348h.349a2.1,2.1,0,0,0,.654,1.622,1.7,1.7,0,0,0,1.88.206,2.977,2.977,0,0,0,1.367-1.748,1.785,1.785,0,0,0,.128-.855,10.036,10.036,0,0,1,1.009,0,1.785,1.785,0,0,0,.128.855,2.978,2.978,0,0,0,1.367,1.748,1.7,1.7,0,0,0,1.88-.206,2.1,2.1,0,0,0,.654-1.622h.365Zm-5.7.433a2.672,2.672,0,0,1-1.3,1.621,1.541,1.541,0,0,1-1.629-.19,1.9,1.9,0,0,1-.626-1.5c0-.14-.005-.28-.011-.42-.044-1.1,1.609-1.114,1.609-1.114S92.321,530.694,91.587,532.711Zm1.317-.941a6.709,6.709,0,0,0-1.038,0,1.009,1.009,0,0,0-.726-.724H93.63A1.009,1.009,0,0,0,92.9,531.77Zm3.864.451c-.006.141-.012.283-.011.424a1.916,1.916,0,0,1-.632,1.509,1.555,1.555,0,0,1-1.643.192,2.7,2.7,0,0,1-1.314-1.637c-.741-2.035,1.977-1.613,1.977-1.613S96.812,531.11,96.768,532.221Z" transform="translate(-77.442 -451.088)" fill="none" stroke="#707070" stroke-width="1"/>
      </g>
      <path id="Path_5747" data-name="Path 5747" d="M711.938,60.193v51.416h-8.66V60.193a4.334,4.334,0,1,1,8.66,0Z" transform="translate(-230.916 -37.914)" fill="#d8d8d8"/>
      <rect id="Rectangle_38" data-name="Rectangle 38" width="8.667" height="4.678" transform="translate(472.355 69.017)" opacity="0.1"/>
      <path id="Path_5748" data-name="Path 5748" d="M714.415,124.978v16.974H699V124.978a2.1,2.1,0,0,1,2.108-2.108h11.214A2.108,2.108,0,0,1,714.415,124.978Z" transform="translate(-229.991 -52.45)" fill="#d8d8d8"/>
      <circle id="Ellipse_16" data-name="Ellipse 16" cx="3.276" cy="3.276" r="3.276" transform="translate(473.413 77.919)" opacity="0.997" fill="url(#linear-gradient)"/>
      <rect id="Rectangle_39" data-name="Rectangle 39" width="15.462" height="2.108" transform="translate(468.962 87.402)" opacity="0.1"/>
      <rect id="Rectangle_40" data-name="Rectangle 40" width="28.11" height="4.686" transform="translate(462.638 90.215)" opacity="0.1"/>
      <rect id="Rectangle_41" data-name="Rectangle 41" width="28.11" height="4.686" transform="translate(462.638 88.804)" fill="#d8d8d8"/>
      <path id="Path_5749" data-name="Path 5749" d="M534.314,384H652.373a5.094,5.094,0,0,1,5.094,5.094v1.113H529.22v-1.113A5.094,5.094,0,0,1,534.314,384Z" transform="translate(-114.488 -83.073)" fill="#d8d8d8" opacity="0.1"/>
      <path id="Path_5750" data-name="Path 5750" d="M554.709,392.285l8.9-.235-.274,2.7H554.45Z" transform="translate(-119.946 -84.814)" opacity="0.1"/>
      <rect id="Rectangle_42" data-name="Rectangle 42" width="16.512" height="2.578" transform="translate(470.02 307.353)" opacity="0.1"/>
      <path id="Path_5751" data-name="Path 5751" d="M663.173,394.746h-8.879l-.274-2.7,8.895.235Z" transform="translate(-141.486 -84.814)" opacity="0.1"/>
      <path id="Path_5752" data-name="Path 5752" d="M534.314,385.77H652.373a5.094,5.094,0,0,1,5.094,5.094v1.113H529.22v-1.113A5.094,5.094,0,0,1,534.314,385.77Z" transform="translate(-114.488 -83.456)" fill="#d8d8d8"/>
      <path id="Path_5754" data-name="Path 5754" d="M516.706,829.3c-.133.549-.274,1.121-.447,1.7-1.567,5.486-4.569,4.216-13.322,13.173a17.538,17.538,0,0,1-17.452,4.953,2.116,2.116,0,0,1-1.567-2.226l1.1-14.529.525-6.99s13.981,3.918,21.1-1.058a8.424,8.424,0,0,0,.69-.525,2.145,2.145,0,0,0,.157-.157,5.713,5.713,0,0,1,9.216,5.658Z" transform="translate(-183.46 -203.766)" fill="#f97d02"/>
      <path id="Path_5755" data-name="Path 5755" d="M460.706,822.3c-.133.549-.274,1.121-.447,1.7-1.567,5.486-4.569,4.216-13.322,13.173a17.539,17.539,0,0,1-17.452,4.953,2.116,2.116,0,0,1-1.567-2.226l1.1-14.529.525-6.99s13.981,3.918,21.1-1.058a8.423,8.423,0,0,0,.69-.525,2.145,2.145,0,0,0,.157-.157,5.713,5.713,0,0,1,9.216,5.658Z" transform="translate(-171.345 -202.251)" fill="#f97d02"/>
      <path id="Path_5756" data-name="Path 5756" d="M445.861,826.922l.564,7.555c-8.025,8.017-17.578-3.918-20.375-7.837C433.409,830.433,445.861,826.922,445.861,826.922Z" transform="translate(-170.943 -204.699)" opacity="0.1"/>
      <path id="Path_5757" data-name="Path 5757" d="M505.846,829.611l1.05-.7c-7.327,11.144-18.212,6-21.606,4l.525-6.99s13.981,3.918,21.1-1.058C506.355,827.6,505.846,829.611,505.846,829.611Z" transform="translate(-183.758 -204.316)" opacity="0.1"/>
      <path id="Path_5759" data-name="Path 5759" d="M491.34,662.412c.47,0,11.6.94,15.673.118S491.34,662.412,491.34,662.412Z" transform="translate(-185.067 -169.11)" opacity="0.1"/>
      <path id="Path_5760" data-name="Path 5760" d="M492.39,670.859s15.368,2.7,16.151,1.293S492.39,670.859,492.39,670.859Z" transform="translate(-185.294 -170.998)" opacity="0.1"/>
      <path id="Path_5761" data-name="Path 5761" d="M432.46,667.27s7.962.353,12.3,2.351S432.46,667.27,432.46,667.27Z" transform="translate(-172.33 -170.222)" opacity="0.1"/>
      <circle id="Ellipse_18" data-name="Ellipse 18" cx="27.052" cy="27.052" r="27.052" transform="translate(276.76 134.453)" fill="#efb7b9"/>
      <path id="Path_5763" data-name="Path 5763" d="M465.387,254.971s-8.432,16.52-16.865,24.247,50.594,16.512,52,16.512-10.54-35.132-8.432-39.371S465.387,254.971,465.387,254.971Z" transform="translate(-175.626 -80.825)" fill="#efb7b9"/>
      <path id="Path_5764" data-name="Path 5764" d="M516.837,492.751a17.579,17.579,0,0,1-4.342,2.429c-10.768,4.216-22.483,10.07-30.445,7.735s-24.827,0-24.827,0-33.972-2.813-40.751-1.175c-3.088.744-5.486.713-7.053.18.306-2.829.572-4.631.572-4.631s100.874-16.339,104.894-12.648C515.842,485.51,516.453,488.5,516.837,492.751Z" transform="translate(-167.345 -130.596)" opacity="0.1"/>
      <path id="Path_5773" data-name="Path 5773" d="M400,380.18s4.921,2.923,3.284,7.492S400,380.18,400,380.18Z" transform="translate(-165.307 -108.115)" opacity="0.1"/>
      <path id="Path_5774" data-name="Path 5774" d="M399.43,363.14s4.561,2.461,5.149,6.089S399.43,363.14,399.43,363.14Z" transform="translate(-165.184 -104.429)" opacity="0.1"/>
      <path id="Path_5775" data-name="Path 5775" d="M485.81,540.813s28.7,2.931,34.434-3.863C520.244,536.989,494.36,542.107,485.81,540.813Z" transform="translate(-183.871 -142.03)" opacity="0.1"/>
      <path id="Path_5776" data-name="Path 5776" d="M422.59,539.79s30.806,7.265,36.9,1.52C459.485,541.31,433.013,543.3,422.59,539.79Z" transform="translate(-170.194 -142.644)" opacity="0.1"/>
      <path id="Path_5777" data-name="Path 5777" d="M488.65,554s12.883,0,18.855.353S488.65,554,488.65,554Z" transform="translate(-184.485 -145.718)" opacity="0.1"/>
      <path id="Path_5778" data-name="Path 5778" d="M425.28,561s6.324,7.147,13.471,5.862S425.28,561,425.28,561Z" transform="translate(-170.776 -147.232)" opacity="0.1"/>
      <path id="Path_5787" data-name="Path 5787" d="M589.477,311.307c-4.8,12.186-11.01,16.99-11.01,16.99H575.01c1.8-4.827,5.6-14.733,7.053-17.021,1.418-2.163-11.308-7.547-18.753-10.454,1.152-.118,2.351-1.842,2.351-1.842S594.281,299.129,589.477,311.307Z" transform="translate(-200.637 -90.549)" opacity="0.1"/>
      <path id="Path_5788" data-name="Path 5788" d="M228.787,556.31s5.674,7.421-2.617,18.612-15.117,20.642-12.343,27.624c0,0,12.5-20.791,22.679-21.081S239.985,568.817,228.787,556.31Z" transform="translate(-124.896 -146.218)" fill="url(#linear-gradient)"/>
      <path id="Path_5789" data-name="Path 5789" d="M228.874,556.31a9.238,9.238,0,0,1,1.16,2.351c9.929,11.669,15.219,22.554,5.674,22.828-8.887.251-19.552,16.151-22.107,20.164a7.4,7.4,0,0,0,.306.917s12.5-20.791,22.679-21.081S240.072,568.817,228.874,556.31Z" transform="translate(-124.983 -146.218)" opacity="0.1" fill="url(#linear-gradient)"/>
      <path id="Path_5790" data-name="Path 5790" d="M246.179,567.906c0,2.61-.29,4.7-.65,4.7s-.658-2.116-.658-4.7.368-1.379.729-1.379S246.179,565.265,246.179,567.906Z" transform="translate(-131.748 -148.363)" fill="#f97d02"/>
      <path id="Path_5791" data-name="Path 5791" d="M249.926,571.853c-2.288,1.246-4.287,2.006-4.459,1.685s1.567-1.567,3.832-2.837,1.387-.337,1.567,0S252.214,570.6,249.926,571.853Z" transform="translate(-131.874 -149.191)" fill="#f97d02"/>
      <path id="Path_5792" data-name="Path 5792" d="M191.358,556.31s-5.674,7.421,2.617,18.612,15.117,20.642,12.366,27.624c0,0-12.539-20.791-22.726-21.081S180.16,568.817,191.358,556.31Z" transform="translate(-117.412 -146.218)" fill="url(#linear-gradient)"/>
      <path id="Path_5793" data-name="Path 5793" d="M191.357,556.31a9.239,9.239,0,0,0-1.16,2.351c-9.929,11.669-15.219,22.554-5.674,22.828,8.887.251,19.592,16.151,22.107,20.164a8.94,8.94,0,0,1-.3.917s-12.539-20.791-22.726-21.081S180.158,568.817,191.357,556.31Z" transform="translate(-117.41 -146.218)" opacity="0.1"/>
      <path id="Path_5794" data-name="Path 5794" d="M181.43,567.906c0,2.61.29,4.7.65,4.7s.658-2.116.658-4.7-.368-1.379-.729-1.379S181.43,565.265,181.43,567.906Z" transform="translate(-118.024 -148.363)" fill="#f97d02"/>
      <path id="Path_5795" data-name="Path 5795" d="M176.424,571.853c2.3,1.246,4.287,2.006,4.467,1.685s-1.567-1.567-3.84-2.837-1.387-.337-1.567,0S174.136,570.6,176.424,571.853Z" transform="translate(-116.638 -149.191)" fill="#f97d02"/>
      <path id="Path_5874" data-name="Path 5874" d="M0,0H30.676V4H0Z" transform="translate(413.929 151.097) rotate(45)" fill="#f97d02"/>
      <ellipse id="Ellipse_23" data-name="Ellipse 23" cx="59.284" cy="9.098" rx="59.284" ry="9.098" transform="translate(29.63 494.854)" fill="#f5f5f5"/>
      <path id="Path_5796" data-name="Path 5796" d="M236.082,601.6l-.282,2.351-.4,3.268-.165,1.364-.4,3.276-.172,1.364-.4,3.268-4.53,37.177c-.408,3.323-5.83,5.909-12.382,5.909H193.826c-6.551,0-11.967-2.586-12.374-5.909l-4.537-37.185-.4-3.268-.165-1.364-.408-3.276-.165-1.364-.4-3.268-.282-2.351c-.227-1.881,2.7-3.464,6.41-3.464h48.211C233.378,598.138,236.317,599.721,236.082,601.6Z" transform="translate(-116.651 -155.265)" fill="#6e16c7"/>
      <path id="Path_5797" data-name="Path 5797" d="M135.342,572.5l-.392,3.276H75.282L74.89,572.5Z" transform="translate(-16.201 -123.851)" fill="#f97d02"/>
      <path id="Path_5798" data-name="Path 5798" d="M134.934,578.42l-.392,3.268H76.01l-.4-3.268Z" transform="translate(-16.357 -125.132)" fill="#f97d02"/>
      <path id="Path_5799" data-name="Path 5799" d="M134.525,584.33l-.4,3.268H76.73l-.4-3.268Z" transform="translate(-16.513 -126.411)" fill="#f97d02"/>
      <circle id="Ellipse_24" data-name="Ellipse 24" cx="24.686" cy="24.686" r="24.686" transform="translate(116.367 72.896)" fill="#5d00ad" opacity="0.1"/>
      <circle id="Ellipse_25" data-name="Ellipse 25" cx="15.282" cy="15.282" r="15.282" transform="translate(74.049 23.525)" fill="#5d00ad" opacity="0.1"/>
      <circle id="Ellipse_26" data-name="Ellipse 26" cx="9.404" cy="9.404" r="9.404" transform="translate(0 63.492)" fill="#5d00ad" opacity="0.1"/>
      <path id="Path_5758" data-name="Path 5758" d="M511.463,544.9c-5.627,14.051-11.246,61.126-11.951,66.612s-.525,27.757-.525,27.757l-1.411,54.771c-.18,6.857-5.274,24.074-5.274,24.074s-1.755,14.4-.878,19.145-2.281,17.241-2.281,17.241l1.05-.705c-8.785,13.322-22.664,3.338-22.664,3.338s-3.338-16.159.18-20.2-1.23-16.512-1.23-16.512,1.755-64.825,2.28-67.811-2.108-12.123-4.569-19.678,1.411-37.42,2.288-42.867-.353-30.218-1.23-35.312.036-12.354.036-12.354c-3.511-10.54-6.324-1.05-6.324-1.05l-1.8,13.576L454.177,611.5s.353,17.241-2.281,22.139-4.921,17.562-4.921,17.562l1.23,63.955s-.172,13.322.705,18.44-1.936,18.275-1.936,18.275c-9.835,23.173-25.634-1.951-25.634-1.951s.705-3.863,2.108-4.388-.525-10.015-1.567-11.6.172-13,.172-13-1.23-10.36-3.135-22.836-1.4-60.609-.172-63.595,2.28-16.865,2.28-16.865-1.4-7.907.353-13.534-4.216-29.333-4.216-31.974-2.28-18.973-3.511-20.728-1.23-4.921-1.23-4.921-.172-3.511-3.135-14.051c-2.179-7.7-.893-22.867-.039-30.508.306-2.829.572-4.631.572-4.631S510.577,480.949,514.6,484.64c.94.87,1.567,3.856,1.936,8.111C517.732,506.669,515.757,534.176,511.463,544.9Z" transform="translate(-167.057 -130.596)" fill="#6e16c7"/>
      <path id="Path_5762" data-name="Path 5762" d="M395.54,415.835s1.285,24.474.588,28.808c0,0,2.806,19.8,5.149,24.827s7.382,11.363,7.382,11.363l6.912-48.587L413.925,415.6Z" transform="translate(-164.343 -115.778)" fill="#efb7b9"/>
      <path id="Path_5766" data-name="Path 5766" d="M414.9,391.555v1l-.423,10.971s-14.412,1.168-22.256-.784-4.545-10.658-4.232-12.46a.29.29,0,0,0,0-.07c.227-1.646,2.351-15.344,2.351-17.57s0-11.363-.353-15.579,1.724-15.963,1.724-15.963l1.52-1.865,16.5,6.324Z" transform="translate(-162.502 -99.256)" fill="#6e16c7"/>
      <path id="Path_5767" data-name="Path 5767" d="M414.848,406.673l-.423,10.971s-14.412,1.168-22.256-.784-4.545-10.658-4.232-12.46Z" transform="translate(-162.491 -113.355)" opacity="0.1"/>
      <path id="Path_5785" data-name="Path 5785" d="M567.487,306.759s20.266-1.05,22.021-9.6-5.486-17.241-7.257-18.158-20.877-15.462-20.877-15.462l-30.8-19.67s-13.615-28.437-16.882-12.239,8.348,23.829,8.348,23.829,17.68,11.363,19.67,14.756,14.177,12.3,14.177,12.3Z" transform="matrix(0.087, 0.996, -0.996, 0.087, 616.761, -376.268)" fill="#efb7b9"/>
      <path id="Path_5786" data-name="Path 5786" d="M583.352,311.121c-4.8,12.186-11.01,16.99-11.01,16.99h-3.456l-30.383.313-3.5-9.569,4.921-20.736,3.041.125s3.636,1.873,5.854,1.873,6.567-.118,7.837.462a.964.964,0,0,0,.572.086c1.152-.118,2.351-1.842,2.351-1.842S588.156,298.943,583.352,311.121Z" transform="translate(-194.512 -90.363)" fill="#6e16c7"/>
      <path id="Path_5872" data-name="Path 5872" d="M270.843,199.952c-4.24-2.171-38.064,5.623-40.471,31.948s3.13,67.849,3.13,67.849l16.777,3.66-7.515,66.416,105.562-6.044s-.293-115.871-3.595-127.349,3.595-27.59,3.595-27.59-14.287-10.725-26.339-8.891S275.084,202.123,270.843,199.952Z" fill="#5d00ad"/>
      <path id="Path_5875" data-name="Path 5875" d="M411.01,153.775l-2.3-2.31,2.9-2.914,2.416,2.425Z" transform="translate(1 1.186)" fill="#5d00ad"/>
      <path id="Polygon_1" data-name="Polygon 1" d="M2.5,0,5,4H0Z" transform="matrix(-0.719, 0.695, -0.695, -0.719, 438.663, 175.113)" fill="#848484"/>
    </g>
    <path id="Path_5873" data-name="Path 5873" d="M-820.323,2169.594s39.509-25.593,26.117-37.341-57.637-12.561-62.881,13.64,5.847,41.033,15.653,41.825S-820.323,2169.594-820.323,2169.594Z" transform="translate(2157)" fill="#fd570a"/>
    <ellipse id="Ellipse_40" data-name="Ellipse 40" cx="3" cy="4" rx="3" ry="4" transform="translate(1438 2161)" fill="#efb7b9"/>
  </g>
</svg>
