<svg xmlns="http://www.w3.org/2000/svg" xmlns:xlink="http://www.w3.org/1999/xlink" width="917.797" height="542.173" viewBox="0 0 917.797 542.173">
  <defs>
    <linearGradient id="linear-gradient" x1="0.5" x2="0.5" y2="1" gradientUnits="objectBoundingBox">
      <stop offset="0" stop-color="#f99603"/>
      <stop offset="1" stop-color="#e65e3e"/>
    </linearGradient>
    <linearGradient id="linear-gradient-2" x1="0.5" y1="1" x2="0.5" gradientUnits="objectBoundingBox">
      <stop offset="0" stop-color="gray" stop-opacity="0.251"/>
      <stop offset="0.54" stop-color="gray" stop-opacity="0.122"/>
      <stop offset="1" stop-color="gray" stop-opacity="0.102"/>
    </linearGradient>
    <filter id="Path_5674" x="222.869" y="363.183" width="605.044" height="54.446" filterUnits="userSpaceOnUse">
      <feOffset dy="3" input="SourceAlpha"/>
      <feGaussianBlur stdDeviation="3" result="blur"/>
      <feFlood flood-opacity="0.161"/>
      <feComposite operator="in" in2="blur"/>
      <feComposite in="SourceGraphic"/>
    </filter>
    <filter id="Path_5715" x="229.256" y="137.206" width="235.932" height="307.69" filterUnits="userSpaceOnUse">
      <feOffset dy="3" input="SourceAlpha"/>
      <feGaussianBlur stdDeviation="3" result="blur-2"/>
      <feFlood flood-opacity="0.161"/>
      <feComposite operator="in" in2="blur-2"/>
      <feComposite in="SourceGraphic"/>
    </filter>
    <linearGradient id="linear-gradient-4" x1="0.5" y1="1" x2="0.5" y2="0" xlink:href="#linear-gradient-2"/>
    <filter id="Rectangle_33" x="183.189" y="224.025" width="132.282" height="246.563" filterUnits="userSpaceOnUse">
      <feOffset dy="3" input="SourceAlpha"/>
      <feGaussianBlur stdDeviation="3" result="blur-3"/>
      <feFlood flood-opacity="0.161"/>
      <feComposite operator="in" in2="blur-3"/>
      <feComposite in="SourceGraphic"/>
    </filter>
    <linearGradient id="linear-gradient-5" x1="0.5" y1="1" x2="0.5" y2="0" xlink:href="#linear-gradient-2"/>
  </defs>
  <g id="web" transform="translate(105 -1310)">
    <g id="Group_1434" data-name="Group 1434" transform="translate(-105 1310)">
      <g id="Group_1431" data-name="Group 1431" transform="translate(0 0)">
        <path id="Path_5667" data-name="Path 5667" d="M216.126,144.062c-7.14-.2-14.458,0-21.155,2.055-18.223,5.6-26.861,23.919-24.052,39.75s14.36,29.625,26.347,42.231,24.974,25.071,31.547,40.14c3.278,7.521,4.81,15.946,1.479,23.459-5.138,11.579-20.633,18.046-35.507,19.392s-29.811-1.276-44.738-2.153c-6.263-.363-12.7-.408-18.6,1.285-6.476,1.843-11.871,5.608-16.832,9.532-19.357,15.4-34.851,36.4-32.344,58.47C85.1,403.233,110.384,423,138.078,433.6c9.169,3.544,18.87,6.361,26.94,11.375,21.262,13.227,26.037,38.032,23.919,59.922s-9.329,43.808-5.315,65.5c4.722,25.239,25.62,48.042,53.81,58.691,25.115,9.488,56.547,8.859,78.845-4.527,10.87-6.538,19.091-15.619,26.24-25.009a201.758,201.758,0,0,0,26.09-45.181c3.11-7.521,6.033-15.61,13.289-20.837,4.43-3.216,10.17-5.014,15.849-6.414,17.116-4.217,35.144-5.369,52.419-9.125s34.657-10.782,44.047-23.273c13.289-17.718,7.087-40.415,7.149-61.251.106-47.538,34.648-90.088,47.4-136.429,4.164-15.14,5.714-31.893-3.588-45.4-6.317-9.169-16.974-15.787-28.172-20.9-24.637-11.242-52.64-16.247-80.183-21.12-38.28-6.768-84.763-7.645-114.432-29.545C293.908,159.06,254.955,144.062,216.126,144.062Z" transform="translate(-81.999 -144)" fill="url(#linear-gradient)"/>
        <ellipse id="Ellipse_6" data-name="Ellipse 6" cx="411.945" cy="110.313" rx="411.945" ry="110.313" transform="translate(93.907 321.548)" fill="#f5f5f5"/>
        <path id="Path_5668" data-name="Path 5668" d="M1033.443,330.86s-31.742,31.742-13.82,78.845S988.9,535.141,988.9,535.141s.523-.08,1.488-.248c65.194-11.517,97.591-86.074,61.34-141.47C1038.254,372.834,1027.189,348.7,1033.443,330.86Z" transform="translate(-185.473 -165.32)" fill="#f99603"/>
        <path id="Path_5669" data-name="Path 5669" d="M1030.921,336.414s-15.4,33.988,2.522,65.73,3.074,120.828-44.543,133.63" transform="translate(-185.473 -165.954)" fill="none" stroke="#535461" stroke-miterlimit="10" stroke-width="2"/>
        <path id="Path_5670" data-name="Path 5670" d="M1088.94,475.739s-36.224-5.767-39.52,26.692-69.65,36.96-69.65,36.96l1.24.824c54.784,35.959,107.194,22.909,99.221-24.805C1077.335,497.621,1077.574,479.787,1088.94,475.739Z" transform="translate(-184.431 -181.805)" fill="#f99603"/>
        <path id="Path_5671" data-name="Path 5671" d="M1088.94,475.739s-36.224-5.767-39.52,26.692-69.65,36.96-69.65,36.96l1.24.824c54.784,35.959,107.194,22.909,99.221-24.805C1077.335,497.621,1077.574,479.787,1088.94,475.739Z" transform="translate(-184.431 -181.805)" fill="#f5f5f5" opacity="0.2"/>
        <path id="Path_5672" data-name="Path 5672" d="M1086.712,476.152s-25.891,5.881-23.579,31.413-41.753,56.211-83.363,31.892" transform="translate(-184.431 -181.897)" fill="none" stroke="#535461" stroke-linejoin="round" stroke-miterlimit="10" stroke-width="1"/>
        <path id="Path_5673" data-name="Path 5673" d="M931.659,526.994h-56.91a18.976,18.976,0,0,0,1.984-8.478V259.336a19.056,19.056,0,0,0-19.056-19.056h-440.6a19.056,19.056,0,0,0-19.065,19.056V518.525A18.976,18.976,0,0,0,400,527H341.081a5.041,5.041,0,0,0-5.041,5.041v4.066a28.189,28.189,0,0,0,28.189,28.163H908.511a28.189,28.189,0,0,0,28.19-28.189v-4.066a5.041,5.041,0,0,0-5.041-5.023Zm-350.72,16.123-4.855-5.537H697.205l-5.4,5.546Z" transform="translate(-110.984 -154.985)" fill="url(#linear-gradient-2)"/>
        <rect id="Rectangle_29" data-name="Rectangle 29" width="467.863" height="290.567" rx="23.26" transform="translate(292.447 88.963)" fill="#fff"/>
        <rect id="Rectangle_30" data-name="Rectangle 30" width="447.177" height="237.378" transform="translate(302.289 131.318)" fill="#d8d8d8"/>
        <circle id="Ellipse_7" data-name="Ellipse 7" cx="3.942" cy="3.942" r="3.942" transform="translate(521.94 106.689)" fill="#fff"/>
        <g transform="matrix(1, 0, 0, 1, 0, 0)" filter="url(#Path_5674)">
          <path id="Path_5674-2" data-name="Path 5674" d="M706.791,560.73l-15.37,15.76H583.075l-13.882-15.76H348.656a4.926,4.926,0,0,0-4.926,4.926v3.969a27.552,27.552,0,0,0,27.552,27.552H903.222a27.552,27.552,0,0,0,27.552-27.552v-3.969a4.926,4.926,0,0,0-4.926-4.926Z" transform="translate(-111.86 -191.55)" fill="#fff"/>
        </g>
        <path id="Path_5675" data-name="Path 5675" d="M553.887,301.65H365.252a17.284,17.284,0,0,0-17.3,17.257V580.249a17.284,17.284,0,0,0,17.3,17.257H553.887a17.284,17.284,0,0,0,17.3-17.257V318.907a17.284,17.284,0,0,0-17.3-17.257Z" transform="translate(-112.343 -161.987)" fill="url(#linear-gradient-2)"/>
        <g transform="matrix(1, 0, 0, 1, 0, 0)" filter="url(#Path_5715)">
          <path id="Path_5715-2" data-name="Path 5715" d="M17.718,0h182.5a17.718,17.718,0,0,1,17.718,17.718V271.972a17.718,17.718,0,0,1-17.718,17.718H17.718A17.718,17.718,0,0,1,0,271.972V17.718A17.718,17.718,0,0,1,17.718,0Z" transform="translate(238.26 143.21)" fill="#fff"/>
        </g>
        <rect id="Rectangle_32" data-name="Rectangle 32" width="195.785" height="234.888" transform="translate(249.33 170.607)" fill="#d8d8d8"/>
        <circle id="Ellipse_8" data-name="Ellipse 8" cx="2.658" cy="2.658" r="2.658" transform="translate(343.678 153.837)" fill="#fff"/>
        <circle id="Ellipse_9" data-name="Ellipse 9" cx="7.973" cy="7.973" r="7.973" transform="translate(338.363 410.749)" fill="#fff"/>
        <path id="Path_5676" data-name="Path 5676" d="M404.4,401.65H307.544a9.577,9.577,0,0,0-9.594,9.559v212.1a9.577,9.577,0,0,0,9.594,9.559H404.4a9.577,9.577,0,0,0,9.594-9.559v-212.1a9.576,9.576,0,0,0-9.594-9.559Z" transform="translate(-106.638 -173.397)" fill="url(#linear-gradient-4)"/>
        <g transform="matrix(1, 0, 0, 1, 0, 0)" filter="url(#Rectangle_33)">
          <rect id="Rectangle_33-2" data-name="Rectangle 33" width="114.282" height="228.563" rx="11" transform="translate(192.19 230.02)" fill="#fff"/>
        </g>
        <path id="Path_5714" data-name="Path 5714" d="M0,0H97.449V186.04H0Z" transform="translate(200.605 251.287)" fill="#d8d8d8"/>
        <circle id="Ellipse_10" data-name="Ellipse 10" cx="0.886" cy="0.886" r="0.886" transform="translate(236.927 239.77)" fill="#fff"/>
        <rect id="Rectangle_35" data-name="Rectangle 35" width="19.49" height="1.772" rx="0.886" transform="translate(242.243 239.77)" fill="#fff"/>
        <circle id="Ellipse_11" data-name="Ellipse 11" cx="6.201" cy="6.201" r="6.201" transform="translate(242.686 439.984)" fill="#fff"/>
        <path id="Path_5677" data-name="Path 5677" d="M285.134,663.857s-11.747-39.866,2.206-69.224a62.979,62.979,0,0,0,5.121-39.52,105.926,105.926,0,0,0-5.59-18.542" transform="translate(-104.648 -188.791)" fill="none" stroke="#535461" stroke-miterlimit="10" stroke-width="2"/>
        <path id="Path_5678" data-name="Path 5678" d="M295.168,514.489c0,4.89-8.859,19.056-8.859,19.056s-8.859-14.174-8.859-19.056a8.859,8.859,0,0,1,17.718,0Z" transform="translate(-104.299 -185.261)" fill="#6e16c7"/>
        <path id="Path_5679" data-name="Path 5679" d="M311.709,544.386c-2.658,4.1-17.789,11.189-17.789,11.189s.275-16.708,2.932-20.81a8.859,8.859,0,1,1,14.857,9.621Z" transform="translate(-106.178 -188.084)" fill="#5d00ad"/>
        <path id="Path_5680" data-name="Path 5680" d="M310.535,596.264c-4.367,2.2-21,.682-21,.682s8.673-14.281,13.032-16.478a8.859,8.859,0,0,1,7.973,15.8Z" transform="translate(-105.677 -193.71)" fill="#6e16c7"/>
        <path id="Path_5681" data-name="Path 5681" d="M301.148,635.766c-3.933,2.906-20.588,4.217-20.588,4.217s6.13-15.539,10.064-18.445a8.859,8.859,0,0,1,10.525,14.228Z" transform="translate(-104.654 -198.315)" fill="#5d00ad"/>
        <path id="Path_5682" data-name="Path 5682" d="M272.525,557.9c3.544,3.4,19.835,6.937,19.835,6.937s-4-16.221-7.5-19.623a8.859,8.859,0,1,0-12.332,12.7Z" transform="translate(-103.396 -189.457)" fill="#6e16c7"/>
        <path id="Path_5683" data-name="Path 5683" d="M261.779,603.91c4.367,2.2,21,.682,21,.682s-8.673-14.281-13.032-16.478a8.859,8.859,0,1,0-7.973,15.8Z" transform="translate(-101.916 -194.543)" fill="#5d00ad"/>
        <path id="Path_5684" data-name="Path 5684" d="M258.031,650.366c3.933,2.906,20.588,4.217,20.588,4.217s-6.13-15.539-10.064-18.445a8.859,8.859,0,0,0-10.525,14.228Z" transform="translate(-101.712 -199.981)" fill="#6e16c7"/>
        <path id="Path_5685" data-name="Path 5685" d="M1025.125,519.8c-9.807-11.9-21.687-25.567-20.021-41.4,1.347-12.819-1.878-24.672-1.24-37.536.886-18.276-2.782-32.584-15.946-44.3-7.69-6.848-20.544-12.225-24.371-10.852-7.583,2.711-15.858,1.674-23.662,3.544-5.927,1.382-9.869,3.544-12.314,6.2-4.917,4.43-5,10.631-2.755,17.231a29.1,29.1,0,0,0,14.378,40.822c-5.466,2.286-10.188,7.548-12.031,18.232a124.637,124.637,0,0,1-5.785,21.536,35,35,0,0,1-3.544,1.426c.266.106.54.177.806.275-.576.221-1.143.443-1.772.638a18.793,18.793,0,0,0,3.234.939c-7.087,17.9-15.946,29-15.946,29s-16.522,3.65-22.945-2.737c0,0,1.045,1.223,2.463,3.056-6.281-2.6-16.593-6.857-25.408-10.356-6.4-2.543-8.035,0-7.973,3.544a11.8,11.8,0,0,0-4.43,1.488,43.108,43.108,0,0,0-5.927-3.189c-3.668-.886-15.6-7.3-27.534,14.591-6.946,12.73-24.752,35.968-38.439,53.154-26.621,12.243-61.278,27.747-74.159,31.644h-8.257c-1.081-1.772-1.834-2.888-1.834-2.888l-.638.425-.275-.425s-16.212,11.224-32.672,11.313a31.008,31.008,0,0,1-6.945-.886c-7.566-1.9-12.9-2.755-16.708-2.658-4.509-.08-7.087.992-8.646,3.012h0a7.907,7.907,0,0,0-.576.833h0a9.781,9.781,0,0,0-.478.886h0c-.142.319-.284.656-.408,1a2.055,2.055,0,0,0,.514,1.728,9.221,9.221,0,0,0,.718.886l.461.5a73.2,73.2,0,0,0,10.542,8.159c1.355.886,2.791,1.86,4.288,2.826l2.844,1.772,2.543,1.586,1.019.629,1.134.691,2.029,1.231,1.2.726,2.277,1.355,1.843,1.09c4.819,2.844,9.621,5.6,13.953,8.044l3.03,1.807.292.159,1.949,1.09,3.366,1.869,2.312,1.276,1.081.594,1.161.638.23.124,2.02,1.1a2.924,2.924,0,0,0,2.357-.638c.585-2.481,2.011-7.8,3.544-8.2s8.168-12,10.037-19.764h17.913a78.945,78.945,0,0,0,10.489-1.612c-4.624,3.3-9.2,5.369-12.766,4.483-7.53-1.869-14.662,2.72-15.379,7.247a1.164,1.164,0,0,1-.089.283c-.027.1-.044.186-.062.275s-.053.221-.071.337a1.5,1.5,0,0,0,0,.284v1.223a1.782,1.782,0,0,0,.089.363c.035.124,0,.159.062.23a4.426,4.426,0,0,0,.195.47l.044.115a4.758,4.758,0,0,0,.337.558l.142.186a3.742,3.742,0,0,0,.292.363l.2.2c.106.106.221.213.337.319l.248.2.4.292.292.195.478.284.319.168.6.284.3.133c.319.133.656.257,1.019.372.576.186,1.258.381,2.029.576l.771.186,1.125.257.594.133q1.152.248,2.445.5l1.2.221.974.177,2.241.39c1.4.239,2.861.478,4.43.709l3.862.585,5.032.718,1.116.151,1.772.248,2.6.345,1.772.23h0l4.6.585,1.435.177,2.9.354c3.809.461,7.495.886,10.888,1.267l3.925.443,1.984.221.886.089,2.374.257,1.32.142,1.63.168,2.294.239h.248l1.471.151h0a1.338,1.338,0,0,0,1.479-1.3h0v-.151a1.293,1.293,0,0,0,.213-.691,30.124,30.124,0,0,1,.824-6.485c.1-.363.213-.735.337-1.107l.142-.425c.159-.452.319-.886.505-1.373a9.856,9.856,0,0,0,.346-1.01,1.245,1.245,0,0,1,.1-.328c.035-.115.089-.363.124-.549,1.843-6.3-.381-18.046-1.019-22.661a24.6,24.6,0,0,0-1.01-4.341,1.776,1.776,0,0,0,.346,0,10.446,10.446,0,0,0,2.658-1.444c13.537-4.828,24.947-10.347,28.553-15.875a24.726,24.726,0,0,1,17.435,1.825c7.007,3.482,60.02,20.783,84.7,28.774,4.43,3.818,7.9,6.051,9.825,5.882,0,0,31.423,5.085,44.056-4.837,1.125.78,1.834,1.2,1.834,1.2s18.356-9.116,21.111-20.978c.886-3.845,1.692-9.515,2.516-15.787a22.953,22.953,0,0,0,6.662-16.132c.576-19.915,8.292-42.665,14.015-62.9,6.945.549,9.63-.762,16-3.907l-.283-.363C1024.327,520.176,1024.726,520,1025.125,519.8ZM919.888,549.632l-3.544-1.178a29.225,29.225,0,0,0,3.056-5.085Zm-19.747,8.381L921.4,570.77l.186,2.6a18.607,18.607,0,0,0,.177,5.936c-9.373-8.328-20.34-18.436-21.634-21.3Zm-8.682-18.6c-2.321-.957-4.243-1.825-5.563-2.543,1.772.124,3.455.23,4.926.31a11.025,11.025,0,0,1,.638,2.232ZM834.514,560.2s3.668-8.2,11.933,5.475c1.285,2.126,3.65,5.51,6.777,9.7l-24.061-3.216c2.835-4.394,4.74-8.478,5.351-11.951Z" transform="translate(-143.65 -171.555)" opacity="0.827" fill="url(#linear-gradient-5)"/>
        <path id="Path_5686" data-name="Path 5686" d="M916.631,543.774s-16.832-7.087-30.121-12.4-5.315,12.4-5.315,12.4,22.148,6.2,22.148,7.087,18.6,1.772,18.6,1.772Z" transform="translate(-172.913 -188.084)" fill="#f7c4a7"/>
        <path id="Path_5687" data-name="Path 5687" d="M916.631,543.774s-16.832-7.087-30.121-12.4-5.315,12.4-5.315,12.4,22.148,6.2,22.148,7.087,18.6,1.772,18.6,1.772Z" transform="translate(-172.913 -188.084)" opacity="0.05"/>
        <path id="Path_5688" data-name="Path 5688" d="M992.231,465.972s-30.121-15.946-35.436,15.06A126.588,126.588,0,0,1,934.648,533.3s-15.946,3.544-22.148-2.658c0,0,15.06,17.718,7.973,19.49,0,0,15.946,11.517,23.033,7.973s12.4-27.463,15.06-33.664S970.97,464.2,992.231,465.972Z" transform="translate(-176.756 -180.268)" fill="#575988"/>
        <path id="Path_5689" data-name="Path 5689" d="M992.231,465.972s-30.121-15.946-35.436,15.06A126.588,126.588,0,0,1,934.648,533.3s-15.946,3.544-22.148-2.658c0,0,15.06,17.718,7.973,19.49,0,0,15.946,11.517,23.033,7.973s12.4-27.463,15.06-33.664S970.97,464.2,992.231,465.972Z" transform="translate(-176.756 -180.268)" fill="#5c0aad"/>
        <path id="Path_5690" data-name="Path 5690" d="M983.5,451.518s18.6,21.262,19.49,38.98,21.262-18.6,23.034-19.49-17.718-31.007-19.49-40.752S983.5,451.518,983.5,451.518Z" transform="translate(-184.857 -176.444)" fill="#f7c4a7"/>
        <path id="Path_5691" data-name="Path 5691" d="M914.488,320.75,902.75,331.381l5.537,22.369,15.06-14.174L921.575,325.4Z" transform="translate(-103 -36.596)" fill="#f7c4a7"/>
        <path id="Path_5692" data-name="Path 5692" d="M636.876,498.5H616.5l7.973,19.49,19.49-5.315Z" transform="translate(-70.339 -56.877)" fill="#f7c4a7"/>
        <path id="Path_5693" data-name="Path 5693" d="M695.55,639.33s-21.1,14.7-39.13,10.126-22.927-2.861-25.027,3.039c-1.94,5.431,50.355,34.152,58.691,38.687a.957.957,0,0,0,1.391-.62c.567-2.41,1.94-7.574,3.411-7.973,1.914-.514,10.631-16.832,10.152-23.246S695.55,639.33,695.55,639.33Z" transform="translate(-144.677 -200.515)" opacity="0.1"/>
        <path id="Path_5694" data-name="Path 5694" d="M694.55,639.33s-21.1,14.7-39.13,10.126-22.927-2.861-25.027,3.039c-1.94,5.431,50.355,34.152,58.691,38.687a.957.957,0,0,0,1.391-.62c.567-2.41,1.94-7.574,3.411-7.973,1.914-.514,10.631-16.832,10.152-23.246S694.55,639.33,694.55,639.33Z" transform="translate(-144.563 -200.515)" fill="#f99603"/>
        <path id="Path_5695" data-name="Path 5695" d="M877.936,598.473,818.58,590.5s-96.563,46.067-108.08,46.953l2.658,20.376h17.718c7.087,0,76.188-15.06,85.933-30.121a23.724,23.724,0,0,1,16.832,1.772c8.859,4.43,93.906,31.893,93.906,31.893Z" transform="translate(-153.709 -194.944)" fill="#575988"/>
        <path id="Path_5696" data-name="Path 5696" d="M877.936,598.473,818.58,590.5s-96.563,46.067-108.08,46.953l2.658,20.376h17.718c7.087,0,76.188-15.06,85.933-30.121a23.724,23.724,0,0,1,16.832,1.772c8.859,4.43,93.906,31.893,93.906,31.893Z" transform="translate(-153.709 -194.944)" fill="#5d00ad"/>
        <path id="Path_5697" data-name="Path 5697" d="M697.245,486.5,687.5,498.9l9.745,5.315,14.174-10.631Z" transform="translate(-78.44 -55.508)" fill="#f7c4a7"/>
        <path id="Path_5698" data-name="Path 5698" d="M949.251,605.063s-31.893-27.3-34.1-32.256-54.492-38.617-58.036-39.5-15.06-7.087-26.577,14.174-54.04,72.644-54.04,72.644,13.289,18.6,17.718,17.718,54.04-42.523,57.584-62.9c0,0,3.544-7.973,11.517,5.315s59.356,77.074,69.1,76.188c0,0,38.094,6.2,46.067-8.859S949.251,605.063,949.251,605.063Z" transform="translate(-161.239 -188.245)" fill="#6e16c7"/>
        <path id="Path_5699" data-name="Path 5699" d="M987.835,467.829s-11.074,4.872-11.96,25.248S955.5,548,955.5,548l1.772,40.752s21.262,21.262,23.033,34.55,16.832,22.148,16.832,22.148,17.718-8.859,20.376-20.376,4.429-39.866,8.859-50.5,1.772-77.074,1.772-77.074l-13.289-23.034-7.087-7.973-18.6,21.262S978.976,474.03,987.835,467.829Z" transform="translate(-181.662 -180.796)" fill="#fff"/>
        <path id="Path_5700" data-name="Path 5700" d="M961.473,575.622s-2.658-31.893,5.315-38.98l15.946-45.181s5.758-21.7,4.872-23.476-20.819,17.275-20.819,17.275L953.5,532.213l3.544,49.611Z" transform="translate(-181.434 -180.952)" opacity="0.1"/>
        <path id="Path_5701" data-name="Path 5701" d="M960.473,575.566s-2.658-31.893,5.315-38.98L981.735,491.4s6.2-22.148,5.315-23.919S965.789,485.2,965.789,485.2L952.5,532.156l3.544,49.611Z" transform="translate(-181.32 -180.895)" fill="#6f00c7"/>
        <path id="Path_5702" data-name="Path 5702" d="M957.03,569.132s-44.3-14.174-46.953-17.718-31.007-26.577-40.752-10.631,36.322,20.376,36.322,20.376L952.6,589.508Z" transform="translate(-171.676 -188.637)" fill="#f7c4a7"/>
        <path id="Path_5703" data-name="Path 5703" d="M774.854,644.107l-13.111-2.357s-21.474,27.507-32.663,24.717-21.483,9.249-9.665,13.111c10.675,3.49,56.778,8.372,65.557,9.275A1.293,1.293,0,0,0,786.4,687.6a28.21,28.21,0,0,1,2.038-9.984c2.365-5.8,0-18.267-.656-23.033A22.883,22.883,0,0,0,785.2,646.6Z" transform="translate(-154.127 -200.791)" opacity="0.1"/>
        <path id="Path_5704" data-name="Path 5704" d="M774.607,645.077,761.5,642.72s-21.474,27.507-32.646,24.726-21.483,9.249-9.665,13.111c10.675,3.49,56.778,8.372,65.557,9.275a1.293,1.293,0,0,0,1.426-1.258,28.21,28.21,0,0,1,1.958-9.975c2.365-5.8,0-18.267-.656-23.033a22.884,22.884,0,0,0-2.578-7.973Z" transform="translate(-154.101 -200.902)" fill="#f99603"/>
        <ellipse id="Ellipse_12" data-name="Ellipse 12" cx="28" cy="28.5" rx="28" ry="28.5" transform="translate(777.797 228.042)" opacity="0.1"/>
        <circle id="Ellipse_13" data-name="Ellipse 13" cx="28.5" cy="28.5" r="28.5" transform="translate(773.797 228.042)" fill="#f7c4a7"/>
        <path id="Path_5705" data-name="Path 5705" d="M1014.53,465.5s33.664,11.517,33.664,35.436-18.6,62.013-19.49,93.02-49.611,26.577-49.611,26.577-7.087-104.537,0-112.51S1018.074,469.044,1014.53,465.5Z" transform="translate(-183.995 -180.682)" fill="#6e16c7"/>
        <path id="Path_5706" data-name="Path 5706" d="M1006.078,518.511s-12.4,54.926-41.637,45.181c0,0-15.06,22.148-4.43,31.893,0,0,25.691,6.2,42.523-10.631s29.235-23.034,31.893-43.409,4.429-48.725-4.43-46.067S1006.078,518.511,1006.078,518.511Z" transform="translate(-181.743 -184.082)" opacity="0.1"/>
        <path id="Path_5707" data-name="Path 5707" d="M1007.078,517.511s-12.4,54.926-41.637,45.181c0,0-15.06,22.148-4.43,31.893,0,0,25.691,6.2,42.523-10.631s29.235-23.034,31.892-43.409,4.43-48.725-4.43-46.067S1007.078,517.511,1007.078,517.511Z" transform="translate(-181.858 -183.968)" fill="#5c0aad"/>
        <path id="Path_5708" data-name="Path 5708" d="M798.351,680a.814.814,0,0,1-.08.248,25.94,25.94,0,0,0-1.391,4.686c.213-.691.461-1.4.744-2.108A12.862,12.862,0,0,0,798.351,680Z" transform="translate(-163.564 -205.156)" fill="#dddbe2"/>
        <path id="Path_5709" data-name="Path 5709" d="M719.831,681.836c-3.65-1.2-5.182-3.163-5.245-5.236-1.506,2.888-.558,6.13,4.6,7.814,10.675,3.49,56.786,8.372,65.557,9.275a1.293,1.293,0,0,0,1.426-1.267h0a1.3,1.3,0,0,0-1.161-1.32C775.386,690.075,730.364,685.273,719.831,681.836Z" transform="translate(-154.101 -204.768)" fill="#5e00ad"/>
        <path id="Path_5710" data-name="Path 5710" d="M631.619,652.188a10.921,10.921,0,0,1,.886-1.878,8.637,8.637,0,0,0-2.082,3.437c-1.94,5.431,50.355,34.151,58.691,38.687a.957.957,0,0,0,1.391-.629h0a.957.957,0,0,0-.47-1.063C680.822,685.7,629.706,657.557,631.619,652.188Z" transform="translate(-144.566 -201.768)" fill="#5e00ad"/>
        <path id="Path_5711" data-name="Path 5711" d="M703.264,686.348c-.47.124-.93.753-1.364,1.612l.142-.053c.39-.106,1.054-.886,1.86-2.038a1.721,1.721,0,0,1-.638.478Z" transform="translate(-152.727 -205.825)" fill="#dddbe2"/>
      </g>
      <circle id="Ellipse_27" data-name="Ellipse 27" cx="21.274" cy="21.274" r="21.274" transform="translate(772.472 112.807)" fill="#5d00ad" opacity="0.1"/>
      <circle id="Ellipse_28" data-name="Ellipse 28" cx="13.169" cy="13.169" r="13.169" transform="translate(736.003 70.26)" fill="#5d00ad" opacity="0.1"/>
      <circle id="Ellipse_29" data-name="Ellipse 29" cx="8.104" cy="8.104" r="8.104" transform="translate(672.189 104.702)" fill="#5d00ad" opacity="0.1"/>
    </g>
    <path id="Path_5870" data-name="Path 5870" d="M-1362.665,1593.618s-15.381-5.94-11.036-15.173,24.218-12.974,24.218-12.974,19.442-5.224,30.883,2.605,12.662,38.606,9.645,40.631-5.108-.42-9.645-5.454-5.032-5.411-8.413-3.594S-1362.665,1593.618-1362.665,1593.618Z" transform="translate(2034.327 -35.075)" fill="#fd570a"/>
  </g>
</svg>
